<svg width="16" height="16" viewBox="0 0 16 16" fill="none"
    xmlns="http://www.w3.org/2000/svg">
    <g clip-path="url(#clip0_96_479)">
        <path fill-rule="evenodd" clip-rule="evenodd" d="M15.9987 11.9397C15.9987 12.0273 15.996 12.2173 15.9908 12.364C15.9779 12.7231 15.9494 13.1865 15.9064 13.3976C15.8417 13.7149 15.744 14.0143 15.6167 14.2636C15.466 14.5584 15.2738 14.8226 15.0455 15.0505C14.8176 15.278 14.5537 15.4694 14.2593 15.6195C14.0088 15.7472 13.7074 15.8449 13.3884 15.9093C13.1793 15.9515 12.7194 15.9794 12.3627 15.9921C12.2157 15.9974 12.0257 16 11.9385 16L4.06026 15.9987C3.97265 15.9987 3.78269 15.996 3.63594 15.9908C3.27684 15.9779 2.8135 15.9494 2.60236 15.9064C2.28509 15.8417 1.98561 15.744 1.73637 15.6167C1.44151 15.466 1.17741 15.2738 0.949468 15.0455C0.721978 14.8176 0.530553 14.5538 0.380505 14.2594C0.252795 14.0088 0.155067 13.7075 0.0906564 13.3884C0.048473 13.1794 0.0205543 12.7195 0.0078529 12.3627C0.00263799 12.2158 0 12.0258 0 11.9385L0.00124572 4.06029C0.00124572 3.97269 0.00393255 3.78271 0.0091841 3.63595C0.0220809 3.27687 0.0505248 2.81351 0.093563 2.60239C0.158267 2.28512 0.255921 1.98565 0.383277 1.73639C0.533936 1.44154 0.72613 1.17743 0.954487 0.94948C1.18236 0.722002 1.44622 0.530565 1.74062 0.380505C1.99119 0.252819 2.29253 0.155104 2.61161 0.0906808C2.82061 0.048473 3.28051 0.0205543 3.63731 0.00787732C3.7842 0.00263799 3.97425 0 4.06149 0L11.9397 0.00127014C12.0273 0.00127014 12.2173 0.00394477 12.364 0.00919631C12.7231 0.0220931 13.1865 0.050537 13.3976 0.0935875C13.7149 0.158279 14.0143 0.255946 14.2636 0.38329C14.5584 0.533948 14.8225 0.726142 15.0505 0.954511C15.278 1.18237 15.4694 1.44622 15.6194 1.74064C15.7472 1.99122 15.8449 2.29253 15.9093 2.61161C15.9515 2.82062 15.9794 3.28051 15.9921 3.63732C15.9973 3.78422 16 3.97425 16 4.06152L15.9987 11.9397Z" fill="url(#paint0_linear_96_479)"/>
        <path fill-rule="evenodd" clip-rule="evenodd" d="M12.239 3.78531C11.1557 2.70118 9.71518 2.10382 8.18034 2.10321C5.01795 2.10321 2.44415 4.67604 2.44288 7.83846C2.44247 8.84934 2.70666 9.8361 3.20874 10.7059L2.39478 13.678L5.43628 12.8805C6.2743 13.3374 7.2178 13.5782 8.17806 13.5786H8.18043C11.3425 13.5786 13.9165 11.0055 13.9178 7.84302C13.9184 6.31047 13.3222 4.86941 12.239 3.78528V3.78529V3.78531ZM8.18042 12.6099H8.17846C7.32277 12.6096 6.4835 12.3798 5.75131 11.9454L5.57716 11.8421L3.77229 12.3154L4.25404 10.5563L4.14063 10.3759C3.66328 9.61689 3.41116 8.73959 3.41154 7.83884C3.41257 5.21038 5.55183 3.07191 8.18226 3.07191C9.45596 3.0724 10.6533 3.56894 11.5537 4.47002C12.454 5.37109 12.9496 6.56886 12.9491 7.84266C12.9481 10.4713 10.8088 12.6099 8.18042 12.6099Z" fill="white"/>
        <path fill-rule="evenodd" clip-rule="evenodd" d="M6.2566 10.6167C6.29698 10.6411 6.37993 10.641 6.57018 10.6409C7.37753 10.6402 8.07491 10.6377 8.57093 10.6377C10.8859 10.6377 10.825 8.20065 9.74265 7.8966C9.90117 7.61573 10.6235 7.08814 10.1768 5.9976C9.73501 4.91925 7.83533 5.16396 6.53607 5.1646C6.05533 5.16466 6.12722 5.51988 6.12968 6.07219C6.13363 6.94698 6.13039 9.3149 6.12981 10.3385C6.12968 10.546 6.1923 10.5779 6.2566 10.6167ZM7.25824 9.7236C7.47683 9.7236 7.99242 9.7236 8.43436 9.7229C8.93484 9.72212 9.38051 9.48802 9.36938 8.98979C9.36119 8.52045 9.04895 8.36642 8.61557 8.32341C8.20278 8.32737 7.73062 8.32737 7.25823 8.32737V9.7236H7.25824ZM7.25824 7.38477C8.129 7.37284 8.46491 7.41987 8.94033 7.30079C9.26697 7.11538 9.40968 6.42769 8.94216 6.19412C8.61737 6.03185 7.65758 6.08737 7.25824 6.104V7.38478V7.38477Z" fill="white"/>
    </g>
    <defs>
        <linearGradient id="paint0_linear_96_479" x1="7.99996" y1="-0.0152783" x2="7.99996" y2="15.9996" gradientUnits="userSpaceOnUse">
            <stop stop-color="#61FD7D"/>
            <stop offset="1" stop-color="#2BB826"/>
        </linearGradient>
        <clipPath id="clip0_96_479">
            <rect width="16" height="16" fill="white"/>
        </clipPath>
    </defs>
</svg>
