<svg width="11" height="9" viewBox="0 0 11 9" fill="none" xmlns="http://www.w3.org/2000/svg">
<path d="M5.3 7.6267L5.25 7.67575L5.195 7.6267C2.82 5.51281 1.25 4.11499 1.25 2.69755C1.25 1.71662 2 0.980926 3 0.980926C3.77 0.980926 4.52 1.47139 4.785 2.13842H5.715C5.98 1.47139 6.73 0.980926 7.5 0.980926C8.5 0.980926 9.25 1.71662 9.25 2.69755C9.25 4.11499 7.68 5.51281 5.3 7.6267ZM7.5 0C6.63 0 5.795 0.397275 5.25 1.02016C4.705 0.397275 3.87 0 3 0C1.46 0 0.25 1.18202 0.25 2.69755C0.25 4.54659 1.95 6.06213 4.525 8.35259L5.25 9L5.975 8.35259C8.55 6.06213 10.25 4.54659 10.25 2.69755C10.25 1.18202 9.04 0 7.5 0Z" fill="#FF499A"/>
</svg>
