<svg width="11" height="8" viewBox="0 0 11 8" fill="none" xmlns="http://www.w3.org/2000/svg">
<path d="M5.25 2.38627C4.88834 2.38627 4.54149 2.52994 4.28576 2.78567C4.03003 3.04141 3.88636 3.38825 3.88636 3.74991C3.88636 4.11157 4.03003 4.45842 4.28576 4.71415C4.54149 4.96988 4.88834 5.11355 5.25 5.11355C5.61166 5.11355 5.95851 4.96988 6.21424 4.71415C6.46997 4.45842 6.61364 4.11157 6.61364 3.74991C6.61364 3.38825 6.46997 3.04141 6.21424 2.78567C5.95851 2.52994 5.61166 2.38627 5.25 2.38627ZM5.25 6.02264C4.64724 6.02264 4.06916 5.78319 3.64294 5.35697C3.21672 4.93075 2.97727 4.35268 2.97727 3.74991C2.97727 3.14715 3.21672 2.56907 3.64294 2.14285C4.06916 1.71663 4.64724 1.47718 5.25 1.47718C5.85277 1.47718 6.43084 1.71663 6.85706 2.14285C7.28328 2.56907 7.52273 3.14715 7.52273 3.74991C7.52273 4.35268 7.28328 4.93075 6.85706 5.35697C6.43084 5.78319 5.85277 6.02264 5.25 6.02264ZM5.25 0.34082C2.97727 0.34082 1.03636 1.75446 0.25 3.74991C1.03636 5.74537 2.97727 7.159 5.25 7.159C7.52273 7.159 9.46364 5.74537 10.25 3.74991C9.46364 1.75446 7.52273 0.34082 5.25 0.34082Z" fill="#B6BCC5"/>
</svg>
