<svg width="16" height="16" viewBox="0 0 16 16" fill="none" xmlns="http://www.w3.org/2000/svg">
<path d="M15.2535 7.42621L8.316 0.488709C8.03079 0.203501 7.63767 0.041626 7.22913 0.041626H1.83329C1.42442 0.041626 1.03229 0.204051 0.74317 0.49317C0.454051 0.782288 0.291626 1.17442 0.291626 1.58329V6.97913C0.291626 7.38767 0.453501 7.78079 0.746418 8.066L1.06246 8.37434C1.75621 7.95809 2.55788 7.74996 3.37496 7.74996C4.60159 7.74996 5.77797 8.23724 6.64533 9.10459C7.51268 9.97195 7.99996 11.1483 7.99996 12.375C7.99996 13.192 7.78413 13.986 7.36788 14.6875L7.67621 14.9958C7.96142 15.2887 8.36225 15.4583 8.77079 15.4583C9.17933 15.4583 9.57246 15.2964 9.85767 15.0035L15.2535 9.60767C15.5464 9.32246 15.7083 8.92933 15.7083 8.52079C15.7083 8.11225 15.5464 7.71913 15.2535 7.42621ZM2.98954 3.89579C2.68289 3.89579 2.38879 3.77397 2.17195 3.55714C1.95511 3.3403 1.83329 3.0462 1.83329 2.73954C1.83329 2.43289 1.95511 2.13879 2.17195 1.92195C2.38879 1.70511 2.68289 1.58329 2.98954 1.58329C3.2962 1.58329 3.5903 1.70511 3.80714 1.92195C4.02397 2.13879 4.14579 2.43289 4.14579 2.73954C4.14579 3.0462 4.02397 3.3403 3.80714 3.55714C3.5903 3.77397 3.2962 3.89579 2.98954 3.89579ZM6.45829 13.1458H4.14579V15.4583H2.60413V13.1458H0.291626V11.6041H2.60413V9.29163H4.14579V11.6041H6.45829V13.1458Z" fill="#798394"/>
</svg>
