<svg width="41" height="40" viewBox="0 0 41 40" fill="none" xmlns="http://www.w3.org/2000/svg">
<rect x="0.5" width="40" height="40" rx="3.25" fill="#CCF2FF"/>
<path d="M25.4895 9.23121C25.6405 9.28135 25.7654 9.38941 25.8367 9.53164C25.9081 9.67386 25.92 9.83859 25.8699 9.98961L25.2699 11.7896C25.2196 11.9408 25.1113 12.0658 24.9689 12.1371C24.8264 12.2085 24.6614 12.2203 24.5103 12.17C24.3591 12.1197 24.2341 12.0114 24.1628 11.869C24.0914 11.7265 24.0796 11.5616 24.1299 11.4104L24.7299 9.61041C24.7548 9.53561 24.7943 9.46646 24.8459 9.40691C24.8976 9.34736 24.9605 9.29859 25.0311 9.26337C25.1016 9.22815 25.1784 9.20718 25.2571 9.20167C25.3357 9.19615 25.4147 9.20619 25.4895 9.23121ZM29.9259 11.4248C29.9816 11.369 30.0258 11.3028 30.0559 11.23C30.086 11.1571 30.1015 11.079 30.1014 11.0002C30.1014 10.9213 30.0858 10.8433 30.0555 10.7705C30.0253 10.6977 29.9811 10.6315 29.9253 10.5758C29.8695 10.5201 29.8033 10.4759 29.7304 10.4458C29.6576 10.4157 29.5795 10.4002 29.5007 10.4003C29.4218 10.4003 29.3438 10.4159 29.2709 10.4461C29.1981 10.4764 29.132 10.5206 29.0763 10.5764L26.6763 12.9764C26.567 13.0896 26.5065 13.2411 26.5079 13.3984C26.5092 13.5558 26.5723 13.7063 26.6836 13.8175C26.7948 13.9287 26.9453 13.9918 27.1026 13.9932C27.26 13.9946 27.4115 13.9341 27.5247 13.8248L29.9259 11.4248ZM17.6283 11.7752C17.7957 11.4227 18.0465 11.1163 18.3591 10.8826C18.6716 10.6489 19.0364 10.495 19.4219 10.4341C19.8073 10.3732 20.2018 10.4072 20.5712 10.5333C20.9405 10.6593 21.2736 10.8734 21.5415 11.1572L29.4459 19.5332C29.7097 19.8127 29.9025 20.1514 30.0081 20.5209C30.1137 20.8904 30.1291 21.2798 30.0529 21.6565C29.9767 22.0331 29.8111 22.386 29.5702 22.6854C29.3292 22.9847 29.0199 23.2219 28.6683 23.3768L23.9439 25.46C24.119 26.0846 24.1472 26.7412 24.0264 27.3786C23.9056 28.0159 23.6389 28.6166 23.2473 29.1337C22.8556 29.6509 22.3497 30.0704 21.769 30.3594C21.1883 30.6485 20.5486 30.7993 19.8999 30.8C19.1849 30.8004 18.4817 30.6182 17.857 30.2706C17.2322 29.923 16.7066 29.4217 16.3299 28.814L14.8899 29.4488C14.559 29.5945 14.1918 29.6372 13.8363 29.5713C13.4808 29.5054 13.1534 29.3339 12.8967 29.0792L11.4303 27.6272C11.1651 27.3646 10.9882 27.026 10.9239 26.6584C10.8596 26.2908 10.9112 25.9122 11.0715 25.5752L17.6283 11.7752ZM17.4435 28.322C17.8417 28.8906 18.4249 29.3034 19.0935 29.4902C19.762 29.677 20.4747 29.6261 21.11 29.3462C21.7453 29.0664 22.2638 28.5749 22.5773 27.9555C22.8908 27.3362 22.9798 26.6272 22.8291 25.9496L17.4435 28.322ZM28.8999 15.2C28.7407 15.2 28.5881 15.2632 28.4756 15.3757C28.3631 15.4883 28.2999 15.6409 28.2999 15.8C28.2999 15.9591 28.3631 16.1118 28.4756 16.2243C28.5881 16.3368 28.7407 16.4 28.8999 16.4H30.6999C30.859 16.4 31.0116 16.3368 31.1241 16.2243C31.2367 16.1118 31.2999 15.9591 31.2999 15.8C31.2999 15.6409 31.2367 15.4883 31.1241 15.3757C31.0116 15.2632 30.859 15.2 30.6999 15.2H28.8999Z" fill="#007AFF"/>
</svg>
