<svg width="40" height="40" viewBox="0 0 40 40" fill="none" xmlns="http://www.w3.org/2000/svg">
<path d="M10 20C10 22.5333 10.8333 24.7333 12.5 26.6C14.1667 28.4667 16.2333 29.5667 18.7 29.9C19.0667 29.9667 19.3753 29.85 19.626 29.55C19.8767 29.25 20.0013 28.9 20 28.5C20 28.1333 19.8833 27.792 19.65 27.476C19.4167 27.16 19.1167 26.968 18.75 26.9C17.1167 26.6 15.75 25.8087 14.65 24.526C13.55 23.2433 13 21.7347 13 20C13 18.0667 13.6833 16.4167 15.05 15.05C16.4167 13.6833 18.0667 13 20 13C21.9333 13 23.5833 13.6833 24.95 15.05C26.3167 16.4167 27 18.0667 27 20L27 20.15L25.55 18.75C25.25 18.4833 24.9 18.3413 24.5 18.324C24.1 18.3067 23.75 18.4487 23.45 18.75C23.15 19.05 23 19.408 23 19.824C23 20.24 23.15 20.5987 23.45 20.9L27.65 25.1C27.85 25.3 28.0833 25.4 28.35 25.4C28.6167 25.4 28.85 25.3 29.05 25.1L33.3 20.85C33.6 20.55 33.75 20.2 33.75 19.8C33.75 19.4 33.6 19.05 33.3 18.75C33 18.45 32.6413 18.3 32.224 18.3C31.8067 18.3 31.4487 18.45 31.15 18.75L30 19.85C29.9333 17.1167 28.9333 14.7913 27 12.874C25.0667 10.9567 22.7333 9.99867 20 10C17.2333 10 14.8747 10.9753 12.924 12.926C10.9733 14.8767 9.99867 17.2347 10 20ZM-8.74228e-07 20C-9.95163e-07 17.2333 0.525332 14.6333 1.576 12.2C2.62667 9.76667 4.05133 7.65 5.85 5.85C7.65 4.05 9.76666 2.62467 12.2 1.574C14.6333 0.523336 17.2333 -0.00133415 20 8.74228e-07C22.7667 7.53293e-07 25.3667 0.525334 27.8 1.576C30.2333 2.62667 32.35 4.05133 34.15 5.85C35.95 7.65 37.3747 9.76667 38.424 12.2C39.4733 14.6333 39.9987 17.2333 40 20C40 22.7667 39.4747 25.3667 38.424 27.8C37.3733 30.2333 35.9487 32.35 34.15 34.15C32.35 35.95 30.2333 37.3747 27.8 38.424C25.3667 39.4733 22.7667 39.9987 20 40C17.2333 40 14.6333 39.4747 12.2 38.424C9.76667 37.3733 7.65 35.9487 5.85 34.15C4.05 32.35 2.62467 30.2333 1.574 27.8C0.523334 25.3667 -0.0013359 22.7667 -8.74228e-07 20Z" fill="#5B677C"/>
</svg>
