<svg width="20" height="20" viewBox="0 0 20 20" fill="none" xmlns="http://www.w3.org/2000/svg">
<path d="M11.375 0.888968L19.625 9.13895C19.75 9.26395 19.8388 9.39937 19.8913 9.5452C19.9429 9.69104 19.9688 9.84729 19.9688 10.014C19.9688 10.1806 19.9429 10.3369 19.8913 10.4827C19.8388 10.6285 19.75 10.7639 19.625 10.8889L11.375 19.1389C11.1458 19.3681 10.8596 19.4881 10.5163 19.4989C10.1721 19.5089 9.87502 19.3889 9.62502 19.1389C9.37502 18.9098 9.2446 18.6235 9.23377 18.2802C9.22377 17.936 9.34377 17.6389 9.59377 17.3889L15.7188 11.2639L1.75003 11.2639C1.39587 11.2639 1.09878 11.1444 0.858784 10.9052C0.619617 10.6652 0.500034 10.3681 0.500034 10.014C0.500034 9.65979 0.619617 9.36312 0.858784 9.12395C1.09878 8.88395 1.39587 8.76395 1.75003 8.76395L15.7188 8.76395L9.59377 2.63897C9.3646 2.4098 9.2446 2.11813 9.23377 1.76397C9.22377 1.4098 9.34377 1.11814 9.59377 0.888968C9.82294 0.638969 10.1146 0.513968 10.4688 0.513968C10.8229 0.513968 11.125 0.638969 11.375 0.888968Z" fill="white"/>
</svg>
