<svg width="19" height="13" viewBox="0 0 19 13" fill="none" xmlns="http://www.w3.org/2000/svg">
<path d="M8.48343 12.6001H10.5168C11.0759 12.6001 11.5334 12.1426 11.5334 11.5835C11.5334 11.0243 11.0759 10.5668 10.5168 10.5668H8.48343C7.92426 10.5668 7.46676 11.0243 7.46676 11.5835C7.46676 12.1426 7.92426 12.6001 8.48343 12.6001ZM0.350098 1.41681C0.350098 1.97598 0.807598 2.43348 1.36676 2.43348H17.6334C18.1926 2.43348 18.6501 1.97598 18.6501 1.41681C18.6501 0.857646 18.1926 0.400146 17.6334 0.400146H1.36676C0.807598 0.400146 0.350098 0.857646 0.350098 1.41681ZM4.41676 7.51681H14.5834C15.1426 7.51681 15.6001 7.05931 15.6001 6.50015C15.6001 5.94098 15.1426 5.48348 14.5834 5.48348H4.41676C3.8576 5.48348 3.4001 5.94098 3.4001 6.50015C3.4001 7.05931 3.8576 7.51681 4.41676 7.51681Z" fill="black"/>
</svg>
