<svg width="24" height="24" viewBox="0 0 24 24" fill="none" xmlns="http://www.w3.org/2000/svg">
<path d="M6 2C4.93913 2 3.92172 2.42143 3.17157 3.17157C2.42143 3.92172 2 4.93913 2 6V12C2 13.0609 2.42143 14.0783 3.17157 14.8284C3.92172 15.5786 4.93913 16 6 16H12.17C12.4059 16.6672 12.8701 17.2296 13.4805 17.5876C14.0909 17.9457 14.8082 18.0765 15.5057 17.9568C16.2032 17.8371 16.836 17.4747 17.2921 16.9337C17.7482 16.3926 17.9984 15.7077 17.9984 15C17.9984 14.2923 17.7482 13.6074 17.2921 13.0663C16.836 12.5253 16.2032 12.1629 15.5057 12.0432C14.8082 11.9235 14.0909 12.0543 13.4805 12.4124C12.8701 12.7704 12.4059 13.3328 12.17 14H6C5.46957 14 4.96086 13.7893 4.58579 13.4142C4.21071 13.0391 4 12.5304 4 12V6C4 5.46957 4.21071 4.96086 4.58579 4.58579C4.96086 4.21071 5.46957 4 6 4H12C12.5304 4 13.0391 4.21071 13.4142 4.58579C13.7893 4.96086 14 5.46957 14 6H16C16 4.93913 15.5786 3.92172 14.8284 3.17157C14.0783 2.42143 13.0609 2 12 2H6ZM18 22C19.0609 22 20.0783 21.5786 20.8284 20.8284C21.5786 20.0783 22 19.0609 22 18V12C22 10.9391 21.5786 9.92172 20.8284 9.17157C20.0783 8.42143 19.0609 8 18 8H11.83C11.5941 7.33279 11.1299 6.77045 10.5195 6.41237C9.90911 6.05429 9.19176 5.92353 8.49427 6.0432C7.79677 6.16288 7.16404 6.52527 6.70789 7.06634C6.25175 7.60741 6.00157 8.29231 6.00157 9C6.00157 9.70769 6.25175 10.3926 6.70789 10.9337C7.16404 11.4747 7.79677 11.8371 8.49427 11.9568C9.19176 12.0765 9.90911 11.9457 10.5195 11.5876C11.1299 11.2296 11.5941 10.6672 11.83 10H18C18.5304 10 19.0391 10.2107 19.4142 10.5858C19.7893 10.9609 20 11.4696 20 12V18C20 18.5304 19.7893 19.0391 19.4142 19.4142C19.0391 19.7893 18.5304 20 18 20H12C11.4696 20 10.9609 19.7893 10.5858 19.4142C10.2107 19.0391 10 18.5304 10 18H8C8 19.0609 8.42143 20.0783 9.17157 20.8284C9.92172 21.5786 10.9391 22 12 22H18Z" fill="#3D4C65"/>
</svg>
