<svg width="41" height="40" viewBox="0 0 41 40" fill="none" xmlns="http://www.w3.org/2000/svg">
<rect x="0.5" width="40" height="40" rx="3.25" fill="#CCF2ED"/>
<path d="M27.5 14C26.6667 14 25.9583 13.7083 25.375 13.125C24.7917 12.5417 24.5 11.8333 24.5 11C24.5 10.1667 24.7917 9.45833 25.375 8.875C25.9583 8.29167 26.6667 8 27.5 8C28.3333 8 29.0417 8.29167 29.625 8.875C30.2083 9.45833 30.5 10.1667 30.5 11C30.5 11.8333 30.2083 12.5417 29.625 13.125C29.0417 13.7083 28.3333 14 27.5 14ZM10.5 30V12C10.5 11.45 10.696 10.979 11.088 10.587C11.48 10.195 11.9507 9.99933 12.5 10H22.6C22.5333 10.3333 22.5 10.6667 22.5 11C22.5 11.3333 22.5333 11.6667 22.6 12C22.6833 12.3833 22.8 12.7417 22.95 13.075C23.1 13.4083 23.2833 13.7167 23.5 14H14.5V16H27.5C28.0333 16 28.5583 15.9167 29.075 15.75C29.5917 15.5833 30.0667 15.3333 30.5 15V24C30.5 24.55 30.304 25.021 29.912 25.413C29.52 25.805 29.0493 26.0007 28.5 26H14.5L10.5 30ZM14.5 19H26.5V17H14.5V19ZM14.5 22H22.5V20H14.5V22Z" fill="#00BFA5"/>
</svg>
