<svg width="48" height="48" viewBox="0 0 48 48" fill="none" xmlns="http://www.w3.org/2000/svg">
<g clip-path="url(#clip0_2413_17873)">
<path d="M10.666 25.3337V14.667H6.66602C5.60515 14.667 4.58773 15.0884 3.83759 15.8386C3.08744 16.5887 2.66602 17.6061 2.66602 18.667V42.667C2.668 42.9146 2.7389 43.1568 2.87078 43.3664C3.00266 43.576 3.19031 43.7447 3.41268 43.8537C3.62692 43.9511 3.86313 43.9901 4.09732 43.9667C4.3315 43.9432 4.55531 43.8583 4.74602 43.7203L11.6127 38.667H29.5327C30.038 38.6819 30.5411 38.593 31.0106 38.4056C31.4802 38.2182 31.9063 37.9364 32.2625 37.5777C32.6187 37.219 32.8975 36.7909 33.0816 36.3201C33.2657 35.8492 33.3512 35.3456 33.3327 34.8403V33.3337H18.666C16.5443 33.3337 14.5095 32.4908 13.0092 30.9905C11.5089 29.4902 10.666 27.4554 10.666 25.3337Z" fill="#2263D3"/>
<path d="M41.3327 5.33301H18.666C17.6051 5.33301 16.5877 5.75444 15.8376 6.50458C15.0874 7.25473 14.666 8.27214 14.666 9.33301V25.333C14.666 26.3939 15.0874 27.4113 15.8376 28.1614C16.5877 28.9116 17.6051 29.333 18.666 29.333H36.7327L43.106 34.2797C43.2955 34.4198 43.5187 34.5071 43.7529 34.5329C43.9871 34.5587 44.224 34.5219 44.4394 34.4263C44.6662 34.3183 44.858 34.1483 44.9924 33.936C45.1269 33.7237 45.1986 33.4777 45.1994 33.2263V9.33301C45.1999 8.29484 44.7969 7.29712 44.0753 6.5507C43.3538 5.80427 42.3703 5.36761 41.3327 5.33301Z" fill="#2263D3"/>
</g>
<defs>
<clipPath id="clip0_2413_17873">
<rect width="48" height="48" fill="white"/>
</clipPath>
</defs>
</svg>
