<svg width="12" height="12" viewBox="0 0 12 12" fill="none" xmlns="http://www.w3.org/2000/svg">
<path d="M10.9489 2.46447L7.41332 6L10.9489 9.53553C11.1364 9.72307 11.2417 9.97742 11.2417 10.2426C11.2417 10.5079 11.1364 10.7622 10.9489 10.9497C10.7613 11.1373 10.507 11.2426 10.2417 11.2426C9.97653 11.2426 9.72217 11.1373 9.53464 10.9497L5.9991 7.41421L2.46357 10.9497C2.27603 11.1373 2.02168 11.2426 1.75646 11.2426C1.49125 11.2426 1.23689 11.1373 1.04936 10.9497C0.86182 10.7622 0.756464 10.5079 0.756464 10.2426C0.756464 9.97742 0.86182 9.72307 1.04936 9.53553L4.58489 6L1.04936 2.46447C0.86182 2.27693 0.756464 2.02258 0.756463 1.75736C0.756463 1.49214 0.86182 1.23779 1.04936 1.05025C1.23689 0.862716 1.49125 0.757359 1.75646 0.757359C2.02168 0.757359 2.27603 0.862716 2.46357 1.05025L5.9991 4.58579L9.53464 1.05025C9.72217 0.862716 9.97653 0.757359 10.2417 0.757359C10.507 0.757359 10.7613 0.862716 10.9489 1.05025C11.1364 1.23779 11.2417 1.49214 11.2417 1.75736C11.2417 2.02258 11.1364 2.27693 10.9489 2.46447Z" fill="#3D4C65"/>
</svg>
