<svg height="10" viewBox="0 0 18.2 11" fill="none" xmlns="http://www.w3.org/2000/svg">
  <path fill-rule="evenodd" clip-rule="evenodd" d="M18.1758 5.18555C18.1758 7.9707 15.8711 10.2715 13.0859 10.2715C10.3047 10.2715 8 7.9707 8 5.18555C8 2.40039 10.3008 0.0996094 13.082 0.0996094C15.8672 0.0996094 18.1758 2.40039 18.1758 5.18555ZM12.6133 7.5332C12.7383 7.68164 12.8516 7.74023 12.9961 7.74023C13.1445 7.74023 13.2656 7.67383 13.3594 7.5293L15.9883 3.41602C16.043 3.33008 16.0938 3.22461 16.0938 3.13086C16.0938 2.92383 15.9102 2.79492 15.7227 2.79492C15.6055 2.79492 15.4922 2.86133 15.4102 2.99414L12.9805 6.85742L11.6875 5.23633C11.5859 5.10742 11.4805 5.06055 11.3555 5.06055C11.1641 5.06055 11 5.21289 11 5.41992C11 5.51758 11.0391 5.62305 11.1094 5.70508L12.6133 7.5332Z" fill="#54656f"></path>
  <path fill-rule="evenodd" clip-rule="evenodd" d="M8.75576 0.926518C7.95661 0.404445 7.00597 0.0996094 5.99219 0.0996094C3.21094 0.0996094 0.910156 2.40039 0.910156 5.18555C0.910156 7.9707 3.21484 10.2715 5.99609 10.2715C7.00967 10.2715 7.95961 9.96677 8.758 9.44489C7.75031 8.42148 7.09728 7.04775 7.01 5.5334L5.73438 7.5293C5.64062 7.67383 5.51953 7.74023 5.37109 7.74023C5.22656 7.74023 5.11328 7.68164 4.98828 7.5332L3.48438 5.70508C3.41406 5.62305 3.375 5.51758 3.375 5.41992C3.375 5.21289 3.53906 5.06055 3.73047 5.06055C3.85547 5.06055 3.96094 5.10742 4.0625 5.23633L5.35547 6.85742L7.1021 4.08022C7.32858 2.86768 7.91988 1.77637 8.75576 0.926518Z" fill="#54656f"></path>
</svg>

