<svg height="10" viewBox="0 0 13.5 11" fill="none" xmlns="http://www.w3.org/2000/svg">
<path fill-rule="evenodd" clip-rule="evenodd" d="M12.6758 5.18555C12.6758 7.9707 10.3711 10.2715 7.58594 10.2715C4.80469 10.2715 2.5 7.9707 2.5 5.18555C2.5 2.40039 4.80078 0.0996094 7.58203 0.0996094C10.3672 0.0996094 12.6758 2.40039 12.6758 5.18555ZM7.11328 7.5332C7.23828 7.68164 7.35156 7.74023 7.49609 7.74023C7.64453 7.74023 7.76562 7.67383 7.85938 7.5293L10.4883 3.41602C10.543 3.33008 10.5938 3.22461 10.5938 3.13086C10.5938 2.92383 10.4102 2.79492 10.2227 2.79492C10.1055 2.79492 9.99219 2.86133 9.91016 2.99414L7.48047 6.85742L6.1875 5.23633C6.08594 5.10742 5.98047 5.06055 5.85547 5.06055C5.66406 5.06055 5.5 5.21289 5.5 5.41992C5.5 5.51758 5.53906 5.62305 5.60938 5.70508L7.11328 7.5332Z" 
fill="#54656f">
</path></svg>
