<svg width="41" height="40" viewBox="0 0 41 40" fill="none" xmlns="http://www.w3.org/2000/svg">
<path d="M17.7 23.6L13.35 19.25C12.9833 18.8833 12.5333 18.7 12 18.7C11.4667 18.7 11 18.9 10.6 19.3C10.2333 19.6667 10.05 20.1333 10.05 20.7C10.05 21.2667 10.2333 21.7333 10.6 22.1L16.3 27.8C16.6667 28.1667 17.1333 28.35 17.7 28.35C18.2667 28.35 18.7333 28.1667 19.1 27.8L30.45 16.45C30.8167 16.0833 31 15.6333 31 15.1C31 14.5667 30.8 14.1 30.4 13.7C30.0333 13.3333 29.5667 13.15 29 13.15C28.4333 13.15 27.9667 13.3333 27.6 13.7L17.7 23.6ZM20.5 40C17.7333 40 15.1333 39.4747 12.7 38.424C10.2667 37.3733 8.15 35.9487 6.35 34.15C4.55 32.35 3.12533 30.2333 2.076 27.8C1.02667 25.3667 0.501333 22.7667 0.5 20C0.5 17.2333 1.02533 14.6333 2.076 12.2C3.12667 9.76667 4.55133 7.65 6.35 5.85C8.15 4.05 10.2667 2.62533 12.7 1.576C15.1333 0.526667 17.7333 0.00133333 20.5 0C23.2667 0 25.8667 0.525334 28.3 1.576C30.7333 2.62667 32.85 4.05133 34.65 5.85C36.45 7.65 37.8753 9.76667 38.926 12.2C39.9767 14.6333 40.5013 17.2333 40.5 20C40.5 22.7667 39.9747 25.3667 38.924 27.8C37.8733 30.2333 36.4487 32.35 34.65 34.15C32.85 35.95 30.7333 37.3753 28.3 38.426C25.8667 39.4767 23.2667 40.0013 20.5 40Z" fill="#2C8996"/>
</svg>
