<svg width="24" height="24" viewBox="0 0 24 24" fill="none" xmlns="http://www.w3.org/2000/svg">
<path d="M17 11V8H14V6H17V3H19V6H22V8H19V11H17ZM11 19C11.9 19 12.7377 18.821 13.513 18.463C14.2883 18.105 14.9507 17.609 15.5 16.975C13.4 16.8417 11.625 16.0123 10.175 14.487C8.725 12.9617 8 11.1327 8 9C8 8.78333 8.00833 8.57067 8.025 8.362C8.04167 8.15333 8.06667 7.94933 8.1 7.75C7.16667 8.26667 6.41667 8.98767 5.85 9.913C5.28333 10.8383 5 11.8673 5 13C5 14.6667 5.58333 16.0833 6.75 17.25C7.91667 18.4167 9.33333 19 11 19ZM11 21C8.76667 21 6.875 20.225 5.325 18.675C3.775 17.125 3 15.2333 3 13C3 10.7667 3.775 8.875 5.325 7.325C6.875 5.775 8.76667 5 11 5C11.0833 5 11.1667 5.004 11.25 5.012C11.3333 5.02 11.4167 5.02433 11.5 5.025C11.0167 5.55833 10.6457 6.16233 10.387 6.837C10.1283 7.51167 9.99933 8.23267 10 9C10 10.6667 10.5833 12.0833 11.75 13.25C12.9167 14.4167 14.3333 15 16 15C16.5333 15 17.0417 14.9333 17.525 14.8C18.0083 14.6667 18.4667 14.4833 18.9 14.25C18.6 16.1667 17.7123 17.771 16.237 19.063C14.7617 20.355 13.016 21.0007 11 21Z" fill="#3D4C65"/>
</svg>
