<svg width="13" height="8" viewBox="0 0 13 8" fill="none" xmlns="http://www.w3.org/2000/svg">
<path d="M6.50005 7.47505C6.36672 7.47505 6.23772 7.45005 6.11305 7.40005C5.98772 7.35005 5.88338 7.28338 5.80005 7.20005L1.20005 2.60005C1.01672 2.41672 0.925049 2.18338 0.925049 1.90005C0.925049 1.61671 1.01672 1.38338 1.20005 1.20005C1.38338 1.01672 1.61672 0.925049 1.90005 0.925049C2.18338 0.925049 2.41672 1.01672 2.60005 1.20005L6.50005 5.10005L10.4 1.20005C10.5834 1.01672 10.8167 0.925049 11.1 0.925049C11.3834 0.925049 11.6167 1.01672 11.8 1.20005C11.9834 1.38338 12.075 1.61671 12.075 1.90005C12.075 2.18338 11.9834 2.41672 11.8 2.60005L7.20005 7.20005C7.10005 7.30005 6.99172 7.37072 6.87505 7.41205C6.75838 7.45405 6.63338 7.47505 6.50005 7.47505Z" fill="black"/>
</svg>
