<svg width="15" height="15" viewBox="0 0 15 15" fill="none" xmlns="http://www.w3.org/2000/svg">
<path d="M2.10417 12.5885H3.18333L9.83177 5.9401L8.7526 4.86094L2.10417 11.5094V12.5885ZM13.1271 4.8224L9.85104 1.5849L10.9302 0.505729C11.2257 0.210243 11.5888 0.0625 12.0194 0.0625C12.45 0.0625 12.8128 0.210243 13.1078 0.505729L14.187 1.5849C14.4825 1.88038 14.6366 2.23702 14.6495 2.65481C14.6623 3.0726 14.521 3.42899 14.2255 3.72396L13.1271 4.8224ZM12.0094 5.95937L3.83854 14.1302H0.5625V10.8542L8.73333 2.68333L12.0094 5.95937ZM9.29219 5.40052L8.7526 4.86094L9.83177 5.9401L9.29219 5.40052Z" fill="#798394"/>
</svg>
