<svg width="25" height="25" viewBox="0 0 25 25" fill="none" xmlns="http://www.w3.org/2000/svg">
<rect width="25" height="25" rx="6.5" fill="#F2F3F5"/>
<path d="M7.10417 18.0885H8.18333L14.8318 11.4401L13.7526 10.3609L7.10417 17.0094V18.0885ZM18.1271 10.3224L14.851 7.0849L15.9302 6.00573C16.2257 5.71024 16.5888 5.5625 17.0194 5.5625C17.45 5.5625 17.8128 5.71024 18.1078 6.00573L19.187 7.0849C19.4825 7.38038 19.6366 7.73702 19.6495 8.15481C19.6623 8.5726 19.521 8.92899 19.2255 9.22396L18.1271 10.3224ZM17.0094 11.4594L8.83854 19.6302H5.5625V16.3542L13.7333 8.18333L17.0094 11.4594ZM14.2922 10.9005L13.7526 10.3609L14.8318 11.4401L14.2922 10.9005Z" fill="#798394"/>
</svg>
