<svg width="73" height="73" viewBox="0 0 73 73" fill="none" xmlns="http://www.w3.org/2000/svg">
<rect width="73" height="73" rx="3.25" fill="#B6BCC5"/>
<g clip-path="url(#clip0_44_15250)">
<path d="M58.286 15.5146L15.5157 14.7135C14.7055 14.6983 13.9224 15.0056 13.3387 15.5678C12.7551 16.13 12.4186 16.901 12.4035 17.7113L11.7168 54.3715C11.7016 55.1817 12.0089 55.9648 12.5711 56.5485C13.1333 57.1322 13.9043 57.4686 14.7145 57.4838L57.4848 58.2849C58.2951 58.3001 59.0782 57.9928 59.6618 57.4306C60.2455 56.8684 60.5819 56.0974 60.5971 55.2871L61.2838 18.6269C61.299 17.8166 60.9916 17.0336 60.4295 16.4499C59.8673 15.8662 59.0962 15.5298 58.286 15.5146ZM22.9166 20.9643C23.8229 20.9813 24.7039 21.2666 25.4481 21.7843C26.1922 22.3019 26.7662 23.0286 27.0973 23.8725C27.4285 24.7163 27.502 25.6394 27.3085 26.525C27.115 27.4106 26.6633 28.219 26.0104 28.8479C25.3575 29.4767 24.5328 29.8979 23.6406 30.058C22.7484 30.2182 21.8287 30.1102 20.9978 29.7477C20.167 29.3852 19.4623 28.7844 18.9728 28.0214C18.4834 27.2583 18.2313 26.3673 18.2482 25.461C18.271 24.2456 18.7756 23.0891 19.6511 22.2458C20.5266 21.4025 21.7012 20.9415 22.9166 20.9643ZM17.9126 49.9034L18.0299 43.6406L27.369 34.5251C27.6605 34.2459 28.0506 34.0935 28.4542 34.101C28.8577 34.1086 29.2419 34.2755 29.5228 34.5654L33.4066 38.5041L21.4565 49.9698L17.9126 49.9034ZM54.5729 50.5901L25.7793 50.0508L35.474 40.7127L43.877 32.6186C44.1685 32.3395 44.5587 32.187 44.9622 32.1946C45.3658 32.2022 45.7499 32.3691 46.0308 32.659L54.7394 41.7L54.5729 50.5901Z" fill="#F2F3F5"/>
</g>
<defs>
<clipPath id="clip0_44_15250">
<rect width="55" height="55" fill="white" transform="translate(9 9)"/>
</clipPath>
</defs>
</svg>
