<svg width="20" height="20" viewBox="0 0 20 20" fill="none" xmlns="http://www.w3.org/2000/svg">
<path d="M9.87499 0.916016C4.72299 0.916016 0.541656 5.09735 0.541656 10.2493C0.541656 15.4013 4.72299 19.5827 9.87499 19.5827C15.027 19.5827 19.2083 15.4013 19.2083 10.2493C19.2083 5.09735 15.027 0.916016 9.87499 0.916016ZM8.00832 13.9827C7.49499 13.9827 7.07499 13.5627 7.07499 13.0493V7.44935C7.07499 6.93602 7.49499 6.51602 8.00832 6.51602C8.52166 6.51602 8.94166 6.93602 8.94166 7.44935V13.0493C8.94166 13.5627 8.52166 13.9827 8.00832 13.9827ZM11.7417 13.9827C11.2283 13.9827 10.8083 13.5627 10.8083 13.0493V7.44935C10.8083 6.93602 11.2283 6.51602 11.7417 6.51602C12.255 6.51602 12.675 6.93602 12.675 7.44935V13.0493C12.675 13.5627 12.255 13.9827 11.7417 13.9827Z" fill="#C07824"/>
</svg>
