<svg width="235" height="235" viewBox="0 0 235 235" fill="none" xmlns="http://www.w3.org/2000/svg">
    <rect width="235" height="235" rx="3.25" fill="#B6BCC5" />
    <g transform="translate(35, 35) scale(0.33)">
        <path d="M448 432V80c0-26.5-21.5-48-48-48H48C21.5 32 0 53.5 0 80v352c0 26.5 21.5 48 48 48h352c26.5 0 48-21.5 48-48zM112 192c-8.84 0-16-7.16-16-16v-32c0-8.84 7.16-16 16-16h128c8.84 0 16 7.16 16 16v32c0 8.84-7.16 16-16 16H112zm0 96c-8.84 0-16-7.16-16-16v-32c0-8.84 7.16-16 16-16h224c8.84 0 16 7.16 16 16v32c0 8.84-7.16 16-16 16H112zm0 96c-8.84 0-16-7.16-16-16v-32c0-8.84 7.16-16 16-16h64c8.84 0 16 7.16 16 16v32c0 8.84-7.16 16-16 16h-64z" fill="#F2F3F5" />
    </g>
</svg>
