<svg width="235" height="235" viewBox="0 0 235 235" fill="none" xmlns="http://www.w3.org/2000/svg">
<rect width="235" height="235" rx="3.25" fill="#B6BCC5"/>
<g clip-path="url(#clip0_65_40111)">
<path d="M187.634 49.944L49.9489 47.3649C47.3406 47.316 44.8197 48.3053 42.9408 50.1151C41.0619 51.9249 39.9789 54.407 39.93 57.0153L37.7194 175.031C37.6705 177.639 38.6598 180.16 40.4696 182.039C42.2794 183.918 44.7615 185.001 47.3698 185.05L185.055 187.629C187.663 187.678 190.184 186.689 192.063 184.879C193.942 183.069 195.025 180.587 195.074 177.979L197.284 59.9629C197.333 57.3545 196.344 54.8337 194.534 52.9547C192.724 51.0758 190.242 49.9928 187.634 49.944ZM73.7737 67.4874C76.6914 67.542 79.5273 68.4606 81.9229 70.1271C84.3185 71.7935 86.1661 74.1328 87.2322 76.8493C88.2982 79.5658 88.5348 82.5374 87.912 85.3883C87.2892 88.2393 85.835 90.8415 83.7332 92.866C81.6315 94.8904 78.9766 96.2462 76.1043 96.7618C73.2321 97.2774 70.2714 96.9297 67.5967 95.7627C64.9221 94.5956 62.6536 92.6617 61.078 90.2054C59.5025 87.749 58.6907 84.8807 58.7454 81.963C58.8187 78.0506 60.4432 74.3274 63.2616 71.6127C66.0799 68.898 69.8612 67.4141 73.7737 67.4874ZM57.665 160.648L58.0427 140.487L88.1067 111.142C89.0451 110.243 90.3011 109.753 91.6002 109.777C92.8992 109.801 94.1359 110.339 95.0401 111.272L107.543 123.951L69.0732 160.861L57.665 160.648ZM175.681 162.858L82.9892 161.122L114.198 131.061L141.249 105.005C142.187 104.106 143.443 103.615 144.742 103.64C146.042 103.664 147.278 104.201 148.182 105.135L176.217 134.239L175.681 162.858Z" fill="#F2F3F5"/>
</g>
<defs>
<clipPath id="clip0_65_40111">
<rect width="177.055" height="177.055" fill="white" transform="translate(28.9727 28.9727)"/>
</clipPath>
</defs>
</svg>
