<svg width="17" height="17" viewBox="0 0 17 17" fill="none" xmlns="http://www.w3.org/2000/svg">
<path d="M14.9801 16.2463L9.75347 11.0196C9.2868 11.3929 8.75014 11.6885 8.14347 11.9063C7.5368 12.1241 6.89125 12.2329 6.2068 12.2329C4.51125 12.2329 3.0764 11.6456 1.90227 10.4708C0.728137 9.29605 0.140759 7.86121 0.140137 6.16628C0.140137 4.47072 0.727515 3.03588 1.90227 1.86174C3.07703 0.687609 4.51187 0.100232 6.2068 0.0996094C7.90236 0.0996094 9.3372 0.686987 10.5113 1.86174C11.6855 3.0365 12.2728 4.47134 12.2735 6.16628C12.2735 6.85072 12.1646 7.49628 11.9468 8.10294C11.729 8.70961 11.4335 9.24628 11.0601 9.71294L16.3101 14.9629C16.4812 15.1341 16.5668 15.3441 16.5668 15.5929C16.5668 15.8418 16.4735 16.0596 16.2868 16.2463C16.1157 16.4174 15.8979 16.5029 15.6335 16.5029C15.369 16.5029 15.1512 16.4174 14.9801 16.2463ZM6.2068 10.3663C7.37347 10.3663 8.36529 9.95779 9.18227 9.14081C9.99925 8.32383 10.4074 7.33232 10.4068 6.16628C10.4068 4.99961 9.99832 4.00779 9.18134 3.19081C8.36436 2.37383 7.37285 1.96565 6.2068 1.96628C5.04014 1.96628 4.04831 2.37477 3.23134 3.19174C2.41436 4.00872 2.00618 5.00023 2.0068 6.16628C2.0068 7.33294 2.41529 8.32476 3.23227 9.14174C4.04925 9.95872 5.04076 10.3669 6.2068 10.3663Z" fill="#3D4C65"/>
</svg>
