<svg width="24" height="24" viewBox="0 0 24 24" fill="none" xmlns="http://www.w3.org/2000/svg">
<path d="M8.72588 11.6998C8.72588 11.5664 8.75088 11.4371 8.80088 11.3118C8.85088 11.1864 8.91755 11.0824 9.00088 10.9998L13.6009 6.39976C13.7842 6.21642 14.0175 6.12476 14.3009 6.12476C14.5842 6.12476 14.8175 6.21642 15.0009 6.39976C15.1842 6.58309 15.2759 6.81642 15.2759 7.09976C15.2759 7.38309 15.1842 7.61642 15.0009 7.79976L11.1009 11.6998L15.0009 15.5998C15.1842 15.7831 15.2759 16.0164 15.2759 16.2998C15.2759 16.5831 15.1842 16.8164 15.0009 16.9998C14.8175 17.1831 14.5842 17.2748 14.3009 17.2748C14.0175 17.2748 13.7842 17.1831 13.6009 16.9998L9.00088 12.3998C8.90088 12.2998 8.82988 12.1914 8.78788 12.0748C8.74588 11.9581 8.72521 11.8331 8.72588 11.6998Z" fill="#3D4C65"/>
</svg>
