<svg width="41" height="40" viewBox="0 0 41 40" fill="none" xmlns="http://www.w3.org/2000/svg">
<path fill-rule="evenodd" clip-rule="evenodd" d="M0.5 20C0.5 8.96 9.46 0 20.5 0C31.54 0 40.5 8.96 40.5 20C40.5 31.04 31.54 40 20.5 40C9.46 40 0.5 31.04 0.5 20ZM13.0165 27.7962C13.3608 28.0264 13.7243 28.0616 14.1069 27.9017L31.7826 20.1093C32.2609 19.8895 32.5 19.5199 32.5 19.0004C32.5 18.4809 32.2609 18.1113 31.7826 17.8915L14.1069 10.099C13.7243 9.9384 13.3608 9.97317 13.0165 10.2033C12.6722 10.4335 12.5 10.7684 12.5 11.208V15.6736C12.5 15.9534 12.5765 16.2031 12.7296 16.4229C12.8826 16.6427 13.093 16.7825 13.3608 16.8425L21.6822 19.0004L13.3608 21.1583C13.093 21.2182 12.8826 21.3581 12.7296 21.5779C12.5765 21.7977 12.5 22.0474 12.5 22.3272V26.7928C12.5 27.2316 12.6722 27.5661 13.0165 27.7962Z" fill="#2263D3"/>
</svg>
