<svg width="260" height="260" viewBox="0 0 260 260" fill="none" xmlns="http://www.w3.org/2000/svg">
<g clip-path="url(#clip0_82_49094)">
<path d="M16 215.365V120.31C16.0049 116.456 17.5378 112.762 20.2627 110.037C22.9876 107.312 26.6819 105.779 30.5355 105.774H171.423C175.277 105.779 178.971 107.312 181.696 110.037C184.421 112.762 185.954 116.456 185.959 120.31V215.365C185.949 219.215 184.414 222.904 181.689 225.624C178.965 228.344 175.273 229.873 171.423 229.876H30.5355C26.6857 229.873 22.9943 228.344 20.2697 225.624C17.5452 222.904 16.0098 219.215 16 215.365ZM30.5355 110.175C27.8486 110.178 25.2728 111.247 23.3729 113.147C21.473 115.047 20.4043 117.623 20.4011 120.31V215.365C20.4043 218.052 21.473 220.628 23.3729 222.528C25.2728 224.428 27.8486 225.496 30.5355 225.5H171.423C174.11 225.496 176.686 224.428 178.586 222.528C180.486 220.628 181.555 218.052 181.558 215.365V120.31C181.555 117.623 180.486 115.047 178.586 113.147C176.686 111.247 174.11 110.178 171.423 110.175H30.5355Z" fill="#001334"/>
<path d="M40.4219 237.246V245.465C40.4268 249.319 41.9597 253.013 44.6846 255.738C47.4095 258.463 51.1041 259.996 54.9577 260.001H219.561C223.415 259.996 227.109 258.463 229.834 255.738C232.559 253.013 234.092 249.319 234.097 245.465V237.246H40.4219Z" fill="#001334"/>
<path d="M173.233 249.953H140.753C140.397 249.97 140.042 249.915 139.709 249.791C139.375 249.667 139.07 249.476 138.812 249.231C138.555 248.985 138.35 248.69 138.21 248.363C138.069 248.036 137.997 247.684 137.997 247.328C137.997 246.972 138.069 246.62 138.21 246.293C138.35 245.966 138.555 245.67 138.812 245.425C139.07 245.179 139.375 244.989 139.709 244.865C140.042 244.741 140.397 244.686 140.753 244.703H173.233C173.908 244.736 174.543 245.026 175.009 245.515C175.474 246.004 175.734 246.653 175.734 247.328C175.734 248.003 175.474 248.652 175.009 249.141C174.543 249.629 173.908 249.92 173.233 249.953Z" fill="white"/>
<path d="M136.995 151.563H96.7725C93.5788 151.561 90.5162 150.292 88.2579 148.033C85.9996 145.775 84.7302 142.713 84.7285 139.519V107.286C84.7285 106.673 84.972 106.085 85.4056 105.651C85.8392 105.218 86.4274 104.974 87.0406 104.974C87.6538 104.974 88.242 105.218 88.6756 105.651C89.1092 106.085 89.3526 106.673 89.3526 107.286V139.519C89.3526 141.492 90.1363 143.384 91.5312 144.779C92.9262 146.173 94.8182 146.957 96.7909 146.957H137.014C138.986 146.957 140.878 146.173 142.273 144.779C143.668 143.384 144.452 141.492 144.452 139.519V107.286C144.483 106.693 144.74 106.134 145.171 105.725C145.602 105.316 146.173 105.088 146.767 105.088C147.361 105.088 147.933 105.316 148.363 105.725C148.794 106.134 149.051 106.693 149.082 107.286V139.519C149.081 141.104 148.767 142.673 148.158 144.136C147.55 145.599 146.658 146.928 145.536 148.047C144.413 149.166 143.081 150.052 141.615 150.655C140.15 151.258 138.58 151.567 136.995 151.563Z" fill="#001334"/>
<path d="M55.9177 93.6495C60.2568 89.9737 88.9686 72.1775 97.4483 56.2038C107.509 31.1491 135.322 7.42086 136.45 6.70802L136.76 6.41669L136.797 6.49107C137.411 6.11527 138.044 5.77182 138.694 5.46211C157.048 -3.21592 184.483 14.4934 199.967 45.0587C215.451 75.6239 213.282 107.838 194.76 116.163C188.09 119.157 164.846 130.419 128.695 116.423C118.09 111.929 72.4803 121.847 69.4802 122.851C53.2585 128.306 38.6175 108.384 55.9177 93.6495Z" fill="#007AFF"/>
<path d="M202.868 43.5893C196.446 30.9008 187.892 20.0347 178.135 12.1377C168.379 4.24069 158.195 0.000852274 148.897 0.000852274C144.897 -0.0310108 140.941 0.830923 137.318 2.52368C136.822 2.75923 136.32 3.01957 135.799 3.31091C135.335 3.46158 134.911 3.71595 134.559 4.05474L134.361 4.24069C128.526 9.15376 123.038 14.4641 117.935 20.1339C110.248 28.5516 99.9588 41.3888 94.535 54.846C88.0265 66.9146 68.5877 80.6445 59.203 87.2522C56.643 89.0622 54.7959 90.3515 53.8165 91.1945C45.9753 97.8704 43.0558 106.635 46.0002 114.644C47.3775 118.295 49.8369 121.438 53.0492 123.654C56.2616 125.869 60.0738 127.051 63.9761 127.041C66.2028 127.036 68.4138 126.668 70.5218 125.95C72.4868 125.33 103.275 118.512 119.838 118.512C124.592 118.512 126.656 119.082 127.437 119.417L127.53 119.454C139.661 124.165 151.599 126.551 163.017 126.551C174.271 126.618 185.397 124.163 195.578 119.367L196.099 119.132C202.843 116.1 207.926 110.193 210.808 102.048C216.3 86.5022 213.257 64.1067 202.868 43.5893ZM194.766 116.162C184.859 120.91 174.003 123.349 163.017 123.297C153.428 123.297 141.942 121.555 128.702 116.423C126.762 115.598 123.65 115.257 119.838 115.257C102.829 115.257 71.9351 122.033 69.4867 122.851C67.7114 123.452 65.8504 123.762 63.9761 123.768C50.3082 123.768 40.6198 106.672 55.9179 93.6492C60.2569 89.9734 88.9688 72.1772 97.4485 56.2035C107.509 31.1488 135.322 7.42057 136.45 6.70773L136.76 6.4164L136.797 6.49078C137.411 6.11498 138.044 5.77153 138.694 5.46182C141.888 3.97442 145.374 3.22043 148.897 3.25511C166.16 3.25511 187.167 19.7558 199.985 45.0584C215.451 75.6299 213.282 107.838 194.766 116.162Z" fill="#001334"/>
<path d="M137.12 74.8117C151.792 103.865 177.181 121.035 193.812 113.169C210.443 105.303 212.036 75.3572 197.358 46.3292C182.68 17.3012 157.303 0.112523 140.666 7.97853C124.028 15.8445 122.46 45.7775 137.12 74.8117Z" fill="#007AFF"/>
<path d="M197.376 46.3297C185.115 22.0498 165.367 6.06985 149.504 6.06985C146.458 6.03972 143.445 6.69207 140.684 7.97901C124.047 15.845 122.46 45.7904 137.138 74.8122C149.399 99.0983 169.154 115.103 185.016 115.103C188.06 115.13 191.071 114.478 193.831 113.194C210.468 105.284 212.054 75.3763 197.376 46.3297ZM192.417 110.231C190.087 111.308 187.546 111.853 184.979 111.824C177.981 111.824 169.737 108.173 161.771 101.547C153.285 94.4927 145.76 84.7424 140.002 73.3493C130.822 55.1751 127.884 35.8107 132.347 22.8184C134.336 17.0227 137.597 13.0185 142.041 10.9171C144.372 9.84045 146.913 9.29627 149.48 9.32411C156.478 9.32411 164.716 12.9689 172.681 19.5952C181.167 26.6492 188.692 36.4058 194.444 47.7988C203.63 65.973 206.569 85.3312 202.112 98.3297C200.147 104.119 196.88 108.123 192.436 110.243L192.417 110.231Z" fill="#001334"/>
<path d="M55.8135 101.615L110.708 61.479L111.898 67.1259L55.8135 101.615Z" fill="white"/>
<path d="M151.072 93.4322C146.357 87.7027 142.294 81.4656 138.96 74.8364C135.452 67.9549 132.767 60.6832 130.964 53.1724C142.072 50.5752 150.8 48.0771 152.188 47.5936C172.959 40.5458 190.179 63.9641 167.48 82.1508C165.379 83.8244 158.944 87.9279 151.072 93.4322Z" fill="white"/>
<path d="M151.072 95.0626C150.835 95.0613 150.601 95.0079 150.387 94.9061C150.173 94.8043 149.983 94.6567 149.832 94.4737C145.032 88.6384 140.898 82.2846 137.51 75.5308C133.938 68.5352 131.21 61.1401 129.383 53.501C129.334 53.2934 129.325 53.078 129.359 52.8673C129.393 52.6565 129.469 52.4546 129.581 52.2731C129.694 52.0916 129.841 51.9341 130.014 51.8097C130.188 51.6854 130.384 51.5966 130.592 51.5484C142.053 48.8645 150.527 46.4098 151.667 46.0193C154.261 45.128 156.983 44.6653 159.726 44.6494C168.478 44.6494 176.158 49.7756 178.836 57.4123C181.873 66.0593 178.005 75.7725 168.497 83.3906C167.3 84.3514 164.895 85.9754 161.566 88.2193C158.895 90.0169 155.572 92.2546 152.002 94.7526C151.73 94.9478 151.406 95.0559 151.072 95.0626ZM132.935 54.3564C134.707 61.1819 137.213 67.7952 140.411 74.0803C143.469 80.1612 147.145 85.9108 151.382 91.238C154.481 89.0747 157.376 87.1346 159.744 85.5415C162.887 83.4216 165.366 81.748 166.457 80.874C178.544 71.1856 176.995 62.0055 175.755 58.5095C173.536 52.1745 167.077 47.9223 159.719 47.9223C157.331 47.9353 154.96 48.3394 152.703 49.1186C151.215 49.6331 143.057 51.9762 132.935 54.3564Z" fill="#001334"/>
<path d="M159.23 64.5841C161.294 69.8653 165.515 73.1692 168.658 71.9667C171.807 70.7579 172.687 65.5015 170.629 60.2203C168.565 54.9391 164.344 51.6291 161.201 52.8378C158.052 54.0466 157.172 59.3029 159.23 64.5841Z" fill="#001334"/>
<path d="M84.0728 187.62C83.8246 187.604 83.5846 187.525 83.3745 187.392C83.1644 187.259 82.991 187.075 82.8703 186.858C82.5443 186.318 82.3967 185.689 82.4487 185.06C82.4487 185.06 82.4489 184.787 82.5047 184.279C82.5047 184.019 82.548 183.703 82.5728 183.331C82.5976 182.959 82.6533 182.531 82.7029 182.054C82.9848 179.39 83.4321 176.746 84.0419 174.138C84.9091 170.438 86.0975 166.821 87.5937 163.328C88.4181 161.425 89.3415 159.491 90.3767 157.606C91.4119 155.722 92.5463 153.887 93.755 152.077C96.078 148.65 98.6798 145.42 101.534 142.42C103.95 139.892 106.519 137.516 109.227 135.304C111.564 133.395 113.566 131.932 114.998 130.965C115.71 130.469 116.275 130.091 116.659 129.837L117.279 129.44L117.582 129.267L117.96 129.025C119.505 127.992 121.377 127.566 123.217 127.828C124.008 127.935 124.764 128.224 125.424 128.672C126.085 129.121 126.632 129.717 127.023 130.413C127.406 131.134 127.618 131.934 127.643 132.75L127.792 132.67C129.322 131.807 131.131 131.584 132.825 132.05C133.573 132.255 134.266 132.624 134.855 133.13C135.443 133.636 135.912 134.266 136.228 134.975C136.695 136.063 136.82 137.267 136.587 138.428C136.373 139.564 135.862 140.622 135.106 141.496C135.9 142.042 136.54 142.783 136.965 143.647C137.518 144.753 137.734 145.997 137.585 147.224C137.457 148.365 136.996 149.443 136.259 150.323C136.985 150.856 137.586 151.541 138.019 152.331C138.746 153.632 139.027 155.134 138.819 156.609C138.746 157.243 138.54 157.855 138.214 158.404C137.889 158.953 137.45 159.427 136.928 159.795C136.928 159.795 136.451 160.105 135.75 160.594C135.05 161.084 134.139 161.741 133.271 162.454C132.403 163.167 131.548 163.848 130.928 164.388L130.197 165.045L129.924 165.299C129.861 165.355 129.792 165.405 129.719 165.448L129.484 165.665L128.864 166.285C128.325 166.824 127.562 167.599 126.725 168.553C125.792 169.61 124.917 170.717 124.103 171.869C123.224 173.132 122.429 174.451 121.723 175.818C121.055 177.134 120.483 178.497 120.012 179.897C119.61 181.114 119.289 182.356 119.052 183.616C118.841 184.719 118.735 185.661 118.667 186.325C118.624 186.653 118.624 186.944 118.605 187.099C118.587 187.254 118.605 187.378 118.605 187.378C118.605 187.998 117.781 188.537 116.82 188.519L84.0728 187.62Z" fill="white"/>
<path d="M140.504 154.656C140.59 155.379 140.58 156.111 140.473 156.832C140.36 157.7 140.065 158.534 139.609 159.282C139.154 160.029 138.546 160.673 137.826 161.171C137.795 161.171 137.343 161.493 136.68 161.952C136.209 162.28 135.26 162.95 134.268 163.731C133.518 164.307 132.694 164.971 131.994 165.59L131.033 166.464C130.933 166.56 130.825 166.647 130.711 166.725L129.985 167.419C129.446 167.958 128.746 168.69 127.934 169.588C127.052 170.602 126.225 171.662 125.454 172.762C124.623 173.951 123.871 175.193 123.204 176.481C122.572 177.724 122.032 179.01 121.586 180.331C121.216 181.468 120.916 182.628 120.687 183.802C120.495 184.8 120.396 185.661 120.322 186.374C120.322 186.529 120.321 186.678 120.284 186.814C120.247 186.951 120.284 187.013 120.284 187.087V187.335C120.179 188.922 118.623 190.124 116.733 190.093L84.0909 189.281C83.5586 189.259 83.0402 189.105 82.5825 188.832C82.1247 188.559 81.7421 188.177 81.469 187.719C80.9468 186.862 80.7042 185.863 80.7746 184.862L80.9048 183.126C80.9048 182.841 80.9605 182.506 80.9977 182.209L81.041 181.8C81.3248 179.062 81.7845 176.346 82.4172 173.667C83.3013 169.866 84.521 166.151 86.0619 162.565C86.9669 160.47 87.9217 158.493 88.9197 156.695C89.9734 154.774 91.1385 152.865 92.3782 151.03C94.7367 147.554 97.3781 144.278 100.275 141.236C102.731 138.658 105.343 136.233 108.098 133.978C110.038 132.391 112.015 130.878 113.98 129.527C114.712 129.025 115.282 128.634 115.679 128.374L116.299 127.984C116.425 127.9 116.555 127.824 116.689 127.754L116.993 127.556C118.904 126.295 121.21 125.777 123.477 126.099C124.529 126.251 125.531 126.644 126.406 127.248C127.281 127.851 128.006 128.648 128.522 129.577C128.658 129.827 128.778 130.086 128.882 130.351C130.323 129.948 131.848 129.948 133.289 130.351C134.279 130.63 135.196 131.123 135.974 131.796C136.751 132.468 137.371 133.304 137.789 134.244C138.394 135.652 138.563 137.209 138.273 138.713C138.107 139.582 137.806 140.418 137.38 141.193C137.825 141.691 138.201 142.248 138.496 142.848C139.195 144.26 139.464 145.846 139.271 147.41C139.163 148.317 138.896 149.198 138.484 150.013C138.872 150.456 139.211 150.941 139.494 151.458C140.039 152.446 140.382 153.534 140.504 154.656ZM128.727 163.911L128.962 163.687L129.7 163.03C130.146 162.64 131.045 161.865 132.13 161.022C133.215 160.179 134.194 159.485 134.696 159.131C135.39 158.654 135.868 158.338 135.936 158.307C136.249 158.069 136.511 157.769 136.704 157.426C136.897 157.082 137.017 156.703 137.058 156.311C137.112 155.9 137.112 155.483 137.058 155.071C136.979 154.396 136.768 153.744 136.438 153.15C136.133 152.585 135.71 152.092 135.198 151.706L133.667 150.596L134.907 149.17C135.421 148.554 135.74 147.799 135.824 147.001C135.934 146.111 135.784 145.209 135.39 144.404C135.099 143.807 134.656 143.296 134.107 142.922L132.483 141.819L133.773 140.344C134.328 139.703 134.702 138.926 134.857 138.093C135.024 137.278 134.94 136.431 134.616 135.664C134.402 135.188 134.086 134.765 133.689 134.426C133.292 134.087 132.825 133.841 132.322 133.705C131.068 133.371 129.732 133.542 128.603 134.182L125.975 135.633L125.882 132.8C125.868 132.252 125.725 131.715 125.467 131.232C125.204 130.769 124.836 130.375 124.394 130.08C123.952 129.785 123.446 129.598 122.919 129.533C121.502 129.342 120.064 129.677 118.877 130.475L118.419 130.773L118.326 130.816L118.202 130.891L117.619 131.275C117.241 131.523 116.689 131.895 115.989 132.385C114.098 133.699 112.189 135.143 110.323 136.668C107.68 138.831 105.175 141.158 102.823 143.635C100.029 146.56 97.4847 149.713 95.2172 153.063C94.0395 154.811 92.9299 156.627 91.9257 158.462C90.9836 160.167 90.0662 162.039 89.2108 164.041C87.7523 167.445 86.5971 170.971 85.7583 174.578C85.1604 177.116 84.7233 179.69 84.4502 182.283L84.4133 182.692C84.3761 182.996 84.345 183.269 84.3264 183.517L84.2023 185.228C84.1831 185.471 84.2303 185.715 84.3388 185.934L116.77 186.74H116.819C116.819 186.579 116.819 186.362 116.875 186.12C116.931 185.544 117.043 184.49 117.278 183.275C117.531 181.948 117.87 180.64 118.295 179.357C118.793 177.869 119.398 176.419 120.105 175.018C120.836 173.58 121.665 172.192 122.584 170.865C123.433 169.656 124.35 168.495 125.33 167.388C126.192 166.409 126.966 165.615 127.543 165.039L128.615 164.022L128.727 163.911Z" fill="#001334"/>
<path d="M132.08 131.938C132.11 132.202 132.059 132.468 131.934 132.702C131.809 132.935 131.615 133.125 131.379 133.246L130.604 133.643C130.158 133.872 129.464 134.263 128.627 134.697C126.804 135.695 124.685 136.971 122.8 138.211C120.916 139.451 118.926 140.877 117.259 142.191C116.577 142.724 115.951 143.226 115.498 143.604L114.829 144.168C114.563 144.389 114.221 144.496 113.877 144.464C113.533 144.433 113.215 144.266 112.994 144.001C112.773 143.735 112.666 143.393 112.698 143.049C112.729 142.704 112.896 142.387 113.161 142.166L113.831 141.608C114.302 141.217 114.947 140.691 115.653 140.139C117.377 138.788 119.459 137.288 121.375 136.035C123.29 134.783 125.496 133.444 127.375 132.415C128.23 131.944 128.949 131.566 129.414 131.331L130.195 130.928C130.504 130.773 130.861 130.747 131.189 130.853C131.517 130.96 131.79 131.192 131.949 131.498C132.016 131.637 132.06 131.785 132.08 131.938Z" fill="#001334"/>
<path d="M136.295 140.616C136.325 140.88 136.274 141.146 136.149 141.38C136.024 141.613 135.831 141.803 135.594 141.924L134.863 142.302C134.441 142.525 133.859 142.829 133.183 143.207C131.559 144.094 129.687 145.228 128.044 146.307C126.402 147.385 124.648 148.65 123.185 149.803C122.565 150.298 122.019 150.726 121.654 151.042L121.034 151.532C120.903 151.642 120.752 151.725 120.589 151.777C120.426 151.828 120.255 151.846 120.085 151.831C119.915 151.815 119.749 151.766 119.598 151.686C119.447 151.606 119.314 151.497 119.205 151.365C119.093 151.232 119.007 151.079 118.955 150.913C118.902 150.747 118.883 150.573 118.899 150.4C118.914 150.227 118.964 150.058 119.046 149.905C119.127 149.751 119.238 149.615 119.373 149.505L119.955 149.022C120.34 148.699 120.891 148.253 121.548 147.738C123.073 146.542 124.908 145.222 126.594 144.112C128.28 143.003 130.227 141.825 131.9 140.908C132.601 140.517 133.196 140.207 133.63 139.978L134.386 139.593C134.572 139.505 134.776 139.461 134.982 139.466C135.188 139.471 135.39 139.525 135.571 139.623C135.752 139.721 135.908 139.86 136.025 140.029C136.142 140.199 136.217 140.394 136.245 140.598L136.295 140.616Z" fill="#001334"/>
<path d="M137.231 149.914C137.264 150.169 137.219 150.427 137.103 150.655C136.987 150.884 136.805 151.073 136.58 151.197C136.58 151.197 135.892 151.588 134.907 152.183C133.748 152.889 132.427 153.739 131.336 154.513C130.245 155.288 128.975 156.224 127.952 157.049C127.066 157.755 126.495 158.251 126.489 158.257C126.36 158.37 126.21 158.456 126.048 158.51C125.886 158.564 125.715 158.586 125.544 158.575C125.373 158.563 125.206 158.517 125.053 158.441C124.9 158.365 124.763 158.259 124.651 158.13C124.539 158.001 124.453 157.851 124.399 157.689C124.344 157.527 124.322 157.356 124.334 157.185C124.346 157.014 124.391 156.848 124.467 156.695C124.544 156.541 124.649 156.405 124.778 156.292C124.778 156.292 125.398 155.759 126.322 155.016C127.388 154.16 128.671 153.199 129.842 152.375C131.014 151.551 132.322 150.695 133.562 149.958C134.584 149.338 135.279 148.947 135.303 148.935C135.452 148.85 135.616 148.795 135.785 148.774C135.955 148.752 136.127 148.765 136.292 148.81C136.457 148.856 136.611 148.934 136.746 149.039C136.88 149.144 136.993 149.275 137.076 149.424C137.163 149.575 137.216 149.742 137.231 149.914Z" fill="#001334"/>
<path d="M79.4732 177.002C79.4732 177.002 79.3245 177.622 79.058 178.738C78.7914 179.853 78.438 181.335 78.0661 183.151C77.2913 186.783 76.3429 191.624 75.5867 196.602C75.4069 197.842 75.2148 199.081 75.0413 200.321C74.9607 200.941 74.8864 201.561 74.8058 202.181C74.7252 202.8 74.6444 203.42 74.5824 204.04C74.4523 205.28 74.316 206.427 74.2168 207.567C74.1176 208.708 74.037 209.805 73.9502 210.809C73.8634 211.813 73.845 212.799 73.8016 213.642C73.8016 214.063 73.7642 214.46 73.7456 214.826C73.727 215.191 73.7456 215.563 73.7456 215.879C73.7456 217.119 73.7456 217.875 73.7456 217.875L117.173 217.987C117.173 217.987 117.173 217.584 117.173 216.871C117.173 216.698 117.173 216.499 117.173 216.282C117.173 216.065 117.173 215.805 117.217 215.545C117.217 215.012 117.272 214.41 117.303 213.753C117.489 211.057 117.923 207.22 118.543 203.253C119.163 199.286 119.95 195.251 120.595 192.244C120.911 190.744 121.214 189.511 121.394 188.655L121.704 187.372L79.4732 177.002Z" fill="#007AFF"/>
<path d="M117.513 220.274C117.356 220.302 117.196 220.315 117.036 220.311C116.732 220.306 116.432 220.242 116.154 220.121C115.875 220 115.623 219.826 115.412 219.608C115.2 219.39 115.034 219.132 114.923 218.85C114.811 218.567 114.756 218.266 114.761 217.962V216.27C114.758 216.239 114.758 216.208 114.761 216.177L114.891 213.642C115.096 210.641 115.554 206.643 116.131 202.943C116.856 198.275 117.736 193.961 118.201 191.785C118.424 190.744 118.629 189.833 118.821 189.095L81.1396 179.797C80.8792 180.919 80.6004 182.171 80.2842 183.628C79.7388 186.194 78.685 191.333 77.8048 196.943C77.749 197.333 77.6931 197.724 77.6311 198.114C77.5071 198.951 77.3832 199.819 77.2655 200.662L77.03 202.521C77.03 202.713 76.9803 202.918 76.9555 203.141C76.8997 203.544 76.8502 203.922 76.813 204.3C76.7758 204.678 76.7323 205.081 76.6889 205.459C76.6021 206.271 76.5217 207.046 76.4474 207.803L76.1931 211.001L75.9885 214.943L75.9389 217.95C75.934 218.253 75.8695 218.553 75.7488 218.832C75.6281 219.11 75.4536 219.362 75.2355 219.574C75.0173 219.785 74.7597 219.951 74.4773 220.063C74.1949 220.174 73.8932 220.229 73.5896 220.225C73.286 220.22 72.9863 220.155 72.7076 220.034C72.429 219.914 72.177 219.739 71.9658 219.521C71.7545 219.303 71.5884 219.045 71.4767 218.763C71.365 218.48 71.3099 218.179 71.3148 217.875L71.3644 214.826V214.757L71.575 210.722V210.66L71.8417 207.418C71.9161 206.612 72.0028 205.819 72.0896 204.976C72.133 204.61 72.1703 204.232 72.2137 203.854C72.2571 203.476 72.3127 202.986 72.3623 202.565C72.3623 202.373 72.4181 202.18 72.4367 201.982L72.6786 200.122C72.8025 199.236 72.9326 198.356 73.0566 197.5C73.1124 197.116 73.1745 196.726 73.2303 196.335C74.0733 190.893 75.0898 185.946 75.753 182.754C76.1188 181.031 76.4473 179.593 76.7449 178.303L77.1662 176.543C77.2381 176.247 77.3678 175.968 77.5475 175.722C77.7273 175.477 77.9538 175.269 78.214 175.11C78.4742 174.952 78.7629 174.846 79.0639 174.8C79.3649 174.753 79.6721 174.766 79.968 174.838L122.118 185.221C122.713 185.366 123.226 185.742 123.545 186.265C123.863 186.788 123.961 187.415 123.817 188.01L123.507 189.294C123.321 190.093 123.036 191.32 122.72 192.827C122.267 194.94 121.399 199.155 120.693 203.711C120.135 207.282 119.689 211.15 119.496 213.989L119.366 216.468V218.136C119.337 218.647 119.139 219.134 118.804 219.52C118.469 219.907 118.015 220.172 117.513 220.274Z" fill="#007AFF"/>
<path d="M94.8762 211.107H94.8018C94.5298 211.088 94.2764 210.961 94.0975 210.756C93.9185 210.55 93.8284 210.282 93.8472 210.01C93.8967 209.39 95.0001 194.377 97.9135 186.393C98.0072 186.137 98.1989 185.928 98.4465 185.813C98.6941 185.698 98.9772 185.686 99.2337 185.779C99.4902 185.873 99.6988 186.065 99.8139 186.312C99.929 186.56 99.9412 186.843 99.8475 187.1C97.0271 194.811 95.9113 210.003 95.8989 210.158C95.8787 210.416 95.7622 210.657 95.5727 210.832C95.3832 211.008 95.1346 211.106 94.8762 211.107Z" fill="#001334"/>
<path d="M80.564 212.321C80.33 212.372 80.0858 212.338 79.874 212.227C79.6621 212.115 79.4963 211.933 79.4048 211.712C79.3134 211.491 79.3022 211.245 79.3737 211.016C79.4451 210.788 79.5944 210.592 79.7956 210.462C84.4569 207.226 90.9531 204.883 99.0981 203.482C102.681 202.853 106.304 202.476 109.939 202.354C110.212 202.35 110.476 202.455 110.671 202.645C110.867 202.835 110.98 203.095 110.984 203.368C110.988 203.64 110.884 203.904 110.693 204.1C110.503 204.296 110.243 204.408 109.97 204.412C109.791 204.412 91.5172 204.827 80.9672 212.148C80.8474 212.235 80.7096 212.294 80.564 212.321Z" fill="#001334"/>
<path d="M110.28 200.309C110.088 200.347 109.889 200.325 109.709 200.247C109.554 200.185 94.2131 194.005 81.4316 197.247C81.176 197.291 80.9129 197.237 80.6953 197.096C80.4776 196.955 80.3214 196.736 80.2579 196.485C80.1944 196.233 80.2281 195.967 80.3526 195.739C80.4772 195.511 80.6834 195.339 80.9295 195.257C94.4053 191.842 109.84 198.077 110.491 198.356C110.694 198.442 110.864 198.592 110.976 198.782C111.088 198.973 111.136 199.194 111.113 199.414C111.089 199.634 110.995 199.84 110.845 200.002C110.695 200.164 110.497 200.274 110.28 200.315V200.309Z" fill="#001334"/>
<path d="M226.269 201.027L217.746 195.052C217.527 194.898 217.266 194.815 216.999 194.815C216.731 194.815 216.47 194.898 216.252 195.052L208.479 200.501L200.706 195.052C200.487 194.898 200.226 194.815 199.959 194.815C199.691 194.815 199.43 194.898 199.212 195.052L191.433 200.501L183.66 195.052C183.441 194.898 183.18 194.815 182.913 194.815C182.645 194.815 182.384 194.898 182.166 195.052L174.393 200.501L166.62 195.052C166.4 194.898 166.138 194.816 165.87 194.816C165.601 194.816 165.339 194.898 165.12 195.052L157.347 200.501L149.574 195.052C149.355 194.898 149.094 194.815 148.827 194.815C148.559 194.815 148.298 194.898 148.08 195.052L139.557 201.027C139.417 201.126 139.297 201.25 139.205 201.394C139.114 201.539 139.051 201.699 139.022 201.868C138.962 202.208 139.039 202.558 139.237 202.84C139.436 203.123 139.738 203.316 140.078 203.376C140.418 203.435 140.768 203.358 141.05 203.16L148.83 197.705L156.603 203.16C156.822 203.311 157.083 203.393 157.35 203.393C157.616 203.393 157.877 203.311 158.097 203.16L165.87 197.705L173.643 203.16C173.862 203.311 174.123 203.393 174.39 203.393C174.657 203.393 174.917 203.311 175.137 203.16L182.916 197.705L190.689 203.16C190.908 203.311 191.169 203.393 191.436 203.393C191.703 203.393 191.963 203.311 192.183 203.16L199.956 197.705L207.729 203.16C207.95 203.311 208.211 203.392 208.479 203.392C208.747 203.392 209.008 203.311 209.229 203.16L217.002 197.705L224.775 203.16C225.058 203.358 225.407 203.435 225.747 203.376C226.088 203.316 226.39 203.123 226.588 202.84C226.786 202.558 226.864 202.208 226.804 201.868C226.744 201.528 226.551 201.226 226.269 201.027Z" fill="#007AFF"/>
<path d="M216.463 2.4681C216.328 2.36178 216.174 2.28317 216.009 2.23681C215.844 2.19045 215.672 2.17726 215.502 2.19802C215.332 2.21877 215.168 2.27305 215.019 2.35771C214.87 2.44237 214.739 2.55574 214.634 2.69125L200.861 20.2581C200.755 20.3924 200.676 20.5465 200.63 20.7114C200.583 20.8764 200.57 21.0488 200.591 21.2189C200.611 21.389 200.666 21.5532 200.75 21.7022C200.835 21.8511 200.948 21.9818 201.084 22.0866L201.27 22.2106C201.54 22.353 201.852 22.3963 202.151 22.3329C202.45 22.2695 202.717 22.1034 202.906 21.8635L216.686 4.29668C216.897 4.02408 216.993 3.67894 216.951 3.33644C216.909 2.99393 216.733 2.68183 216.463 2.4681Z" fill="#001334"/>
<path d="M243.283 69.1466C243.307 68.9773 243.298 68.8048 243.256 68.639C243.214 68.4731 243.139 68.3173 243.037 68.1802C242.934 68.0432 242.806 67.9278 242.659 67.8404C242.512 67.7531 242.349 67.6957 242.18 67.6714L220.075 64.5287C219.773 64.4872 219.466 64.5533 219.207 64.7153C218.949 64.8774 218.755 65.1251 218.661 65.4152C218.566 65.7053 218.577 66.0194 218.69 66.3026C218.804 66.5859 219.013 66.8202 219.282 66.9647C219.416 67.0352 219.56 67.0834 219.71 67.1073L241.814 70.25C241.983 70.2753 242.155 70.2668 242.321 70.2249C242.487 70.183 242.642 70.1085 242.779 70.0059C242.916 69.9032 243.031 69.7743 243.117 69.6268C243.204 69.4793 243.26 69.3161 243.283 69.1466Z" fill="#001334"/>
<path d="M238.813 32.2154C238.75 32.0566 238.656 31.9119 238.536 31.7896C238.417 31.6672 238.274 31.5696 238.117 31.5022C237.96 31.4349 237.791 31.3991 237.62 31.3971C237.449 31.395 237.28 31.4266 237.121 31.4901L216.405 39.821C216.085 39.9501 215.829 40.2012 215.693 40.5191C215.558 40.8371 215.554 41.1958 215.683 41.5164C215.812 41.8369 216.063 42.0931 216.381 42.2285C216.699 42.3639 217.058 42.3675 217.378 42.2385L238.094 33.9076C238.253 33.8442 238.397 33.75 238.52 33.6305C238.642 33.5109 238.739 33.3684 238.806 33.2112C238.873 33.0539 238.908 32.8849 238.909 32.714C238.91 32.5431 238.878 32.3736 238.813 32.2154Z" fill="#001334"/>
<path d="M65.0052 147.497H33.6031C32.9899 147.497 32.4017 147.253 31.9681 146.82C31.5345 146.386 31.291 145.798 31.291 145.185C31.291 144.571 31.5345 143.983 31.9681 143.55C32.4017 143.116 32.9899 142.873 33.6031 142.873H64.9989C65.6121 142.873 66.2003 143.116 66.6339 143.55C67.0675 143.983 67.3109 144.571 67.3109 145.185C67.3109 145.798 67.0675 146.386 66.6339 146.82C66.2003 147.253 65.6121 147.497 64.9989 147.497H65.0052Z" fill="#001334"/>
<path d="M65.0052 160.984H33.6031C32.9899 160.984 32.4017 160.741 31.9681 160.307C31.5345 159.874 31.291 159.286 31.291 158.672C31.291 158.059 31.5345 157.471 31.9681 157.038C32.4017 156.604 32.9899 156.36 33.6031 156.36H64.9989C65.6121 156.36 66.2003 156.604 66.6339 157.038C67.0675 157.471 67.3109 158.059 67.3109 158.672C67.3109 159.286 67.0675 159.874 66.6339 160.307C66.2003 160.741 65.6121 160.984 64.9989 160.984H65.0052Z" fill="#001334"/>
<path d="M65.0052 174.473H33.6031C32.9899 174.473 32.4017 174.229 31.9681 173.796C31.5345 173.362 31.291 172.774 31.291 172.161C31.291 171.548 31.5345 170.959 31.9681 170.526C32.4017 170.092 32.9899 169.849 33.6031 169.849H64.9989C65.6121 169.849 66.2003 170.092 66.6339 170.526C67.0675 170.959 67.3109 171.548 67.3109 172.161C67.3109 172.774 67.0675 173.362 66.6339 173.796C66.2003 174.229 65.6121 174.473 64.9989 174.473H65.0052Z" fill="#001334"/>
</g>
<defs>
<clipPath id="clip0_82_49094">
<rect width="260" height="260" fill="white"/>
</clipPath>
</defs>
</svg>
