<svg width="73" height="73" viewBox="0 0 73 73" fill="none" xmlns="http://www.w3.org/2000/svg">
<rect width="73" height="73" rx="3.25" fill="#B6BCC5"/>
<path d="M23.0625 20.375C23.0625 18.9495 23.6288 17.5823 24.6368 16.5743C25.6448 15.5663 27.012 15 28.4375 15H44.5625C45.988 15 47.3552 15.5663 48.3632 16.5743C49.3712 17.5823 49.9375 18.9495 49.9375 20.375V52.625C49.9375 54.0505 49.3712 55.4177 48.3632 56.4257C47.3552 57.4337 45.988 58 44.5625 58H28.4375C27.012 58 25.6448 57.4337 24.6368 56.4257C23.6288 55.4177 23.0625 54.0505 23.0625 52.625V20.375ZM39.1875 49.9375C39.1875 49.2247 38.9044 48.5412 38.4003 48.0372C37.8963 47.5331 37.2128 47.25 36.5 47.25C35.7872 47.25 35.1037 47.5331 34.5997 48.0372C34.0956 48.5412 33.8125 49.2247 33.8125 49.9375C33.8125 50.6503 34.0956 51.3338 34.5997 51.8378C35.1037 52.3419 35.7872 52.625 36.5 52.625C37.2128 52.625 37.8963 52.3419 38.4003 51.8378C38.9044 51.3338 39.1875 50.6503 39.1875 49.9375Z" fill="#F2F3F5"/>
</svg>
