<svg width="24" height="24" viewBox="0 0 24 24" fill="none" xmlns="http://www.w3.org/2000/svg">
<g clip-path="url(#clip0_2024_21152)">
<path d="M21.287 12.8003L11.5537 3.06699C11.431 2.9418 11.2848 2.84203 11.1235 2.7734C10.9622 2.70476 10.7889 2.6686 10.6137 2.66699H4.00033C3.6467 2.66699 3.30756 2.80747 3.05752 3.05752C2.80747 3.30756 2.66699 3.6467 2.66699 4.00033V10.6137C2.66848 10.9667 2.80993 11.3048 3.06033 11.5537L12.7937 21.287C12.9175 21.411 13.0645 21.5093 13.2264 21.5764C13.3883 21.6435 13.5618 21.678 13.737 21.678C13.9122 21.678 14.0857 21.6435 14.2476 21.5764C14.4094 21.5093 14.5565 21.411 14.6803 21.287L21.2803 14.687C21.4047 14.5636 21.5036 14.4169 21.5713 14.2553C21.6389 14.0936 21.6741 13.9203 21.6747 13.745C21.6753 13.5698 21.6414 13.3962 21.5749 13.2341C21.5084 13.072 21.4105 12.9246 21.287 12.8003ZM6.43366 7.54033C6.21478 7.54033 6.00082 7.47542 5.81883 7.35382C5.63684 7.23222 5.49499 7.05938 5.41123 6.85716C5.32747 6.65495 5.30556 6.43243 5.34826 6.21776C5.39096 6.00309 5.49636 5.8059 5.65113 5.65113C5.8059 5.49636 6.00309 5.39096 6.21776 5.34826C6.43243 5.30556 6.65495 5.32747 6.85716 5.41123C7.05938 5.49499 7.23222 5.63684 7.35382 5.81883C7.47542 6.00082 7.54033 6.21478 7.54033 6.43366C7.54033 6.72716 7.42373 7.00865 7.21619 7.21619C7.00865 7.42373 6.72716 7.54033 6.43366 7.54033Z" fill="#3D4C65"/>
</g>
<defs>
<clipPath id="clip0_2024_21152">
<rect width="24" height="24" fill="white"/>
</clipPath>
</defs>
</svg>
