<svg width="420" height="103" viewBox="0 0 420 103" fill="none" xmlns="http://www.w3.org/2000/svg">
<path fill-rule="evenodd" clip-rule="evenodd" d="M109.42 24.96L126.55 54.38C127.49 56 127.49 57.84 126.55 59.45L109.42 88.87C108.48 90.49 106.85 91.39 104.99 91.39H102.33C96.3 91.62 95.64 95.76 95.64 98.36V102.92C95.47 103.74 87.09 98.1 83.49 94.1C81.92 92.37 80.52 91.49 76.86 91.38H70.71C68.85 91.38 67.22 90.47 66.28 88.86L49.15 59.44C48.21 57.82 48.21 55.98 49.15 54.37L66.28 24.95C67.22 23.33 68.85 22.4 70.71 22.4H104.99C106.84 22.41 108.47 23.34 109.42 24.96Z" fill="#2DCE89"/>
<path fill-rule="evenodd" clip-rule="evenodd" d="M20.53 3.78L1.56999 36.32C0.539985 38.11 0.539985 40.15 1.56999 41.93L20.53 74.44C21.56 76.23 23.36 77.25 25.42 77.25H28.36C33.99 77.48 33.48 82.21 33.48 84.96V90.03C33.68 90.91 45.09 85.83 49.09 81.44C50.21 80.16 51.32 78.83 53.09 78.01L43.97 62.39C41.97 58.96 41.97 54.85 43.97 51.42L61.12 21.97C63.12 18.54 66.7 16.5 70.7 16.5H75.62L68.22 3.77C67.19 1.98 65.39 0.960007 63.33 0.960007H25.42C23.36 0.980007 21.56 2 20.53 3.78Z" fill="#11CDEF"/>
<path d="M379.31 82.3567V33.4736H371.427V41.489C367.136 35.72 360.89 32.5455 353.388 32.5455C338.704 32.5455 329 42.6807 329 57.7728C329 64.86 331.387 70.8083 335.792 75.4698C340.474 80.279 346.679 83 353.388 83C360.89 83 366.745 80.0997 370.779 74.3308V82.3461H379.31V82.3567ZM354.561 75.5647C344.858 75.5647 337.881 68.2982 337.881 57.8677C337.881 47.4372 344.858 40.1707 354.561 40.1707C364.265 40.1707 371.242 47.5216 371.242 57.8677C371.252 68.2138 364.276 75.5647 354.561 75.5647ZM391.164 82.3567H399.613V17H391.164V82.3567ZM410.552 82.3567H419V17H410.552V82.3567Z" fill="#fffffff5" stroke="#939598" stroke-width="0.1984" stroke-miterlimit="10"/>
<path d="M269 83V17H285.119V53.7992L300.504 32.8932H319.076L299.138 56.047L321 83H301.622L285.119 59.6668V83H269Z" fill="#fffffff5"/>
<path d="M258 17H242V82H258V17Z" fill="#fffffff5"/>
<path d="M214.969 82.1701V75.4683C214.023 77.8751 212.412 79.7321 210.124 81.0289C207.837 82.3568 205.009 83 201.683 83C198.439 83 195.351 82.3775 192.44 81.1223C189.498 79.8566 186.91 78.0618 184.654 75.7069C182.45 73.4142 180.817 70.7065 179.695 67.6149C178.561 64.5234 178 61.1414 178 57.5C178 53.703 178.509 50.321 179.518 47.4162C180.526 44.4492 182.075 41.8245 184.217 39.5317C186.442 37.0938 189.062 35.2057 191.973 33.94C194.915 32.6432 198.002 32 201.277 32C204.573 32 207.401 32.6432 209.812 33.8777C212.193 35.1123 214.096 36.9382 215.426 39.3761V32.9026H231V82.1597H214.969V82.1701ZM204.895 70.7895C207.837 70.7895 210.332 69.5238 212.36 66.9925C214.408 64.4923 215.416 61.3177 215.416 57.4896C215.416 53.6615 214.408 50.5181 212.36 47.9868C210.343 45.4555 207.837 44.1898 204.895 44.1898C201.859 44.1898 199.364 45.4555 197.379 47.9245C195.383 50.4247 194.405 53.5993 194.405 57.4792C194.405 61.3281 195.383 64.5026 197.41 67.0028C199.395 69.5549 201.891 70.7895 204.895 70.7895Z" fill="white"/>
<path d="M170.762 83H159.493C152.683 83 145.791 79.3731 145.791 69.2115V44.5423H141V32.7946H145.791V20H161.055V32.7946H171V44.5423H161.055V65.7961C161.055 68.9471 162.328 70.29 165.608 70.29H170.752V83H170.762Z" fill="#fffffff5"/>
</svg>