<svg width="7" height="25" viewBox="0 0 7 25" fill="none" xmlns="http://www.w3.org/2000/svg">
<path d="M6.03037 3.49267V4.13013C6.01631 4.18169 5.99287 4.22856 5.9835 4.28012C5.77725 5.62075 4.66162 6.68013 3.35383 6.76919C1.89133 6.87234 0.653833 6.03796 0.250708 4.67859C0.199145 4.50046 0.161645 4.31296 0.11477 4.13017L0.11477 3.49267C0.128832 3.45049 0.15227 3.41298 0.156958 3.36611C0.35852 2.12861 1.24914 1.18642 2.46789 0.919235C2.56164 0.900484 2.65539 0.87236 2.74914 0.848923H3.38664C3.42883 0.862986 3.47102 0.886421 3.51321 0.891109C4.73196 1.08798 5.66006 1.95517 5.94133 3.15988C5.96946 3.27707 6.00227 3.38488 6.03039 3.4927L6.03037 3.49267ZM0.114746 21.5114L0.11477 20.8738C0.128832 20.8222 0.15227 20.7754 0.156958 20.7238C0.367895 19.3738 1.48821 18.3191 2.81008 18.2347C4.26789 18.141 5.50071 18.9847 5.89915 20.3488C5.95071 20.5223 5.98821 20.7004 6.03039 20.8738V21.5113C6.01633 21.5535 5.99289 21.591 5.98352 21.6332C5.75852 22.852 5.05071 23.6488 3.86946 24.0285C3.71477 24.0801 3.55071 24.1082 3.39133 24.1504H2.75383C2.71164 24.1363 2.66946 24.1129 2.62727 24.1082C1.40383 23.9066 0.480395 23.0441 0.199145 21.8395C0.170996 21.727 0.142871 21.6191 0.114746 21.5114ZM0.11477 12.8207L0.11477 12.1832C0.128832 12.1316 0.15227 12.0848 0.161645 12.0332C0.372582 10.6879 1.53508 9.60508 2.84758 9.54883C4.32414 9.4832 5.57571 10.3738 5.92727 11.7473C5.96477 11.8926 5.99758 12.0379 6.03039 12.1832V12.8207C6.01633 12.8723 5.99289 12.9191 5.98352 12.9707C5.77727 14.316 4.61008 15.3989 3.29758 15.4598C1.82102 15.5301 0.569457 14.6348 0.217895 13.2613C0.180395 13.1113 0.147582 12.966 0.11477 12.8207Z" fill="#3D4C65"/>
</svg>
