<svg width="73" height="73" viewBox="0 0 73 73" fill="none" xmlns="http://www.w3.org/2000/svg">
<rect width="73" height="73" rx="3.25" fill="#B6BCC5"/>
<path d="M50.2502 29.6247C50.2502 27.097 48.1945 25.0413 45.6668 25.0413H42.3806L36.8393 15.8082C36.431 15.1311 35.855 14.5706 35.167 14.1808C34.479 13.7911 33.7021 13.5852 32.9114 13.583H20.4585V18.1663H32.9114L37.0364 25.0413H18.1668C15.6391 25.0413 13.5835 27.097 13.5835 29.6247V50.2497C13.5835 52.7774 15.6391 54.833 18.1668 54.833H45.6668C48.1945 54.833 50.2502 52.7774 50.2502 50.2497V43.3747L59.4168 47.958V31.9163L50.2502 36.4997V29.6247ZM34.2085 47.958H20.4585V43.3747H34.2085V47.958Z" fill="#F2F3F5"/>
</svg>
