<svg width="15" height="14" viewBox="0 0 15 14" fill="none" xmlns="http://www.w3.org/2000/svg">
<path d="M7.49992 10.333C7.68881 10.333 7.84725 10.269 7.97525 10.141C8.10325 10.013 8.16703 9.85479 8.16659 9.66634C8.16659 9.47745 8.10259 9.31901 7.97459 9.19101C7.84659 9.06301 7.68836 8.99923 7.49992 8.99967C7.31103 8.99967 7.15259 9.06367 7.02459 9.19168C6.89659 9.31967 6.83281 9.4779 6.83325 9.66634C6.83325 9.85523 6.89725 10.0137 7.02525 10.1417C7.15325 10.2697 7.31147 10.3335 7.49992 10.333ZM7.49992 13.6663C6.5777 13.6663 5.71103 13.4912 4.89992 13.141C4.08881 12.7908 3.38325 12.3159 2.78325 11.7163C2.18325 11.1163 1.70836 10.4108 1.35859 9.59967C1.00881 8.78856 0.833696 7.9219 0.833252 6.99967C0.833252 6.07745 1.00836 5.21079 1.35859 4.39967C1.70881 3.58856 2.1837 2.88301 2.78325 2.28301C3.38325 1.68301 4.08881 1.20812 4.89992 0.858341C5.71103 0.508563 6.5777 0.333452 7.49992 0.333008C8.42214 0.333008 9.28881 0.508119 10.0999 0.858341C10.911 1.20856 11.6166 1.68345 12.2166 2.28301C12.8166 2.88301 13.2917 3.58856 13.6419 4.39967C13.9921 5.21079 14.167 6.07745 14.1666 6.99967C14.1666 7.9219 13.9915 8.78856 13.6413 9.59967C13.291 10.4108 12.8161 11.1163 12.2166 11.7163C11.6166 12.3163 10.911 12.7915 10.0999 13.1417C9.28881 13.4919 8.42214 13.6668 7.49992 13.6663ZM7.49992 7.66634C7.68881 7.66634 7.84725 7.60234 7.97525 7.47434C8.10325 7.34634 8.16703 7.18812 8.16659 6.99967V4.33301C8.16659 4.14412 8.10259 3.98567 7.97459 3.85767C7.84659 3.72967 7.68836 3.6659 7.49992 3.66634C7.31103 3.66634 7.15259 3.73034 7.02459 3.85834C6.89659 3.98634 6.83281 4.14456 6.83325 4.33301V6.99967C6.83325 7.18856 6.89725 7.34701 7.02525 7.47501C7.15325 7.60301 7.31147 7.66679 7.49992 7.66634Z" fill="#BF3131"/>
</svg>
