<svg width="11" height="11" viewBox="0 0 11 11" fill="none" xmlns="http://www.w3.org/2000/svg">
<path d="M5.75004 0.958374C8.39648 0.958374 10.5417 3.1036 10.5417 5.75004C10.5417 8.39648 8.39648 10.5417 5.75004 10.5417C4.93448 10.5429 4.13223 10.335 3.41986 9.93796L3.27371 9.85267L1.82088 10.2801C1.74182 10.3034 1.65812 10.3061 1.57771 10.288C1.4973 10.2699 1.42285 10.2315 1.36142 10.1766C1.29999 10.1216 1.25361 10.0519 1.22668 9.97398C1.19975 9.89608 1.19317 9.8126 1.20754 9.73144L1.22 9.67921L1.64742 8.22637C1.19555 7.4795 0.957217 6.62297 0.958378 5.75004C0.958378 3.1036 3.10361 0.958374 5.75004 0.958374ZM5.75004 1.91671C5.0637 1.91658 4.38991 2.10073 3.79904 2.44993C3.20816 2.79913 2.72188 3.30056 2.39097 3.90187C2.06006 4.50317 1.89667 5.18229 1.91784 5.86831C1.93902 6.55433 2.14399 7.22208 2.51136 7.80183C2.60623 7.95133 2.64696 8.13533 2.61486 8.31789L2.59617 8.396L2.38486 9.11523L3.10409 8.90392C3.31157 8.84258 3.52719 8.87996 3.69825 8.98873C4.20058 9.30679 4.77 9.50365 5.36151 9.56374C5.95302 9.62384 6.5504 9.54551 7.10643 9.33497C7.66245 9.12442 8.16188 8.78742 8.56523 8.35061C8.96858 7.91381 9.2648 7.38916 9.43047 6.81815C9.59613 6.24714 9.6267 5.64543 9.51977 5.06057C9.41283 4.47571 9.17131 3.92375 8.81431 3.4483C8.45731 2.97286 7.99461 2.58698 7.46279 2.32116C6.93096 2.05534 6.3446 1.91688 5.75004 1.91671ZM4.36142 3.44237C4.41447 3.4194 4.47259 3.41063 4.53005 3.41693C4.58752 3.42324 4.64236 3.44439 4.68917 3.47831C4.93067 3.65464 5.12234 3.89135 5.28717 4.12231L5.44386 4.34944L5.51717 4.45725C5.55947 4.5191 5.58023 4.59316 5.57625 4.66798C5.57226 4.74281 5.54376 4.81424 5.49513 4.87125L5.45919 4.90767L5.01644 5.23637C4.99513 5.2518 4.98014 5.27443 4.97423 5.30007C4.96833 5.32571 4.97192 5.35262 4.98434 5.37581C5.08496 5.55789 5.26273 5.82958 5.46686 6.03371C5.67146 6.23783 5.95561 6.42758 6.15015 6.53923C6.19232 6.56319 6.24311 6.55552 6.27761 6.52437L6.29582 6.50281L6.58379 6.06437C6.63666 5.99395 6.71474 5.94672 6.80166 5.93261C6.88858 5.91849 6.97759 5.93858 7.05002 5.98867L7.31021 6.17027C7.56896 6.35475 7.81765 6.55312 8.01459 6.80469C8.05121 6.85187 8.07449 6.90802 8.08199 6.96728C8.08949 7.02654 8.08094 7.08672 8.05723 7.14154C7.86748 7.58429 7.38688 7.96139 6.88759 7.94319L6.8114 7.93839L6.71988 7.92977C6.7026 7.92772 6.68535 7.92549 6.66813 7.92306L6.55409 7.90389C6.11134 7.82052 5.40169 7.56944 4.66617 6.83439C3.93113 6.09887 3.68004 5.38923 3.59667 4.94648L3.5775 4.83244L3.56552 4.73277L3.55929 4.64892C3.55854 4.63694 3.5579 4.62496 3.55738 4.61298C3.53917 4.11273 3.91819 3.63212 4.36142 3.44237Z" fill="#00BFA5"/>
</svg>
