<?xml version="1.0" ?>
<svg xmlns="http://www.w3.org/2000/svg" width="11" height="11" viewBox="0 0 512 512">
  <rect width="512" height="512" rx="256" fill="#25D366"/>
  <path fill="#FFFFFF" d="M256 104C176.5 104 112 168.5 112 248C112 276.1 120.3 302.7 134.7 324.9L120 376L172.6 361.7C194.4 374.7 223.3 384 256 384C335.5 384 400 319.5 400 240C400 160.5 335.5 104 256 104ZM256 352C228.1 352 203.3 344.6 183.5 331.2L180.1 328.8L155.9 335.5L162.6 311.2L160.2 307.8C145.3 288.6 136 265.2 136 240C136 177.3 189.3 128 256 128C322.7 128 376 177.3 376 240C376 302.7 322.7 352 256 352Z"/>
  <text x="256" y="315" text-anchor="middle" font-family="Arial, sans-serif" font-size="140" font-weight="bold" fill="#FFFFFF">B</text>
</svg>
