<?xml version="1.0" encoding="UTF-8"?>
<svg xmlns="http://www.w3.org/2000/svg" xmlns:xlink="http://www.w3.org/1999/xlink" width="75px" height="75px" viewBox="0 0 75 75" version="1.1">
<g id="surface1">
<rect x="0" y="0" width="75" height="75" style="fill:rgb(100%,100%,100%);fill-opacity:1;stroke:none;"/>
<path style=" stroke:none;fill-rule:nonzero;fill:rgb(0%,74.117647%,83.921569%);fill-opacity:1;" d="M 23.4375 45 C 23.0625 45 22.6875 45 22.5 45 C 21.375 44.8125 20.625 43.875 20.625 42.75 C 20.625 37.875 20.625 32.8125 20.625 27.9375 C 20.625 26.8125 21.375 25.875 22.6875 25.6875 C 22.875 25.6875 23.0625 25.6875 23.25 25.6875 C 31.3125 25.6875 39.5625 25.6875 47.625 25.6875 C 48 25.6875 48.375 25.6875 48.75 25.875 C 49.6875 26.25 50.0625 27 50.0625 27.9375 C 50.0625 28.5 50.0625 29.25 50.0625 30 C 50.625 30 51.1875 30 51.75 30 C 52.125 30 52.6875 30.1875 53.0625 30.375 C 53.8125 30.75 54.1875 31.3125 54.1875 32.25 C 54.1875 37.3125 54.1875 42.375 54.1875 47.4375 C 54.1875 48.5625 53.25 49.5 52.125 49.6875 C 51.9375 49.6875 51.75 49.6875 51.5625 49.6875 C 42.9375 49.6875 34.3125 49.6875 25.6875 49.6875 C 24.9375 49.6875 24.375 49.5 23.8125 48.9375 C 23.4375 48.5625 23.25 48 23.25 47.4375 C 23.4375 46.5 23.4375 45.75 23.4375 45 Z M 22.3125 29.0625 C 22.3125 29.25 22.3125 29.4375 22.3125 29.4375 C 22.3125 33.75 22.3125 38.0625 22.3125 42.5625 C 22.3125 42.5625 22.3125 42.75 22.3125 42.75 C 22.3125 43.125 22.5 43.3125 22.875 43.3125 C 23.0625 43.3125 23.25 43.3125 23.25 43.3125 C 26.625 43.3125 30 43.3125 33.1875 43.3125 C 38.0625 43.3125 42.9375 43.3125 47.8125 43.3125 C 48.5625 43.3125 48.75 43.125 48.75 42.375 C 48.75 38.0625 48.75 33.75 48.75 29.4375 C 48.75 29.25 48.75 29.25 48.75 28.875 C 48.5625 29.0625 48.375 29.0625 48.375 29.25 C 44.4375 32.25 40.3125 35.25 36.375 38.25 C 35.8125 38.625 35.625 38.625 35.0625 38.25 C 32.0625 36 29.0625 33.9375 26.25 31.6875 C 24.75 30.75 23.4375 30 22.3125 29.0625 Z M 22.6875 27.1875 C 22.875 27.375 22.875 27.375 23.0625 27.375 C 27.1875 30.375 31.125 33.375 35.25 36.375 C 35.4375 36.5625 35.625 36.5625 35.8125 36.375 C 39.9375 33.375 43.875 30.375 48 27.1875 C 48 27.1875 48.1875 27 48.375 27 C 39.75 27.1875 31.125 27.1875 22.6875 27.1875 Z M 25.125 45 C 25.125 45.75 25.125 46.5 25.125 47.25 C 25.125 47.4375 25.3125 47.625 25.5 47.625 C 25.6875 47.625 25.875 47.625 26.0625 47.625 C 34.6875 47.625 43.125 47.625 51.75 47.625 C 51.9375 47.625 51.9375 47.625 52.125 47.625 C 52.6875 47.625 52.875 47.4375 52.875 46.875 C 52.875 41.8125 52.875 36.9375 52.875 31.875 C 52.875 31.5 52.6875 31.125 52.3125 31.125 C 51.75 31.125 51 31.125 50.4375 31.125 C 50.4375 31.3125 50.4375 31.5 50.4375 31.5 C 50.4375 35.0625 50.4375 38.8125 50.4375 42.375 C 50.4375 43.3125 49.875 44.25 48.9375 44.4375 C 48.375 45 48 45 47.625 45 C 40.3125 45 33 45 25.6875 45 C 25.5 45 25.3125 45 25.125 45 Z M 25.125 45 "/>
</g>
</svg>
