<svg xmlns="http://www.w3.org/2000/svg" width="32" height="px" viewBox="0 0 32 32"><path d="M30 6H2v20h28Zm0 0" style="stroke:none;fill-rule:nonzero;fill:#32ab45;fill-opacity:1"/><path d="M16 9 5.5 16.148 16 23l10.5-6.852Zm0 0" style="stroke:none;fill-rule:nonzero;fill:#ffe70e;fill-opacity:1"/><path d="M20 16c0 2.21-1.79 4-4 4s-4-1.79-4-4 1.79-4 4-4 4 1.79 4 4m0 0" style="stroke:none;fill-rule:nonzero;fill:#2a2faf;fill-opacity:1"/><path d="M12.59 13.91a6.247 6.247 0 0 1 7.129 3.566A4 4 0 0 1 18.645 19 4.75 4.75 0 0 0 14 15.25c-.71 0-1.383.156-1.988.434.05-.645.254-1.25.578-1.774m0 0" style="stroke:none;fill-rule:evenodd;fill:#fbfbfb;fill-opacity:1"/></svg>