<?xml version="1.0" encoding="utf-8"?>
<!-- Generator: Adobe Illustrator 26.0.1, SVG Export Plug-In . SVG Version: 6.00 Build 0)  -->
<svg version="1.1" id="Camada_1" xmlns="http://www.w3.org/2000/svg" xmlns:xlink="http://www.w3.org/1999/xlink" x="0px" y="0px"
	 viewBox="0 0 160 160" style="enable-background:new 0 0 160 160;" xml:space="preserve">
<style type="text/css">
	.st0{fill:#7AD06D;}
</style>
<g>
	<g>
		<path class="st0" d="M82.8,5c37.8,0.3,69.5,30,71.8,67.6c2.4,38.2-25.2,71.5-63.1,76.2c-14,1.7-27.4-0.5-40.1-6.7
			c-2.2-1.1-4.1-1.1-6.3-0.2c-10,4.1-20.2,8.1-30.2,12.2c-2.9,1.2-5.6,1.6-8-0.8c-2.4-2.4-1.9-5.2-0.7-8
			c4.1-10.2,8.2-20.4,12.1-30.6c0.6-1.5,0.6-3.7-0.1-5.1c-20.9-44,4.2-94.1,52-103C74.3,5.6,78.6,5.5,82.8,5z M21.9,138.3
			c8.3-3.3,15.8-6.2,23.1-9.3c2.9-1.2,5.4-1,8.2,0.5c11.8,6.7,24.5,9,38,7.2c30.7-4.2,53.3-31.8,51.5-63.2
			C141,43,115.2,17.9,84.7,17.4C61.6,17,43.4,26.7,31.4,46.4c-11.9,19.6-11.7,40.1-1,60.3c1.6,3,2,5.6,0.6,8.8
			C27.9,122.8,25.2,130.1,21.9,138.3z"/>
		<path class="st0" d="M104.8,77.5c6.1,7.3,8,15.3,3.8,23.8c-4.3,8.5-11.8,12.1-21.2,12.1c-7.1,0-14.2,0-21.4,0
			c-5.2,0-7.3-2.1-7.3-7.3c0-19.1,0-38.2,0-57.3c0-5.4,2.1-7.4,7.6-7.4c7.2,0,14.5,0,21.7,0c9.3,0,16.6,3.8,20.7,12.3
			c4,8.2,2.4,16-3.5,23C105.1,76.8,105.1,77,104.8,77.5z M70.8,71.3c6.4,0,12.5,0.1,18.5,0c5.1-0.1,8.8-3.3,9.3-7.9
			c0.5-4.6-2.4-9.2-7.4-9.6c-6.7-0.6-13.6-0.2-20.4-0.2C70.8,59.5,70.8,65.1,70.8,71.3z M70.9,101.3c6.5,0,12.6,0.2,18.7-0.1
			c5-0.2,8.8-3.9,9.1-8.3c0.3-4.6-2.8-9.1-7.3-9.4c-6.8-0.4-13.6-0.1-20.5-0.1C70.9,89.5,70.9,95.2,70.9,101.3z"/>
	</g>
</g>
</svg>
