<?xml version="1.0" encoding="utf-8"?>
<!-- Generator: Adobe Illustrator 24.1.0, SVG Export Plug-In . SVG Version: 6.00 Build 0)  -->
<svg version="1.1" id="Layer_1" xmlns="http://www.w3.org/2000/svg" xmlns:xlink="http://www.w3.org/1999/xlink" x="0px" y="0px"
	 viewBox="0 0 748.74 202.2" style="enable-background:new 0 0 748.74 202.2;" xml:space="preserve">
<style type="text/css">
	.st0{fill:#58595B;  box-shadow: 0 4px 6px rgba(50, 50, 93, .11), 0 1px 3px rgba(0, 0, 0, .08), 0 0 0 0 rgba(255, 255, 255, .5);}
	.st1{fill:#929497;  box-shadow: 0 4px 6px rgba(50, 50, 93, .11), 0 1px 3px rgba(0, 0, 0, .08), 0 0 0 0 rgba(255, 255, 255, .5);}
	.st2{fill:#64C19B;  box-shadow: 0 4px 6px rgba(50, 50, 93, .11), 0 1px 3px rgba(0, 0, 0, .08), 0 0 0 0 rgba(255, 255, 255, .5);}
	.st3{fill:#00BDD6;  box-shadow: 0 4px 6px rgba(50, 50, 93, .11), 0 1px 3px rgba(0, 0, 0, .08), 0 0 0 0 rgba(255, 255, 255, .5);}
</style>
<g>
	<path class="st0" d="M311.92,163.18h9.2v21.86H308c-9.45,0-16.76-2.08-21.94-6.26c-5.18-4.17-7.76-11.33-7.76-21.49v-34.98h-7.84
		v-21.41h7.84V80.41h25.78v20.51h16.89v21.41h-16.89v34.98C304.08,161.22,306.7,163.18,311.92,163.18z"/>
	<path class="st0" d="M343.74,174.04c-7.44-8.04-11.16-18.34-11.16-30.91c0-12.56,3.72-22.89,11.16-30.98
		c7.44-8.09,16.51-12.14,27.21-12.14c10.71,0,18.92,3.97,24.65,11.91v-11.01h25.78v84.13H395.6v-12.21
		c-6.23,8.85-14.58,13.27-25.03,13.27C360.12,186.1,351.17,182.08,343.74,174.04z M390.02,158.36c3.72-3.62,5.58-8.75,5.58-15.38
		c0-6.63-1.86-11.73-5.58-15.3c-3.72-3.57-7.99-5.35-12.82-5.35c-4.82,0-9.1,1.81-12.82,5.43c-3.72,3.62-5.58,8.75-5.58,15.38
		c0,6.63,1.86,11.74,5.58,15.3c3.72,3.57,7.99,5.35,12.82,5.35C382.03,163.78,386.3,161.97,390.02,158.36z"/>
	<path class="st0" d="M440.45,185.04V73.47h25.78v111.57H440.45z"/>
	<path class="st0" d="M511.08,185.04H485.3V73.47h25.78v62.57l26.08-35.13h34.68l-36.04,42.97l36.04,41.16h-34.23l-26.54-33.62
		V185.04z"/>
	<path class="st1" d="M596.73,174.26c-7.54-8.09-11.31-18.44-11.31-31.06c0-12.61,3.74-22.82,11.23-30.61
		c7.49-7.79,16.91-11.68,28.27-11.68c7.03,0,13.19,1.66,18.47,4.97c5.28,3.32,9.27,7.64,11.99,12.97v-16.58h13.87v82.77h-13.87
		v-16.89c-2.71,5.43-6.71,9.83-11.99,13.19c-5.28,3.37-11.44,5.05-18.47,5.05C613.67,186.4,604.27,182.35,596.73,174.26z
		 M647.17,166.2c5.48-5.63,8.22-13.12,8.22-22.46c0-9.35-2.74-16.83-8.22-22.47c-5.48-5.63-12.06-8.44-19.75-8.44
		c-7.69,0-14.27,2.71-19.75,8.14c-5.48,5.43-8.22,12.82-8.22,22.16c0,9.35,2.76,16.94,8.29,22.77c5.53,5.83,12.11,8.74,19.75,8.74
		C635.13,174.64,641.69,171.83,647.17,166.2z"/>
	<path class="st1" d="M688.32,185.04V73.47h13.72v111.57H688.32z"/>
	<path class="st1" d="M721.11,185.04V73.47h13.72v111.57H721.11z"/>
</g>
<g>
	<path class="st1" d="M278.3,18.66v-1.59h12.05v1.59h-5.06v17.69h-1.93V18.66H278.3z"/>
	<path class="st1" d="M307.48,21.09h1.96v15.26h-1.96v-2.49c-1.02,1.85-2.71,2.77-5.06,2.77c-1.7,0-3.11-0.55-4.25-1.66
		c-1.14-1.11-1.7-2.71-1.7-4.79v-9.08h1.93v8.72c0,1.68,0.41,2.95,1.22,3.83c0.81,0.88,1.92,1.31,3.33,1.31s2.52-0.44,3.33-1.31
		c0.81-0.88,1.22-2.15,1.22-3.83V21.09z"/>
	<path class="st1" d="M317.55,34.36c-1.4-1.51-2.1-3.43-2.1-5.77c0-2.34,0.69-4.22,2.08-5.65c1.39-1.43,3.15-2.14,5.3-2.14
		c1.38,0,2.59,0.34,3.63,1.01c1.04,0.67,1.82,1.54,2.32,2.6v-8.75h1.96v20.69h-1.96V33c-0.5,1.06-1.28,1.93-2.32,2.61
		s-2.25,1.02-3.63,1.02C320.7,36.63,318.94,35.87,317.55,34.36z M327.12,33.23c1.11-1.15,1.66-2.65,1.66-4.51s-0.55-3.37-1.66-4.51
		c-1.11-1.15-2.45-1.72-4.01-1.72c-1.57,0-2.9,0.55-4,1.65c-1.1,1.1-1.65,2.59-1.65,4.46c0,1.87,0.55,3.4,1.66,4.58
		c1.11,1.18,2.44,1.78,4,1.78S326.01,34.38,327.12,33.23z"/>
	<path class="st1" d="M344.14,36.63c-2.19,0-3.97-0.73-5.34-2.18c-1.37-1.45-2.05-3.36-2.05-5.72s0.73-4.27,2.18-5.73
		c1.45-1.46,3.27-2.19,5.45-2.19c2.18,0,4,0.73,5.45,2.19c1.45,1.46,2.18,3.36,2.18,5.7s-0.76,4.24-2.29,5.72
		C348.19,35.89,346.33,36.63,344.14,36.63z M344.13,35.06c1.58,0,2.95-0.57,4.11-1.7c1.16-1.14,1.73-2.69,1.73-4.65
		c0-1.97-0.55-3.51-1.65-4.64c-1.1-1.13-2.44-1.69-4.03-1.69c-1.58,0-2.91,0.56-3.97,1.68c-1.06,1.12-1.59,2.67-1.59,4.67
		s0.5,3.55,1.51,4.67S342.54,35.06,344.13,35.06z"/>
	<path class="st1" d="M370.26,34.45c-1.36-1.45-2.04-3.36-2.04-5.73s0.68-4.28,2.04-5.73c1.36-1.45,3.13-2.18,5.31-2.18
		c3.58,0,5.85,1.6,6.82,4.81h-2.1c-0.32-1.02-0.88-1.82-1.69-2.39c-0.81-0.57-1.82-0.85-3.03-0.85c-1.58,0-2.87,0.54-3.86,1.64
		c-0.99,1.09-1.48,2.66-1.48,4.7c0,2.04,0.49,3.61,1.48,4.71c0.99,1.1,2.27,1.65,3.86,1.65c1.21,0,2.22-0.28,3.03-0.85
		c0.81-0.57,1.37-1.36,1.69-2.39h2.1c-0.49,1.45-1.3,2.62-2.43,3.49c-1.14,0.88-2.6,1.31-4.39,1.31
		C373.39,36.63,371.62,35.9,370.26,34.45z"/>
	<path class="st1" d="M395.18,36.63c-2.19,0-3.97-0.73-5.34-2.18c-1.37-1.45-2.05-3.36-2.05-5.72s0.73-4.27,2.18-5.73
		c1.45-1.46,3.27-2.19,5.45-2.19c2.18,0,4,0.73,5.45,2.19c1.45,1.46,2.18,3.36,2.18,5.7s-0.76,4.24-2.29,5.72
		C399.23,35.89,397.37,36.63,395.18,36.63z M395.17,35.06c1.58,0,2.95-0.57,4.11-1.7c1.16-1.14,1.73-2.69,1.73-4.65
		c0-1.97-0.55-3.51-1.65-4.64c-1.1-1.13-2.44-1.69-4.03-1.69s-2.91,0.56-3.97,1.68c-1.06,1.12-1.59,2.67-1.59,4.67
		s0.5,3.55,1.51,4.67S393.59,35.06,395.17,35.06z"/>
	<path class="st1" d="M411.02,21.09v2.49c1.02-1.85,2.71-2.77,5.06-2.77c1.7,0,3.11,0.55,4.25,1.66c1.14,1.11,1.7,2.71,1.7,4.79
		v9.09h-1.93v-8.72c0-1.68-0.41-2.95-1.22-3.83c-0.81-0.88-1.92-1.31-3.33-1.31c-1.41,0-2.52,0.44-3.33,1.31s-1.22,2.15-1.22,3.83
		v8.72h-1.96V21.09H411.02z"/>
	<path class="st1" d="M435.25,36.63c-2.18,0-3.95-0.73-5.31-2.18c-1.36-1.45-2.04-3.37-2.04-5.74c0-2.38,0.69-4.29,2.08-5.73
		c1.39-1.44,3.19-2.17,5.39-2.17c2.21,0,3.96,0.68,5.27,2.04c1.3,1.36,1.96,3.05,1.96,5.06c0,0.54-0.04,1.04-0.11,1.51h-12.58
		c0.07,1.75,0.61,3.13,1.59,4.14c0.99,1.01,2.24,1.51,3.75,1.51c1.17,0,2.18-0.27,3-0.81c0.83-0.54,1.4-1.25,1.72-2.12h2.1
		c-0.5,1.31-1.32,2.38-2.46,3.23C438.48,36.21,437.02,36.63,435.25,36.63z M440.59,27.88c0-1.68-0.51-3.01-1.52-4.01
		c-1.02-1-2.27-1.5-3.77-1.5c-1.5,0-2.75,0.49-3.75,1.47c-1,0.98-1.54,2.32-1.64,4.04H440.59z"/>
	<path class="st1" d="M449.65,34.45c-1.36-1.45-2.04-3.36-2.04-5.73s0.68-4.28,2.04-5.73c1.36-1.45,3.13-2.18,5.31-2.18
		c3.58,0,5.85,1.6,6.82,4.81h-2.1c-0.32-1.02-0.88-1.82-1.69-2.39c-0.81-0.57-1.82-0.85-3.03-0.85c-1.58,0-2.87,0.54-3.86,1.64
		c-0.99,1.09-1.48,2.66-1.48,4.7c0,2.04,0.49,3.61,1.48,4.71c0.99,1.1,2.27,1.65,3.86,1.65c1.21,0,2.22-0.28,3.03-0.85
		c0.81-0.57,1.37-1.36,1.69-2.39h2.1c-0.49,1.45-1.3,2.62-2.43,3.49c-1.14,0.88-2.6,1.31-4.39,1.31
		C452.78,36.63,451.01,35.9,449.65,34.45z"/>
	<path class="st1" d="M474.95,22.62h-4.22v10.12c0,0.76,0.15,1.3,0.45,1.61c0.3,0.31,0.83,0.46,1.59,0.46h2.18v1.54h-2.6
		c-2.39,0-3.58-1.2-3.58-3.61V22.62h-2.12v-1.54h2.12v-3.83h1.96v3.83h4.22V22.62z"/>
	<path class="st1" d="M481.54,34.36c-1.4-1.51-2.1-3.43-2.1-5.77c0-2.34,0.69-4.22,2.08-5.65c1.39-1.43,3.15-2.14,5.3-2.14
		c1.38,0,2.59,0.34,3.63,1.01c1.04,0.67,1.82,1.54,2.32,2.6v-3.33h1.96v15.26h-1.96V33c-0.5,1.06-1.28,1.93-2.32,2.61
		s-2.25,1.02-3.63,1.02C484.7,36.63,482.94,35.87,481.54,34.36z M491.12,33.23c1.11-1.15,1.66-2.65,1.66-4.51s-0.55-3.37-1.66-4.51
		c-1.11-1.15-2.45-1.72-4.01-1.72c-1.57,0-2.9,0.55-4,1.65c-1.1,1.1-1.65,2.59-1.65,4.46c0,1.87,0.55,3.4,1.66,4.58
		c1.11,1.18,2.44,1.78,4,1.78S490.01,34.38,491.12,33.23z"/>
	<path class="st1" d="M502.84,34.36c-1.4-1.51-2.1-3.43-2.1-5.77c0-2.34,0.69-4.22,2.08-5.65c1.39-1.43,3.15-2.14,5.3-2.14
		c1.38,0,2.59,0.34,3.63,1.01c1.04,0.67,1.82,1.54,2.32,2.6v-8.75h1.96v20.69h-1.96V33c-0.5,1.06-1.28,1.93-2.32,2.61
		s-2.25,1.02-3.63,1.02C506,36.63,504.24,35.87,502.84,34.36z M512.42,33.23c1.11-1.15,1.66-2.65,1.66-4.51s-0.55-3.37-1.66-4.51
		c-1.11-1.15-2.45-1.72-4.01-1.72c-1.57,0-2.9,0.55-4,1.65c-1.1,1.1-1.65,2.59-1.65,4.46c0,1.87,0.55,3.4,1.66,4.58
		c1.11,1.18,2.44,1.78,4,1.78S511.31,34.38,512.42,33.23z"/>
	<path class="st1" d="M529.44,36.63c-2.19,0-3.97-0.73-5.34-2.18c-1.37-1.45-2.05-3.36-2.05-5.72s0.73-4.27,2.18-5.73
		c1.45-1.46,3.27-2.19,5.45-2.19c2.18,0,4,0.73,5.45,2.19c1.45,1.46,2.18,3.36,2.18,5.7s-0.76,4.24-2.29,5.72
		C533.49,35.89,531.63,36.63,529.44,36.63z M529.42,35.06c1.58,0,2.95-0.57,4.11-1.7c1.16-1.14,1.73-2.69,1.73-4.65
		c0-1.97-0.55-3.51-1.65-4.64s-2.44-1.69-4.03-1.69c-1.58,0-2.91,0.56-3.97,1.68c-1.06,1.12-1.59,2.67-1.59,4.67s0.5,3.55,1.51,4.67
		S527.84,35.06,529.42,35.06z"/>
</g>
<path class="st2" d="M176.25,185.04c-5.7-2.37-13.91-6.75-19.81-13.94c-2.59-3.15-7.76-6.54-13.01-6.54H130.3
	c-1.22,0-3.23-1.16-3.84-2.22l-32.32-55.98c-0.61-1.06-0.61-3.38,0-4.44l32.32-55.98c0.61-1.06,2.62-2.22,3.84-2.22h64.64
	c1.22,0,3.23,1.16,3.84,2.22l32.32,55.98c0.61,1.06,0.61,3.38,0,4.44l-32.32,55.98c-0.61,1.06-2.62,2.22-3.84,2.22h-7.72
	c-6.04,0-10.96,4.92-10.96,10.96V185.04z"/>
<path class="st3" d="M84.92,111.7c-2.52-4.37-2.52-10.72,0-15.09l32.32-55.98c2.52-4.37,8.02-7.54,13.06-7.54h10.19l-11.36-19.67
	c-1.56-2.7-5.34-4.88-8.45-4.88H56.04c-3.11,0-6.9,2.19-8.45,4.88L15.27,69.4c-1.56,2.7-1.56,7.07,0,9.76l32.32,55.98
	c1.56,2.7,5.34,4.88,8.45,4.88h7.72c3.11,0,5.64,2.52,5.64,5.64v16.98c0,0,18.07-4.4,29.26-18.03c0.89-1.09,2.16-2.11,3.57-2.93
	L84.92,111.7z"/>
</svg>
