<svg width="20" height="20" viewBox="0 0 24 24" fill="none"
    xmlns="http://www.w3.org/2000/svg">
    <path d="M12.243 13.149H7.758L10 6.74399L12.243 13.149ZM12.943 15.149L13.271 16.084L14.84 14.514L11.076 3.76299C10.719 2.74599 9.281 2.74599 8.926 3.76299L4.055 17.67C4.0116 17.794 3.99304 17.9253 4.00038 18.0564C4.00772 18.1875 4.04082 18.316 4.09779 18.4343C4.15476 18.5527 4.23448 18.6586 4.3324 18.7462C4.43033 18.8337 4.54453 18.9011 4.6685 18.9445C4.79247 18.9879 4.92377 19.0065 5.05491 18.9991C5.18605 18.9918 5.31446 18.9587 5.43281 18.9017C5.55116 18.8447 5.65713 18.765 5.74466 18.6671C5.8322 18.5692 5.8996 18.455 5.943 18.331L7.057 15.149H12.943ZM13.197 17.572L19.099 11.67C19.3112 11.4577 19.5632 11.2893 19.8405 11.1744C20.1178 11.0595 20.415 11.0003 20.7151 11.0003C21.0153 11.0002 21.3125 11.0593 21.5899 11.1741C21.8672 11.289 22.1192 11.4573 22.3315 11.6695C22.5438 11.8817 22.7122 12.1337 22.8271 12.411C22.942 12.6883 23.0012 12.9855 23.0012 13.2856C23.0013 13.5858 22.9422 13.883 22.8274 14.1604C22.7125 14.4377 22.5442 14.6897 22.332 14.902L16.429 20.804C16.0851 21.1484 15.6541 21.3927 15.182 21.511L13.352 21.968C13.3028 21.9809 13.2526 21.9899 13.202 21.995C12.612 22.199 10.223 22.569 9.375 21.907C8.801 21.459 8.915 20.573 9.157 20.089C9.197 20.011 9.137 19.909 9.052 19.923C8.392 20.026 7.809 20.373 7.225 20.722C6.442 21.19 5.655 21.658 4.676 21.537C3.697 21.415 3.208 20.811 2.966 20.282C2.867 20.066 3.146 19.881 3.354 19.995C3.823 20.25 4.46 20.491 4.985 20.375C5.36 20.291 5.889 19.917 6.481 19.498C7.547 18.745 8.818 17.845 9.773 18.23C10.613 18.567 11.233 19.38 10.803 20.343C10.751 20.461 10.803 20.607 10.93 20.636C11.353 20.733 11.708 20.702 12.063 20.531L12.491 18.819C12.609 18.347 12.853 17.916 13.197 17.572Z" fill="#cccccc"/>
</svg>
