<svg width="20" height="20" viewBox="0 0 24 24" fill="none"
    xmlns="http://www.w3.org/2000/svg">
    <path d="M14.7 20.7L11 17L14.7 13.3L16.1 14.75L14.85 16H17.25C17.7333 16 18.146 15.829 18.488 15.487C18.83 15.145 19.0007 14.7327 19 14.25C19 13.7667 18.829 13.354 18.487 13.012C18.145 12.67 17.7327 12.4993 17.25 12.5H4V10.5H17.25C18.3 10.5 19.1877 10.8627 19.913 11.588C20.6383 12.3133 21.0007 13.2007 21 14.25C21 15.3 20.6373 16.1877 19.912 16.913C19.1867 17.6383 18.2993 18.0007 17.25 18H14.85L16.1 19.25L14.7 20.7ZM4 18V16H9V18H4ZM4 7V5H20V7H4Z" fill="#cccccc"/>
</svg>
