<svg width="244" height="244" viewBox="0 0 244 244" fill="none" xmlns="http://www.w3.org/2000/svg">
<g filter="url(#filter0_d_485_722)">
<path d="M122 232C184.96 232 236 180.96 236 118C236 55.0395 184.96 4 122 4C59.0395 4 8 55.0395 8 118C8 180.96 59.0395 232 122 232Z" fill="#FFA726" stroke="#BF360C" stroke-width="8" stroke-miterlimit="10"/>
<path d="M135 60.71C135 53.5303 129.18 47.71 122 47.71C114.82 47.71 109 53.5303 109 60.71V134.71C109 141.89 114.82 147.71 122 147.71C129.18 147.71 135 141.89 135 134.71V60.71Z" fill="#FFD95B" stroke="#BF360C" stroke-width="8" stroke-miterlimit="10"/>
<path d="M135 175.29C135 168.11 129.18 162.29 122 162.29C114.82 162.29 109 168.11 109 175.29C109 182.47 114.82 188.29 122 188.29C129.18 188.29 135 182.47 135 175.29Z" fill="#FFD95B" stroke="#BF360C" stroke-width="8" stroke-miterlimit="10"/>
</g>
<defs>
<filter id="filter0_d_485_722" x="0" y="0" width="244" height="244" filterUnits="userSpaceOnUse" color-interpolation-filters="sRGB">
<feFlood flood-opacity="0" result="BackgroundImageFix"/>
<feColorMatrix in="SourceAlpha" type="matrix" values="0 0 0 0 0 0 0 0 0 0 0 0 0 0 0 0 0 0 127 0" result="hardAlpha"/>
<feOffset dy="4"/>
<feGaussianBlur stdDeviation="2"/>
<feComposite in2="hardAlpha" operator="out"/>
<feColorMatrix type="matrix" values="0 0 0 0 0 0 0 0 0 0 0 0 0 0 0 0 0 0 0.25 0"/>
<feBlend mode="normal" in2="BackgroundImageFix" result="effect1_dropShadow_485_722"/>
<feBlend mode="normal" in="SourceGraphic" in2="effect1_dropShadow_485_722" result="shape"/>
</filter>
</defs>
</svg>
