<svg width="22" height="21" viewBox="0 0 22 21" fill="none" xmlns="http://www.w3.org/2000/svg">
<path d="M17 12C16.7348 12 16.4804 12.1054 16.2929 12.2929C16.1054 12.4804 16 12.7348 16 13V13.38L14.52 11.9C13.9974 11.3815 13.2911 11.0906 12.555 11.0906C11.8189 11.0906 11.1126 11.3815 10.59 11.9L9.89 12.6L7.41 10.12C6.88012 9.6156 6.17657 9.33428 5.445 9.33428C4.71343 9.33428 4.00988 9.6156 3.48 10.12L2 11.6V6C2 5.73478 2.10536 5.48043 2.29289 5.29289C2.48043 5.10536 2.73478 5 3 5H10C10.2652 5 10.5196 4.89464 10.7071 4.70711C10.8946 4.51957 11 4.26522 11 4C11 3.73478 10.8946 3.48043 10.7071 3.29289C10.5196 3.10536 10.2652 3 10 3H3C2.20435 3 1.44129 3.31607 0.87868 3.87868C0.316071 4.44129 0 5.20435 0 6V18C0 18.7956 0.316071 19.5587 0.87868 20.1213C1.44129 20.6839 2.20435 21 3 21H15C15.7956 21 16.5587 20.6839 17.1213 20.1213C17.6839 19.5587 18 18.7956 18 18V13C18 12.7348 17.8946 12.4804 17.7071 12.2929C17.5196 12.1054 17.2652 12 17 12ZM3 19C2.73478 19 2.48043 18.8946 2.29289 18.7071C2.10536 18.5196 2 18.2652 2 18V14.43L4.9 11.53C5.04691 11.39 5.24206 11.3119 5.445 11.3119C5.64794 11.3119 5.84309 11.39 5.99 11.53L9.16 14.7L13.46 19H3ZM16 18C15.9986 18.1914 15.9354 18.3773 15.82 18.53L11.31 14L12.01 13.3C12.0817 13.2268 12.1673 13.1687 12.2617 13.129C12.3561 13.0893 12.4576 13.0689 12.56 13.0689C12.6624 13.0689 12.7639 13.0893 12.8583 13.129C12.9527 13.1687 13.0383 13.2268 13.11 13.3L16 16.21V18ZM20.71 3.29L17.71 0.289999C17.6149 0.198959 17.5028 0.127594 17.38 0.0799993C17.1365 -0.0200187 16.8635 -0.0200187 16.62 0.0799993C16.4972 0.127594 16.3851 0.198959 16.29 0.289999L13.29 3.29C13.1017 3.4783 12.9959 3.7337 12.9959 4C12.9959 4.2663 13.1017 4.5217 13.29 4.71C13.4783 4.8983 13.7337 5.00409 14 5.00409C14.2663 5.00409 14.5217 4.8983 14.71 4.71L16 3.41V9C16 9.26522 16.1054 9.51957 16.2929 9.70711C16.4804 9.89464 16.7348 10 17 10C17.2652 10 17.5196 9.89464 17.7071 9.70711C17.8946 9.51957 18 9.26522 18 9V3.41L19.29 4.71C19.383 4.80373 19.4936 4.87812 19.6154 4.92889C19.7373 4.97966 19.868 5.0058 20 5.0058C20.132 5.0058 20.2627 4.97966 20.3846 4.92889C20.5064 4.87812 20.617 4.80373 20.71 4.71C20.8037 4.61704 20.8781 4.50643 20.9289 4.38458C20.9797 4.26272 21.0058 4.13201 21.0058 4C21.0058 3.86799 20.9797 3.73728 20.9289 3.61542C20.8781 3.49356 20.8037 3.38296 20.71 3.29Z" fill="#3C4963"/>
</svg>
