<svg width="197" height="227" viewBox="0 0 197 227" fill="none" xmlns="http://www.w3.org/2000/svg">
<g clip-path="url(#clip0_250_780)">
<path d="M82.2326 223.423C125.883 223.423 161.269 187.978 161.269 144.254C161.269 100.529 125.883 65.084 82.2326 65.084C38.5818 65.084 3.1958 100.529 3.1958 144.254C3.1958 187.978 38.5818 223.423 82.2326 223.423Z" fill="#30906D"/>
<path d="M128.155 81.752C127.506 81.7504 126.873 81.5502 126.34 81.1781C118.161 75.4552 108.938 71.3993 99.1969 69.2414C98.3722 69.0571 97.6543 68.5521 97.2012 67.8376C96.7482 67.1231 96.597 66.2576 96.7811 65.4315C96.9651 64.6054 97.4692 63.8864 98.1825 63.4326C98.8958 62.9787 99.7598 62.8273 100.585 63.0117C111.134 65.3566 121.122 69.7522 129.982 75.9494C130.537 76.338 130.955 76.8941 131.173 77.5368C131.391 78.1795 131.399 78.8753 131.195 79.5227C130.991 80.1702 130.587 80.7355 130.04 81.1365C129.493 81.5374 128.832 81.7531 128.155 81.752Z" fill="#003447"/>
<path d="M48.7614 75.038C48.0383 75.0383 47.3367 74.792 46.772 74.3396C46.2073 73.8872 45.8132 73.2557 45.6546 72.549C45.4961 71.8423 45.5824 71.1026 45.8995 70.4517C46.2166 69.8007 46.7456 69.2773 47.3992 68.9676C54.7176 65.5095 62.5031 63.1463 70.5068 61.9536C70.9201 61.8916 71.3417 61.9118 71.7473 62.013C72.1528 62.1142 72.5345 62.2945 72.8706 62.5434C73.2066 62.7924 73.4904 63.1053 73.7058 63.4641C73.9211 63.823 74.0638 64.2208 74.1257 64.6348C74.1876 65.0489 74.1674 65.4711 74.0663 65.8774C73.9653 66.2837 73.7853 66.666 73.5368 67.0026C73.2882 67.3393 72.9759 67.6235 72.6177 67.8392C72.2594 68.0549 71.8622 68.1979 71.4489 68.2598C64.0606 69.3637 56.8737 71.5464 50.1173 74.7383C49.6934 74.9383 49.2301 75.0407 48.7614 75.038Z" fill="#003447"/>
<path d="M82.6969 226.637C66.7354 226.637 51.1149 222.01 37.7211 213.314C24.3273 204.617 13.7326 192.223 7.21592 177.628C0.699259 163.033 -1.46077 146.861 0.996516 131.063C3.4538 115.265 10.4234 100.518 21.064 88.6002C21.6294 87.9793 22.4167 87.6071 23.2547 87.5646C24.0927 87.5222 24.9135 87.8128 25.5386 88.3734C26.1637 88.934 26.5425 89.7192 26.5927 90.5581C26.6428 91.3971 26.3603 92.2219 25.8064 92.8533C18.3278 101.22 12.7825 111.135 9.5653 121.894C6.34811 132.652 5.53812 143.988 7.19307 155.095C8.84802 166.203 12.9272 176.808 19.1401 186.156C25.3531 195.505 33.5471 203.366 43.1387 209.181C52.7304 214.996 63.4839 218.621 74.6336 219.798C85.7833 220.976 97.0551 219.677 107.647 215.994C118.238 212.311 127.889 206.334 135.911 198.489C143.934 190.645 150.132 181.125 154.063 170.607C154.935 168.286 155.699 165.895 156.336 163.498C156.564 162.693 157.1 162.011 157.826 161.599C158.552 161.186 159.411 161.076 160.218 161.291C161.024 161.507 161.714 162.032 162.138 162.752C162.562 163.473 162.687 164.331 162.485 165.143C161.797 167.738 160.97 170.327 160.028 172.839C154.118 188.613 143.553 202.209 129.739 211.82C115.925 221.43 99.5161 226.598 82.6969 226.637Z" fill="#003447"/>
<path d="M96.2814 183.43L133.769 176.123C162.81 162.981 183.848 152.811 188.323 150.075C191.965 147.837 192.97 145.414 193.244 144.643C193.67 143.458 193.858 142.202 193.798 140.944C193.738 139.687 193.431 138.454 192.894 137.316L191.443 134.236C190.908 133.097 190.155 132.074 189.225 131.227C188.296 130.38 187.209 129.725 186.026 129.299C184.843 128.874 183.588 128.687 182.333 128.748C181.078 128.81 179.847 129.119 178.711 129.658L182.174 128.019C183.312 127.484 184.333 126.729 185.178 125.798C186.024 124.867 186.678 123.778 187.103 122.593C187.527 121.409 187.714 120.151 187.653 118.894C187.591 117.637 187.283 116.404 186.745 115.266L185.293 112.187C184.759 111.047 184.006 110.024 183.076 109.177C182.147 108.33 181.059 107.675 179.877 107.25C178.694 106.824 177.439 106.637 176.184 106.699C174.928 106.76 173.698 107.069 172.562 107.608L174.293 106.786C175.431 106.251 176.452 105.496 177.298 104.565C178.143 103.634 178.797 102.545 179.222 101.36C179.646 100.175 179.833 98.9179 179.772 97.6606C179.711 96.4033 179.402 95.1705 178.864 94.0329L177.413 90.9595C176.878 89.82 176.125 88.7974 175.195 87.9502C174.266 87.1031 173.179 86.448 171.996 86.0227C170.813 85.5973 169.558 85.4101 168.303 85.4716C167.048 85.5331 165.817 85.8422 164.681 86.3812L159.493 88.8297C160.631 88.2947 161.652 87.54 162.497 86.6089C163.343 85.6778 163.997 84.5886 164.422 83.4038C164.846 82.219 165.033 80.9619 164.972 79.7046C164.91 78.4473 164.602 77.2145 164.064 76.0769L162.612 72.9971C162.078 71.8576 161.325 70.835 160.395 69.9878C159.466 69.1407 158.378 68.4856 157.195 68.0603C156.013 67.635 154.758 67.4477 153.502 67.5092C152.247 67.5707 151.017 67.8798 149.881 68.4188L106.842 88.5683C105.938 85.0485 95.6385 46.1205 81.5511 40.8854C79.6987 40.1968 75.561 38.6601 71.6334 40.5092C69.9328 41.3746 68.4807 42.6604 67.4147 44.2448C66.3486 45.8293 65.7039 47.66 65.5414 49.5637C65.1913 54.4863 68.8516 56.8201 72.6073 63.509C72.6073 63.509 76.6623 71.6389 77.9736 79.6158C79.043 86.1325 75.9047 101.87 64.6056 118.423C63.7959 131.09 66.2954 143.75 71.8577 155.155C77.42 166.56 85.8532 176.316 96.326 183.462L96.2814 183.43Z" fill="#96F4CC"/>
<path d="M96.2813 186.619C95.638 186.618 95.0099 186.423 94.4799 186.058C83.5584 178.604 74.7627 168.43 68.9586 156.537C63.1545 144.644 60.542 131.443 61.3781 118.232C61.4111 117.654 61.6003 117.096 61.9255 116.618C67.8075 108.016 76.503 90.475 74.8034 80.126C73.6448 73.112 70.1246 65.7472 69.7554 64.9884C68.7164 63.1871 67.5773 61.4458 66.3434 59.7725C64.0199 56.5269 62.021 53.7276 62.3329 49.3279C62.5337 46.8575 63.3682 44.481 64.7556 42.4287C66.143 40.3765 68.0363 38.7181 70.2519 37.6144C75.3826 35.2041 80.4371 37.0852 82.6205 37.8886C95.9885 42.8622 105.537 72.2129 108.892 84.0667L148.499 65.524C150.013 64.807 151.653 64.396 153.325 64.3147C154.998 64.2334 156.67 64.4833 158.245 65.0501C159.821 65.6169 161.27 66.4896 162.509 67.618C163.747 68.7464 164.752 70.1085 165.464 71.6263L166.915 74.7061C168.029 77.0692 168.391 79.718 167.953 82.294C170.5 82.1335 173.035 82.7432 175.232 84.0439C177.428 85.3446 179.184 87.2764 180.271 89.5886L181.722 92.6684C182.592 94.5136 183.008 96.541 182.934 98.5804C182.859 100.62 182.298 102.612 181.296 104.388C184.323 105.57 186.78 107.874 188.158 110.822L189.609 113.902C190.581 115.974 190.982 118.269 190.769 120.549C190.556 122.828 189.738 125.009 188.4 126.865C190.998 128.136 193.084 130.257 194.313 132.878L195.765 135.952C196.481 137.469 196.892 139.113 196.972 140.789C197.053 142.465 196.803 144.141 196.236 145.72C195.555 147.633 193.919 150.375 189.978 152.792C184.943 155.878 161.855 166.916 135.074 179.031C134.851 179.134 134.616 179.209 134.374 179.254L96.8797 186.561C96.6824 186.599 96.4821 186.618 96.2813 186.619ZM67.6929 119.475C67.0828 131.226 69.4472 142.94 74.5665 153.53C79.6859 164.121 87.3941 173.243 96.9752 180.051L132.782 173.082C162.377 159.691 182.607 149.839 186.643 147.365C189.189 145.784 190.01 144.177 190.227 143.578C190.514 142.788 190.641 141.948 190.6 141.109C190.56 140.269 190.353 139.446 189.991 138.687L188.546 135.607C187.821 134.074 186.518 132.892 184.924 132.319C183.33 131.747 181.574 131.831 180.042 132.553C179.296 132.825 178.476 132.809 177.743 132.507C177.009 132.205 176.414 131.64 176.074 130.922C175.735 130.203 175.676 129.384 175.908 128.624C176.14 127.865 176.647 127.219 177.33 126.814L180.774 125.188C181.534 124.832 182.217 124.329 182.782 123.708C183.348 123.087 183.785 122.36 184.069 121.569C184.353 120.777 184.478 119.938 184.437 119.098C184.396 118.258 184.189 117.435 183.829 116.676L182.378 113.596C182.022 112.835 181.521 112.152 180.901 111.586C180.281 111.02 179.556 110.582 178.767 110.298C177.978 110.013 177.14 109.888 176.303 109.929C175.465 109.969 174.644 110.175 173.886 110.535C173.114 110.895 172.232 110.932 171.433 110.64C170.633 110.347 169.983 109.749 169.624 108.976C169.265 108.203 169.228 107.319 169.52 106.519C169.811 105.718 170.409 105.067 171.18 104.707L172.912 103.891C173.672 103.534 174.354 103.031 174.919 102.41C175.484 101.788 175.92 101.061 176.204 100.27C176.487 99.4788 176.612 98.6393 176.57 97.7999C176.528 96.9604 176.321 96.1375 175.961 95.3784L174.51 92.2986C174.154 91.5375 173.651 90.8543 173.031 90.2884C172.41 89.7225 171.685 89.285 170.895 89.0012C170.105 88.7173 169.267 88.5927 168.429 88.6344C167.591 88.6761 166.769 88.8834 166.011 89.2443L160.823 91.6929C160.059 92.0539 159.184 92.0962 158.389 91.8104C157.593 91.5246 156.944 90.9341 156.584 90.1689C156.223 89.4037 156.181 88.5263 156.466 87.7299C156.752 86.9335 157.341 86.2833 158.105 85.9222C158.864 85.5651 159.544 85.0615 160.108 84.4403C160.672 83.8191 161.108 83.0925 161.39 82.3022C161.673 81.5119 161.797 80.6734 161.756 79.8349C161.714 78.9964 161.508 78.1744 161.148 77.4161L159.697 74.3362C158.971 72.8032 157.669 71.6208 156.075 71.0483C154.48 70.4757 152.725 70.5598 151.192 71.2819L108.16 91.4505C107.735 91.6537 107.271 91.7599 106.8 91.7616C106.329 91.7633 105.864 91.6604 105.438 91.4604C105.012 91.2604 104.635 90.9682 104.335 90.6048C104.035 90.2415 103.82 89.816 103.704 89.3591C100.069 75.2736 90.5204 47.6318 80.3861 43.8697C78.8456 43.2958 75.6501 42.1098 72.9319 43.3915C71.7459 44.0136 70.7339 44.9228 69.9879 46.0364C69.2419 47.15 68.7856 48.4327 68.6604 49.7679C68.514 51.7892 69.3671 53.0709 71.4932 56.0423C72.8787 57.9264 74.154 59.8894 75.3127 61.9213L75.3954 62.0807C75.8538 63.0117 79.7177 71.0077 81.0418 79.0739C82.4359 87.2931 78.2409 103.706 67.6929 119.475Z" fill="#003447"/>
<path d="M79.2152 201.629L93.99 194.647C94.6721 194.325 95.2842 193.872 95.7911 193.313C96.298 192.755 96.6898 192.101 96.9441 191.39C97.1984 190.679 97.3101 189.925 97.2729 189.171C97.2357 188.417 97.0503 187.677 96.7273 186.995L62.6197 114.572C62.2988 113.889 61.8464 113.275 61.2884 112.768C60.7305 112.26 60.078 111.867 59.3684 111.613C58.6588 111.358 57.906 111.246 57.1531 111.283C56.4002 111.321 55.662 111.506 54.9808 111.83L40.2124 118.806L79.2152 201.629Z" fill="#96F4CC"/>
<path d="M79.2215 204.817C78.6177 204.819 78.0259 204.648 77.5153 204.325C77.0047 204.002 76.5963 203.54 76.3379 202.994L37.3287 120.17C37.1499 119.791 37.0475 119.381 37.0272 118.962C37.0069 118.544 37.0692 118.125 37.2105 117.731C37.3518 117.336 37.5694 116.974 37.8507 116.664C38.132 116.354 38.4716 116.102 38.8501 115.923L53.6185 108.909C54.6783 108.407 55.8266 108.119 56.9976 108.062C58.1686 108.005 59.3394 108.18 60.4428 108.576C61.5463 108.973 62.5607 109.584 63.428 110.375C64.2953 111.165 64.9984 112.119 65.497 113.182L99.6046 185.605C100.106 186.666 100.394 187.816 100.452 188.989C100.509 190.161 100.335 191.334 99.9396 192.439C99.544 193.544 98.9346 194.561 98.1464 195.43C97.3581 196.299 96.4064 197.003 95.3459 197.503L80.5774 204.479C80.1566 204.693 79.6931 204.808 79.2215 204.817ZM44.4456 120.33L80.7302 197.389L92.6213 191.765C92.9263 191.622 93.2001 191.421 93.4269 191.172C93.6537 190.923 93.829 190.631 93.9427 190.314C94.0563 189.997 94.1061 189.66 94.0891 189.324C94.0721 188.987 93.9886 188.657 93.8436 188.353L59.7361 115.936C59.594 115.63 59.3926 115.355 59.1436 115.127C58.8946 114.9 58.6029 114.724 58.2854 114.61C57.968 114.496 57.6313 114.446 57.2945 114.464C56.9578 114.481 56.6279 114.566 56.324 114.712L44.4456 120.33Z" fill="#003447"/>
<path d="M34.4065 83.7735C33.7385 83.7735 33.0874 83.563 32.5454 83.1717C32.0035 82.7804 31.5982 82.2283 31.387 81.5935C31.1757 80.9587 31.1692 80.2734 31.3684 79.6347C31.5676 78.996 31.9624 78.4362 32.4968 78.0347C33.7699 77.0783 35.043 76.1218 36.348 75.2674C36.6936 75.0185 37.0856 74.8416 37.5006 74.7472C37.9157 74.6527 38.3454 74.6426 38.7644 74.7175C39.1835 74.7923 39.5832 74.9506 39.9401 75.1829C40.297 75.4152 40.6038 75.7169 40.8422 76.07C41.0807 76.4232 41.246 76.8207 41.3284 77.239C41.4108 77.6573 41.4086 78.0878 41.3219 78.5053C41.2353 78.9227 41.0659 79.3184 40.8239 79.6691C40.5819 80.0198 40.2721 80.3184 39.9129 80.547C38.7097 81.3632 37.5129 82.224 36.3544 83.0976C35.7979 83.5331 35.1127 83.7709 34.4065 83.7735Z" fill="#003447"/>
<path d="M55.0444 127.599C54.8305 127.6 54.6171 127.579 54.4078 127.535C54.2052 127.495 54.0068 127.435 53.8158 127.356C53.6261 127.273 53.4431 127.175 53.2683 127.063C53.0947 126.945 52.9327 126.81 52.7845 126.661C52.6322 126.516 52.4975 126.354 52.3835 126.177C52.2697 126.003 52.1718 125.82 52.0907 125.628C52.013 125.437 51.9533 125.238 51.9124 125.035C51.8683 124.826 51.847 124.612 51.8488 124.398C51.8466 124.183 51.868 123.97 51.9124 123.76C51.9525 123.557 52.0122 123.358 52.0907 123.167C52.1703 122.973 52.2684 122.787 52.3835 122.612C52.6185 122.264 52.9191 121.965 53.2683 121.732C53.4417 121.618 53.6249 121.52 53.8158 121.439C54.5944 121.117 55.4688 121.117 56.2474 121.439C56.441 121.519 56.6264 121.617 56.8012 121.732C57.2364 122.024 57.5931 122.419 57.8396 122.881C58.0861 123.344 58.2149 123.86 58.2145 124.385C58.2163 124.599 58.1949 124.813 58.1508 125.023C58.1099 125.225 58.0503 125.424 57.9726 125.616C57.8915 125.807 57.7935 125.99 57.6797 126.164C57.5659 126.339 57.4336 126.502 57.285 126.649C57.1355 126.796 56.9737 126.93 56.8012 127.05C56.625 127.163 56.4397 127.261 56.2474 127.344C56.0563 127.422 55.8581 127.482 55.6555 127.522C55.455 127.569 55.2502 127.595 55.0444 127.599Z" fill="#003447"/>
<path d="M70.9906 26.6792C70.1988 26.6832 69.434 26.3914 68.8455 25.8608C68.2569 25.3302 67.8869 24.599 67.8078 23.8098L65.7708 3.51366C65.729 3.09498 65.7699 2.67215 65.8912 2.26931C66.0125 1.86648 66.2119 1.49153 66.4779 1.16587C66.7439 0.840215 67.0714 0.570225 67.4415 0.371321C67.8117 0.172417 68.2174 0.048493 68.6353 0.00662486C69.0533 -0.0352433 69.4754 0.00576024 69.8776 0.127302C70.2797 0.248843 70.6541 0.448544 70.9792 0.714992C71.3043 0.981439 71.5738 1.30941 71.7723 1.6802C71.9709 2.05099 72.0947 2.45733 72.1365 2.87601L74.1798 23.1785C74.2634 24.0189 74.0108 24.8581 73.4773 25.512C72.9438 26.1659 72.1731 26.5811 71.3344 26.6664C71.2202 26.6778 71.1054 26.6821 70.9906 26.6792Z" fill="#003447"/>
<path d="M51.5051 34.0817C51.0002 34.0819 50.5025 33.9616 50.0531 33.731C49.6037 33.5004 49.2155 33.166 48.9206 32.7554L37.0231 16.1767C36.7614 15.8383 36.5704 15.4506 36.4615 15.0367C36.3526 14.6227 36.3281 14.191 36.3893 13.7674C36.4506 13.3437 36.5964 12.9368 36.818 12.5708C37.0397 12.2048 37.3326 11.8873 37.6794 11.6371C38.0262 11.387 38.4197 11.2093 38.8365 11.1148C39.2533 11.0203 39.6849 11.0108 40.1054 11.087C40.5259 11.1631 40.9269 11.3233 41.2843 11.558C41.6417 11.7926 41.9482 12.097 42.1857 12.4529L54.0896 29.0316C54.53 29.6452 54.7385 30.3956 54.6779 31.1489C54.6172 31.9022 54.2914 32.6094 53.7586 33.1444C53.6184 33.2839 53.4672 33.4118 53.3066 33.527C52.7757 33.8898 52.1477 34.0832 51.5051 34.0817Z" fill="#003447"/>
<path d="M38.3154 50.2525C37.8762 50.248 37.4427 50.1524 37.0422 49.9719L18.4416 41.5806C18.0421 41.4215 17.6789 41.183 17.374 40.8794C17.0691 40.5759 16.8286 40.2137 16.6673 39.8145C16.5059 39.4154 16.4269 38.9876 16.4351 38.5571C16.4433 38.1265 16.5385 37.7021 16.715 37.3094C16.8914 36.9168 17.1454 36.5639 17.4617 36.2723C17.778 35.9806 18.15 35.7562 18.5552 35.6125C18.9605 35.4688 19.3906 35.4088 19.8197 35.4361C20.2487 35.4635 20.6678 35.5776 21.0515 35.7716L39.6267 44.1311C40.0373 44.3167 40.404 44.5874 40.7024 44.9254C41.0009 45.2635 41.2242 45.6611 41.3578 46.0921C41.4914 46.523 41.5322 46.9775 41.4773 47.4254C41.4225 47.8733 41.2735 48.3044 41.0399 48.6903C41.0189 48.7299 40.9955 48.7682 40.9698 48.8051C40.6818 49.2478 40.2884 49.6118 39.8251 49.8645C39.3617 50.1172 38.8429 50.2505 38.3154 50.2525Z" fill="#003447"/>
<path d="M91.5711 30.0393C91.0782 30.0383 90.5923 29.9226 90.1516 29.7014C89.4161 29.3329 88.8515 28.6935 88.5762 27.9173C88.3009 27.1411 88.3362 26.2883 88.6748 25.5376L97.0393 6.93116C97.2111 6.54932 97.4563 6.20512 97.7609 5.9182C98.0655 5.63128 98.4235 5.40726 98.8146 5.25894C99.2056 5.11062 99.6219 5.04089 100.04 5.05375C100.458 5.06661 100.869 5.16179 101.25 5.33387C101.631 5.50594 101.975 5.75155 102.262 6.05665C102.548 6.36175 102.772 6.72038 102.92 7.11206C103.068 7.50373 103.137 7.92079 103.125 8.33941C103.112 8.75804 103.017 9.17003 102.845 9.55187L94.4739 28.1901C94.2272 28.7565 93.8215 29.2388 93.3062 29.5784C92.7908 29.918 92.188 30.1003 91.5711 30.1031V30.0393Z" fill="#003447"/>
<path d="M107.714 43.2449C107.524 43.2472 107.334 43.2301 107.148 43.1939C106.531 43.0821 105.961 42.7903 105.509 42.3553C105.057 41.9202 104.744 41.3611 104.608 40.7482C104.472 40.1353 104.519 39.4959 104.745 38.91C104.97 38.3242 105.363 37.818 105.875 37.4551L122.426 25.5312C123.111 25.0374 123.964 24.8365 124.798 24.9729C125.631 25.1092 126.376 25.5715 126.869 26.2581C127.362 26.9447 127.562 27.7993 127.426 28.634C127.29 29.4687 126.829 30.215 126.143 30.7088L109.592 42.6327C109.047 43.0311 108.389 43.2454 107.714 43.2449Z" fill="#003447"/>
<path d="M3.90876 135.952L3.56499 136.519C3.32309 139.07 3.20005 141.644 3.1958 144.241C3.19224 159.201 7.4203 173.856 15.3901 186.508C23.3598 199.16 34.7451 209.291 48.2269 215.727C48.5898 215.727 48.9526 215.727 49.3218 215.727L81.0295 200.743L42.0203 117.958L3.90876 135.952Z" fill="#003447"/>
<path d="M49.3216 218.954C49.0478 218.954 48.7805 218.954 48.5132 218.954H48.1694C47.728 218.939 47.2944 218.833 46.8963 218.641C32.8569 211.951 20.9998 201.409 12.7012 188.24C4.40257 175.071 0.00281928 159.814 0.012712 144.241C0.012712 141.589 0.140017 138.885 0.401012 136.213C0.444073 135.744 0.592056 135.291 0.833915 134.887C0.986692 134.626 1.12035 134.415 1.20947 134.249C1.5328 133.729 1.99914 133.312 2.55263 133.051L40.6833 115.075C41.4457 114.715 42.3196 114.673 43.1132 114.957C43.9068 115.242 44.5553 115.83 44.9165 116.593L83.932 199.416C84.1108 199.795 84.2132 200.206 84.2335 200.624C84.2538 201.043 84.1915 201.461 84.0502 201.856C83.9089 202.25 83.6914 202.613 83.41 202.923C83.1287 203.233 82.7891 203.485 82.4107 203.663L50.703 218.648C50.2706 218.85 49.7989 218.955 49.3216 218.954ZM6.61396 138.215C6.45482 140.23 6.37843 142.258 6.37843 144.254C6.37427 158.463 10.3484 172.389 17.8493 184.45C25.3503 196.51 36.0774 206.222 48.8124 212.482L76.8215 199.257L40.5369 122.198L6.61396 138.215Z" fill="#003447"/>
</g>
<defs>
<clipPath id="clip0_250_780">
<rect width="197" height="226.637" fill="white"/>
</clipPath>
</defs>
</svg>
