<svg width="368" height="346" viewBox="0 0 368 346" fill="none" xmlns="http://www.w3.org/2000/svg">
<path d="M207.73 43.7302C201.98 46.0502 196.01 47.7902 190.54 50.7202C187.49 52.3602 185.24 55.3602 184.07 58.6302C169.06 64.8702 153.93 71.4302 138.92 77.6702C134.11 72.6902 129.3 67.7002 124.49 62.7202C113.6 65.2602 102.96 68.7102 92.7995 73.3702C92.5995 76.4202 92.2195 79.4402 92.0195 82.5002C99.6495 88.9202 107.24 95.4602 114.86 101.87C120.1 106.28 126.52 109.57 133.33 110.37C140.14 111.17 147.19 109.74 153.15 106.35C165.04 99.6002 178.94 97.2602 190.61 90.1402L206.79 49.3102C208.14 47.8102 208.65 45.5202 207.74 43.7302H207.73Z" fill="#FFD1C7"/>
<path d="M138.9 77.5803L137.59 79.5903" stroke="#00102C" stroke-width="0.8" stroke-linecap="round" stroke-linejoin="round"/>
<path d="M184.33 58.6902C184.29 59.4502 184.25 60.2202 184.21 60.9802" stroke="#00102C" stroke-width="0.8" stroke-linecap="round" stroke-linejoin="round"/>
<path d="M265.41 36.7002C260.29 35.3702 255.4 33.7502 250.28 32.4202C249.5 34.9702 247.13 36.9502 244.48 37.2702C241.83 37.5902 239.19 35.9302 237.82 33.6402C233.72 35.1602 229.61 36.6802 225.51 38.2002C220.86 67.9602 216.54 97.2202 211.89 126.98L267.16 128.28C266.68 97.7502 265.88 67.2302 265.4 36.7002H265.41Z" fill="white"/>
<path d="M232.439 36.3401C235.119 40.5001 240.119 43.0501 245.059 42.7601C249.999 42.4701 254.669 39.3501 256.839 34.9001" stroke="#00102C" stroke-width="0.8" stroke-linecap="round" stroke-linejoin="round"/>
<path d="M232.63 48.9502L235.3 50.4802" stroke="#D9D9D9" stroke-width="0.8" stroke-linecap="round" stroke-linejoin="round"/>
<path d="M247.699 51.2502C247.569 52.0802 247.449 52.9002 247.319 53.7302" stroke="#D9D9D9" stroke-width="0.8" stroke-linecap="round" stroke-linejoin="round"/>
<path d="M236.639 61.3701C235.999 61.9401 235.369 62.5101 234.729 63.0901" stroke="#D9D9D9" stroke-width="0.8" stroke-linecap="round" stroke-linejoin="round"/>
<path d="M230.909 77.2002C231.479 78.0902 232.049 78.9802 232.629 79.8702" stroke="#D9D9D9" stroke-width="0.8" stroke-linecap="round" stroke-linejoin="round"/>
<path d="M246.75 74.7201C248.02 74.2701 249.29 73.8301 250.57 73.3801" stroke="#D9D9D9" stroke-width="0.8" stroke-linecap="round" stroke-linejoin="round"/>
<path d="M247.699 87.3201C247.949 88.2701 248.209 89.2301 248.459 90.1801" stroke="#D9D9D9" stroke-width="0.8" stroke-linecap="round" stroke-linejoin="round"/>
<path d="M253.62 60.8203C254.51 60.6403 255.4 60.4603 256.3 60.2803" stroke="#D9D9D9" stroke-width="0.8" stroke-linecap="round" stroke-linejoin="round"/>
<path d="M256.67 42.8601C257.43 43.1801 258.2 43.5001 258.96 43.8101" stroke="#D9D9D9" stroke-width="0.8" stroke-linecap="round" stroke-linejoin="round"/>
<path d="M234.729 90.5601C235.619 90.2401 236.509 89.9201 237.399 89.6101" stroke="#D9D9D9" stroke-width="0.8" stroke-linecap="round" stroke-linejoin="round"/>
<path d="M223.659 97.2402C223.849 98.3202 224.039 99.4002 224.229 100.48" stroke="#D9D9D9" stroke-width="0.8" stroke-linecap="round" stroke-linejoin="round"/>
<path d="M225.76 67.8501H228.43" stroke="#D9D9D9" stroke-width="0.8" stroke-linecap="round" stroke-linejoin="round"/>
<path d="M255.719 93.0403C255.209 93.6103 254.699 94.1803 254.189 94.7603" stroke="#D9D9D9" stroke-width="0.8" stroke-linecap="round" stroke-linejoin="round"/>
<path d="M252.09 108.5C252.85 109.01 253.62 109.52 254.38 110.03" stroke="#D9D9D9" stroke-width="0.8" stroke-linecap="round" stroke-linejoin="round"/>
<path d="M240.44 102.96C240.31 104.04 240.18 105.12 240.06 106.2" stroke="#D9D9D9" stroke-width="0.8" stroke-linecap="round" stroke-linejoin="round"/>
<path d="M226.14 114.79C226.59 115.62 227.03 116.44 227.48 117.27" stroke="#D9D9D9" stroke-width="0.8" stroke-linecap="round" stroke-linejoin="round"/>
<path d="M251.71 121.85C252.47 121.47 253.24 121.09 254 120.71" stroke="#D9D9D9" stroke-width="0.8" stroke-linecap="round" stroke-linejoin="round"/>
<path d="M241.629 114.99C241.569 115.88 241.509 116.77 241.449 117.66" stroke="#D9D9D9" stroke-width="0.8" stroke-linecap="round" stroke-linejoin="round"/>
<path d="M219.649 119.18C220.159 119.82 220.669 120.45 221.179 121.09" stroke="#D9D9D9" stroke-width="0.8" stroke-linecap="round" stroke-linejoin="round"/>
<path d="M242.43 63.2203L244.89 62.0303" stroke="#D9D9D9" stroke-width="0.8" stroke-linecap="round" stroke-linejoin="round"/>
<path d="M230.13 40.8301C230.89 41.0301 231.65 41.2201 232.41 41.4201" stroke="#D9D9D9" stroke-width="0.8" stroke-linecap="round" stroke-linejoin="round"/>
<path d="M323.04 302.62C308.47 306.27 293.95 310.35 279.38 314C282.06 322.29 280.43 331.85 275.15 338.78C273.73 340.64 271.83 342.76 271.71 345.1L296.9 345.18C307.61 342.01 318.84 338.48 329.54 335.3C327.64 324.23 324.94 313.68 323.04 302.61V302.62Z" fill="#00102C"/>
<path d="M286.62 320.82C290.61 320.16 294.6 319.51 298.59 318.85" stroke="white" stroke-width="0.8" stroke-linecap="round" stroke-linejoin="round"/>
<path d="M286.65 325.13C290.72 324.6 294.78 324.06 298.85 323.53" stroke="white" stroke-width="0.8" stroke-linecap="round" stroke-linejoin="round"/>
<path d="M287.15 329.37C290.8 328.78 294.45 328.2 298.09 327.61" stroke="white" stroke-width="0.8" stroke-linecap="round" stroke-linejoin="round"/>
<path d="M325.66 324.57C322.48 327.2 320.82 331.56 321.44 335.64" stroke="white" stroke-width="0.8" stroke-linecap="round" stroke-linejoin="round"/>
<path d="M220.079 313.77C221.389 318.6 221.069 323.87 219.179 328.5C217.289 333.13 213.829 337.12 209.499 339.65C207.069 341.07 204.659 342.49 203.539 345.08L266.539 345.49C266.949 334.68 267.709 323.93 268.119 313.12C252.219 313.39 235.979 313.5 220.079 313.77Z" fill="#00102C"/>
<path d="M222.52 322.44C225.32 322.36 228.12 322.27 230.92 322.19" stroke="white" stroke-width="0.8" stroke-linecap="round" stroke-linejoin="round"/>
<path d="M221.239 326.37L230.909 326.29" stroke="white" stroke-width="0.8" stroke-linecap="round" stroke-linejoin="round"/>
<path d="M219.719 331.051H227.859" stroke="white" stroke-width="0.8" stroke-linecap="round" stroke-linejoin="round"/>
<path d="M251.709 343.98C254.569 339.66 259.839 337.05 265.009 337.38" stroke="white" stroke-width="0.8" stroke-linecap="round" stroke-linejoin="round"/>
<path d="M326.33 306.43L306.27 211.25C302.25 184.04 299.08 156.86 295.06 129.65C266.56 127.57 236.98 125.82 208.47 123.75C207.66 131.38 206.86 139.02 206.05 146.65C200.17 202.43 211.47 259.66 215.88 315.57C233.52 315.77 251.18 315.86 268.82 316.06C268.64 305.54 268.57 294.23 268.39 283.72C270.73 294.33 273.2 304.9 275.54 315.51C292.39 312.3 309.49 309.64 326.34 306.43H326.33Z" fill="#0C458F"/>
<path d="M240.26 163.15C249.82 204.46 259.38 245.76 268.93 287.07" stroke="#00102C" stroke-width="0.8" stroke-linecap="round" stroke-linejoin="round"/>
<path d="M213.359 130.06C229.039 130.71 244.729 131.36 260.409 132" stroke="#00102C" stroke-width="0.8" stroke-linecap="round" stroke-linejoin="round"/>
<path d="M238.34 135.54C242.184 135.54 245.3 132.424 245.3 128.58C245.3 124.736 242.184 121.62 238.34 121.62C234.496 121.62 231.38 124.736 231.38 128.58C231.38 132.424 234.496 135.54 238.34 135.54Z" stroke="#00102C" stroke-width="0.8" stroke-linecap="round" stroke-linejoin="round"/>
<path d="M215.909 302.9C233.039 303.5 250.179 304.1 267.309 304.7" stroke="#00102C" stroke-width="0.8" stroke-linecap="round" stroke-linejoin="round"/>
<path d="M274.449 304.02C290.709 301.19 306.979 298.37 323.239 295.54" stroke="#00102C" stroke-width="0.8" stroke-linecap="round" stroke-linejoin="round"/>
<path d="M258.74 304.59C258.66 285 258.59 265.41 258.51 245.82" stroke="#00102C" stroke-width="0.8" stroke-linecap="round" stroke-linejoin="round"/>
<path d="M316.45 296.69C314.59 289.73 312.73 282.78 310.87 275.82C299.9 234.78 292.56 192.94 291.13 150.48" stroke="#00102C" stroke-width="0.8" stroke-linecap="round" stroke-linejoin="round"/>
<path d="M151.339 103.01C151.339 103.01 140.789 107.21 137.249 108.98C135.529 107.72 133.429 106.81 131.309 106.9C127.809 107.06 123.989 107.34 120.489 107.5C121.129 112.38 122.099 117.17 122.739 122.04L143.819 137.65L159.929 131.67L151.339 103V103.01Z" fill="#FF9A7D"/>
<path d="M137.159 108.94C138.099 110.04 139.039 111.14 139.969 112.24" stroke="#00102C" stroke-width="0.8" stroke-linecap="round" stroke-linejoin="round"/>
<path d="M139.549 106.06L150.769 136.37L162.749 133.25L153.539 100.11L139.549 106.06Z" fill="white"/>
<path d="M353.239 209.96H282.119C274.067 209.96 267.539 216.488 267.539 224.54V263.56C267.539 271.613 274.067 278.14 282.119 278.14H353.239C361.291 278.14 367.819 271.613 367.819 263.56V224.54C367.819 216.488 361.291 209.96 353.239 209.96Z" fill="#FF6852"/>
<path d="M334.359 212.62L330.689 200.02C330.139 198.13 328.379 196.81 326.409 196.81H307.419C305.419 196.81 303.659 198.15 303.119 200.08L299.869 211.83L295.699 210.68L298.949 198.93C299.999 195.14 303.479 192.49 307.419 192.49H326.409C330.289 192.49 333.759 195.09 334.839 198.81L338.509 211.41L334.359 212.62Z" fill="#FF6852"/>
<path d="M277.909 213.51C277.849 233.86 277.789 254.22 277.729 274.57" stroke="#00102C" stroke-width="0.8" stroke-linecap="round" stroke-linejoin="round"/>
<path d="M357.699 212.74C357.849 233.35 357.989 253.96 358.139 274.56" stroke="#00102C" stroke-width="0.8" stroke-linecap="round" stroke-linejoin="round"/>
<path d="M299.069 174.11C300.189 182.71 301.299 191.31 302.419 199.91C302.639 201.59 303.809 203.38 305.409 203.94C307.009 204.5 308.929 203.98 310.019 202.68C310.839 203.92 312.209 204.84 313.699 204.79C315.189 204.74 316.619 203.87 317.349 202.57C318.059 203.97 319.659 204.96 321.229 204.91C322.799 204.85 324.289 203.83 324.899 202.39C325.949 202.99 327.409 202.8 328.469 202.21C329.529 201.62 330.229 200.45 330.259 199.24C330.469 191 330.719 182.58 330.999 174.34L299.069 174.12V174.11Z" fill="#FF9A7D"/>
<path d="M309.529 200.53C309.699 201.29 309.869 202.06 310.039 202.82" stroke="#00102C" stroke-width="0.8" stroke-linecap="round" stroke-linejoin="round"/>
<path d="M317.159 200.79V203.33" stroke="#00102C" stroke-width="0.8" stroke-linecap="round" stroke-linejoin="round"/>
<path d="M325.089 200.03C324.999 200.88 324.919 201.73 324.829 202.57" stroke="#00102C" stroke-width="0.8" stroke-linecap="round" stroke-linejoin="round"/>
<path d="M229.01 34.6802C222.53 36.6202 216.21 38.4302 209.74 40.3702C209.61 41.5802 209.51 42.6602 209.38 43.8702C204.49 46.2702 200.28 50.3602 197.98 55.2902C192.53 67.0302 186.97 78.5502 181.52 90.3002C169.54 93.4702 157.57 96.6402 145.59 99.8102C149.92 113.67 154.11 126.98 158.44 140.84C169.6 136.86 180.59 132.58 191.75 128.6C196.25 126.99 200.63 124.04 203.65 120.34C202.41 129.94 201.44 139.32 200.19 148.92L213.54 151.85L229.01 34.6802Z" fill="#2263D3"/>
<path d="M163.86 95.7502C166.2 103.57 167.9 111.46 170.24 119.28C164.95 120.85 159.66 122.41 154.37 123.98" stroke="#00102C" stroke-width="0.8" stroke-linecap="round" stroke-linejoin="round"/>
<path d="M181.31 90.5602C182.03 90.4302 182.75 90.3102 183.47 90.1802" stroke="#00102C" stroke-width="0.8" stroke-linecap="round" stroke-linejoin="round"/>
<path d="M209.48 43.9502C209.19 50.4802 208.91 57.0102 208.63 63.5402C212.06 63.5902 215.39 63.6002 218.83 63.6502C215.63 65.7002 212.74 67.5802 209.54 69.6302C211.93 86.1702 214.31 102.82 216.7 119.37" stroke="#00102C" stroke-width="0.8" stroke-linecap="round" stroke-linejoin="round"/>
<path d="M203.14 122.22C205.13 103.29 207.12 84.3502 209.11 65.4202" stroke="#00102C" stroke-width="0.8" stroke-linecap="round" stroke-linejoin="round"/>
<path d="M326.819 93.43C319.959 81.8501 314.049 69.3601 305.999 58.57C299.649 50.07 292.239 45.3501 280.009 41.6301L280.499 39.09L261.589 33.05L256.399 153.01L294.419 152.63L294.909 175.61L332.099 176.57L333.819 123.37C334.069 113.13 332.039 102.23 326.809 93.42L326.819 93.43Z" fill="#2263D3"/>
<path d="M280.229 40.9399C278.419 48.3299 276.609 55.7199 274.799 63.1199C271.229 63.2999 267.029 63.5399 263.469 63.7199C266.629 65.6399 269.589 68.1899 272.739 70.0999C268.159 87.3499 263.409 104.58 258.829 121.84" stroke="#00102C" stroke-width="0.8" stroke-linecap="round" stroke-linejoin="round"/>
<path d="M294.349 152.19C294.269 139.21 294.189 126.24 294.109 113.26C289.579 100.1 283.439 84.25 278.349 69.55C276.569 64.41 276.929 58.74 280.379 54.53C283.829 50.32 289.709 48.28 295.019 49.43" stroke="#00102C" stroke-width="0.8" stroke-linecap="round" stroke-linejoin="round"/>
<path d="M295.279 158.82C304.279 159.29 313.269 159.76 322.269 160.23C322.109 165.49 321.779 170.08 321.619 175.34" stroke="#00102C" stroke-width="0.8" stroke-linecap="round" stroke-linejoin="round"/>
<path d="M293.74 129.23L270.62 116.62L270.13 123.98L294.26 137.66" stroke="#00102C" stroke-width="0.8" stroke-linecap="round" stroke-linejoin="round"/>
<path d="M245.6 0.400146C245.41 1.16015 245.27 2.04015 245.08 2.80015C239.97 1.20015 234.45 1.26015 229.09 1.26015C227.19 1.26015 225.3 1.94015 223.84 3.16015" stroke="#00102C" stroke-width="0.8" stroke-linecap="round" stroke-linejoin="round"/>
<path d="M252.309 10.2601C251.979 8.24012 251.609 6.12012 250.309 4.53012C249.269 3.26012 247.739 2.49012 246.149 2.08012C244.569 1.67012 242.789 1.44012 241.159 1.55012C237.879 1.75012 234.599 1.96012 231.319 2.16012C229.839 2.25012 228.329 2.35012 226.939 2.88012C225.549 3.41012 224.289 4.46012 223.869 5.88012C223.529 7.02012 223.799 8.31011 224.559 9.23011C225.309 10.1401 226.629 10.8001 227.809 10.6801C227.269 11.0401 226.859 11.5801 226.659 12.2001C226.289 13.3301 226.689 14.6501 227.599 15.4101C228.509 16.1701 229.859 16.3401 230.939 15.8501C231.969 17.8801 232.729 19.8601 233.389 22.0401L254.089 21.1601C253.499 17.5301 252.909 13.8901 252.319 10.2601H252.309Z" fill="#00102C"/>
<path d="M252.519 33.7602C252.249 31.2102 251.919 28.7602 251.649 26.2102C253.749 26.0602 255.729 24.6802 256.589 22.7502C257.449 20.8202 257.159 18.4302 255.859 16.7702C254.559 15.1102 252.319 14.2402 250.239 14.6002C249.679 15.8502 249.149 17.0502 248.589 18.2902C248.049 17.9602 247.629 17.4802 247.399 16.9002L245.189 11.4202C240.839 11.5202 236.339 11.7902 231.999 11.9002C230.469 13.2902 229.359 14.9902 229.019 17.0302C228.679 19.0402 228.879 21.1002 228.819 23.1302C228.759 25.3302 229.719 27.6402 231.209 29.2702C232.689 30.9002 234.789 31.9602 236.979 32.1902C237.049 33.1002 237.089 33.9902 237.149 34.9002C238.949 37.3702 242.109 38.7702 245.159 38.5502C248.209 38.3302 251.089 36.4502 252.529 33.7502L252.519 33.7602Z" fill="#FF9A7D"/>
<path d="M242.369 23.1601L239.259 23.5901C239.249 24.2001 239.619 24.8001 240.169 25.0601C240.719 25.3201 241.429 25.2201 241.889 24.8201C242.349 24.4201 242.549 23.7401 242.369 23.1501V23.1601Z" fill="white"/>
<path d="M243.919 20.2101C243.919 19.7301 243.529 19.3501 243.049 19.3501C242.569 19.3501 242.189 19.7401 242.189 20.2101C242.189 20.6801 242.579 21.0801 243.049 21.0801C243.519 21.0801 243.919 20.6901 243.919 20.2101Z" fill="#00102C"/>
<path d="M233.08 20.2802C233.08 19.8002 232.69 19.4202 232.21 19.4202C231.73 19.4202 231.35 19.8102 231.35 20.2802C231.35 20.7502 231.74 21.1502 232.21 21.1502C232.68 21.1502 233.08 20.7602 233.08 20.2802Z" fill="#00102C"/>
<path d="M236.629 20.0701L235.959 23.2901C236.399 23.2201 236.859 23.2901 237.309 23.2201" stroke="#00102C" stroke-width="0.8" stroke-linecap="round" stroke-linejoin="round"/>
<path d="M236.569 32.2602C239.109 32.9202 241.859 32.7202 244.269 31.7102" stroke="#00102C" stroke-width="0.8" stroke-linecap="round" stroke-linejoin="round"/>
<path d="M250.949 19.6802C251.839 18.9502 252.739 18.2202 253.629 17.4902" stroke="#00102C" stroke-width="0.8" stroke-linecap="round" stroke-linejoin="round"/>
<path d="M240.279 15.1101C240.999 14.0801 242.659 13.8801 243.599 14.7201" stroke="#00102C" stroke-width="0.8" stroke-linecap="round" stroke-linejoin="round"/>
<path d="M230.819 15.9202C231.649 15.9802 232.469 16.0502 233.299 16.1102" stroke="#00102C" stroke-width="0.8" stroke-linecap="round" stroke-linejoin="round"/>
<path d="M36.3401 40.8501C36.2801 39.3601 37.0701 37.9501 38.1501 36.9201C39.2301 35.9001 40.5701 35.2001 41.8901 34.5201C46.0601 32.3701 50.2301 30.2201 54.4101 28.0701" stroke="#FF6852" stroke-width="0.8" stroke-linecap="round" stroke-linejoin="round"/>
<path d="M79.5303 7.38019C73.7503 3.45019 65.4203 3.77019 59.9603 8.14019C54.5003 12.5002 52.8103 20.7602 55.3703 27.2702C51.3403 29.7302 47.3103 32.1802 43.2803 34.6402C41.4703 35.7402 39.6003 36.9002 38.4403 38.6702C37.2703 40.4402 37.0203 43.0002 38.4403 44.5702L70.1203 50.0602C70.0803 43.1502 70.2703 36.5102 70.2303 29.5902C72.9903 27.6102 75.9403 25.4502 78.7103 23.4702C78.8303 20.4102 79.1203 17.0902 79.2403 14.0402C80.3903 13.3302 81.1603 12.0502 81.2403 10.7002C81.3203 9.35019 80.6503 8.14019 79.5403 7.39019L79.5303 7.38019Z" fill="#FF6852"/>
<path d="M51.4805 28.1602L53.2905 23.4302L64.3605 27.4002L63.6305 30.8002L51.4805 28.1602Z" fill="white"/>
<path d="M127.93 63.0902C122.37 57.5802 117.15 51.5902 111.32 46.3702C106.68 42.2202 101.3 38.7602 95.1604 37.7202C88.3504 36.5702 81.8604 35.4702 75.0504 34.3202C73.5904 36.5102 70.8304 37.7602 68.2204 37.4202C65.6104 37.0802 63.0904 35.2202 62.2404 32.7402C55.0004 35.8102 47.7604 38.8702 40.5204 41.9402C35.4004 44.1102 30.9204 47.7402 28.2404 52.6002C25.5604 57.4702 24.6204 63.2702 25.6404 68.7402C28.9804 86.6802 29.5304 104.99 32.4204 123.01L104.46 121.66C104.4 109.74 104.52 97.9502 104.46 86.0402C106.74 84.5202 108.31 81.9602 108.62 79.2302C108.94 76.5002 108.12 73.4302 106.24 71.4202C113.22 68.6802 120.93 65.8402 127.92 63.0902H127.93Z" fill="#007AFF"/>
<path d="M52.3408 37.6503C56.5708 42.7403 60.8008 47.8303 65.0308 52.9203C66.8808 49.0903 68.8108 45.4703 70.6608 41.6303C74.0108 44.7103 77.3408 47.5703 80.6908 50.6403C81.1708 45.8103 81.8808 41.1003 82.3608 36.2703" stroke="#00102C" stroke-width="0.8" stroke-linecap="round" stroke-linejoin="round"/>
<path d="M93.3408 38.1003C93.8808 42.0903 95.1708 45.9803 96.7208 49.6903C99.6908 56.8503 102.661 64.0003 105.631 71.1603" stroke="#00102C" stroke-width="0.8" stroke-linecap="round" stroke-linejoin="round"/>
<path d="M36.6699 45.0602C40.5999 42.7802 45.8799 43.0802 49.5199 45.8102C51.8899 47.5902 53.4899 50.1902 55.0299 52.7202C59.5499 60.1502 64.0699 67.5902 68.5899 75.0202" stroke="#00102C" stroke-width="0.8" stroke-linecap="round" stroke-linejoin="round"/>
<path d="M27.9404 73.3503C29.9004 79.8003 31.8704 86.2603 33.8304 92.7103" stroke="#00102C" stroke-width="0.8" stroke-linecap="round" stroke-linejoin="round"/>
<path d="M104.2 67.4602C110.83 64.9502 117.45 62.4302 124.08 59.9202" stroke="#00102C" stroke-width="0.8" stroke-linecap="round" stroke-linejoin="round"/>
<path d="M32.5205 87.4301C43.6105 81.8301 54.7005 76.2401 65.7905 70.6401" stroke="#00102C" stroke-width="0.8" stroke-linecap="round" stroke-linejoin="round"/>
<path d="M70.7803 42.1501C72.3903 48.9001 74.0003 55.6501 75.6103 62.4101" stroke="#00102C" stroke-width="0.8" stroke-linecap="round" stroke-linejoin="round"/>
<path d="M92.98 337.86C88.58 334.14 85.45 328.93 84.24 323.3C83.02 317.67 83.66 311.77 86.13 306.56C61.55 300.88 35.94 297.99 10.71 298.04C7.14 308.62 3.57 319.19 0 329.77C9.02 334.64 17.66 340.17 26.67 345.04L98.81 345.48C98.57 342.17 95.52 340 92.98 337.86Z" fill="#0C458F"/>
<path d="M36.9595 315.79C36.7295 325.46 36.4995 335.12 36.2695 344.79" stroke="#00102C" stroke-width="0.8" stroke-linecap="round" stroke-linejoin="round"/>
<path d="M3.50977 324.87C12.9498 330.98 22.3998 337.08 31.8398 343.19" stroke="#00102C" stroke-width="0.8" stroke-linecap="round" stroke-linejoin="round"/>
<path d="M37.2695 338.781L98.6195 344.211" stroke="#00102C" stroke-width="0.8" stroke-linecap="round" stroke-linejoin="round"/>
<path d="M105.01 115.54L30.6602 118.76C29.0602 129.19 27.4502 139.62 25.8502 150.05C21.8702 175.93 28.0302 202.09 33.6702 227.66C24.2402 251 14.4202 274.53 4.99023 297.87C15.1102 302.38 25.3202 306.59 35.6002 310.72C35.6502 312.63 35.1902 314.2 35.2402 316.11C54.7002 315.89 74.2402 315.55 93.7002 315.33C92.1502 296.19 91.0502 276.83 89.5002 257.69C97.4302 248.02 100.24 235.29 102.46 222.98C109.66 183.11 108.29 151.34 105 115.54H105.01Z" fill="#00102C"/>
<path d="M30.1699 125.53C45.0999 125.2 60.0299 124.87 74.9599 124.54" stroke="white" stroke-width="0.8" stroke-linecap="round" stroke-linejoin="round"/>
<path d="M40.1206 125.48C37.2606 139.95 36.0806 154.75 36.6106 169.49C37.3006 188.79 41.3106 207.63 43.6006 226.81C44.5606 226.14 46.2106 226.81 46.8006 227.82C47.3906 228.83 47.2106 230.17 46.5506 231.14C45.8906 232.11 44.8406 232.75 43.7406 233.16C43.4306 260.55 42.3606 287.87 42.0506 315.27" stroke="white" stroke-width="0.8" stroke-linecap="round" stroke-linejoin="round"/>
<path d="M35.6902 310.94C35.1102 283.38 34.5302 255.82 33.9502 228.26" stroke="white" stroke-width="0.8" stroke-linecap="round" stroke-linejoin="round"/>
<path d="M79.4502 162.67C82.1202 185.12 84.7902 207.57 87.4602 230.02C88.5702 239.4 89.0102 248.88 89.6202 258.3" stroke="white" stroke-width="0.8" stroke-linecap="round" stroke-linejoin="round"/>
<path d="M61.5801 124.97C61.6501 129.21 61.7201 133.45 61.7901 137.7" stroke="white" stroke-width="0.8" stroke-linecap="round" stroke-linejoin="round"/>
<path d="M37.1104 153.91C42.9504 144.32 48.7903 134.73 54.6203 125.14" stroke="white" stroke-width="0.8" stroke-linecap="round" stroke-linejoin="round"/>
<path d="M147.25 140.98C144.74 134.7 140.83 128.93 136.29 123.93C130.9 118 124 113.07 116.68 109.82C102.97 103.73 89.4401 97.7703 75.7301 91.6803C72.7101 86.6203 69.6901 81.5603 66.6701 76.5103L36.3701 91.6503C41.5101 100.02 46.9801 108.27 53.8901 115.25C60.8001 122.23 69.0401 128.38 78.6501 130.39C87.7101 132.28 105.19 138.66 105.19 138.66C105.19 138.66 117.01 153.68 125.46 156.23C127.12 156.73 129.34 155.73 129.68 154.03C130.98 154.64 132.6 154.52 133.8 153.72C135 152.92 136.06 151.65 135.99 150.21C137.38 150.53 138.92 150.19 140.04 149.31C141.16 148.43 142.03 147.15 142.05 145.72C143.38 146.29 145.05 145.98 146.08 144.97C147.11 143.95 147.78 142.34 147.24 140.99L147.25 140.98Z" fill="#FFD1C7"/>
<path d="M75.7299 91.9902L72.6699 92.3502" stroke="#00102C" stroke-width="0.8" stroke-linecap="round" stroke-linejoin="round"/>
<path d="M140.08 142.91L141.84 145.34" stroke="#00102C" stroke-width="0.8" stroke-linecap="round" stroke-linejoin="round"/>
<path d="M133.86 147.6C134.72 148.47 135.59 149.35 136.45 150.22" stroke="#00102C" stroke-width="0.8" stroke-linecap="round" stroke-linejoin="round"/>
<path d="M127.62 152.19C128.21 152.74 128.81 153.29 129.4 153.85" stroke="#00102C" stroke-width="0.8" stroke-linecap="round" stroke-linejoin="round"/>
<path d="M75.8897 35.2202C75.9597 34.4602 76.0997 33.8302 76.1597 33.0602C78.2497 32.5402 80.1597 31.3202 81.5197 29.6502C82.8797 27.9802 83.9797 25.8602 83.8797 23.7102C83.7297 20.4802 83.0397 17.3602 81.7697 14.3802C81.1597 12.9502 80.0797 11.7202 78.7397 10.9302C77.3997 10.1402 76.0097 9.61023 74.4697 9.77023C74.8797 10.5202 74.4297 11.4902 73.7297 11.9802C73.0297 12.4702 72.1597 12.6102 71.3297 12.8002C70.4997 12.9902 69.6297 13.2802 69.1097 13.9602C68.6597 14.5402 68.5597 15.3102 68.4597 16.0402C68.3597 16.7702 68.2497 17.5402 67.7797 18.1102C67.3197 18.6802 66.1197 19.2102 65.5797 18.7102C65.2497 19.4102 64.9097 20.1102 64.5797 20.8002C64.0897 19.8802 63.4697 18.9502 62.9897 18.0302C60.9597 17.7102 58.7797 18.6102 57.5597 20.2602C56.3397 21.9102 56.1297 24.2602 57.0297 26.1102C57.9397 27.9602 59.9197 29.2302 61.9797 29.2802C61.5897 30.8302 61.2097 32.3902 60.8197 33.9302C60.4597 35.3602 61.3097 37.0702 62.3397 38.1302C63.3697 39.1902 64.7497 39.8602 66.1797 40.2302C68.1797 40.7502 70.3697 40.6902 72.2597 39.8602C74.1597 39.0302 75.6997 37.2602 75.8797 35.2002L75.8897 35.2202Z" fill="#FFD1C7"/>
<path d="M72.5298 20.9501C72.5298 20.4701 72.1398 20.0801 71.6698 20.0801C71.1998 20.0801 70.7998 20.4701 70.7998 20.9501C70.7998 21.4301 71.1898 21.8101 71.6698 21.8101C72.1498 21.8101 72.5298 21.4201 72.5298 20.9501Z" fill="#00102C"/>
<path d="M82.52 19.8703C82.52 19.3903 82.13 19.0103 81.65 19.0103C81.17 19.0103 80.79 19.4003 80.79 19.8703C80.79 20.3403 81.18 20.7403 81.65 20.7403C82.12 20.7403 82.52 20.3503 82.52 19.8703Z" fill="#00102C"/>
<path d="M59.5596 21.1001C60.3996 21.6301 61.2296 22.1501 62.0696 22.6801" stroke="#00102C" stroke-width="0.8" stroke-linecap="round" stroke-linejoin="round"/>
<path d="M70.0596 17.3901C70.3296 16.6701 71.0196 16.1201 71.7796 16.0201C72.5396 15.9201 73.3496 16.2701 73.7996 16.8901" stroke="#00102C" stroke-width="0.8" stroke-linecap="round" stroke-linejoin="round"/>
<path d="M79.3994 14.49C80.0394 14.34 80.6694 14.18 81.3094 14.03" stroke="#00102C" stroke-width="0.8" stroke-linecap="round" stroke-linejoin="round"/>
<path d="M77.5501 19.78C77.8901 20.67 78.2401 21.57 78.5801 22.46C78.2001 22.52 77.5001 22.56 77.1201 22.63" stroke="#00102C" stroke-width="0.8" stroke-linecap="round" stroke-linejoin="round"/>
<path d="M73.4796 23.6802C73.3896 24.2702 73.7496 24.9002 74.2996 25.1302C74.8496 25.3602 75.5496 25.1402 75.8896 24.6502" stroke="#00102C" stroke-width="0.8" stroke-linecap="round" stroke-linejoin="round"/>
<path d="M68.5996 32.6001C71.0796 33.8001 73.9896 34.0701 76.6396 33.3301" stroke="#00102C" stroke-width="0.8" stroke-linecap="round" stroke-linejoin="round"/>
<path d="M61.5596 29.4201C62.0696 29.3901 62.5796 29.3601 63.0896 29.3201" stroke="#00102C" stroke-width="0.8" stroke-linecap="round" stroke-linejoin="round"/>
<path d="M74.6399 9.64014C75.0899 10.5401 74.9599 11.6901 74.3199 12.4701C73.6699 13.2701 72.6199 13.6101 71.6299 13.9101" stroke="#FF6852" stroke-width="0.8" stroke-linecap="round" stroke-linejoin="round"/>
<path d="M119.29 153.91C120.37 151.26 121.45 148.61 122.52 145.96C122.78 145.32 123.04 144.66 123.02 143.97C123 143.28 122.49 142.52 121.82 142.33C120.34 143.61 118.84 144.87 117.37 146.15L119.85 138.49C120.08 137.78 120.31 137.03 120.18 136.3C120.04 135.57 119.39 134.88 118.65 134.95C116.63 137.18 114.44 139.34 112.42 141.57C112.93 139.19 113.44 136.81 113.95 134.43C114.15 133.5 114.35 132.53 114.1 131.61C113.85 130.69 112.99 130.02 112.05 130.12C110.6 132.11 109.14 134.09 107.69 136.08C107.87 134.09 108.06 132.09 108.24 130.1C108.31 129.29 108.38 128.45 108.07 127.7C107.76 126.95 106.84 126.53 106.07 126.77C104.15 130.64 102.23 134.52 100.32 138.39C100.41 139.47 100.91 140.42 101.76 141.09C102.61 141.76 103.73 142.07 104.8 141.92C104.82 143.21 105.69 144.33 106.79 145.01C107.88 145.7 109.32 145.8 110.51 145.3C110.31 146.59 110.82 147.84 111.81 148.7C112.8 149.56 114.24 149.86 115.49 149.48C115 150.56 115.33 151.87 116.09 152.79C116.85 153.7 118.16 154.17 119.31 153.89L119.29 153.91Z" fill="#FF9A7D"/>
<path d="M104.58 141.82C105.53 139.86 106.47 137.89 107.42 135.93" stroke="#00102C" stroke-width="0.8" stroke-linecap="round" stroke-linejoin="round"/>
<path d="M110.21 145.34C110.97 143.9 111.74 142.46 112.5 141.01" stroke="#00102C" stroke-width="0.8" stroke-linecap="round" stroke-linejoin="round"/>
<path d="M114.9 149.78C115.76 148.51 116.62 147.25 117.47 145.98" stroke="#00102C" stroke-width="0.8" stroke-linecap="round" stroke-linejoin="round"/>
<path d="M120.49 107.51C119.1 112.26 117.71 117.01 116.32 121.76C116.69 122.33 117.84 122.32 118.48 122.07C119.12 121.82 119.6 121.31 120.06 120.81C122.51 118.18 124.95 115.55 127.4 112.92L120.49 107.49V107.51Z" fill="#FF9A7D"/>
<path d="M125.71 114.79C126.09 114.37 126.47 113.94 126.85 113.52" stroke="#00102C" stroke-width="0.8" stroke-linecap="round" stroke-linejoin="round"/>
</svg>
