<svg width="37" height="37" viewBox="0 0 37 37" fill="none" xmlns="http://www.w3.org/2000/svg">
<path d="M7.24904 7.60555C7.66905 7.19218 8.23865 6.95996 8.83255 6.95996C9.42646 6.95996 9.99605 7.19218 10.4161 7.60555L18.3359 15.4024L26.2557 7.60555C26.6781 7.2039 27.2439 6.98164 27.8312 6.98667C28.4184 6.99169 28.9802 7.22359 29.3955 7.63242C29.8107 8.04124 30.0463 8.59428 30.0514 9.17243C30.0565 9.75057 29.8307 10.3076 29.4227 10.7234L21.5029 18.5203L29.4227 26.3172C29.8307 26.7331 30.0565 27.29 30.0514 27.8682C30.0463 28.4463 29.8107 28.9994 29.3955 29.4082C28.9802 29.817 28.4184 30.0489 27.8312 30.0539C27.2439 30.059 26.6781 29.8367 26.2557 29.4351L18.3359 21.6382L10.4161 29.4351C9.99364 29.8367 9.42787 30.059 8.84061 30.0539C8.25335 30.0489 7.69159 29.817 7.27632 29.4082C6.86105 28.9994 6.62549 28.4463 6.62039 27.8682C6.61529 27.29 6.84104 26.7331 7.24904 26.3172L15.1689 18.5203L7.24904 10.7234C6.82914 10.3099 6.59326 9.74918 6.59326 9.16449C6.59326 8.5798 6.82914 8.01905 7.24904 7.60555V7.60555Z" fill="white"/>
</svg>
