<svg width="215" height="215" viewBox="0 0 215 215" fill="none" xmlns="http://www.w3.org/2000/svg">
<circle cx="107.5" cy="107.5" r="86.5" fill="#FF7B79"/>
<path d="M143.907 74.4941C143.907 73.5703 143.151 72.8145 142.228 72.8145L128.37 72.8774L107.5 97.7578L86.6509 72.8984L72.7725 72.8355C71.8486 72.8355 71.0928 73.5703 71.0928 74.5151C71.0928 74.9141 71.2397 75.292 71.4917 75.6069L98.8076 108.151L71.4917 140.674C71.238 140.982 71.0972 141.367 71.0928 141.766C71.0928 142.689 71.8486 143.445 72.7725 143.445L86.6509 143.382L107.5 118.502L128.349 143.361L142.207 143.424C143.13 143.424 143.886 142.689 143.886 141.745C143.886 141.346 143.739 140.968 143.487 140.653L116.213 108.13L143.529 75.5859C143.781 75.292 143.907 74.8931 143.907 74.4941Z" fill="#8E0000"/>
<path d="M107.062 14C55.1182 14 13 56.1182 13 108.062C13 160.007 55.1182 202.125 107.062 202.125C159.007 202.125 201.125 160.007 201.125 108.062C201.125 56.1182 159.007 14 107.062 14ZM107.062 186.168C63.9365 186.168 28.957 151.188 28.957 108.062C28.957 64.9365 63.9365 29.957 107.062 29.957C150.188 29.957 185.168 64.9365 185.168 108.062C185.168 151.188 150.188 186.168 107.062 186.168Z" fill="#8E0000"/>
</svg>
