<svg width="21" height="21" viewBox="0 0 21 21" fill="none" xmlns="http://www.w3.org/2000/svg">
<path d="M20.8564 10.4282C20.8564 4.66891 16.1875 0 10.4282 0C4.66892 0 0 4.66891 0 10.4282C0 15.3186 3.36706 19.4223 7.90918 20.5494V13.6151H5.75888V10.4282H7.90918V9.05501C7.90918 5.50567 9.51554 3.86052 13.0002 3.86052C13.661 3.86052 14.801 3.99025 15.2673 4.11956V7.00817C15.0212 6.98231 14.5937 6.96937 14.0627 6.96937C12.3529 6.96937 11.6921 7.61717 11.6921 9.30112V10.4282H15.0984L14.5132 13.6151H11.6921V20.7801C16.8558 20.1565 20.8569 15.7599 20.8569 10.4282H20.8564Z" fill="#0866FF"/>
</svg>
