<svg width="242" height="256" viewBox="0 0 242 256" fill="none" xmlns="http://www.w3.org/2000/svg">
<path d="M212.053 178.947V175.102C212.053 174.74 213.985 170.636 213.985 170.636L216.65 167.628H218.056L216.63 172.207L215.049 176.787L212.053 178.947Z" fill="#FCE7F3"/>
<path d="M27.6904 129.762L68.6872 48.7186L98.4326 25.584L135.72 40.9347L197.928 88.2686L228.19 105.325L227.911 133.153C232.437 129.969 236.849 128.852 238.822 130.475C239.514 131.047 239.997 131.832 240.196 132.708C240.278 133.436 240.207 134.174 239.989 134.873C239.77 135.573 239.408 136.219 238.925 136.771C236.384 140.316 233.139 141.701 230.443 143.903C227.477 146.322 225.938 149.372 222.859 155.46C219.997 161.125 220.441 162.345 217.693 165.942C215.968 168.216 214.728 169.126 213.178 171.814C211.907 174.034 210.993 176.441 210.471 178.946L165.238 219.778C164.67 219.913 163.782 220.15 162.717 220.502C161.546 220.88 160.401 221.332 159.287 221.856C156.752 222.923 154.119 223.74 151.425 224.295C152.096 224.885 156.384 228.844 156.033 234.684C155.905 236.602 155.317 238.46 154.318 240.101C151.652 240.68 150.061 240.173 149.079 239.543C147.075 238.261 147.478 236.369 144.843 232.514C144.337 231.78 141.62 227.81 140.049 228.379C139.847 228.481 139.67 228.627 139.531 228.805C139.392 228.984 139.293 229.191 139.243 229.412C142.808 236.462 143.759 242.851 142.405 246.303C141.847 247.72 140.793 250.438 138.789 250.914C138.098 251.014 137.427 251.227 136.805 251.544C135.638 252.195 135.658 252.795 134.821 253.353C133.168 254.387 130.689 253.653 129.759 253.353C127.951 252.764 127.61 252.051 126.659 252.268C125.275 252.588 125.368 254.335 124.159 254.914C122.01 255.876 118.218 251.813 117.092 250.635C113.827 247.151 114.189 245.942 110.955 242.055C108.961 239.657 107.049 237.372 103.826 235.852C102.545 235.243 101.45 234.932 95.8807 234.054C92.5848 233.527 89.4749 233.082 86.582 232.7C85.3802 232.394 84.2027 232 83.0589 231.521C80.7398 230.556 78.5799 229.246 76.653 227.634L71.0532 225.918L57.8697 222.393C47.8341 191.485 37.7743 160.608 27.6904 129.762Z" fill="white"/>
<path d="M148.264 34.2578H153.192L160.176 36.3252L168.246 38.1343L181.481 43.5509L190.779 48.4921L200.078 54.9941L206.101 60.7727L209.707 63.9979L215.855 72.4536L221.754 81.9742L224.854 89.5617L227.871 99.0718L230.03 107.259V116.779L229.255 128.336L227.385 133.309L221.124 137.857L218.355 138.57C225.835 122.403 227.964 113.051 224.74 110.515C223.486 109.537 221.441 109.578 218.603 110.639C218.892 107.538 217.425 104.799 215.348 104.013C212.6 102.979 208.302 105.181 207.403 109.791C205.831 106.735 203.977 103.831 201.865 101.119C191.069 87.2358 176.263 81.8501 168.287 79.6793L158.854 54.653L151.869 43.5716L148.264 34.2578Z" fill="#FCE7F3"/>
<path d="M3.15139 170.046L1.65332 162.21V135.333L3.15139 120.282L4.38082 112.571L7.48038 96.7963L14.4544 80.05L24.0837 67.0252L39.7364 53.5869L41.6582 52.6256L49.7275 46.9608L56.9598 43.8597L65.0908 40.9756C65.0908 40.9756 70.918 42.4848 70.5667 42.6916C70.2155 42.8983 64.1404 65.9088 64.1404 65.9088C64.1404 65.9088 63.944 83.9886 65.0908 85.5495C66.2376 87.1104 72.0442 93.8192 72.0855 94.5015C72.1268 95.1837 72.0855 101.738 72.0855 101.738L71.0523 121.12L65.4008 123.776L3.15139 170.046Z" fill="#FCE7F3"/>
<path d="M3.15234 170.047C4.38183 168.796 5.61139 167.556 6.83054 166.305C8.84181 164.058 10.8495 161.812 12.8538 159.565C14.9668 157.232 17.2089 155.02 19.5696 152.939C22.0074 150.749 24.5671 148.699 27.236 146.799C32.8152 142.664 32.5568 142.178 37.7124 138.302C40.8905 135.886 44.2058 133.656 47.6414 131.624C53.1773 128.228 59.1251 125.557 65.3397 123.674C75.248 120.718 74.6901 123.209 84.2884 120.966C85.115 120.77 87.2225 120.263 88.2661 121.328C89.5162 122.589 88.0594 124.894 88.2661 127.83C88.4934 131.086 90.6426 133.247 93.6802 136.317C97.3606 140.003 101.887 142.732 106.863 144.266C110.552 145.393 114.396 146.561 118.962 145.527C124.975 144.173 125.244 140.565 136.289 133.422C138.122 132.297 139.821 130.965 141.351 129.453C145.149 125.203 148.146 120.3 150.195 114.981C151.384 111.239 150.691 110.536 151.456 109.016C154.69 102.7 173.029 102.814 181.976 110.288C184.61 112.261 186.514 115.054 187.39 118.227C187.749 119.95 187.812 121.723 187.576 123.468C187.245 126.104 186.615 125.938 185.582 129.794C184.683 133.174 184.786 134.694 183.423 137.743C182.782 139.16 182.782 139.49 182.513 139.552C180.633 139.935 179.104 128.254 172.822 126.538C172.584 126.476 169.547 125.69 167.77 127.509C165.993 129.329 166.871 132.482 166.933 132.678C168.531 137.413 170.136 142.147 171.747 146.881C172.588 150.741 173.428 154.596 174.269 158.449C175.481 161.04 176.683 163.641 177.874 166.253C177.719 168.962 177.461 171.877 177.038 174.947C176.697 177.459 176.283 179.836 175.829 182.069C177.924 183.296 180.171 184.242 182.513 184.881C195.594 188.426 207.31 181.056 210.502 178.916C210.564 180.301 210.626 181.687 210.678 183.051C206.693 189.056 202.132 194.657 197.061 199.777C189.725 207.178 184.518 212.44 176.015 215.748C175.043 216.13 175.374 215.965 162.118 220.089C157.242 221.598 153.243 222.86 150.557 223.697C148.41 220.997 145.943 218.567 143.211 216.461C139.443 213.628 135.261 211.393 130.813 209.835C119.127 205.317 106.285 199.777 100.478 197.192C95.0128 194.753 89.1133 193.233 83.6271 190.928C81.7291 190.044 79.6749 189.545 77.5831 189.46C73.8434 189.444 70.206 190.681 67.2512 192.975C64.0573 195.565 61.7791 199.112 60.7524 203.095C59.5374 206.742 59.2883 210.642 60.0293 214.414C61.1554 219.769 64.224 223.366 63.3871 224.059C62.9015 224.452 61.5583 223.521 60.9901 223.149C56.5474 220.182 55.3902 221.454 48.1166 217.908C42.5887 215.325 37.3433 212.176 32.4639 208.512C28.3187 205.27 24.4165 201.729 20.7889 197.916C17.9848 195.298 15.371 192.482 12.9676 189.491C9.92515 185.847 7.41052 181.794 5.4977 177.448C4.49655 175.056 3.71161 172.579 3.15234 170.047Z" fill="#2563EB"/>
<path d="M122.796 256C122.418 255.644 122.003 255.332 121.556 255.069C117.651 253.343 115.109 250.2 113.125 246.613C110.936 242.702 107.848 239.367 104.116 236.886C103.434 236.439 102.667 236.14 101.863 236.008C97.9786 235.336 94.0732 234.808 90.1987 234.095C85.1774 233.175 80.2492 232.028 76.2921 228.42C75.536 227.884 74.6661 227.53 73.7505 227.386C69.7211 226.353 65.6088 225.65 61.6723 224.399C57.4469 223.043 53.3067 221.434 49.2741 219.582C39.6651 215.061 30.8819 208.96 23.2896 201.533C19.6838 198.091 15.9126 194.804 12.9577 190.772C8.56205 184.971 5.06182 178.541 2.57417 171.7C1.25925 167.635 0.627254 163.381 0.704043 159.109C0.642052 149.964 0.693863 140.819 0.859173 131.674C0.999595 128.98 1.28942 126.295 1.72714 123.632C2.16108 120.231 2.56389 116.83 3.14247 113.46C4.43668 105.469 6.34338 97.5899 8.84568 89.8916C9.13497 89.0026 9.58964 88.1757 9.95126 87.3177C13.9838 77.7103 20.0584 69.0965 27.753 62.0744C34.3458 56.0403 41.548 50.7087 49.2433 46.1655C54.1743 43.2792 59.4235 40.9758 64.8857 39.3016C66.3629 38.8557 67.7338 38.1136 68.915 37.1204C71.3946 35.053 74.1533 33.3886 76.7466 31.4866C78.999 29.8326 81.1376 28.0134 83.4313 26.4008C85.9321 24.566 88.5442 22.8882 91.2526 21.3769C94.453 19.6738 97.7631 18.1853 101.161 16.9216C105.52 15.208 110.194 14.4433 114.871 14.6783C115.594 14.6783 116.318 14.7508 117.031 14.7508C117.216 14.7508 117.402 14.5854 117.785 14.3993C117.754 13.9485 117.754 13.496 117.785 13.0451C118.002 11.3705 119.376 10.7295 120.595 11.8356C121.398 12.702 122.121 13.6397 122.754 14.6371L124.914 12.9418C125.74 12.3215 126.546 11.6496 127.424 11.1121C128.303 10.5745 129.036 10.4194 129.687 11.2051C130.338 11.9907 129.832 12.7453 129.243 13.3862L126.546 16.322C127.099 16.7555 127.676 17.1591 128.272 17.5314C131.299 19.1337 134.357 20.6325 137.374 22.2968C141.369 24.3484 144.765 27.4006 147.231 31.1559C147.661 31.8557 148.256 32.4393 148.964 32.8556C149.672 33.2719 150.471 33.5082 151.291 33.5437C158.412 34.3143 165.396 36.0532 172.048 38.7123C175.695 40.1905 179.518 41.1622 183.103 42.8471C187.983 45.1254 192.619 47.8963 196.937 51.1169C204.47 57.0179 211.107 63.982 216.64 71.7912C223.618 81.2923 228.278 92.2948 230.247 103.919C231.69 111.588 231.875 119.44 230.795 127.168C230.671 127.974 230.671 128.79 230.588 129.99C232.117 129.586 233.367 129.204 234.638 128.956C236.839 128.491 239.081 128.274 240.517 130.506C241.953 132.739 241.343 134.993 239.928 136.915C238.828 138.421 237.5 139.747 235.992 140.844C232.833 143.209 229.971 145.948 227.468 149C226.537 150.114 225.797 151.375 225.277 152.731C223.686 156.783 222.178 160.887 220.742 164.991C218.482 171.685 215.326 178.041 211.36 183.888C205.058 192.829 198.239 201.316 189.922 208.5C186.351 211.68 182.351 214.342 178.04 216.408C174.963 217.647 171.817 218.706 168.617 219.582C164.681 220.874 160.755 222.166 156.808 223.438C155.558 223.841 154.277 224.172 152.779 224.606L155.527 229.133C157.03 231.541 157.562 234.431 157.015 237.217C156.833 238.223 156.379 239.16 155.703 239.925C155.16 240.439 154.517 240.834 153.814 241.084C153.111 241.335 152.363 241.437 151.618 241.382C150.873 241.328 150.148 241.119 149.489 240.768C148.829 240.418 148.25 239.933 147.788 239.347C146.643 237.878 145.688 236.27 144.947 234.56C143.975 232.377 142.393 230.521 140.391 229.216C140.391 229.847 140.329 230.25 140.484 230.56C142.437 234.085 142.922 238.034 143.811 241.858C144.057 243.083 144.134 244.335 144.038 245.58C143.79 249.715 142.251 251.234 138.335 251.627C137.219 252.661 136.403 253.829 135.235 254.294C133.968 254.75 132.601 254.857 131.278 254.604C129.929 254.225 128.629 253.691 127.404 253.012L124.645 255.938L122.796 256ZM61.8378 222.549C61.4142 221.039 61.187 220.078 60.877 219.127C60.2364 217.163 59.3684 215.24 58.9242 213.224C58.0555 210.101 58.1601 206.787 59.2238 203.725C60.523 200.215 62.4759 196.985 64.9787 194.204C66.6763 192.366 68.8078 190.983 71.1779 190.183L73.7608 189.284C72.732 188.581 71.5473 188.141 70.3099 188.002C65.9395 187.133 61.5382 186.389 57.4881 184.342C56.4523 183.859 55.3772 183.465 54.2748 183.164C47.2285 181.034 40.1615 179.029 33.1359 176.786C28.8031 175.371 24.2607 174.707 19.7045 174.822C18.8287 174.744 17.9611 174.592 17.1112 174.367C18.072 173.706 18.4853 173.199 18.9503 173.158C20.189 173.021 21.4379 173.004 22.6799 173.106C29.7099 173.688 36.6219 175.265 43.2094 177.789C45.2758 178.564 47.3422 179.174 49.4086 179.856C52.8525 180.952 56.3137 182.034 59.7921 183.102L61.4347 183.608C61.3521 182.099 61.1765 180.879 61.2385 179.67C61.3418 177.602 61.5795 175.535 61.7758 173.468C61.8029 172.953 61.8896 172.443 62.0341 171.948C63.2016 168.62 64.2864 165.26 65.6295 162.004C66.168 160.773 66.2737 159.395 65.9292 158.096C65.5833 156.794 65.3381 155.467 65.1957 154.127C65.1337 153.403 65.1956 152.369 66.7041 152.535C67.4582 155.081 67.9327 157.701 68.1194 160.35C68.1039 160.867 67.9771 161.375 67.7476 161.838C66.8281 164.381 65.9603 166.924 64.9684 169.436C63.8112 172.372 63.5736 175.483 63.1293 178.543C62.9356 180.535 63.4797 182.529 64.6584 184.146C65.6296 185.645 67.3964 185.335 68.8739 185.707C70.8679 186.224 72.8413 186.834 74.825 187.433C75.8582 187.733 76.7776 188.115 77.7591 188.467C83.359 190.348 89.0622 191.992 94.5484 194.152C103.62 197.719 112.66 201.326 121.928 204.376C129.377 206.826 135.865 211.271 142.592 215.137C144.227 216.243 145.749 217.506 147.138 218.91C148.605 220.223 149.999 221.598 151.363 222.89C153.337 222.662 166.086 218.414 167.894 217.39C168.442 215.003 169.072 212.604 169.527 210.154C170.632 204.242 171.645 198.298 172.719 192.385C173.432 188.498 174.207 184.642 174.899 180.755C175.653 176.621 176.335 172.382 177.059 168.196C177.246 166.963 176.982 165.703 176.315 164.65C174.18 160.841 172.778 156.665 172.182 152.339C171.592 148.43 170.429 144.63 168.731 141.061C167.627 138.711 166.732 136.269 166.055 133.763C165.384 131.313 165.446 128.801 167.316 126.713C167.834 125.987 168.598 125.472 169.465 125.263C170.332 125.055 171.245 125.165 172.037 125.576C174.176 126.403 176.093 127.715 177.637 129.411C179.09 131.175 180.217 133.184 180.964 135.344C181.305 136.202 181.336 137.339 182.493 137.825C183.867 132.998 185.169 128.305 186.554 123.632C186.77 123.161 186.849 122.639 186.781 122.125C186.714 121.611 186.502 121.126 186.171 120.727C183.247 117.482 180.22 114.37 176.129 112.551C169.527 109.605 162.697 108.416 155.527 109.946C153.233 110.432 152.004 111.424 151.539 113.595C150.687 117.353 149.026 120.881 146.673 123.932C144.71 126.589 142.84 129.328 140.918 132.047C142.251 134.59 143.429 137.019 144.792 139.283C145.378 140.211 145.758 141.254 145.905 142.342C146.053 143.43 145.966 144.537 145.65 145.588C144.451 149.413 143.852 153.527 140.877 156.608C139.985 157.499 139.464 158.696 139.42 159.957C139.204 162.668 139.859 165.377 141.29 167.689C141.86 168.434 142.18 169.34 142.204 170.278C142.228 171.215 141.955 172.136 141.424 172.91C139.831 175.732 137.36 177.957 134.388 179.246C131.805 180.28 129.109 180.042 126.412 180.207C125.333 180.295 124.247 180.147 123.23 179.774C122.214 179.401 121.29 178.812 120.523 178.047C116.763 174.601 113.707 170.459 111.524 165.849C110.49 163.596 109.571 161.259 108.476 159.027C107.533 157.396 107.153 155.501 107.394 153.632C107.634 151.764 108.483 150.027 109.809 148.689C110.626 148.005 111.148 147.031 111.265 145.971C109.665 145.793 108.079 145.496 106.523 145.082C99.7886 142.808 93.8947 138.558 89.6097 132.884C87.7031 130.501 86.8056 127.465 87.1095 124.428C87.1212 123.803 87.0901 123.178 87.0164 122.557C83.4416 122.991 80.0631 122.288 76.6846 122.867C73.7297 123.384 70.7439 123.756 67.8303 124.438C64.4105 125.245 61.0112 126.196 57.6637 127.292C52.6734 128.935 48.365 131.954 44.2323 134.993C38.2811 139.324 32.5471 143.965 26.7819 148.545C19.427 154.317 12.7512 160.906 6.88273 168.185C5.99419 169.291 5.23984 170.511 4.43395 171.669C5.05387 173.023 5.46724 174.181 6.08715 175.277C7.80224 178.471 9.61032 181.624 11.2531 184.839C13.0362 188.132 15.2724 191.16 17.8964 193.832C28.0805 204.559 40.1807 213.286 53.5723 219.561C56.052 220.719 58.7383 221.432 61.8688 222.549H61.8378ZM65.9706 122.474C65.2267 121.296 64.6068 120.221 63.9042 119.218C62.5777 117.328 62.0233 115.002 62.3544 112.716C62.701 109.929 63.6113 107.242 65.0302 104.819C66.0634 103.01 67.0966 101.221 68.1298 99.4122C68.3872 99.0123 68.558 98.5627 68.631 98.0926C68.7039 97.6225 68.6776 97.1424 68.5535 96.6832C66.3632 95.9079 64.4206 95.2979 62.4679 94.533C59.3772 93.3803 56.7347 91.271 54.9249 88.512C53.115 85.753 52.2321 82.4883 52.4047 79.1927C52.5207 77.4273 52.4654 75.6548 52.2395 73.9C51.5162 69.5791 52.4462 65.3616 53.3451 61.268C54.3191 56.5752 56.1811 52.1121 58.8311 48.1192C59.9263 46.5066 60.97 44.8629 62.4061 42.6508C58.4646 43.8589 54.6566 45.466 51.0411 47.4473C44.2691 51.503 37.8292 56.0899 31.7824 61.1647C28.9806 63.4787 26.3845 66.0312 24.0231 68.7935C21.5112 71.6971 19.1985 74.7672 17.1008 77.9832C13.0012 84.3736 10.0338 91.4235 8.32909 98.8229C6.68632 105.573 5.66336 112.468 4.35122 119.291C3.09366 125.607 2.48779 132.036 2.54314 138.476C2.6258 144.4 2.36765 150.323 2.43998 156.246C2.43998 159.761 2.85317 163.286 3.13213 166.8C3.30146 167.416 3.55157 168.007 3.87599 168.557C4.42358 167.886 4.72336 167.524 5.06431 167.11C9.00075 162.831 12.7099 158.324 16.9253 154.334C26.1147 145.763 35.9789 137.947 46.4225 130.961C50.0031 128.466 53.8887 126.441 57.9841 124.935C60.505 124.046 63.0777 123.363 66.0119 122.474H65.9706ZM106.905 53.8149C104.136 50.8791 101.305 48.0158 98.6398 44.9973C96.0573 41.7939 94.0634 38.1574 92.7506 34.257C85.3665 39.1496 79.4267 45.9314 75.5482 53.8976C74.2934 56.0303 73.6133 58.4523 73.5747 60.9268C76.4573 59.1799 79.2367 59.7174 81.9953 60.1826C86.128 60.8855 88.8763 63.1804 89.7235 67.2739C90.1908 69.8204 90.4053 72.407 90.3639 74.9958C90.3639 77.3734 90.0232 79.7508 89.7959 82.1284C89.6281 83.0568 89.7501 84.0144 90.1457 84.8708C90.5414 85.7272 91.1913 86.4408 92.0068 86.9145C92.5475 87.2258 93.0413 87.6121 93.4738 88.0619C93.7208 88.4303 93.909 88.8348 94.0318 89.2611C93.5875 89.4058 93.3602 89.5712 93.2155 89.5195C89.3411 88.0413 88.0498 86.0462 88.2151 81.932C88.2151 81.7253 88.2665 81.5186 88.2665 81.3118C88.3492 77.3734 88.4734 73.4245 88.463 69.486C88.4213 68.4501 88.19 67.4305 87.781 66.4779C86.9751 64.4105 86.5309 64.1624 84.2682 64.2141C79.9326 64.2789 75.6898 65.48 71.9631 67.6977C72.1181 70.5094 72.211 73.4039 72.4487 76.288C72.7896 80.3091 72.9754 84.3303 74.1016 88.2894C77.8314 101.397 86.2003 110.277 98.4849 115.683C103.744 117.988 109.271 117.461 114.716 116.562C117.578 116.086 120.099 114.494 122.692 113.192C127.259 110.855 129.832 107.051 131.63 102.462C132.831 99.0415 133.703 95.5143 134.233 91.9281C135.119 87.0248 135.238 82.0133 134.584 77.0735C134.538 76.2063 134.252 75.369 133.757 74.6553C133.263 73.9415 132.58 73.3794 131.784 73.0317C126 70.1643 120.698 66.4116 116.07 61.9089C113.28 59.1179 110.325 58.9525 106.947 59.5934C106.138 59.7772 105.356 60.0655 104.622 60.4514C104.333 60.6433 104.005 60.7695 103.661 60.821C103.318 60.8725 102.968 60.8481 102.635 60.7495C102.302 60.651 101.995 60.4807 101.735 60.2506C101.475 60.0205 101.268 59.7362 101.13 59.4176C102.049 56.5646 105.139 55.965 106.947 53.8149H106.905ZM208.282 136.244C207.703 134.724 208.375 133.732 208.777 132.708C211.257 126.444 213.726 120.18 216.237 113.926C217.028 111.996 217.306 109.895 217.043 107.827C217.021 107.413 216.91 107.009 216.716 106.643C216.523 106.277 216.252 105.957 215.922 105.707C215.593 105.456 215.213 105.28 214.809 105.191C214.405 105.102 213.986 105.102 213.582 105.191C212.657 105.32 211.791 105.719 211.092 106.338C209.985 107.486 209.001 108.747 208.157 110.101C207.786 110.731 207.538 111.228 207.486 111.341C203.56 119.291 202.01 123.746 199.437 129.876C198.995 131.09 198.626 132.329 198.332 133.587C196.11 133.525 195.687 133.153 195.883 131.044C196.488 126.202 197.501 121.419 198.91 116.748C199.83 113.347 200.564 109.894 201.297 106.41C201.509 105.705 201.463 104.948 201.168 104.274C200.872 103.6 200.347 103.053 199.685 102.73C199.006 102.461 198.259 102.415 197.552 102.601C196.846 102.787 196.217 103.195 195.759 103.764C195.227 104.386 194.789 105.083 194.457 105.832C193.001 109.491 191.358 113.119 190.253 116.872C188.041 124.108 186.213 131.478 183.981 138.714C183.622 139.677 183.565 140.728 183.82 141.724C184.075 142.72 184.629 143.614 185.407 144.286C186.348 145.247 187.209 146.284 187.979 147.387C188.258 147.78 188.103 148.421 188.165 149.196C187.618 149 187.256 148.979 187.07 148.783C183.935 145.739 181.548 142.01 180.096 137.887C179.401 135.933 178.561 134.032 177.586 132.202C176.278 129.799 174.135 127.96 171.562 127.033C171.24 126.853 170.882 126.747 170.514 126.723C170.146 126.698 169.777 126.756 169.434 126.891C169.091 127.027 168.782 127.237 168.53 127.506C168.278 127.776 168.089 128.098 167.977 128.449C167.618 129.084 167.388 129.783 167.299 130.507C167.211 131.23 167.265 131.964 167.46 132.667C168.39 135.303 169.196 138.001 170.302 140.554C171.876 143.836 173.009 147.312 173.67 150.891C174.145 155.445 175.589 159.844 177.906 163.792C178.701 165.14 178.973 166.733 178.67 168.268C178.133 172.403 177.71 176.538 177.234 180.6C179.834 182.932 183.133 184.336 186.616 184.59C194.819 185.366 202.465 183.557 208.963 178.078C209.978 177.359 210.666 176.265 210.875 175.039C211.225 172.981 212.113 171.052 213.447 169.447C214.638 168.006 215.7 166.463 216.619 164.836C218.768 160.815 220.876 156.763 222.819 152.628C225.015 148.136 228.257 144.236 232.272 141.257C234.225 139.717 236.136 138.156 237.955 136.419C238.607 135.762 239.071 134.94 239.298 134.042C239.918 131.633 238.647 130.196 236.198 130.434C233.821 130.725 231.542 131.556 229.534 132.863C225.887 135.086 222.994 138.197 219.884 141.05C217.56 140.337 217.064 139.789 217.735 137.949C218.996 134.445 220.266 130.91 221.868 127.54C223.686 123.632 224.575 119.497 225.598 115.373C225.682 114.965 225.71 114.548 225.68 114.132C225.724 113.35 225.494 112.577 225.03 111.945C224.567 111.313 223.898 110.862 223.139 110.669C221.723 110.339 219.409 111.269 218.841 112.53C217.912 114.386 217.138 116.315 216.526 118.298C214.987 124.17 212.197 129.514 209.728 134.993C209.49 135.541 208.881 135.789 208.323 136.244H208.282ZM153.285 228.834C150.981 225.216 146.311 220.088 143.48 218.197C135.789 212.871 127.427 208.589 118.611 205.461C114.882 204.21 111.234 202.722 107.577 201.254C103.052 199.445 98.5778 197.491 94.0318 195.724C90.364 194.297 86.6238 193.046 82.9044 191.733C78.162 190.069 73.6988 191.258 69.3491 193.191C68.5832 193.539 67.8839 194.019 67.2827 194.607C61.7449 199.91 59.5234 206.309 61.2902 213.834C62.0341 217.039 63.2946 220.13 64.3898 223.324C64.8728 223.522 65.3659 223.695 65.8671 223.841C68.9667 224.564 72.1283 225.257 75.2589 225.991C75.9305 226.156 76.7982 226.249 77.2012 226.704C79.4638 229.247 82.5222 230.157 85.5804 231.211C87.8677 231.857 90.2035 232.316 92.5648 232.586C95.4163 233.103 98.2783 233.62 101.109 234.219C102.421 234.481 103.693 234.915 104.891 235.511C108.579 237.444 111.09 240.556 113.466 243.926C115.109 246.314 116.958 248.567 118.797 250.81C119.399 251.351 120.069 251.81 120.791 252.175C120.926 249.239 119.758 246.128 123.736 245.177C123.354 244.277 123.095 243.502 122.703 242.778C120.727 238.885 118.359 235.203 115.636 231.79C114.968 230.994 114.344 230.162 113.766 229.299C113.61 228.882 113.529 228.441 113.528 227.996C114.83 227.707 115.253 228.554 115.749 229.164C117.444 231.232 119.004 233.485 120.802 235.491C123.248 238.2 125.143 241.36 126.381 244.794C127.156 246.944 128.096 249.032 129.036 251.11C129.191 251.608 129.508 252.038 129.938 252.333C130.367 252.627 130.883 252.768 131.402 252.733C130.813 250.738 129.429 248.96 130.648 247.182C131.811 245.74 133.093 244.398 134.481 243.171C133.877 241.329 133.149 239.529 132.301 237.786C129.914 233.537 127.331 229.392 124.831 225.216C124.294 224.316 123.705 223.469 123.219 222.549C123.037 222.02 122.919 221.472 122.868 220.915C123.612 221.143 124.108 221.143 124.315 221.391C129.852 227.841 133.407 235.439 136.806 243.099L141.414 240.442C141.119 237.589 140.284 234.817 138.955 232.276C137.66 229.565 136.197 226.937 134.574 224.409C132.942 222.104 130.762 220.192 128.375 217.68C129.542 217.68 130.245 217.463 130.596 217.68C131.83 218.451 132.929 219.418 133.851 220.543C136.003 223.33 138.543 225.794 141.393 227.862C142.983 229.187 144.402 230.705 145.619 232.379C146.643 233.938 147.585 235.549 148.44 237.207C149.628 239.202 150.65 239.553 153.533 238.902L152.5 237.724C149.307 234.064 149.452 231.976 153.326 228.834H153.285ZM150.371 35.177C150.681 35.8832 151.026 36.5732 151.405 37.2445C155.424 43.2297 158.069 49.8971 160.621 56.5749C161.954 60.2699 163.816 63.7519 166.148 66.9121C169.249 70.6933 172.944 73.9439 177.09 76.5361C179.185 78.0544 181.396 79.4057 183.702 80.5778C187.442 82.3455 191.348 83.7617 195.17 85.3639C198.977 86.9151 202.317 89.4279 204.863 92.6566C207.409 95.8853 209.075 99.7196 209.697 103.785C209.697 103.94 209.966 104.054 210.245 104.312C210.792 104.033 211.402 103.692 212.032 103.392C212.676 103.066 213.387 102.892 214.109 102.883C214.832 102.875 215.546 103.032 216.198 103.342C216.85 103.652 217.423 104.108 217.872 104.674C218.321 105.24 218.635 105.901 218.789 106.607C218.985 107.475 219.213 108.333 219.419 109.201C224.441 107.889 227.333 109.987 227.375 114.753C227.427 116.101 227.274 117.45 226.92 118.753C226.104 121.537 225.117 124.267 223.965 126.93C222.535 130.267 221.341 133.701 220.39 137.205C220.783 137.143 221.021 137.205 221.145 137.07C223.211 135.303 225.216 133.546 227.189 131.716C227.613 131.268 227.881 130.695 227.953 130.083C228.398 126.371 228.987 122.66 229.121 118.939C229.451 106.783 226.517 95.3187 221.589 84.2476C217.683 75.461 211.763 68.1629 205.306 61.2163C203.477 59.2522 201.411 57.4846 199.437 55.6549C195.904 52.3884 191.751 50.0109 187.659 47.5609C185.311 46.247 182.897 45.0533 180.427 43.9843C179.394 43.4985 178.257 43.24 177.234 42.7438C168.989 38.8777 160.063 37.0791 150.413 35.177H150.371ZM176.728 183.36C176.16 185.5 175.55 187.371 175.168 189.294C173.587 197.429 172.068 205.585 170.539 213.731C170.215 214.758 170.304 215.87 170.787 216.832C172.172 216.336 173.432 215.922 174.672 215.437C181.377 212.863 186.822 208.366 192.133 203.714C198.828 197.863 203.963 190.679 209.077 183.495C209.318 183.168 209.533 182.822 209.718 182.461C210.069 181.737 210.079 181.066 209.284 180.693C198.973 187.33 188.362 189.573 176.728 183.36ZM88.9072 123.136C88.5043 127.271 88.9692 129.256 91.1802 132.171C94.9948 137.01 100.057 140.716 105.821 142.89C107.791 143.534 109.836 143.923 111.906 144.048C112.613 144.063 113.302 143.825 113.848 143.376C114.809 142.601 115.724 141.769 116.586 140.885C117.405 140.234 118.014 139.357 118.339 138.363C118.664 137.369 118.691 136.301 118.415 135.293C118.064 133.99 117.867 132.646 117.63 131.323C117.269 129.591 117.265 127.803 117.621 126.07C117.976 124.336 118.682 122.694 119.696 121.244C120.843 119.57 121.876 117.823 123.364 115.466C120.895 116.437 119.149 117.233 117.33 117.812C115.512 118.391 113.435 118.846 111.296 119.373C111.875 120.82 112.33 121.958 112.784 123.105C113.59 125.245 114.416 127.374 115.14 129.535C115.202 130.153 115.167 130.777 115.037 131.385C114.557 131.243 114.098 131.038 113.673 130.775C111.871 129.206 109.784 127.998 107.525 127.219C102.122 124.945 96.3358 124.283 90.6636 123.146C90.0795 123.093 89.4919 123.09 88.9072 123.136ZM145.154 69.8375C144.276 70.7161 143.687 71.3571 144.121 72.2772C145.011 74.5587 146.508 76.5532 148.45 78.0452C149.604 77.1196 150.708 76.1327 151.756 75.0888C155.124 71.3468 154.566 64.6069 150.723 61.3817C149.13 60.0229 147.122 59.2464 145.03 59.1799C141.848 59.0972 139.316 62.6015 140.587 65.3822C141.29 66.9225 142.282 68.3386 143.315 70.1062C145.236 67.4909 146.921 65.0824 150.041 64.3175L146.332 68.2767C146.879 69.8893 148.223 70.8505 147.923 72.8353L145.154 69.8375ZM207.042 107.289C207.569 106.38 207.891 105.368 207.988 104.322C208.084 103.276 207.952 102.221 207.599 101.232C206.231 96.287 203.24 91.9468 199.107 88.9096C198.713 88.6736 198.306 88.4596 197.888 88.2687C203.529 93.427 205.512 100.198 207.083 107.289H207.042ZM134.822 245.342C131.216 246.841 130.39 249.26 132.487 251.544C132.733 251.776 133.025 251.954 133.343 252.068C133.661 252.182 133.999 252.229 134.336 252.206C134.729 252.206 135.163 251.431 135.37 250.914C136.196 249.074 135.277 247.358 134.863 245.342H134.822ZM125.699 249.56C125.433 248.762 125.061 248.004 124.594 247.306C123.726 246.272 122.527 246.541 121.917 247.802C121.736 248.286 121.657 248.802 121.686 249.319C121.714 249.835 121.849 250.339 122.083 250.8C122.693 252.433 123.457 253.147 124.335 252.96C125.213 252.774 125.709 251.689 125.74 249.56H125.699ZM155.031 237.31C155.527 233.733 155.455 232.689 154.649 231.304C154.548 231.064 154.379 230.859 154.162 230.715C153.945 230.571 153.69 230.494 153.43 230.494C153.169 230.494 152.915 230.571 152.698 230.715C152.481 230.859 152.311 231.064 152.211 231.304C151.882 231.899 151.698 232.563 151.675 233.242C151.652 233.921 151.789 234.596 152.076 235.212C152.271 235.837 152.665 236.381 153.199 236.761C153.733 237.14 154.377 237.333 155.031 237.31ZM141.817 242.189C141.183 242.053 140.521 242.157 139.959 242.482C139.398 242.807 138.977 243.329 138.779 243.947C137.798 245.942 138.665 247.461 139.957 248.991C142.478 247.13 141.6 244.587 141.837 242.189H141.817ZM212.704 177.261C214.853 174.739 215.566 171.845 216.63 169.116C215.351 170.039 214.323 171.268 213.641 172.691C212.958 174.114 212.644 175.685 212.724 177.261H212.704ZM64.7411 116.21C64.9064 114.784 65.113 113.367 65.2163 111.931C65.3197 110.494 66.4045 109.17 65.7329 107.237C64.3588 110.318 63.3358 113.057 64.7616 116.21H64.7411Z" fill="black"/>
<path d="M114.736 91.5877C114.841 92.8487 114.653 94.1169 114.187 95.2933C113.721 96.4696 112.99 97.5223 112.05 98.3689C109.219 101.191 103.206 104.137 97.792 101.088C96.1574 100.172 94.7651 98.8779 93.7314 97.3145C93.4241 96.9231 93.218 96.462 93.1313 95.9719C93.0446 95.4818 93.08 94.9778 93.2342 94.5046C93.3885 94.0314 93.6568 93.6036 94.0157 93.2589C94.3745 92.9142 94.8127 92.6633 95.2915 92.5284C95.6624 92.3468 96.0672 92.2447 96.4798 92.2286C98.8768 92.425 100.612 91.195 102.286 89.7271C104.122 88.1869 106.325 87.1503 108.682 86.7189C112.153 86.0367 113.724 87.0291 114.561 90.4713C114.652 90.8375 114.711 91.2111 114.736 91.5877ZM96.583 93.7895C98.0708 95.857 99.4346 96.3738 101.263 95.9396C104.895 95.0946 108.252 93.3371 111.017 90.8331C111.522 90.2587 111.959 89.6274 112.318 88.9518C111.735 88.6438 111.118 88.4044 110.479 88.2385C108.709 88.1227 106.952 88.615 105.5 89.634C104.276 90.4029 103.093 91.2344 101.956 92.1253C101.231 92.7738 100.375 93.2583 99.4459 93.5455C98.517 93.8327 97.5367 93.916 96.5726 93.7895H96.583Z" fill="black"/>
<path d="M112.927 70.0763C112.117 69.6653 111.447 69.024 111.001 68.2332C110.554 67.4424 110.351 66.5372 110.416 65.6313C110.416 64.2254 111.45 63.7292 112.762 64.2047C113.391 64.4448 113.939 64.8572 114.345 65.3947C114.75 65.9321 114.997 66.573 115.055 67.2439C115.334 68.7221 114.322 69.4664 112.927 70.0763Z" fill="black"/>
<path d="M84.3611 70.8408C84.9374 70.9888 85.4611 71.2944 85.8735 71.7235C86.286 72.1526 86.5708 72.6881 86.6961 73.27C87.0577 74.3037 87.099 75.3374 86.1071 76.061C85.8491 76.201 85.5634 76.2819 85.2704 76.298C84.9774 76.3141 84.6843 76.265 84.4125 76.1541C83.1004 75.4926 82.5529 72.5981 83.4621 71.4403C83.7262 71.1918 84.0302 70.9892 84.3611 70.8408Z" fill="black"/>
<path d="M98.4332 86.6972C97.214 87.4104 96.5011 86.7695 95.8295 86.17C95.1579 85.5704 94.6827 85.0432 95.0339 84.1025C96.8317 84.7848 96.8317 84.7848 98.4332 86.6972Z" fill="black"/>
<path d="M60.442 17.501C60.101 17.9662 59.8634 18.669 59.4088 18.8551C57.7188 19.5222 55.9944 20.0985 54.2429 20.5815C53.5093 20.7779 53.2096 21.0569 53.158 21.8115C53.0237 23.5688 52.8482 25.3262 52.5796 27.0629C52.5073 27.5384 52.0733 28.3137 51.784 28.324C51.4956 28.3224 51.2114 28.2544 50.9534 28.1254C50.6954 27.9963 50.4704 27.8097 50.296 27.5797C49.6953 26.3743 49.2211 25.1099 48.8807 23.8066C48.4571 22.1837 47.7133 21.119 45.8432 21.2224C45.2736 21.2431 44.7062 21.1408 44.1797 20.9225C43.7561 20.7468 43.1465 20.3747 43.1465 20.0232C43.1584 19.781 43.2262 19.5448 43.3445 19.3332C43.4628 19.1216 43.6285 18.9403 43.8285 18.8034C44.7617 18.2442 45.7395 17.7637 46.7523 17.3666C47.3307 17.2174 47.8417 16.8765 48.2019 16.3998C48.5621 15.923 48.7504 15.3384 48.7362 14.7409C48.7838 13.3527 48.9391 11.9702 49.2011 10.6061C49.3611 10.0737 49.5793 9.56063 49.8518 9.07617H50.4822C51.2054 10.8955 51.9905 12.6839 52.6517 14.5135C53.313 16.3432 53.2717 16.3948 55.2347 16.3742C56.4754 16.3407 57.7166 16.4168 58.9439 16.6015C59.4915 16.6739 59.9771 17.1805 60.442 17.501Z" fill="#2563EB"/>
<path d="M200.822 14.3377C200.46 14.7822 200.181 15.4541 199.716 15.6505C196.307 17.0253 192.897 18.4209 189.385 19.5476C188.894 19.649 188.458 19.9249 188.156 20.3242C187.854 20.7234 187.706 21.2189 187.742 21.7184C187.463 24.8712 187.143 28.0241 186.781 31.1563C186.719 31.6421 186.419 32.3553 186.058 32.5C185.293 32.7998 185.025 32.0348 184.787 31.4663C183.361 28.5305 181.915 25.6155 180.489 22.6797C180.322 22.2742 180.045 21.9237 179.688 21.6679C179.332 21.4121 178.912 21.2613 178.474 21.2326C175.602 20.8811 172.74 20.4159 169.878 19.9301C169.153 19.7916 168.455 19.5368 167.812 19.1755C167.512 19.0204 167.14 18.5139 167.202 18.2658C167.265 18.058 167.371 17.8657 167.514 17.7018C167.656 17.5379 167.832 17.406 168.029 17.3148C169.062 16.9116 170.095 16.6842 171.128 16.3328L179.828 13.3039C180.499 9.2621 181.16 5.22031 181.894 1.19915C182.068 0.760478 182.316 0.354878 182.628 0C183.058 0.286711 183.472 0.597338 183.867 0.930371C184.002 1.04408 183.991 1.31279 184.043 1.51953C184.663 3.7627 185.273 6.01622 185.893 8.25939C186.316 9.75828 186.74 11.2365 187.184 12.8181C190.335 12.8181 193.445 12.8181 196.555 12.8181C197.538 12.817 198.517 12.9421 199.469 13.1902C199.964 13.3763 200.367 13.9242 200.822 14.3377Z" fill="#2563EB"/>
<path d="M191.574 57.867C189.198 58.9007 186.842 59.9344 184.466 60.9682C184.176 61.0631 183.926 61.2541 183.759 61.5096C183.592 61.7652 183.517 62.07 183.546 62.374C183.484 64.4414 183.402 66.5089 183.205 68.5763C183.188 68.8854 183.106 69.1874 182.965 69.4633C182.825 69.7391 182.629 69.9827 182.389 70.1786C181.531 70.5404 181.149 69.6514 180.829 69.0105C180.002 67.2945 179.196 65.5578 178.432 63.7902C178.304 63.4001 178.062 63.0571 177.738 62.8049C177.415 62.5527 177.023 62.4027 176.613 62.374C175.435 62.2037 174.273 61.9305 173.142 61.5574C172.037 61.2163 171.819 60.5237 172.532 59.552C172.863 59.0836 173.285 58.6864 173.772 58.3839C174.443 57.9973 175.022 57.47 175.469 56.8383C175.917 56.2067 176.223 55.4855 176.365 54.7245C176.965 52.5847 177.729 50.4863 178.432 48.3672C178.521 47.9611 178.678 47.5732 178.897 47.2198C179.24 46.8927 179.622 46.6081 180.033 46.3721C180.281 46.7752 180.694 47.1578 180.756 47.5919C181.035 49.5353 181.18 51.4993 181.449 53.4427C181.626 54.2678 181.861 55.0796 182.151 55.872H190.159C190.501 55.8253 190.849 55.8253 191.192 55.872C191.739 56.0477 192.566 56.2338 192.69 56.6162C193.082 57.4949 192.225 57.6086 191.574 57.867Z" fill="#2563EB"/>
<path d="M139.243 52.3275C136.502 47.82 133.071 43.7704 129.076 40.3261C125.77 37.4214 122.34 34.6304 118.817 31.9737C114.498 28.7072 109.363 27.322 104.156 26.2883C99.3506 25.3724 94.4242 25.2815 89.5881 26.0195C87.6358 26.4515 85.7268 27.0605 83.8849 27.8388C81.5074 28.5994 79.31 29.8375 77.4275 31.4774C76.4976 32.3044 75.6091 33.1728 74.6173 34.1134L73.832 32.9246C74.8652 31.7772 75.8054 30.5575 76.9316 29.4824C80.6924 25.792 85.538 23.6728 89.8257 20.7474C91.853 19.6032 94.0453 18.7802 96.3245 18.3079C97.839 17.9498 99.387 17.7523 100.943 17.7187C106.168 17.2133 111.441 17.5624 116.554 18.7524C120.707 19.9557 124.538 22.0751 127.765 24.9547C135.338 31.2604 141.113 38.8375 144.037 48.389C144.149 48.6784 144.284 48.9585 144.44 49.2264C145.716 49.1385 146.997 49.1385 148.273 49.2264C149.93 49.4465 151.52 50.0223 152.935 50.9144C154.349 51.8065 155.553 52.9938 156.466 54.395C159.405 58.4652 161.387 63.1475 162.262 68.0917C162.944 71.6124 162.201 75.2598 160.196 78.2326C159.386 79.4447 158.299 80.4464 157.025 81.1546C155.752 81.8629 154.327 82.2573 152.871 82.3053C151.683 82.388 150.432 81.5818 149.224 81.1683C148.438 80.8892 147.674 80.579 146.951 80.3102L144.616 88.1975C144.515 88.7058 144.36 89.2016 144.151 89.6758C142.619 92.7454 140.449 95.4522 137.786 97.6148C136.118 99.0056 134.369 100.297 132.548 101.481C130.669 102.457 128.717 103.286 126.711 103.962C124.717 104.737 122.847 105.543 121.545 107.404C120.243 109.265 116.265 110.03 114.126 108.965C113.858 108.892 113.611 108.756 113.404 108.57C113.198 108.384 113.038 108.152 112.937 107.892C112.837 107.633 112.799 107.353 112.826 107.076C112.853 106.8 112.944 106.533 113.093 106.298C113.283 105.931 113.425 105.542 113.517 105.14C113.587 104.616 113.827 104.13 114.2 103.757C114.574 103.383 115.06 103.143 115.583 103.073C117.651 102.493 119.853 102.628 121.834 103.455C122.125 103.604 122.447 103.682 122.774 103.682C123.101 103.682 123.423 103.604 123.714 103.455C126.669 101.967 129.593 100.354 132.631 99.0929C134.697 98.1936 135.999 96.5397 137.59 95.1545C141.444 91.7949 143.19 87.2982 144.502 82.5534C144.574 82.3053 144.616 82.0469 144.698 81.7988C145.025 81.0614 145.117 80.2412 144.962 79.4496C144.807 78.6581 144.412 77.9336 143.83 77.3745C140.31 73.4401 137.949 68.6057 137.011 63.409C136.381 59.915 136.422 56.3487 138.737 53.2579C138.922 52.9567 139.09 52.6462 139.243 52.3275Z" fill="#EC4899"/>
</svg>
