<svg width="260" height="260" viewBox="0 0 260 260" fill="none" xmlns="http://www.w3.org/2000/svg">
<rect width="260" height="260" rx="130" fill="#DFE5E7"/>
<g clip-path="url(#clip0_2201_145)">
<path d="M244.672 172.317C244.352 158.656 244.362 154.636 243.672 140.954C243.452 136.808 241.412 132.63 240.282 129.739C239.153 126.849 237.413 124.623 235.723 122.028C234.887 120.746 233.99 119.51 233.034 118.325C232.084 117.175 231.114 116.067 230.115 115.075C228.253 113.197 226.246 111.486 224.116 109.959C222.348 108.683 220.508 107.52 218.607 106.477C216.898 105.539 215.348 104.8 213.998 104.209C212.648 103.619 211.478 103.154 210.539 102.775C209.599 102.395 208.859 102.163 208.359 101.983L207.599 101.72C207.475 101.676 207.348 101.641 207.219 101.614L206.74 101.456C205.744 101.122 204.704 100.958 203.66 100.971C202.763 100.982 201.876 101.164 201.04 101.509C200.663 101.667 200.301 101.865 199.961 102.1C199.646 102.328 199.355 102.59 199.091 102.88C198.577 103.455 198.212 104.16 198.031 104.927C197.836 105.719 197.836 106.55 198.031 107.343H197.861C196.174 106.845 194.373 107.01 192.792 107.807C192.439 107.988 192.103 108.207 191.792 108.461C191.506 108.698 191.245 108.967 191.013 109.263C190.543 109.84 190.201 110.522 190.013 111.256C189.723 112.426 189.843 113.666 190.353 114.748C190.907 115.909 191.759 116.881 192.812 117.555C192.119 118.208 191.626 119.063 191.393 120.013C190.803 122.534 192.263 125.15 194.552 126.553C193.933 127.198 193.491 128.007 193.272 128.895C193.098 129.652 193.077 130.44 193.212 131.206C193.353 131.955 193.625 132.67 194.012 133.316C194.393 133.967 194.876 134.546 195.442 135.025C195.988 135.498 196.616 135.856 197.291 136.08C197.291 136.08 197.911 136.291 198.761 136.618C199.611 136.945 200.701 137.388 201.66 137.852C202.62 138.316 203.43 138.801 203.99 139.15L204.36 139.403L204.63 139.582L204.8 139.709H204.86C204.91 139.743 204.964 139.771 205.02 139.793L205.21 139.93L205.419 140.099L205.55 140.205L205.68 140.321C210.759 143.77 212.818 159.447 212.678 172.803L244.672 172.317Z" fill="#EFF2F3"/>
<mask id="path-3-inside-1_2201_145" fill="white">
<path d="M212.758 174.828C212.27 174.823 211.803 174.613 211.46 174.246C211.117 173.878 210.926 173.382 210.929 172.866C211.079 157.527 208.489 144.562 204.76 142.03L204.58 141.893L204.43 141.766L204.37 141.713L204.19 141.576L203.86 141.365H203.8L203.44 141.112L203.3 141.027L203.09 140.89C202.406 140.457 201.698 140.066 200.971 139.719C200.161 139.318 199.161 138.896 198.231 138.538C197.301 138.179 196.842 138.042 196.822 138.031C195.919 137.72 195.081 137.229 194.352 136.586C193.631 135.974 193.016 135.235 192.533 134.402C192.041 133.546 191.702 132.602 191.533 131.617C191.342 130.568 191.373 129.488 191.623 128.452C191.742 127.956 191.912 127.474 192.132 127.018C191.149 126.121 190.409 124.964 189.988 123.667C189.566 122.37 189.478 120.978 189.733 119.633C189.871 119.047 190.083 118.483 190.363 117.956C189.734 117.287 189.214 116.514 188.823 115.666C188.118 114.172 187.955 112.458 188.363 110.845C188.617 109.834 189.078 108.894 189.713 108.092C190.035 107.706 190.389 107.353 190.773 107.037C191.168 106.708 191.593 106.422 192.042 106.182C193.327 105.51 194.749 105.184 196.182 105.233C196.182 105.022 196.222 104.811 196.302 104.6C196.557 103.511 197.077 102.511 197.811 101.699C198.162 101.298 198.559 100.944 198.991 100.644C199.432 100.327 199.905 100.061 200.401 99.8525C201.446 99.4199 202.557 99.1876 203.68 99.1668C204.928 99.1547 206.17 99.3505 207.36 99.7469L207.749 99.8735L208.219 100.011L209.219 100.359C209.719 100.538 210.389 100.77 211.219 101.097C212.438 101.561 213.598 102.036 214.768 102.564C216.457 103.313 218.007 104.072 219.507 104.895C221.474 105.977 223.38 107.178 225.216 108.493C227.419 110.069 229.495 111.833 231.424 113.767C232.424 114.727 233.374 115.877 234.424 117.143C235.431 118.381 236.373 119.677 237.243 121.025L238.323 122.629C239.78 124.627 241.012 126.797 241.992 129.096C242.182 129.571 242.392 130.151 242.622 130.647C243.822 133.548 245.311 137.156 245.511 140.943C246.081 151.946 246.191 156.672 246.371 165.207C246.421 167.317 246.471 169.627 246.531 172.317C246.538 172.572 246.497 172.826 246.411 173.064C246.324 173.303 246.194 173.521 246.028 173.706C245.862 173.891 245.663 174.04 245.442 174.144C245.221 174.247 244.983 174.305 244.742 174.311C244.252 174.323 243.778 174.13 243.422 173.774C243.066 173.419 242.858 172.929 242.842 172.412C242.782 169.722 242.732 167.391 242.682 165.302C242.502 156.767 242.392 152.062 241.822 141.112C241.662 138.031 240.322 134.782 239.243 132.155C239.003 131.586 238.783 131.037 238.583 130.531C237.702 128.516 236.609 126.612 235.324 124.855C234.954 124.306 234.574 123.8 234.204 123.178C233.402 121.95 232.541 120.767 231.624 119.633C230.624 118.441 229.725 117.417 228.845 116.531C227.059 114.729 225.137 113.085 223.096 111.615C221.387 110.382 219.608 109.261 217.767 108.261C216.367 107.48 214.898 106.763 213.298 106.056C212.199 105.56 211.089 105.106 209.929 104.663C209.119 104.347 208.479 104.125 208.009 103.956L207.01 103.619H206.829H206.649L206.18 103.46C205.368 103.188 204.521 103.053 203.67 103.06C202.986 103.066 202.309 103.202 201.67 103.46C201.408 103.572 201.157 103.71 200.92 103.872C200.725 104.013 200.544 104.176 200.381 104.357C200.078 104.69 199.864 105.101 199.761 105.549C199.646 106.02 199.646 106.513 199.761 106.984C199.846 107.312 199.848 107.657 199.767 107.986C199.686 108.315 199.525 108.616 199.299 108.858C199.073 109.101 198.791 109.277 198.481 109.368C198.171 109.459 197.844 109.463 197.532 109.379H197.351C196.1 109 194.761 109.113 193.582 109.695C193.345 109.818 193.12 109.966 192.912 110.138C192.728 110.294 192.557 110.467 192.402 110.655C192.113 111.022 191.902 111.45 191.783 111.911C191.624 112.62 191.701 113.365 192.002 114.021C192.41 114.846 193.026 115.536 193.782 116.014C194.021 116.176 194.222 116.393 194.37 116.649C194.517 116.905 194.606 117.193 194.632 117.491C194.66 117.79 194.621 118.092 194.519 118.372C194.416 118.653 194.253 118.904 194.042 119.105C193.622 119.503 193.32 120.019 193.172 120.593C192.812 122.133 193.752 123.937 195.462 124.982C195.708 125.129 195.92 125.335 196.078 125.583C196.237 125.831 196.339 126.115 196.376 126.411C196.412 126.708 196.383 127.01 196.291 127.292C196.198 127.575 196.044 127.832 195.842 128.041C195.459 128.442 195.186 128.945 195.052 129.497C194.952 129.98 194.952 130.48 195.052 130.963C195.145 131.485 195.331 131.982 195.602 132.43C195.869 132.893 196.207 133.306 196.602 133.653C196.98 133.985 197.414 134.239 197.881 134.402C197.881 134.402 198.521 134.613 199.401 134.951C200.281 135.288 201.53 135.816 202.4 136.249C203.264 136.67 204.105 137.142 204.92 137.662L205.09 137.768L205.36 137.947L205.61 138.126L205.79 138.253L205.979 138.358L206.28 138.58L206.599 138.844L206.709 138.928H206.76C209.499 140.869 211.568 145.479 212.918 152.642C214.087 159.353 214.62 166.17 214.508 172.993C214.484 173.473 214.291 173.927 213.968 174.266C213.645 174.605 213.214 174.805 212.758 174.828Z"/>
</mask>
<path d="M212.758 174.828C212.27 174.823 211.803 174.613 211.46 174.246C211.117 173.878 210.926 173.382 210.929 172.866C211.079 157.527 208.489 144.562 204.76 142.03L204.58 141.893L204.43 141.766L204.37 141.713L204.19 141.576L203.86 141.365H203.8L203.44 141.112L203.3 141.027L203.09 140.89C202.406 140.457 201.698 140.066 200.971 139.719C200.161 139.318 199.161 138.896 198.231 138.538C197.301 138.179 196.842 138.042 196.822 138.031C195.919 137.72 195.081 137.229 194.352 136.586C193.631 135.974 193.016 135.235 192.533 134.402C192.041 133.546 191.702 132.602 191.533 131.617C191.342 130.568 191.373 129.488 191.623 128.452C191.742 127.956 191.912 127.474 192.132 127.018C191.149 126.121 190.409 124.964 189.988 123.667C189.566 122.37 189.478 120.978 189.733 119.633C189.871 119.047 190.083 118.483 190.363 117.956C189.734 117.287 189.214 116.514 188.823 115.666C188.118 114.172 187.955 112.458 188.363 110.845C188.617 109.834 189.078 108.894 189.713 108.092C190.035 107.706 190.389 107.353 190.773 107.037C191.168 106.708 191.593 106.422 192.042 106.182C193.327 105.51 194.749 105.184 196.182 105.233C196.182 105.022 196.222 104.811 196.302 104.6C196.557 103.511 197.077 102.511 197.811 101.699C198.162 101.298 198.559 100.944 198.991 100.644C199.432 100.327 199.905 100.061 200.401 99.8525C201.446 99.4199 202.557 99.1876 203.68 99.1668C204.928 99.1547 206.17 99.3505 207.36 99.7469L207.749 99.8735L208.219 100.011L209.219 100.359C209.719 100.538 210.389 100.77 211.219 101.097C212.438 101.561 213.598 102.036 214.768 102.564C216.457 103.313 218.007 104.072 219.507 104.895C221.474 105.977 223.38 107.178 225.216 108.493C227.419 110.069 229.495 111.833 231.424 113.767C232.424 114.727 233.374 115.877 234.424 117.143C235.431 118.381 236.373 119.677 237.243 121.025L238.323 122.629C239.78 124.627 241.012 126.797 241.992 129.096C242.182 129.571 242.392 130.151 242.622 130.647C243.822 133.548 245.311 137.156 245.511 140.943C246.081 151.946 246.191 156.672 246.371 165.207C246.421 167.317 246.471 169.627 246.531 172.317C246.538 172.572 246.497 172.826 246.411 173.064C246.324 173.303 246.194 173.521 246.028 173.706C245.862 173.891 245.663 174.04 245.442 174.144C245.221 174.247 244.983 174.305 244.742 174.311C244.252 174.323 243.778 174.13 243.422 173.774C243.066 173.419 242.858 172.929 242.842 172.412C242.782 169.722 242.732 167.391 242.682 165.302C242.502 156.767 242.392 152.062 241.822 141.112C241.662 138.031 240.322 134.782 239.243 132.155C239.003 131.586 238.783 131.037 238.583 130.531C237.702 128.516 236.609 126.612 235.324 124.855C234.954 124.306 234.574 123.8 234.204 123.178C233.402 121.95 232.541 120.767 231.624 119.633C230.624 118.441 229.725 117.417 228.845 116.531C227.059 114.729 225.137 113.085 223.096 111.615C221.387 110.382 219.608 109.261 217.767 108.261C216.367 107.48 214.898 106.763 213.298 106.056C212.199 105.56 211.089 105.106 209.929 104.663C209.119 104.347 208.479 104.125 208.009 103.956L207.01 103.619H206.829H206.649L206.18 103.46C205.368 103.188 204.521 103.053 203.67 103.06C202.986 103.066 202.309 103.202 201.67 103.46C201.408 103.572 201.157 103.71 200.92 103.872C200.725 104.013 200.544 104.176 200.381 104.357C200.078 104.69 199.864 105.101 199.761 105.549C199.646 106.02 199.646 106.513 199.761 106.984C199.846 107.312 199.848 107.657 199.767 107.986C199.686 108.315 199.525 108.616 199.299 108.858C199.073 109.101 198.791 109.277 198.481 109.368C198.171 109.459 197.844 109.463 197.532 109.379H197.351C196.1 109 194.761 109.113 193.582 109.695C193.345 109.818 193.12 109.966 192.912 110.138C192.728 110.294 192.557 110.467 192.402 110.655C192.113 111.022 191.902 111.45 191.783 111.911C191.624 112.62 191.701 113.365 192.002 114.021C192.41 114.846 193.026 115.536 193.782 116.014C194.021 116.176 194.222 116.393 194.37 116.649C194.517 116.905 194.606 117.193 194.632 117.491C194.66 117.79 194.621 118.092 194.519 118.372C194.416 118.653 194.253 118.904 194.042 119.105C193.622 119.503 193.32 120.019 193.172 120.593C192.812 122.133 193.752 123.937 195.462 124.982C195.708 125.129 195.92 125.335 196.078 125.583C196.237 125.831 196.339 126.115 196.376 126.411C196.412 126.708 196.383 127.01 196.291 127.292C196.198 127.575 196.044 127.832 195.842 128.041C195.459 128.442 195.186 128.945 195.052 129.497C194.952 129.98 194.952 130.48 195.052 130.963C195.145 131.485 195.331 131.982 195.602 132.43C195.869 132.893 196.207 133.306 196.602 133.653C196.98 133.985 197.414 134.239 197.881 134.402C197.881 134.402 198.521 134.613 199.401 134.951C200.281 135.288 201.53 135.816 202.4 136.249C203.264 136.67 204.105 137.142 204.92 137.662L205.09 137.768L205.36 137.947L205.61 138.126L205.79 138.253L205.979 138.358L206.28 138.58L206.599 138.844L206.709 138.928H206.76C209.499 140.869 211.568 145.479 212.918 152.642C214.087 159.353 214.62 166.17 214.508 172.993C214.484 173.473 214.291 173.927 213.968 174.266C213.645 174.605 213.214 174.805 212.758 174.828Z" fill="#D2D4D4" stroke="#D2D4D4" stroke-width="2" mask="url(#path-3-inside-1_2201_145)"/>
<path d="M243.802 110.476C242.678 110.06 241.449 110.081 240.339 110.535C239.228 110.99 238.307 111.848 237.743 112.955C234.952 118.446 233.306 124.503 232.914 130.721L243.662 141.112C243.048 132.988 243.966 124.817 246.361 117.069C247.151 114.696 246.071 111.309 243.802 110.476Z" fill="#EFF2F3"/>
<path d="M242.551 241.817L242.129 243.852L205.052 234.756C205.14 234.331 205.246 233.815 205.369 233.216L205.37 233.212C205.466 232.736 205.571 232.232 205.685 231.686C205.803 231.119 205.931 230.505 206.069 229.827C206.252 228.929 206.423 227.89 206.6 226.813C206.681 226.323 206.763 225.825 206.848 225.33C206.893 225.069 206.941 224.797 206.991 224.515C207.091 223.957 207.197 223.364 207.291 222.767C207.402 222.063 207.502 221.335 207.601 220.611C207.629 220.406 207.657 220.2 207.685 219.996L207.685 219.995C207.756 219.484 207.833 218.956 207.912 218.415C208.116 217.02 208.334 215.534 208.481 214.013C208.983 209.867 209.404 205.405 209.696 200.942C210.242 192.756 210.389 184.546 210.138 176.344L210.138 176.335L210.137 176.326C210.114 175.777 210.094 175.232 210.074 174.701C210.036 173.692 210.001 172.73 209.949 171.869C209.946 171.406 209.904 170.878 209.871 170.467C209.856 170.278 209.843 170.114 209.837 169.992C209.82 169.667 209.79 169.288 209.764 168.964C209.748 168.761 209.734 168.58 209.726 168.446C209.695 167.965 209.665 167.54 209.633 167.184C209.63 167.151 209.627 167.119 209.624 167.087L247.497 162.931C247.498 162.945 247.499 162.959 247.5 162.974C247.504 163.022 247.507 163.082 247.511 163.15C247.52 163.3 247.532 163.486 247.546 163.656C247.577 164.028 247.609 164.468 247.641 164.921C247.648 165.031 247.656 165.141 247.664 165.251L247.684 165.528C247.72 166.032 247.762 166.619 247.804 167.221C247.853 167.922 247.892 168.668 247.932 169.489L247.933 169.503L247.934 169.516C248.014 170.716 248.061 172.002 248.114 173.414C248.132 173.904 248.15 174.411 248.171 174.934C248.469 184.546 248.3 194.168 247.664 203.761L247.663 203.764C247.325 209.01 246.828 214.257 246.242 219.082L246.24 219.094L246.239 219.105C246.049 220.906 245.8 222.649 245.556 224.361C245.471 224.955 245.387 225.546 245.306 226.133C245.236 226.62 245.166 227.108 245.096 227.59C245.007 228.205 244.92 228.812 244.836 229.401C244.726 230.175 244.584 230.939 244.445 231.689C244.401 231.926 244.358 232.161 244.315 232.394L244.313 232.405L244.197 233.075C243.902 234.777 243.631 236.342 243.384 237.75C243.203 238.782 243.008 239.682 242.825 240.523C242.729 240.966 242.637 241.392 242.552 241.813C242.552 241.814 242.552 241.815 242.551 241.817Z" fill="#EFF2F3" stroke="#D2D4D4" stroke-width="3"/>
<path d="M205.618 109.641L205.618 109.641C206.963 110.1 208.412 110.676 209.592 111.151C210.757 111.619 211.944 112.162 213.126 112.739C214.053 113.201 214.942 113.66 215.64 114.054C215.64 114.055 215.641 114.055 215.641 114.055L216.314 114.441L216.605 114.615C216.756 114.711 216.875 114.867 216.932 115.057C216.99 115.249 216.978 115.458 216.901 115.641C216.823 115.823 216.688 115.962 216.528 116.037C216.38 116.107 216.217 116.121 216.063 116.079C216.021 116.054 215.98 116.026 215.941 115.995L215.916 115.974L215.888 115.957L215.698 115.841L215.698 115.841L215.686 115.834L215.006 115.444L214.999 115.439L214.991 115.435C214.895 115.384 214.765 115.313 214.606 115.225C214.145 114.971 213.437 114.58 212.577 114.162C211.419 113.599 210.369 113.12 209.118 112.608C207.87 112.098 206.55 111.599 205.181 111.132L205.181 111.131L205.174 111.129C203.086 110.452 200.739 109.742 197.989 109.012L197.988 109.011L194.848 108.188L194.848 108.188C194.757 108.165 194.671 108.122 194.593 108.062C194.516 108.002 194.449 107.925 194.397 107.834C194.345 107.744 194.31 107.643 194.295 107.535C194.279 107.428 194.284 107.319 194.309 107.214C194.333 107.109 194.377 107.012 194.435 106.927C194.494 106.843 194.567 106.774 194.649 106.721C194.73 106.67 194.82 106.636 194.911 106.621C195.002 106.607 195.095 106.611 195.185 106.634C195.185 106.634 195.185 106.635 195.185 106.635L198.332 107.457C201.114 108.204 203.502 108.918 205.618 109.641Z" fill="#D2D4D4" stroke="#D2D4D4"/>
<path d="M210.324 124.113L210.281 124.1L210.237 124.095C210.193 124.089 210.151 124.079 210.109 124.063L210 124.006L209.477 123.704C209.134 123.467 208.45 123.089 207.487 122.622C206.498 122.143 205.52 121.707 204.602 121.323L204.601 121.323C203.519 120.875 202.37 120.45 201.185 120.036L201.185 120.036L201.181 120.035C199.309 119.398 197.158 118.751 194.61 118.074L194.609 118.073L192.03 117.395L192.392 115.847L194.953 116.519C197.545 117.213 199.722 117.863 201.618 118.513C202.834 118.933 204.171 119.425 205.105 119.819C206.054 120.22 207.09 120.667 208.073 121.165L208.083 121.17L208.093 121.175C208.842 121.514 209.556 121.895 210.121 122.209L210.655 122.522L210.668 122.529L210.681 122.536C210.756 122.575 210.829 122.618 210.9 122.665C211.048 122.764 211.162 122.92 211.216 123.109C211.269 123.298 211.256 123.502 211.18 123.681C211.104 123.859 210.972 123.996 210.816 124.072C210.66 124.148 210.486 124.162 210.324 124.113Z" fill="#D2D4D4" stroke="#D2D4D4"/>
<path d="M207.813 130.39L207.812 130.39L207.824 130.396L207.962 130.474C208.112 130.572 208.23 130.727 208.287 130.917C208.345 131.111 208.334 131.321 208.256 131.506C208.178 131.69 208.042 131.831 207.881 131.909C207.73 131.981 207.563 131.996 207.405 131.953L207.256 131.878L207.127 131.796L207.116 131.789L207.105 131.783L206.825 131.625L206.825 131.625L206.823 131.624L205.593 130.938L205.586 130.934L205.578 130.93C204.371 130.309 202.865 129.637 201.42 129.083C199.704 128.422 198.001 127.88 196.784 127.519C196.482 127.43 196.204 127.346 195.952 127.27C195.922 127.261 195.893 127.252 195.865 127.244C195.648 127.178 195.452 127.119 195.281 127.068C195.09 127.011 194.925 126.964 194.797 126.931C194.733 126.914 194.673 126.899 194.621 126.888C194.596 126.883 194.56 126.876 194.519 126.871C194.373 126.828 194.239 126.734 194.141 126.599C194.034 126.453 193.977 126.269 193.982 126.078C193.987 125.887 194.055 125.707 194.168 125.569C194.282 125.431 194.432 125.344 194.591 125.315L194.591 125.315L194.599 125.314C194.678 125.298 194.689 125.297 194.711 125.298C194.745 125.299 194.814 125.307 194.98 125.346C195.316 125.427 195.92 125.606 197.168 125.978C198.363 126.335 200.157 126.9 201.899 127.578L201.899 127.578L201.903 127.58C203.373 128.136 204.813 128.776 206.217 129.497L206.938 129.882L207.447 130.171L207.813 130.39Z" fill="#D2D4D4" stroke="#D2D4D4"/>
<path d="M245.099 116.605L245.102 116.597L245.104 116.589C245.392 115.528 245.295 114.391 244.831 113.4C244.566 112.738 244.07 112.199 243.434 111.901L243.415 111.892L243.396 111.885C242.556 111.573 241.637 111.59 240.809 111.933C239.982 112.275 239.305 112.916 238.896 113.732C236.214 119.033 234.632 124.875 234.255 130.868C234.243 131.063 234.193 131.252 234.111 131.424C234.029 131.596 233.916 131.748 233.779 131.87C233.643 131.992 233.486 132.083 233.319 132.139C233.152 132.194 232.977 132.213 232.804 132.196L232.804 132.196L232.792 132.195C232.618 132.181 232.447 132.132 232.289 132.047C232.131 131.963 231.988 131.845 231.87 131.7C231.752 131.555 231.662 131.385 231.605 131.199C231.549 131.014 231.527 130.818 231.543 130.623L231.543 130.623L231.544 130.615C231.945 124.176 233.652 117.904 236.548 112.224C237.275 110.828 238.443 109.755 239.839 109.188C241.235 108.621 242.774 108.593 244.187 109.109C245.509 109.613 246.597 110.652 247.204 112.009L247.204 112.009L247.209 112.019C248.015 113.728 248.154 115.705 247.593 117.523L247.593 117.523C245.268 125.064 244.375 133.013 244.963 140.917L244.963 140.917L244.964 140.926C245 141.311 244.888 141.693 244.661 141.986C244.434 142.278 244.112 142.456 243.77 142.492L243.648 142.505L243.546 142.572L243.523 142.587C243.247 142.557 242.982 142.434 242.768 142.23C242.519 141.993 242.357 141.663 242.32 141.3C241.693 132.955 242.637 124.562 245.099 116.605Z" fill="#D2D4D4" stroke="#D2D4D4"/>
<path d="M232.377 129.98L232.377 129.98L232.379 129.979C232.545 129.921 232.718 129.899 232.891 129.912C233.063 129.926 233.233 129.975 233.389 130.059C233.545 130.142 233.686 130.259 233.803 130.403C233.919 130.547 234.009 130.714 234.065 130.896C234.174 131.266 234.14 131.666 233.973 132.009C233.806 132.351 233.523 132.601 233.192 132.716C231.216 133.387 229.341 134.351 227.624 135.578L227.596 135.598L227.571 135.622L224.232 138.787L224.209 138.808L224.19 138.832C223.168 140.071 222.374 141.497 221.844 143.038L221.822 143.101L221.817 143.168C221.799 143.443 221.708 143.705 221.557 143.925C221.406 144.143 221.202 144.309 220.971 144.407L220.971 144.407L220.968 144.408C220.81 144.476 220.643 144.512 220.473 144.515C220.213 144.514 219.957 144.432 219.736 144.275C219.514 144.118 219.338 143.891 219.233 143.621L219.233 143.621L219.23 143.614C219.172 143.472 219.099 143.289 219.128 142.911C219.159 142.509 219.311 141.869 219.773 140.842L219.773 140.842L219.775 140.838C220.778 138.557 224.041 132.843 232.377 129.98Z" fill="#D2D4D4" stroke="#D2D4D4"/>
<path d="M224.339 236.881L224.278 236.866H224.247C224.169 236.815 224.102 236.739 224.057 236.644C223.998 236.519 223.984 236.373 224.02 236.236L224.022 236.228L224.023 236.221C225.224 230.903 226.095 225.509 226.633 220.073C228.249 204.576 228.641 188.964 227.804 173.398L227.801 173.342L227.786 173.288C227.762 173.205 227.756 173.116 227.77 173.029C227.783 172.941 227.815 172.86 227.861 172.792C227.907 172.723 227.966 172.668 228.031 172.63C228.096 172.592 228.167 172.571 228.238 172.567C228.309 172.564 228.381 172.577 228.448 172.607C228.517 172.637 228.58 172.685 228.631 172.747C228.683 172.81 228.722 172.886 228.744 172.97C228.765 173.054 228.768 173.143 228.752 173.23L228.742 173.288L228.745 173.346C229.588 188.973 229.194 204.646 227.568 220.203L227.567 220.206C227.031 225.701 226.147 231.151 224.922 236.521C224.879 236.656 224.793 236.764 224.687 236.828C224.579 236.893 224.455 236.911 224.339 236.881Z" fill="#D2D4D4" stroke="#D2D4D4"/>
<path d="M240.298 223.18L240.298 223.18L240.289 223.177C240.224 223.155 240.162 223.119 240.108 223.068C235.762 218.439 229.325 215.191 223.994 213.105C221.32 212.058 218.909 211.298 217.156 210.799C216.279 210.549 215.566 210.365 215.065 210.243C214.814 210.182 214.616 210.136 214.477 210.105C214.407 210.09 214.351 210.078 214.309 210.07C214.289 210.066 214.269 210.062 214.252 210.059C214.25 210.059 214.248 210.058 214.246 210.058C214.135 210.026 214.033 209.951 213.962 209.837C213.888 209.72 213.858 209.574 213.879 209.431C213.912 209.291 213.993 209.175 214.097 209.103C214.2 209.031 214.32 209.005 214.436 209.024C217.76 209.809 221.03 210.83 224.223 212.08L224.224 212.081C231.507 214.911 237.061 218.366 240.762 222.311C240.851 222.412 240.904 222.55 240.904 222.697C240.904 222.84 240.853 222.975 240.769 223.075C240.704 223.136 240.628 223.176 240.549 223.194C240.466 223.213 240.38 223.209 240.298 223.18Z" fill="#D2D4D4" stroke="#D2D4D4"/>
<path d="M215.118 205.975L215.109 205.977H215.075L215.005 205.998C214.93 206.02 214.853 206.022 214.777 206.005C214.711 205.972 214.651 205.923 214.602 205.859C214.546 205.786 214.507 205.698 214.49 205.602L214.49 205.601C214.465 205.455 214.495 205.305 214.569 205.185C214.642 205.067 214.749 204.99 214.865 204.959C215.23 204.878 219.191 204.034 224.53 203.917C229.916 203.8 236.654 204.423 242.514 207.27C242.623 207.33 242.714 207.435 242.76 207.57C242.807 207.704 242.804 207.852 242.754 207.983C242.692 208.104 242.594 208.191 242.484 208.233C242.373 208.277 242.251 208.275 242.141 208.228C236.374 205.427 229.629 204.877 224.338 205.014C221.686 205.084 219.386 205.326 217.739 205.552C216.915 205.664 216.254 205.773 215.793 205.853C215.563 205.893 215.383 205.927 215.259 205.95L215.237 205.954C215.185 205.963 215.146 205.97 215.118 205.975ZM215.087 205.981L215.087 205.981C215.075 205.983 215.077 205.982 215.087 205.981Z" fill="#D2D4D4" stroke="#D2D4D4"/>
<path d="M69.5775 114.696C69.991 113.815 70.15 112.825 70.0344 111.85C69.9189 110.874 69.5335 109.956 68.9272 109.21C68.6952 108.914 68.4339 108.645 68.1476 108.408C67.8365 108.154 67.5015 107.935 67.1478 107.754C65.5671 106.957 63.7662 106.792 62.079 107.29H61.8989C62.0986 106.498 62.0986 105.665 61.8989 104.874C61.7185 104.107 61.3534 103.402 60.839 102.827C60.5735 102.534 60.2786 102.272 59.9593 102.047C59.6236 101.81 59.2652 101.612 58.8897 101.456C58.0512 101.111 57.16 100.928 56.2599 100.918C55.2188 100.905 54.1827 101.069 53.1907 101.403L52.7108 101.561C52.5819 101.587 52.455 101.622 52.331 101.667L51.5709 101.931C51.071 102.11 50.3415 102.363 49.3917 102.722C48.4419 103.081 47.2817 103.545 45.9319 104.157C44.5822 104.768 43.0327 105.486 41.323 106.425C39.4221 107.467 37.5827 108.63 35.8144 109.906C33.682 111.43 31.6753 113.142 29.8156 115.023C28.8158 116.014 27.8161 117.133 26.8963 118.272C25.9407 119.457 25.0426 120.693 24.2064 121.975C22.5168 124.57 20.7676 126.796 19.6478 129.686C18.528 132.577 16.4783 136.755 16.2583 140.901C15.5485 154.615 15.5585 158.603 15.2585 172.265L47.1617 172.803C47.0317 159.447 49.1013 143.77 54.1602 140.321L54.3003 140.204L54.4302 140.099L54.6406 139.93L54.8203 139.793C54.8804 139.773 54.9375 139.745 54.9901 139.709H55.0502L55.2201 139.582L55.4803 139.403L55.8601 139.15C56.6149 138.675 57.3925 138.242 58.1897 137.852C59.1895 137.388 60.1894 136.934 61.0792 136.618C61.969 136.301 62.5589 136.08 62.5589 136.08C63.2337 135.856 63.8612 135.498 64.4081 135.025C64.9739 134.545 65.4576 133.967 65.838 133.316C66.2211 132.668 66.4923 131.953 66.6382 131.206C66.7747 130.439 66.7505 129.651 66.5679 128.895C66.3531 128.008 65.9143 127.198 65.2981 126.553C67.5876 125.15 69.0475 122.534 68.4576 120.013C68.2246 119.063 67.7307 118.208 67.038 117.554C68.1274 116.879 69.0092 115.886 69.5775 114.696Z" fill="#EFF2F3"/>
<path d="M47.2322 174.828C46.746 174.828 46.2793 174.625 45.9346 174.263C45.5899 173.902 45.3953 173.411 45.3927 172.898C45.2805 166.075 45.8129 159.258 46.9822 152.547C48.3319 145.384 50.4017 140.774 53.1411 138.833H53.2007L53.291 138.759L53.601 138.516C53.7025 138.428 53.8092 138.347 53.9207 138.274L54.1106 138.168L54.2405 138.073H54.2908L54.5505 137.894L54.8107 137.715L54.9503 137.63C55.7736 137.101 56.6251 136.622 57.5001 136.196C58.4099 135.763 59.4997 135.288 60.4995 134.898C61.4993 134.508 62.0489 134.339 62.0489 134.339C62.4977 134.178 62.9145 133.931 63.2787 133.611C63.6728 133.259 64.0104 132.842 64.2785 132.377C64.549 131.93 64.736 131.432 64.8287 130.91C64.9288 130.424 64.9288 129.92 64.8287 129.433C64.6898 128.885 64.4132 128.385 64.0285 127.988C63.8314 127.774 63.6826 127.516 63.5926 127.233C63.5026 126.95 63.4737 126.649 63.5086 126.353C63.548 126.058 63.6507 125.777 63.8084 125.53C63.966 125.283 64.1745 125.078 64.4186 124.929C66.1282 123.874 67.0681 122.08 66.7082 120.551C66.565 119.969 66.2584 119.447 65.8284 119.053C65.6225 118.847 65.4633 118.595 65.3632 118.315C65.2632 118.036 65.2249 117.736 65.2509 117.438C65.2769 117.14 65.3668 116.852 65.5136 116.597C65.6604 116.341 65.8604 116.124 66.0984 115.962C66.8546 115.483 67.4703 114.793 67.8778 113.968C68.1807 113.312 68.255 112.565 68.0878 111.858C67.9785 111.399 67.7698 110.972 67.478 110.613C67.3224 110.415 67.1482 110.235 66.9581 110.075C66.7503 109.908 66.5294 109.76 66.2981 109.632C65.1165 109.058 63.7796 108.95 62.5288 109.326H62.3492C62.0368 109.409 61.7089 109.405 61.3987 109.313C61.0885 109.222 60.8063 109.046 60.58 108.804C60.3538 108.562 60.1915 108.262 60.1089 107.934C60.0263 107.605 60.0265 107.26 60.1094 106.931C60.2291 106.461 60.2291 105.966 60.1094 105.496C60.006 105.048 59.792 104.637 59.4894 104.304C59.3187 104.117 59.1312 103.947 58.9295 103.798C58.6944 103.645 58.447 103.514 58.1899 103.408C57.5518 103.148 56.8743 103.012 56.1903 103.007C55.3491 103.003 54.5125 103.139 53.7108 103.408L53.2309 103.566H53.0508L52.8609 103.629L51.8611 103.956L49.9513 104.663C48.7816 105.106 47.6822 105.56 46.5824 106.056C44.9727 106.762 43.5128 107.48 42.1131 108.26C40.3157 109.238 38.5762 110.33 36.9042 111.531C34.865 112.998 32.9451 114.643 31.1651 116.447C30.2753 117.333 29.3659 118.356 28.3561 119.612C27.3464 120.867 26.5165 122.017 25.7966 123.125C25.4267 123.705 25.0466 124.264 24.6767 124.813C23.3837 126.564 22.2896 128.468 21.4171 130.488C21.2172 130.995 20.9976 131.543 20.7576 132.113C19.6778 134.729 18.338 137.989 18.1781 141.07C17.5982 152.02 17.4981 156.725 17.3081 165.27C17.3081 167.38 17.2185 169.68 17.1485 172.37C17.1365 172.885 16.9312 173.374 16.5778 173.729C16.2244 174.084 15.7515 174.276 15.2636 174.264C14.7757 174.251 14.3123 174.035 13.9758 173.662C13.6392 173.289 13.4571 172.79 13.4691 172.275C13.529 169.585 13.5792 167.275 13.6292 165.175C13.8091 156.598 13.919 151.872 14.4889 140.911C14.6888 137.124 16.1787 133.527 17.3784 130.615C17.6084 130.066 17.8182 129.56 18.0082 129.064C18.9849 126.763 20.2165 124.592 21.6773 122.597C22.0373 122.07 22.3973 121.532 22.7572 120.983C23.6252 119.648 24.5594 118.363 25.5564 117.133C26.6562 115.803 27.6461 114.696 28.6159 113.725C30.542 111.791 32.6154 110.027 34.8148 108.45C36.6502 107.136 38.5563 105.935 40.5236 104.853C42.0233 104.03 43.5227 103.27 45.2623 102.521C46.4321 101.994 47.5922 101.519 48.8119 101.055L50.8115 100.317L51.8113 99.979C51.9813 99.9157 52.141 99.8735 52.3009 99.8313L52.7008 99.7047C53.8803 99.3082 55.1125 99.1123 56.3504 99.1244C57.4769 99.1431 58.5912 99.3754 59.6398 99.8102C60.1293 100.018 60.598 100.275 61.0394 100.58C61.4768 100.882 61.8792 101.236 62.2389 101.635C62.9706 102.449 63.4909 103.448 63.7488 104.536C63.7955 104.747 63.8356 104.958 63.8689 105.169C65.297 105.125 66.7138 105.447 67.9979 106.108C68.4441 106.353 68.869 106.639 69.2677 106.963C69.6558 107.277 70.0139 107.63 70.3373 108.018C70.9743 108.815 71.4354 109.752 71.6871 110.761C72.0956 112.377 71.9322 114.094 71.2272 115.592C70.8367 116.439 70.3124 117.21 69.6773 117.871C69.9628 118.396 70.1782 118.961 70.3173 119.548C70.572 120.893 70.484 122.285 70.0624 123.583C69.6409 124.88 68.901 126.036 67.9179 126.933C68.1377 127.39 68.3085 127.871 68.4275 128.368C68.6789 129.403 68.7099 130.484 68.5178 131.533C68.3499 132.521 68.011 133.469 67.518 134.328C67.0257 135.166 66.4035 135.912 65.6781 136.533C64.9588 137.16 64.1351 137.639 63.2489 137.947C63.2489 137.947 62.6189 138.158 61.819 138.464C61.0192 138.77 59.8894 139.244 59.0696 139.645C58.3356 140 57.6212 140.398 56.9299 140.837L56.7502 140.954L56.6204 141.038L56.2801 141.27H56.2201H56.1503C56.0453 141.349 55.935 141.419 55.8202 141.481L55.4502 141.776C55.3901 141.838 55.3232 141.891 55.2505 141.935C51.5313 144.466 48.9417 157.432 49.0916 172.771C49.0943 173.287 48.9033 173.783 48.5605 174.15C48.2177 174.518 47.7508 174.728 47.2619 174.733L47.2322 174.828Z" fill="#D2D4D4"/>
<path d="M44.1523 116.542C43.8646 116.638 43.5535 116.619 43.2779 116.489C43.0024 116.359 42.782 116.127 42.6584 115.836C42.5349 115.545 42.517 115.217 42.6082 114.913C42.6993 114.61 42.8929 114.352 43.1525 114.189L43.4522 114.01L44.1323 113.62C44.8421 113.219 45.7317 112.755 46.6615 112.29C47.8613 111.71 49.0614 111.162 50.2311 110.687C51.4009 110.212 52.8804 109.632 54.2801 109.168C56.4097 108.44 58.8095 107.722 61.5989 106.973L64.7482 106.151C64.9051 106.11 65.0678 106.102 65.2276 106.127C65.3873 106.153 65.5408 106.212 65.6791 106.3C65.8175 106.388 65.9382 106.504 66.034 106.641C66.1299 106.779 66.1989 106.934 66.2376 107.1C66.2763 107.266 66.2838 107.438 66.2596 107.606C66.2353 107.775 66.1801 107.937 66.0965 108.083C66.013 108.229 65.903 108.356 65.7729 108.457C65.6427 108.558 65.4948 108.631 65.3379 108.672L62.1984 109.495C59.4589 110.223 57.1198 110.929 55.0402 111.605C53.6805 112.069 52.3706 112.565 51.1308 113.071C49.8911 113.577 48.8511 114.052 47.7014 114.611C46.5516 115.17 45.7019 115.666 45.3019 115.877L44.6224 116.268L44.4222 116.384C44.3381 116.447 44.2476 116.5 44.1523 116.542Z" fill="#D2D4D4"/>
<path d="M49.8217 124.591C49.5375 124.677 49.2333 124.653 48.9649 124.521C48.6966 124.39 48.482 124.162 48.3606 123.877C48.2391 123.592 48.2187 123.271 48.3034 122.972C48.3882 122.673 48.5723 122.417 48.8219 122.249L49.0919 122.091L49.6318 121.774C50.1917 121.458 50.9313 121.068 51.7012 120.719C52.701 120.213 53.7008 119.759 54.7006 119.359C55.7004 118.958 57.0001 118.462 58.2199 118.04C60.1295 117.386 62.3192 116.732 64.9187 116.035L67.9781 115.234L68.5678 117.755L65.5187 118.557C62.9792 119.232 60.8396 119.875 58.98 120.508C57.8002 120.92 56.6603 121.342 55.5905 121.785C54.6707 122.165 53.7111 122.597 52.7313 123.072C51.7515 123.547 51.0916 123.916 50.7917 124.127L50.2415 124.443L50.1019 124.517C50.0121 124.555 49.9177 124.58 49.8217 124.591Z" fill="#D2D4D4"/>
<path d="M52.7807 132.419C52.4824 132.559 52.1437 132.568 51.839 132.444C51.5343 132.321 51.2886 132.074 51.1561 131.76C51.0235 131.445 51.015 131.087 51.1321 130.766C51.2493 130.444 51.4826 130.185 51.7809 130.045L51.921 129.961L52.2911 129.739L52.8208 129.444L53.5506 129.054C54.9725 128.323 56.4311 127.675 57.9198 127.112C59.6795 126.427 61.4891 125.857 62.6889 125.498C65.1684 124.76 65.1784 124.76 65.4983 124.823C65.778 124.874 66.032 125.025 66.2179 125.252C66.4039 125.478 66.5099 125.765 66.5182 126.064C66.5264 126.363 66.4365 126.657 66.2633 126.894C66.0901 127.131 65.8445 127.298 65.5682 127.366C65.4182 127.366 64.5684 127.64 63.3586 127.999C62.1489 128.357 60.4491 128.895 58.7595 129.549C57.3298 130.098 55.8402 130.763 54.6505 131.375L53.4207 132.06L53.1308 132.218L52.9907 132.313C52.9232 132.354 52.8531 132.389 52.7807 132.419Z" fill="#D2D4D4"/>
<path d="M27.0862 130.752C26.6945 124.535 25.048 118.478 22.2571 112.987C21.6926 111.877 20.7706 111.017 19.6576 110.562C18.5445 110.108 17.3135 110.088 16.1881 110.507C13.9285 111.309 12.8489 114.727 13.6388 117.101C16.0339 124.848 16.9516 133.02 16.3384 141.143L27.0862 130.752Z" fill="#EFF2F3"/>
<path d="M16.3384 143.095H16.1485C15.6661 143.044 15.2223 142.794 14.9149 142.398C14.6075 142.003 14.4613 141.494 14.5087 140.985C15.0921 133.143 14.2055 125.257 11.8994 117.776C11.3018 115.84 11.4487 113.733 12.309 111.911C12.6343 111.18 13.0931 110.524 13.6593 109.981C14.2255 109.438 14.8882 109.018 15.6086 108.746C17.1372 108.182 18.8058 108.21 20.3166 108.825C21.8275 109.439 23.0822 110.6 23.8569 112.1C26.7934 117.84 28.5222 124.18 28.9257 130.689C28.9279 131.182 28.7527 131.658 28.4356 132.021C28.1184 132.384 27.683 132.607 27.2166 132.644C26.7501 132.682 26.2874 132.531 25.9219 132.223C25.5564 131.915 25.3148 131.472 25.2463 130.984C24.8683 125.058 23.3044 119.283 20.6574 114.042C20.3035 113.325 19.7156 112.768 19.0024 112.473C18.2893 112.178 17.4994 112.166 16.7783 112.438C16.2553 112.682 15.8402 113.127 15.6184 113.683C15.2067 114.572 15.1215 115.59 15.3787 116.542C17.8597 124.561 18.811 133.019 18.1779 141.428C18.1129 141.893 17.891 142.318 17.553 142.624C17.2151 142.93 16.7839 143.098 16.3384 143.095Z" fill="#D2D4D4"/>
<path d="M40.683 140.637C39.6832 138.274 36.294 132.429 27.7857 129.507C27.5559 129.428 27.3136 129.396 27.0725 129.416C26.8313 129.435 26.5961 129.504 26.3802 129.619C26.1644 129.734 25.9721 129.893 25.8144 130.086C25.6568 130.28 25.537 130.504 25.4615 130.747C25.386 130.989 25.3564 131.245 25.3746 131.499C25.3928 131.754 25.4583 132.002 25.5674 132.23C25.6765 132.458 25.8268 132.661 26.0102 132.827C26.1936 132.993 26.4063 133.12 26.636 133.2C28.5694 133.853 30.4045 134.794 32.0851 135.995L35.4243 139.16C36.4069 140.352 37.1727 141.726 37.6836 143.211C37.7163 143.647 37.8872 144.059 38.1684 144.381C38.4496 144.702 38.8252 144.915 39.2345 144.984C39.6439 145.053 40.0633 144.975 40.4257 144.763C40.7882 144.551 41.0727 144.216 41.2332 143.812C41.3831 143.433 41.6328 142.789 40.683 140.637Z" fill="#D2D4D4"/>
<path d="M11.1692 161.272C11.1692 161.272 11.1692 161.367 11.1692 161.546C11.1692 161.726 11.1694 161.979 11.0994 162.316C11.0294 162.654 11.0295 163.055 10.9895 163.53C10.9496 164.004 10.9094 164.584 10.8695 165.144C10.8295 165.703 10.7793 166.399 10.7293 167.116C10.6794 167.834 10.6395 168.593 10.5995 169.416C10.4895 171.062 10.4295 172.877 10.3495 174.881C10.0587 184.544 10.2322 194.216 10.8695 203.861C11.2094 209.135 11.7095 214.41 12.2993 219.263C12.5493 221.721 12.9291 224.095 13.2391 226.342C13.3991 227.46 13.5587 228.557 13.7087 229.612C13.8587 230.667 14.0687 231.722 14.2286 232.661C14.5786 234.623 14.8884 236.417 15.1684 238.01C15.4483 239.603 15.7686 240.974 16.0085 242.113L16.7481 245.679L56.7399 235.868C56.7399 235.868 56.5201 234.813 56.1302 232.914C55.9402 231.975 55.6901 230.804 55.4301 229.528C55.1702 228.251 54.9402 226.711 54.6603 225.076C54.5203 224.263 54.3606 223.419 54.2107 222.533C54.0607 221.647 53.9608 220.729 53.8309 219.79C53.5709 217.902 53.2409 215.929 53.041 213.851C52.5411 209.726 52.1212 205.285 51.8313 200.843C51.2835 192.706 51.1368 184.543 51.3914 176.389C51.4614 174.744 51.5013 173.225 51.5813 171.916C51.5813 171.262 51.6612 170.64 51.6912 170.07C51.7212 169.501 51.761 169.015 51.801 168.541C51.841 168.066 51.8613 167.654 51.8913 167.317C51.9213 166.979 51.9509 166.684 51.9709 166.441C51.9909 166.199 51.9709 166.019 51.9709 165.914C51.9753 165.861 51.9753 165.808 51.9709 165.756L11.1692 161.272Z" fill="#EFF2F3"/>
<path d="M57.4696 238.02L57.1596 238.126C56.8793 238.191 56.5898 238.197 56.3073 238.144C56.0247 238.09 55.7545 237.978 55.513 237.815C55.2714 237.651 55.0633 237.439 54.8998 237.19C54.7363 236.941 54.621 236.66 54.5605 236.364L53.9405 233.41C53.8706 233.062 53.7906 232.703 53.7106 232.355C53.5706 231.669 53.4005 230.899 53.2405 230.045L52.4706 225.603C52.4106 225.297 52.361 225.002 52.311 224.696C52.211 224.158 52.121 223.641 52.021 223.029L51.6412 220.276L51.401 218.651C51.2011 217.248 50.9911 215.792 50.8411 214.273C50.3112 209.895 49.9016 205.485 49.6216 201.149C49.0726 192.931 48.9223 184.688 49.1715 176.453C49.1715 175.947 49.1916 175.461 49.2316 174.997C49.2316 173.942 49.3117 172.887 49.3717 171.917L49.4815 170.081L49.5913 168.551C49.5913 168.351 49.5913 168.171 49.5913 168.003L13.1188 163.994C13.1188 164.447 13.049 164.954 13.009 165.502L12.8689 167.465L12.739 169.743C12.659 170.957 12.6089 172.286 12.5589 173.689L12.4988 175.166C12.2046 184.744 12.3751 194.332 13.009 203.892C13.3389 208.946 13.8188 214.083 14.4286 219.168C14.6086 220.93 14.8687 222.681 15.1087 224.369C15.1986 224.97 15.2784 225.561 15.3684 226.152L15.8282 229.391C15.9382 230.076 16.058 230.741 16.168 231.395L16.3482 232.45L17.2679 237.725C17.4678 238.78 17.6779 239.729 17.8478 240.584C17.9378 241.006 18.0278 241.407 18.0978 241.786L18.8476 245.342C18.9291 245.645 18.9507 245.962 18.9116 246.274C18.8725 246.587 18.7734 246.887 18.6202 247.157C18.4669 247.428 18.2634 247.662 18.0212 247.846C17.7789 248.03 17.5033 248.16 17.2117 248.228C16.9202 248.296 16.6188 248.3 16.3257 248.24C16.0326 248.18 15.7541 248.058 15.5075 247.88C15.2609 247.703 15.0512 247.474 14.8914 247.208C14.7317 246.942 14.6252 246.644 14.5785 246.333L13.8287 242.767C13.7487 242.388 13.6687 241.987 13.5787 241.575L12.9787 238.632L12.0492 233.294C12.0492 232.956 11.9393 232.629 11.8793 232.239C11.7594 231.564 11.6393 230.868 11.5293 230.129L11.0592 226.859C10.9792 226.257 10.8992 225.677 10.8093 225.076C10.5593 223.356 10.2996 221.563 10.1097 219.706C9.48982 214.547 9.00948 209.325 8.66955 204.188C8.02713 194.462 7.85408 184.709 8.15013 174.965C8.15013 174.448 8.1497 173.91 8.20969 173.488C8.25968 172.054 8.32009 170.693 8.40008 169.427L8.51968 167.148L8.65979 165.165C8.65979 164.563 8.73966 164.015 8.78965 163.509L8.9898 161.23C9.01359 160.924 9.095 160.626 9.22901 160.354C9.36301 160.082 9.54703 159.84 9.7704 159.644C9.99377 159.448 10.2516 159.3 10.5295 159.21C10.8075 159.12 11.0999 159.089 11.3892 159.12L52.2007 163.603C52.7765 163.671 53.3045 163.974 53.6706 164.447C53.8538 164.682 53.9896 164.954 54.0704 165.246C54.1512 165.538 54.1754 165.844 54.1407 166.146V166.336C54.1407 166.42 54.1407 166.589 54.1407 166.789L54.0704 167.676C54.0704 168.003 54.0106 168.382 53.9806 168.857L53.8707 170.376L53.7604 172.201C53.7104 173.088 53.6705 174.09 53.6306 175.166C53.6306 175.63 53.6305 176.126 53.5705 176.622C53.3231 184.684 53.4698 192.755 54.0104 200.801C54.2903 205.021 54.6902 209.399 55.2001 213.693C55.34 215.117 55.55 216.52 55.74 217.913C55.83 218.472 55.9102 218.968 55.9802 219.569L56.36 222.27C56.45 222.818 56.5502 223.325 56.6402 223.852C56.6902 224.158 56.7498 224.464 56.7998 224.77L57.5599 229.19C57.7199 229.992 57.8798 230.752 58.0198 231.416C58.0998 231.806 58.1795 232.186 58.2595 232.534L58.8697 235.478C58.9525 236.007 58.8576 236.55 58.6022 237.014C58.3468 237.478 57.9464 237.834 57.4696 238.02Z" fill="#D2D4D4"/>
<path d="M35.9046 237.366H35.8148C35.5657 237.432 35.3019 237.394 35.0786 237.26C34.8552 237.127 34.6893 236.908 34.6148 236.649C33.3957 231.25 32.5108 225.774 31.9655 220.255C30.3366 204.671 29.9418 188.972 30.7855 173.319C30.8499 173.093 30.9843 172.897 31.1673 172.761C31.3502 172.625 31.5711 172.557 31.7946 172.569C32.0181 172.581 32.2312 172.672 32.3999 172.827C32.5686 172.983 32.6831 173.193 32.7251 173.425C31.8896 188.965 32.2813 204.551 33.8952 220.022C34.4241 225.44 35.2921 230.814 36.4943 236.11C36.5587 236.36 36.5342 236.625 36.4255 236.856C36.3168 237.088 36.1315 237.269 35.9046 237.366Z" fill="#D2D4D4"/>
<path d="M19.9075 223.652C19.7365 223.712 19.5533 223.722 19.3773 223.681C19.2013 223.64 19.039 223.55 18.9077 223.42C18.7333 223.224 18.6362 222.965 18.6362 222.697C18.6362 222.428 18.7333 222.17 18.9077 221.974C22.6769 217.955 28.3057 214.463 35.6342 211.614C38.8534 210.352 42.1505 209.323 45.5023 208.534C45.7548 208.486 46.0147 208.543 46.2287 208.692C46.4427 208.842 46.5944 209.072 46.652 209.336C46.697 209.602 46.643 209.877 46.5016 210.103C46.3602 210.328 46.1423 210.488 45.8924 210.549C45.7224 210.549 28.8255 214.315 20.2873 223.42C20.1785 223.526 20.0488 223.605 19.9075 223.652Z" fill="#D2D4D4"/>
<path d="M45.3923 206.477C45.2157 206.529 45.0289 206.529 44.8524 206.477C44.6924 206.477 29.3955 203.175 18.0678 208.682C17.9495 208.783 17.8107 208.855 17.6621 208.891C17.5136 208.927 17.359 208.927 17.2106 208.89C17.0621 208.854 16.9235 208.782 16.8054 208.68C16.6873 208.579 16.5928 208.45 16.5291 208.304C16.4654 208.158 16.4341 207.998 16.4378 207.837C16.4415 207.677 16.4802 207.519 16.5506 207.376C16.6209 207.233 16.7208 207.11 16.8435 207.014C16.9661 206.919 17.108 206.854 17.2579 206.825C29.1855 201.023 44.5923 204.325 45.2522 204.472C45.5022 204.533 45.7205 204.693 45.8619 204.919C46.0034 205.145 46.0568 205.419 46.0118 205.686C45.9809 205.862 45.9079 206.028 45.7994 206.166C45.691 206.305 45.5509 206.412 45.3923 206.477Z" fill="#D2D4D4"/>
<path d="M200.551 122.594C200.551 137.26 196.43 151.597 188.708 163.792C180.986 175.986 170.01 185.49 157.169 191.103C144.328 196.715 130.198 198.184 116.566 195.323C102.933 192.461 90.4114 185.399 80.5832 175.028C70.755 164.658 64.0619 151.445 61.3503 137.061C58.6387 122.677 60.0305 107.767 65.3495 94.2173C70.6685 80.6676 79.6761 69.0865 91.2329 60.9385C102.79 52.7905 116.376 48.4415 130.276 48.4415C139.505 48.4401 148.644 50.3572 157.171 54.0832C165.697 57.8092 173.445 63.2712 179.971 70.1573C186.497 77.0433 191.674 85.2183 195.205 94.2156C198.736 103.213 200.553 112.856 200.551 122.594Z" fill="#EFF2F3"/>
<path d="M129.995 198.037C115.783 198.037 101.891 193.59 90.0744 185.259C78.2579 176.928 69.0482 165.087 63.6096 151.232C58.171 137.378 56.748 122.133 59.5206 107.426C62.2931 92.7182 69.1364 79.2083 79.1855 68.6047C89.2347 58.0012 102.038 50.7801 115.977 47.8546C129.915 44.9291 144.363 46.4306 157.493 52.1692C170.623 57.9078 181.845 67.6258 189.74 80.0943C197.636 92.5628 201.85 107.222 201.85 122.217C201.816 142.315 194.234 161.579 180.766 175.79C167.298 190.001 149.042 198.001 129.995 198.037ZM129.995 49.7314C116.408 49.7314 103.127 53.9826 91.8299 61.9475C80.5329 69.9124 71.7279 81.2331 66.5284 94.4782C61.329 107.723 59.9684 122.298 62.6191 136.359C65.2697 150.42 71.8126 163.336 81.4199 173.473C91.0272 183.61 103.268 190.514 116.593 193.311C129.919 196.108 143.731 194.672 156.284 189.186C168.837 183.7 179.565 174.409 187.114 162.489C194.662 150.568 198.691 136.554 198.691 122.217C198.683 102.992 191.444 84.555 178.564 70.9564C165.684 57.3577 148.215 49.7087 129.995 49.6892V49.7314Z" fill="#D2D4D5"/>
<path d="M129.995 124.19C134.668 124.19 139.236 122.728 143.121 119.989C147.006 117.25 150.034 113.357 151.822 108.801C153.61 104.246 154.078 99.234 153.166 94.3983C152.255 89.5626 150.005 85.1207 146.7 81.6344C143.396 78.148 139.187 75.7739 134.604 74.812C130.021 73.8502 125.271 74.3437 120.954 76.2305C116.637 78.1173 112.947 81.3125 110.351 85.412C107.756 89.5115 106.37 94.3312 106.37 99.2616C106.37 105.873 108.859 112.214 113.289 116.889C117.72 121.564 123.729 124.19 129.995 124.19Z" fill="#D2D4D4"/>
<path d="M165.538 170.007V155.955C165.436 152.122 164.403 148.38 162.539 145.089C159.749 140.605 155.47 137.704 150.941 135.594C137.507 130.024 122.573 130.024 109.139 135.594C104.61 137.704 100.321 140.648 97.5416 145.089C95.6771 148.38 94.6444 152.122 94.5422 155.955V170.007H165.538Z" fill="#D2D4D4"/>
<g clip-path="url(#clip1_2201_145)">
<rect x="111.616" y="219.78" width="36.2301" height="26.0617" fill="#EFF2F3"/>
<path d="M153.37 227.262H150.77V218.343C150.77 217.184 150.319 216.072 149.516 215.252C148.713 214.432 147.624 213.971 146.489 213.971H131.1V210.999C131.528 210.778 131.888 210.441 132.139 210.024C132.391 209.607 132.524 209.127 132.525 208.638C132.525 207.934 132.251 207.258 131.764 206.761C131.276 206.263 130.615 205.983 129.926 205.983C129.236 205.983 128.575 206.263 128.087 206.761C127.6 207.258 127.326 207.934 127.326 208.638C127.326 209.139 127.465 209.629 127.727 210.052C127.989 210.476 128.363 210.815 128.806 211.03V213.971H113.411C112.276 213.971 111.187 214.432 110.384 215.252C109.581 216.072 109.13 217.184 109.13 218.343V227.269H106.53C105.841 227.269 105.18 227.548 104.692 228.046C104.205 228.544 103.931 229.219 103.931 229.923V235.232C103.931 235.936 104.205 236.611 104.692 237.109C105.18 237.607 105.841 237.886 106.53 237.886H109.13V244.132C109.13 245.291 109.581 246.403 110.384 247.223C111.187 248.043 112.276 248.504 113.411 248.504H146.489C147.624 248.504 148.713 248.043 149.516 247.223C150.319 246.403 150.77 245.291 150.77 244.132V237.886H153.37C154.059 237.886 154.72 237.607 155.208 237.109C155.695 236.611 155.969 235.936 155.969 235.232V229.923C155.97 229.574 155.903 229.228 155.773 228.905C155.643 228.582 155.451 228.289 155.21 228.042C154.969 227.795 154.682 227.599 154.366 227.465C154.05 227.331 153.712 227.262 153.37 227.262ZM145.571 241.721C145.571 242.11 145.42 242.484 145.15 242.759C144.881 243.034 144.515 243.189 144.134 243.189H115.815C115.626 243.189 115.439 243.151 115.265 243.077C115.091 243.003 114.932 242.895 114.799 242.759C114.665 242.623 114.559 242.461 114.487 242.282C114.415 242.104 114.378 241.914 114.378 241.721V223.421C114.378 223.228 114.415 223.037 114.487 222.859C114.559 222.681 114.665 222.52 114.799 222.383C114.932 222.247 115.091 222.139 115.265 222.065C115.439 221.991 115.626 221.953 115.815 221.953H144.134C144.515 221.953 144.881 222.108 145.15 222.383C145.42 222.659 145.571 223.032 145.571 223.421V241.721Z" fill="#D2D4D4"/>
<path d="M137.773 232.571C139.209 232.571 140.373 231.383 140.373 229.917C140.373 228.451 139.209 227.262 137.773 227.262C136.338 227.262 135.174 228.451 135.174 229.917C135.174 231.383 136.338 232.571 137.773 232.571Z" fill="#D2D4D4"/>
<path d="M129.975 240.534C130.657 240.534 131.332 240.397 131.961 240.13C132.591 239.863 133.163 239.472 133.645 238.979C134.128 238.488 134.511 237.904 134.772 237.261C135.034 236.618 135.168 235.928 135.168 235.232H124.77C124.773 236.639 125.323 237.988 126.299 238.982C127.274 239.976 128.596 240.534 129.975 240.534Z" fill="#D2D4D4"/>
<path d="M122.176 232.571C123.612 232.571 124.776 231.383 124.776 229.917C124.776 228.451 123.612 227.262 122.176 227.262C120.741 227.262 119.577 228.451 119.577 229.917C119.577 231.383 120.741 232.571 122.176 232.571Z" fill="#D2D4D4"/>
</g>
</g>
<defs>
<clipPath id="clip0_2201_145">
<rect width="244" height="234" fill="white" transform="translate(8 14)"/>
</clipPath>
<clipPath id="clip1_2201_145">
<rect width="51.9893" height="42.4954" fill="white" transform="translate(103.98 206.002)"/>
</clipPath>
</defs>
</svg>
