<svg width="32" height="32" viewBox="0 0 32 32" fill="none" xmlns="http://www.w3.org/2000/svg">
<path d="M24.905 0H6.55398C2.93613 0.00436248 0.00436248 2.93613 0 6.55398V24.9051C0.00436248 28.5229 2.93613 31.4547 6.55398 31.459H24.9051C28.5229 31.4547 31.4547 28.5229 31.459 24.905V6.55398C31.4547 2.93613 28.5229 0.00436248 24.905 0ZM26.2158 10.5899L14.0858 22.72C13.0622 23.744 11.4023 23.7443 10.3783 22.7207C10.378 22.7205 10.3778 22.7202 10.3775 22.72L5.24314 17.5869C4.73021 17.074 4.73021 16.2424 5.24314 15.7296C5.75607 15.2167 6.58765 15.2166 7.10051 15.7296L12.2336 20.8626L24.3649 8.73251C24.8779 8.22143 25.708 8.2229 26.219 8.73577C26.7302 9.2487 26.7287 10.0788 26.2158 10.5899Z" fill="#37BD4A"/>
</svg>
