<svg width="42" height="43" viewBox="0 0 42 43" fill="none" xmlns="http://www.w3.org/2000/svg">
<path d="M34.4253 4.83616C32.2062 2.9895 29.6286 1.62249 26.855 0.821255C24.0815 0.020022 21.172 -0.198063 18.31 0.180743C13.0154 0.868578 8.18103 3.54562 4.78849 7.6683C1.39595 11.791 -0.300448 17.0503 0.0437528 22.3782C0.387954 27.7062 2.74695 32.7035 6.64175 36.3554C10.5365 40.0073 15.6752 42.0401 21.0143 42.0409H33.243C35.5648 42.0382 37.7906 41.1146 39.4324 39.4729C41.0741 37.8312 41.9976 35.6053 42.0004 33.2836V19.813V19.7027C41.815 16.8398 41.0476 14.0448 39.7452 11.4886C38.4427 8.93246 36.6325 6.66883 34.4253 4.83616ZM13.9769 12.2659H20.9827C21.4473 12.2659 21.8928 12.4504 22.2212 12.7789C22.5497 13.1074 22.7342 13.5529 22.7342 14.0174C22.7342 14.4819 22.5497 14.9274 22.2212 15.2559C21.8928 15.5843 21.4473 15.7689 20.9827 15.7689H13.9769C13.5123 15.7689 13.0668 15.5843 12.7384 15.2559C12.4099 14.9274 12.2254 14.4819 12.2254 14.0174C12.2254 13.5529 12.4099 13.1074 12.7384 12.7789C13.0668 12.4504 13.5123 12.2659 13.9769 12.2659ZM27.9886 29.7806H13.9769C13.5123 29.7806 13.0668 29.5961 12.7384 29.2676C12.4099 28.9392 12.2254 28.4937 12.2254 28.0292C12.2254 27.5646 12.4099 27.1191 12.7384 26.7907C13.0668 26.4622 13.5123 26.2777 13.9769 26.2777H27.9886C28.4532 26.2777 28.8986 26.4622 29.2271 26.7907C29.5556 27.1191 29.7401 27.5646 29.7401 28.0292C29.7401 28.4937 29.5556 28.9392 29.2271 29.2676C28.8986 29.5961 28.4532 29.7806 27.9886 29.7806ZM27.9886 22.7747H13.9769C13.5123 22.7747 13.0668 22.5902 12.7384 22.2617C12.4099 21.9333 12.2254 21.4878 12.2254 21.0233C12.2254 20.5587 12.4099 20.1133 12.7384 19.7848C13.0668 19.4563 13.5123 19.2718 13.9769 19.2718H27.9886C28.4532 19.2718 28.8986 19.4563 29.2271 19.7848C29.5556 20.1133 29.7401 20.5587 29.7401 21.0233C29.7401 21.4878 29.5556 21.9333 29.2271 22.2617C28.8986 22.5902 28.4532 22.7747 27.9886 22.7747Z" fill="#2263D3"/>
</svg>
