<svg width="260" height="260" viewBox="0 0 260 260" fill="none" xmlns="http://www.w3.org/2000/svg">
<g clip-path="url(#clip0_271_29)">
<rect width="260" height="260" fill="white"/>
<path d="M12.7603 42.7201C12.3975 42.7214 12.0376 42.6509 11.7022 42.5127C11.3667 42.3745 11.0622 42.1711 10.8057 41.9146C10.5491 41.658 10.3458 41.3533 10.2075 41.0178C10.0693 40.6824 9.9987 40.3229 10 39.9601V16.76C10 16.3976 10.0713 16.0387 10.21 15.7039C10.3487 15.369 10.5523 15.0648 10.8086 14.8085C11.0649 14.5522 11.3688 14.3488 11.7036 14.2101C12.0385 14.0714 12.3978 14 12.7603 14H35.96C36.692 14 37.394 14.2909 37.9116 14.8085C38.4292 15.3261 38.7202 16.028 38.7202 16.76C38.7202 17.492 38.4292 18.1941 37.9116 18.7117C37.394 19.2293 36.692 19.52 35.96 19.52H15.52V39.9601C15.52 40.6921 15.229 41.394 14.7114 41.9116C14.1938 42.4292 13.4923 42.7201 12.7603 42.7201Z" fill="black"/>
<path d="M35.96 177.78H12.7603C12.3975 177.781 12.0376 177.711 11.7022 177.573C11.3667 177.434 11.0622 177.231 10.8057 176.975C10.5491 176.718 10.3458 176.413 10.2075 176.078C10.0693 175.742 9.9987 175.383 10 175.02V151.82C10 151.088 10.291 150.386 10.8086 149.868C11.3262 149.351 12.0283 149.06 12.7603 149.06C13.4923 149.06 14.1938 149.351 14.7114 149.868C15.229 150.386 15.52 151.088 15.52 151.82V172.26H35.96C36.692 172.26 37.394 172.551 37.9116 173.068C38.4292 173.586 38.7202 174.288 38.7202 175.02C38.7202 175.752 38.4292 176.454 37.9116 176.972C37.394 177.489 36.692 177.78 35.96 177.78Z" fill="black"/>
<path d="M156.02 42.7201C155.657 42.7214 155.297 42.6509 154.962 42.5127C154.626 42.3745 154.321 42.1711 154.065 41.9146C153.808 41.658 153.605 41.3533 153.467 41.0178C153.329 40.6824 153.258 40.3229 153.26 39.9601V19.52H132.819C132.087 19.52 131.385 19.2293 130.868 18.7117C130.35 18.1941 130.06 17.492 130.06 16.76C130.06 16.028 130.35 15.3261 130.868 14.8085C131.385 14.2909 132.087 14 132.819 14H156.02C156.751 14.0026 157.451 14.2942 157.968 14.8113C158.485 15.3283 158.777 16.0288 158.779 16.76V39.9601C158.779 40.6921 158.489 41.394 157.971 41.9116C157.454 42.4292 156.752 42.7201 156.02 42.7201Z" fill="black"/>
<path d="M156.02 177.78H132.819C132.087 177.78 131.385 177.489 130.868 176.972C130.35 176.454 130.06 175.752 130.06 175.02C130.06 174.288 130.35 173.586 130.868 173.068C131.385 172.551 132.087 172.26 132.819 172.26H153.26V151.82C153.26 151.088 153.55 150.386 154.068 149.868C154.585 149.351 155.288 149.06 156.02 149.06C156.752 149.06 157.454 149.351 157.971 149.868C158.489 150.386 158.779 151.088 158.779 151.82V175.02C158.779 175.752 158.489 176.454 157.971 176.972C157.454 177.489 156.752 177.78 156.02 177.78Z" fill="black"/>
<path d="M84.12 107.24C101.859 107.24 116.24 92.8594 116.24 75.12C116.24 57.3806 101.859 43 84.12 43C66.3806 43 52 57.3806 52 75.12C52 92.8594 66.3806 107.24 84.12 107.24Z" fill="#007AFF"/>
<path d="M83.77 122C72.8084 122.003 62.1605 125.66 53.5093 132.391C44.8581 139.123 38.697 148.545 36 159.17H131.53C128.837 148.545 122.678 139.122 114.028 132.39C105.378 125.658 94.7308 122.002 83.77 122Z" fill="#007AFF"/>
<path d="M228.899 199.55C229.155 199.441 229.38 199.272 229.555 199.055C229.729 198.839 229.848 198.583 229.899 198.31C230.044 197.616 229.975 196.894 229.7 196.24L229.359 195.43C229.249 195.16 229.11 194.84 228.94 194.43C228.77 194.02 228.57 193.61 228.35 193.12C227.099 190.389 225.676 187.741 224.089 185.19C221.84 181.566 219.277 178.146 216.43 174.97C214.85 173.193 213.181 171.498 211.43 169.89C209.66 168.25 207.779 166.69 205.859 165.22C202.163 162.409 198.24 159.911 194.129 157.75C190.666 155.927 187.092 154.321 183.43 152.94C180.26 151.74 177.6 150.94 175.73 150.37C174.8 150.1 174.06 149.89 173.56 149.76L172.79 149.56C172.662 149.524 172.531 149.497 172.399 149.48L171.91 149.36C169.903 148.82 167.767 149.037 165.91 149.97C165.108 150.367 164.409 150.944 163.869 151.658C163.329 152.371 162.963 153.201 162.799 154.08C162.647 154.985 162.709 155.913 162.98 156.79H162.79C160.855 156.419 158.853 156.829 157.22 157.93C156.498 158.416 155.892 159.057 155.448 159.806C155.003 160.555 154.731 161.393 154.649 162.26C154.545 163.583 154.841 164.907 155.5 166.06C156.138 167.187 157.063 168.125 158.18 168.78C157.52 169.656 157.102 170.691 156.97 171.78C156.787 173.147 157.009 174.538 157.609 175.78C158.153 176.945 159.03 177.923 160.129 178.59C159.552 179.417 159.16 180.358 158.98 181.35C158.673 182.995 158.916 184.696 159.669 186.19C159.974 186.836 160.411 187.411 160.952 187.878C161.493 188.345 162.126 188.693 162.81 188.9C162.81 188.9 163.44 189.06 164.35 189.32C165.26 189.58 166.48 189.97 167.66 190.38C168.84 190.79 169.999 191.24 170.839 191.6C171.269 191.77 171.619 191.93 171.839 192.03L172.22 192.2L172.49 192.29L172.819 192.43L173.72 192.86C174.49 193.24 175.569 193.79 176.799 194.5C178.181 195.286 179.517 196.151 180.799 197.09C182.187 198.112 183.504 199.228 184.74 200.43C186.963 202.582 188.862 205.044 190.379 207.74C190.989 208.83 191.44 209.8 191.76 210.48C191.92 210.82 192.02 211.1 192.1 211.28L194.7 217.16C194.97 217.83 198.139 215.59 199.149 215.23L228.899 199.55Z" fill="white"/>
<path d="M195.149 219.23C194.684 219.288 194.212 219.194 193.804 218.961C193.397 218.729 193.076 218.37 192.889 217.94C192.459 216.94 190.479 212.5 190.299 212.08C190.254 211.986 190.214 211.889 190.179 211.79C190.119 211.64 190.059 211.49 189.979 211.33C189.639 210.6 189.229 209.73 188.669 208.73C188.008 207.559 187.269 206.434 186.459 205.36C185.516 204.12 184.483 202.95 183.369 201.86C182.198 200.718 180.948 199.659 179.629 198.69C178.413 197.8 177.147 196.979 175.839 196.23C174.669 195.55 173.649 195.03 172.839 194.65L171.839 194.18L171.399 194.02L171.039 193.85L170.039 193.43C169.109 193.04 167.979 192.61 166.979 192.26C165.639 191.79 164.389 191.41 163.769 191.26L162.609 190.94L162.279 190.85C161.329 190.577 160.448 190.107 159.693 189.469C158.938 188.831 158.327 188.041 157.899 187.15C156.943 185.276 156.636 183.137 157.029 181.07C157.147 180.422 157.335 179.788 157.589 179.18C156.855 178.46 156.253 177.617 155.809 176.69C155.041 175.097 154.759 173.312 154.999 171.56C155.103 170.82 155.304 170.097 155.599 169.41C154.868 168.745 154.25 167.964 153.769 167.1C152.912 165.61 152.528 163.894 152.669 162.18C152.777 161.03 153.137 159.918 153.722 158.922C154.308 157.927 155.106 157.073 156.059 156.42C157.446 155.474 159.064 154.921 160.74 154.82C160.751 154.485 160.784 154.151 160.839 153.82C161.056 152.648 161.541 151.542 162.256 150.588C162.97 149.634 163.895 148.858 164.959 148.32C166.122 147.716 167.394 147.349 168.7 147.24C169.931 147.131 171.172 147.232 172.369 147.54L172.76 147.64L173.249 147.74L174.039 147.95L176.249 148.57C178.829 149.32 181.469 150.2 184.089 151.18C187.832 152.59 191.482 154.234 195.019 156.1C199.223 158.311 203.237 160.866 207.019 163.74C209.019 165.25 210.91 166.86 212.72 168.52C214.53 170.18 216.149 171.84 217.859 173.74C220.781 177 223.412 180.51 225.72 184.23C227.351 186.848 228.814 189.566 230.099 192.37L230.289 192.79C230.449 193.13 230.589 193.45 230.709 193.73L231.479 195.54C231.916 196.576 232.018 197.723 231.769 198.82C231.649 199.379 231.397 199.902 231.036 200.345C230.674 200.788 230.213 201.14 229.689 201.37L199.889 217.03H199.76C199.325 217.238 198.901 217.469 198.49 217.72C197.485 218.435 196.35 218.948 195.149 219.23ZM193.499 209.67C193.619 209.93 193.719 210.15 193.779 210.32L193.859 210.49L195.769 214.8L196.579 214.34C197.14 213.997 197.72 213.69 198.319 213.42L228.019 197.85C228.064 197.576 228.029 197.295 227.919 197.04L227.159 195.25C227.059 195.01 226.929 194.72 226.779 194.41L226.589 193.99C225.372 191.331 223.986 188.752 222.439 186.27C220.26 182.745 217.77 179.422 214.999 176.34C213.369 174.52 211.729 172.86 210.119 171.34C208.509 169.82 206.559 168.22 204.679 166.79C201.07 164.041 197.237 161.599 193.22 159.49C189.828 157.703 186.328 156.13 182.74 154.78C180.22 153.78 177.669 152.98 175.189 152.26L173.059 151.66L172.289 151.46H172.139H172.019L171.419 151.3C170.646 151.103 169.844 151.039 169.049 151.11C168.264 151.169 167.498 151.387 166.799 151.75C166.26 152.008 165.789 152.388 165.423 152.86C165.056 153.333 164.805 153.884 164.689 154.47C164.589 155.079 164.633 155.702 164.819 156.29L165.729 159.29L162.409 158.69C161.891 158.602 161.363 158.578 160.839 158.62C159.928 158.689 159.051 158.999 158.299 159.52C157.812 159.843 157.402 160.272 157.101 160.773C156.8 161.275 156.615 161.838 156.559 162.42C156.489 163.354 156.701 164.288 157.169 165.1C157.647 165.932 158.337 166.622 159.169 167.1L161.069 168.21L159.74 169.96C159.298 170.546 159.013 171.234 158.909 171.96C158.78 172.958 158.943 173.973 159.379 174.88C159.751 175.706 160.36 176.402 161.129 176.88L162.959 177.96L161.729 179.69C161.307 180.285 161.026 180.969 160.909 181.69C160.677 182.909 160.853 184.171 161.409 185.28C161.591 185.677 161.852 186.033 162.175 186.327C162.498 186.621 162.877 186.846 163.289 186.99C163.579 187.05 164.039 187.18 164.899 187.43C165.569 187.63 166.899 188.02 168.319 188.52C169.389 188.9 170.579 189.36 171.599 189.78L172.97 190.37H173.109L174.039 190.79L174.609 191.07C175.429 191.47 176.539 192.07 177.809 192.76C179.24 193.589 180.625 194.493 181.959 195.47C183.424 196.547 184.815 197.723 186.119 198.99C187.373 200.215 188.533 201.532 189.589 202.93C190.498 204.14 191.33 205.406 192.079 206.72C192.729 208 193.229 209.08 193.499 209.67Z" fill="black"/>
<path d="M145.879 106.78L185.58 115.96V173.15C185.58 179.54 183.66 182.47 177.79 187.15C169.14 194.02 145.879 211.97 145.879 211.97C145.879 211.97 122.629 193.97 113.979 187.15C108.109 182.5 106.189 179.57 106.189 173.15V115.96L145.879 106.78Z" fill="white"/>
<path d="M145.879 214.7C145.272 214.699 144.682 214.499 144.2 214.13C143.97 213.95 120.83 196.13 112.26 189.29C106.26 184.54 103.43 180.91 103.43 173.15V115.96C103.43 115.337 103.642 114.732 104.031 114.246C104.42 113.759 104.962 113.418 105.569 113.28L145.26 104.09C145.67 103.99 146.099 103.99 146.51 104.09L186.2 113.28C186.807 113.418 187.349 113.759 187.738 114.246C188.127 114.732 188.339 115.337 188.339 115.96V173.15C188.339 180.91 185.49 184.54 179.51 189.28C170.95 196.09 147.799 213.95 147.569 214.13C147.084 214.5 146.49 214.701 145.879 214.7ZM108.95 118.16V173.16C108.95 178.41 110.209 180.62 115.689 184.97C122.869 190.68 140.379 204.21 145.879 208.47C151.389 204.21 168.88 190.68 176.08 184.97C181.56 180.62 182.819 178.41 182.819 173.16V118.16L145.879 109.61L108.95 118.16Z" fill="black"/>
<path d="M128.52 129L119 138.52L123.861 143.381L135.879 155.601L123.861 167.619L119 172.278L128.52 182L133.381 177.139L145.601 164.918L157.619 177.139L162.278 182L172 172.278L167.139 167.619L154.918 155.601L167.139 143.381L172 138.52L162.278 129L157.619 133.861L145.601 145.879L133.381 133.861L128.52 129Z" fill="#007AFF"/>
<path d="M201.12 169.09C190.32 166.83 183.12 167.59 172.74 169.93C171.957 170.123 171.223 170.48 170.587 170.976C169.952 171.473 169.428 172.098 169.051 172.81C168.673 173.523 168.45 174.307 168.396 175.112C168.343 175.917 168.46 176.724 168.74 177.48C169.81 181.17 172.479 182.37 175.269 181.57C182.499 179.75 187.05 179.02 194.74 180.57C192.29 190.83 195.539 202.5 204.549 206.31L201.12 169.09Z" fill="white"/>
<path d="M204.71 208.13C204.413 208.152 204.115 208.104 203.84 207.99C199.16 205.99 195.53 201.92 193.62 196.46C192.063 191.815 191.702 186.852 192.57 182.03C186.57 181.03 182.45 181.65 175.74 183.33C171.74 184.47 168.26 182.33 166.99 177.99C166.656 176.974 166.531 175.9 166.623 174.835C166.716 173.769 167.025 172.733 167.53 171.79C168.041 170.905 168.722 170.13 169.534 169.509C170.346 168.888 171.272 168.433 172.26 168.17H172.34C182.96 165.78 190.39 164.99 201.49 167.33C201.964 167.43 202.378 167.713 202.643 168.118C202.907 168.523 202.999 169.017 202.9 169.49C202.8 169.963 202.517 170.378 202.112 170.642C201.707 170.907 201.214 170.999 200.74 170.9C190.25 168.7 183.49 169.41 173.19 171.72C172.152 171.992 171.264 172.665 170.72 173.59C170.453 174.111 170.294 174.682 170.255 175.266C170.215 175.851 170.295 176.437 170.49 176.99C171.21 179.44 172.69 180.43 174.77 179.83H174.82C182.61 177.83 187.39 177.26 195.1 178.83C195.583 178.931 196.007 179.219 196.28 179.63C196.41 179.838 196.498 180.07 196.538 180.312C196.577 180.554 196.568 180.802 196.51 181.04C195.344 185.754 195.538 190.702 197.07 195.31C198.17 198.47 200.49 202.66 205.26 204.68C205.485 204.769 205.689 204.902 205.861 205.071C206.034 205.24 206.17 205.442 206.264 205.664C206.357 205.887 206.404 206.126 206.404 206.368C206.403 206.609 206.355 206.848 206.26 207.07C206.122 207.37 205.904 207.627 205.631 207.814C205.358 208.001 205.04 208.11 204.71 208.13Z" fill="black"/>
<path d="M197.779 243.25L246.49 243.47V241.7C246.49 241.34 246.489 240.92 246.439 240.45C246.389 239.98 246.39 239.45 246.37 238.89C246.35 238.33 246.28 237.76 246.22 237.13C246.22 236.81 246.17 236.49 246.14 236.13L246.02 235.13C245.94 234.45 245.86 233.72 245.75 232.99C245.288 229.795 244.657 226.628 243.859 223.5C243.029 220.2 242.009 216.85 240.859 213.63C238.833 207.894 236.466 202.284 233.77 196.83C232.68 194.63 231.72 192.83 231.01 191.51L230.169 189.97C229.949 189.6 229.839 189.4 229.839 189.4L187.56 213.55L187.729 213.84C187.849 214.06 188.02 214.37 188.25 214.77C188.69 215.6 189.349 216.85 190.109 218.38C191.927 222.048 193.523 225.821 194.89 229.68C195.6 231.68 196.189 233.68 196.629 235.41C197.003 236.877 197.3 238.362 197.52 239.86C197.57 240.16 197.589 240.42 197.629 240.68C197.669 240.94 197.629 240.94 197.629 241.06V241.38C197.629 241.6 197.629 241.79 197.629 241.98C197.629 242.17 197.629 242.29 197.629 242.43C197.623 242.55 197.623 242.67 197.629 242.79C197.629 242.89 197.629 242.97 197.629 243.03L197.779 243.25Z" fill="#007AFF"/>
<path d="M246.49 246.06C245.803 246.06 245.144 245.787 244.658 245.302C244.173 244.816 243.9 244.157 243.9 243.47V241.76L243.779 239.05C243.779 238.59 243.71 238.11 243.67 237.6L243.56 236.38C243.56 236.19 243.56 235.99 243.49 235.78L243.39 234.89C243.33 234.4 243.27 233.89 243.19 233.39C242.742 230.283 242.131 227.202 241.36 224.16C240.56 220.98 239.58 217.73 238.44 214.51C236.443 208.87 234.105 203.357 231.44 198C230.38 195.85 229.44 194.11 228.85 193L191.02 214.55C191.4 215.27 191.87 216.18 192.4 217.24C194.261 221.006 195.897 224.88 197.3 228.84C198 230.84 198.62 232.84 199.1 234.84C199.506 236.391 199.823 237.963 200.05 239.55C200.05 239.75 200.1 239.93 200.12 240.11C200.114 240.2 200.114 240.29 200.12 240.38V240.44V240.55C200.12 240.67 200.12 240.78 200.12 240.89L200.19 241.76C200.195 241.81 200.195 241.86 200.19 241.91V242.66V243.25C200.149 243.91 199.857 244.53 199.375 244.984C198.893 245.437 198.257 245.689 197.595 245.689C196.933 245.689 196.296 245.437 195.814 244.984C195.332 244.53 195.041 243.91 195 243.25V242.6C194.995 242.58 194.995 242.56 195 242.54V242.16L194.95 241.64V241.33C194.944 241.304 194.944 241.276 194.95 241.25V241.07C194.95 240.94 194.95 240.82 194.95 240.69C194.95 240.56 194.95 240.45 194.9 240.31C194.694 238.906 194.414 237.514 194.06 236.14C193.62 234.39 193.06 232.49 192.4 230.64C191.056 226.887 189.497 223.214 187.73 219.64C186.91 217.98 186.24 216.72 185.92 216.12L185.26 214.93C185.093 214.633 184.986 214.305 184.946 213.967C184.907 213.628 184.934 213.285 185.027 212.957C185.12 212.629 185.276 212.323 185.488 212.056C185.7 211.789 185.962 211.566 186.26 211.4L228.56 187.25C229.164 186.915 229.876 186.832 230.541 187.02C231.206 187.207 231.769 187.649 232.11 188.25L232.43 188.82L233.279 190.36C233.919 191.54 234.92 193.43 236.09 195.8C238.83 201.344 241.235 207.047 243.29 212.88C244.48 216.25 245.5 219.65 246.29 222.98C247.11 226.196 247.758 229.454 248.23 232.74C248.31 233.29 248.38 233.84 248.44 234.37L248.55 235.25C248.55 235.5 248.61 235.74 248.63 235.99L248.74 237.25C248.787 237.803 248.826 238.323 248.86 238.81L248.98 241.64V243.5C248.981 243.841 248.915 244.179 248.785 244.494C248.656 244.81 248.465 245.096 248.225 245.338C247.984 245.579 247.698 245.771 247.383 245.902C247.068 246.033 246.731 246.1 246.39 246.1L246.49 246.06Z" fill="#007AFF"/>
<path d="M234.289 236.09C234.541 236.148 234.805 236.12 235.038 236.01C235.272 235.9 235.462 235.715 235.577 235.484C235.693 235.253 235.727 234.99 235.675 234.737C235.623 234.484 235.487 234.256 235.289 234.09C230.289 230.09 223.24 226.96 214.24 224.76C210.293 223.781 206.283 223.073 202.24 222.64C201.935 222.612 201.631 222.707 201.395 222.903C201.16 223.099 201.012 223.38 200.984 223.685C200.956 223.99 201.051 224.294 201.247 224.529C201.443 224.764 201.724 224.912 202.029 224.94C202.239 224.94 222.649 226.86 233.879 235.88C233.999 235.979 234.139 236.05 234.289 236.09Z" fill="black"/>
<path d="M202.02 220.31C202.232 220.37 202.457 220.37 202.67 220.31C202.84 220.25 220.47 214.54 234.54 219.18C234.83 219.276 235.147 219.252 235.42 219.114C235.693 218.976 235.899 218.735 235.995 218.445C236.09 218.155 236.066 217.838 235.928 217.565C235.791 217.292 235.55 217.085 235.26 216.99C220.45 212.11 202.69 217.87 201.94 218.12C201.651 218.216 201.412 218.422 201.275 218.694C201.138 218.966 201.115 219.281 201.21 219.57C201.273 219.751 201.38 219.913 201.522 220.042C201.663 220.171 201.834 220.263 202.02 220.31Z" fill="black"/>
<path d="M232.652 5.43537C232.652 5.43537 230.452 8.54539 227.112 8.70539C225.112 8.79539 223.242 7.82537 221.582 5.81537C219.522 3.30537 218.222 2.81537 217.492 2.81537C216.422 2.81537 215.492 4.17533 214.632 5.39533C214.632 5.39533 212.432 8.50535 209.092 8.66535C207.092 8.75535 205.222 7.78534 203.562 5.77534C202.322 4.26534 201.082 3.51535 199.882 3.53535C199.23 3.61989 198.602 3.83212 198.032 4.15986C197.462 4.48759 196.963 4.92444 196.562 5.44538C196.451 5.59509 196.31 5.72137 196.15 5.81696C195.99 5.91256 195.812 5.97558 195.627 6.00251C195.442 6.02944 195.254 6.01966 195.073 5.97382C194.892 5.92799 194.722 5.84692 194.572 5.7353C194.422 5.62367 194.296 5.48373 194.2 5.32331C194.105 5.16289 194.042 4.98515 194.015 4.80036C193.988 4.61557 193.998 4.42731 194.044 4.24628C194.089 4.06526 194.17 3.89501 194.282 3.74531C194.372 3.61531 196.522 0.74537 199.792 0.68537C201.922 0.62537 203.942 1.68539 205.792 3.95539C206.136 4.48502 206.597 4.92823 207.14 5.2508C207.683 5.57337 208.292 5.76661 208.922 5.81537C210.265 5.61989 211.477 4.90091 212.292 3.81537C213.232 2.42537 214.792 0.125316 217.382 0.00531603C219.382 -0.094684 221.522 1.21532 223.812 4.00532C224.158 4.53518 224.621 4.97847 225.166 5.30097C225.71 5.62347 226.321 5.81654 226.952 5.8653C228.292 5.66732 229.499 4.94858 230.312 3.8653C231.252 2.4753 232.822 0.175365 235.402 0.0553649C237.402 -0.0446351 239.542 1.26537 241.832 4.05537C242.178 4.58523 242.641 5.02852 243.186 5.35102C243.73 5.67352 244.341 5.86659 244.972 5.91535C246.312 5.71946 247.521 5.00028 248.332 3.91535C249.272 2.52535 250.842 0.225292 253.422 0.105292C255.422 0.00529162 257.562 1.31529 259.852 4.10529C259.985 4.24793 260.087 4.4162 260.152 4.59968C260.217 4.78315 260.244 4.97799 260.232 5.17231C260.219 5.36663 260.166 5.55628 260.078 5.72968C259.989 5.90308 259.866 6.0566 259.716 6.18073C259.566 6.30486 259.392 6.39704 259.205 6.45161C259.018 6.50617 258.822 6.52202 258.629 6.49811C258.436 6.4742 258.249 6.41105 258.081 6.31257C257.913 6.21409 257.767 6.08231 257.652 5.92536C255.582 3.41536 254.282 2.92536 253.552 2.92536C252.482 2.92536 251.552 4.28532 250.692 5.50532C250.692 5.50532 248.502 8.61534 245.152 8.77534C243.152 8.86534 241.282 7.89532 239.622 5.88532C237.562 3.37532 236.262 2.88532 235.532 2.88532C234.442 2.91532 233.472 4.21537 232.652 5.43537Z" fill="#007AFF"/>
<path d="M0.58757 256.911L10.1774 250.261C10.4244 250.091 10.7172 250 11.0173 250C11.3173 250 11.6106 250.091 11.8576 250.261L20.5475 256.431L29.2975 250.361C29.5446 250.191 29.8373 250.1 30.1374 250.1C30.4374 250.1 30.7302 250.191 30.9772 250.361L39.6574 256.531L48.4176 250.471C48.6636 250.298 48.9568 250.206 49.2575 250.206C49.5582 250.206 49.8514 250.298 50.0973 250.471L58.7775 256.631L67.5373 250.571C67.7811 250.398 68.0729 250.305 68.3722 250.305C68.6715 250.305 68.9638 250.398 69.2077 250.571L77.8976 256.731L86.6476 250.671C86.8936 250.498 87.1868 250.406 87.4875 250.406C87.7882 250.406 88.0814 250.498 88.3273 250.671L97.8473 257.431C98.1538 257.654 98.3616 257.987 98.4269 258.361C98.4922 258.734 98.41 259.118 98.1974 259.431C98.061 259.623 97.8812 259.779 97.6725 259.886C97.4639 259.994 97.2321 260.051 96.9972 260.051C96.6967 260.046 96.4045 259.952 96.1574 259.781L87.4772 253.611L78.7175 259.681C78.4704 259.852 78.1776 259.943 77.8776 259.943C77.5776 259.943 77.2843 259.852 77.0373 259.681L68.3576 253.511L59.5973 259.571C59.3514 259.744 59.0582 259.837 58.7575 259.837C58.4568 259.837 58.1636 259.744 57.9176 259.571L49.2375 253.411L40.4772 259.471C40.2334 259.645 39.9416 259.738 39.6423 259.738C39.343 259.738 39.0511 259.645 38.8073 259.471L30.1174 253.311L21.3674 259.371C21.1214 259.544 20.8282 259.637 20.5275 259.637C20.2268 259.637 19.9336 259.544 19.6877 259.371L11.0075 253.211L2.24724 259.271C1.92872 259.475 1.54384 259.548 1.17302 259.473C0.802196 259.399 0.474597 259.183 0.259445 258.872C0.044294 258.561 -0.0419751 258.179 0.0192109 257.806C0.080397 257.432 0.284362 257.098 0.58757 256.871V256.911Z" fill="#007AFF"/>
</g>
<defs>
<clipPath id="clip0_271_29">
<rect width="260" height="260" fill="white"/>
</clipPath>
</defs>
</svg>
