<svg width="52" height="52" viewBox="0 0 52 52" fill="none" xmlns="http://www.w3.org/2000/svg">
<g clip-path="url(#clip0_2242_871)">
<path d="M50.4836 48.9036L40.8246 51.9023C40.2758 52.0729 39.6817 52.0186 39.173 51.7512C38.6643 51.4839 38.2826 51.0254 38.1119 50.4766C37.9412 49.9278 37.9956 49.3337 38.2629 48.825C38.5303 48.3163 38.9888 47.9346 39.5376 47.7639L42.2329 46.9276L40.2439 41.0776C39.8264 41.1313 39.406 41.1603 38.9851 41.1643C36.6214 41.1593 34.3242 40.3815 32.4438 38.9494C30.5633 37.5173 29.2029 35.5094 28.5699 33.2321L28.2947 32.4196L30.4614 25.9954H48.9669L49.4002 27.3106C50.087 29.6438 49.9609 32.141 49.0425 34.3931C48.1241 36.6452 46.4679 38.5185 44.3454 39.7061L46.3626 45.6363L49.1792 44.7696C49.728 44.5989 50.3221 44.6532 50.8308 44.9206C51.3396 45.188 51.7212 45.6465 51.8919 46.1953C52.0626 46.744 52.0083 47.3381 51.7409 47.8469C51.4735 48.3556 51.015 48.7373 50.4662 48.9079L50.4836 48.9036ZM31.7549 21.6664H47.5001L45.4071 15.4524C44.9045 13.8329 43.7934 12.4715 42.3076 11.6544C40.8218 10.8374 39.077 10.6284 37.4402 11.0714L29.8049 13.1991C30.1148 13.592 30.3978 14.0053 30.6521 14.4362C31.858 16.6418 32.2484 19.2016 31.7549 21.6664ZM22.9062 13.3984L14.5581 11.0714C12.9332 10.6232 11.1979 10.8219 9.71647 11.6259C8.23503 12.4298 7.12266 13.7765 6.61291 15.3831L4.50257 21.6664H27.3414L27.3847 21.5386C27.6348 20.7101 27.717 19.8401 27.6264 18.9795C27.5358 18.1189 27.2742 17.285 26.8571 16.5268C26.44 15.7686 25.8756 15.1014 25.1972 14.5641C24.5188 14.0269 23.7399 13.6306 22.9062 13.3984ZM2.56774 27.4232C1.90911 29.7522 2.05663 32.2355 2.98635 34.4701C3.91607 36.7047 5.57348 38.5597 7.68974 39.7343L5.64441 45.6449L2.81691 44.7653C2.54518 44.6799 2.2593 44.6489 1.97559 44.674C1.69188 44.6991 1.4159 44.7799 1.1634 44.9117C0.910906 45.0435 0.686837 45.2237 0.50399 45.4421C0.321143 45.6604 0.183099 45.9127 0.0977397 46.1844C0.0123804 46.4561 -0.0186224 46.742 0.00650136 47.0257C0.0316251 47.3094 0.112383 47.5854 0.244165 47.8379C0.375947 48.0904 0.556172 48.3145 0.774549 48.4973C0.992926 48.6802 1.24518 48.8182 1.51691 48.9036L11.1759 51.9023C11.7247 52.0729 12.3188 52.0186 12.8275 51.7512C13.3362 51.4839 13.7179 51.0254 13.8886 50.4766C14.0592 49.9278 14.0049 49.3337 13.7376 48.825C13.4702 48.3163 13.0117 47.9346 12.4629 47.7639L9.78491 46.9298L11.8107 41.0798C12.2125 41.1313 12.6169 41.1603 13.0219 41.1664C15.3644 41.1606 17.642 40.3957 19.5131 38.9863C21.3842 37.5769 22.7481 35.599 23.4002 33.3491L25.8811 25.9998H3.04657L2.56774 27.4232ZM33.6984 8.44975C33.9542 8.57836 34.233 8.65501 34.5186 8.67524C34.8042 8.69548 35.091 8.6589 35.3623 8.56763C35.6337 8.47637 35.8843 8.33222 36.0997 8.14351C36.315 7.95481 36.4908 7.7253 36.6169 7.46825L38.7836 3.13491C39.0404 2.62061 39.0825 2.02534 38.9004 1.48005C38.7184 0.934754 38.3272 0.484108 37.8129 0.227246C37.2986 -0.0296166 36.7033 -0.0716539 36.158 0.110381C35.6127 0.292417 35.1621 0.683613 34.9052 1.19791L32.7386 5.53125C32.6092 5.78575 32.5314 6.06331 32.5096 6.34798C32.4879 6.63266 32.5226 6.91882 32.6118 7.19003C32.701 7.46125 32.8429 7.71215 33.0294 7.92834C33.2159 8.14452 33.4432 8.32172 33.6984 8.44975ZM15.3944 7.46825C15.6513 7.98398 16.1025 8.37656 16.6488 8.55961C16.9193 8.65025 17.205 8.68672 17.4896 8.66694C17.7742 8.64716 18.0521 8.57152 18.3075 8.44433C18.5629 8.31714 18.7907 8.14091 18.9779 7.92568C19.1652 7.71045 19.3082 7.46045 19.3989 7.18994C19.4895 6.91944 19.526 6.63373 19.5062 6.34913C19.4864 6.06453 19.4108 5.78661 19.2836 5.53125L17.1169 1.19791C16.9897 0.943257 16.8136 0.716147 16.5987 0.529548C16.3837 0.342949 16.1341 0.200516 15.8641 0.110381C15.3188 -0.0716539 14.7235 -0.0296166 14.2092 0.227246C13.6949 0.484108 13.3037 0.934754 13.1217 1.48005C12.9397 2.02534 12.9817 2.62061 13.2386 3.13491L15.3944 7.46825ZM26.0002 -0.000254455C25.4256 -0.000254455 24.8745 0.228019 24.4682 0.634348C24.0618 1.04068 23.8336 1.59178 23.8336 2.16641V6.49975C23.8336 7.07438 24.0618 7.62548 24.4682 8.03181C24.8745 8.43814 25.4256 8.66641 26.0002 8.66641C26.5749 8.66641 27.126 8.43814 27.5323 8.03181C27.9386 7.62548 28.1669 7.07438 28.1669 6.49975V2.16641C28.1669 1.59178 27.9386 1.04068 27.5323 0.634348C27.126 0.228019 26.5749 -0.000254455 26.0002 -0.000254455Z" fill="#2263D3"/>
</g>
<defs>
<clipPath id="clip0_2242_871">
<rect width="52" height="52" fill="white"/>
</clipPath>
</defs>
</svg>
