<svg width="44" height="44" viewBox="0 0 44 44" fill="none" xmlns="http://www.w3.org/2000/svg">
<path d="M25.2247 31.2136L19.5168 36.9214C16.0348 40.3103 10.4648 40.2349 7.0758 36.7529C3.75221 33.3381 3.75147 27.8979 7.07408 24.4821L12.7819 18.7691C13.4651 18.0854 13.4647 16.9773 12.781 16.294C12.0973 15.6108 10.9891 15.6112 10.3059 16.2949L4.59982 22.008C-0.201648 26.8119 -0.199679 34.5985 4.60416 39.4001C9.40801 44.2016 17.1947 44.1995 21.9963 39.3957L27.7041 33.6879C28.3754 32.9928 28.3562 31.8851 27.6611 31.2137C26.983 30.5588 25.908 30.5588 25.2299 31.2137H25.2247V31.2136Z" fill="#2263D3" stroke="#2263D3" stroke-width="2"/>
<path d="M39.3967 4.60637C37.0968 2.29065 33.9656 0.991923 30.7019 1.00004C27.44 0.991349 24.31 2.28737 22.0089 4.5994L16.2924 10.3089C15.6086 10.9922 15.6082 12.1003 16.2915 12.784C16.9747 13.4677 18.0828 13.4682 18.7665 12.7849L24.4796 7.07711C26.125 5.42175 28.3644 4.49367 30.6984 4.49966C35.5574 4.5013 39.4951 8.44154 39.4934 13.3005C39.4927 15.6325 38.566 17.8689 36.9171 19.5182L31.2093 25.226C30.5256 25.9097 30.5256 27.0182 31.2093 27.7019C31.893 28.3857 33.0016 28.3857 33.6853 27.7019L39.3931 21.9976C44.1878 17.1924 44.1894 9.41333 39.3967 4.60637Z" fill="#2263D3" stroke="#2263D3" stroke-width="2"/>
<path d="M26.0095 15.5116L15.5107 26.0103C14.8156 26.6817 14.7964 27.7894 15.4678 28.4845C16.1391 29.1795 17.2469 29.1988 17.9419 28.5275C17.9565 28.5134 17.9708 28.4991 17.9849 28.4845L28.4837 17.9857C29.155 17.2906 29.1357 16.1829 28.4406 15.5116C27.7626 14.8567 26.6876 14.8567 26.0095 15.5116Z" fill="#2263D3" stroke="#2263D3" stroke-width="2"/>
</svg>
