<svg width="18" height="16" viewBox="0 0 18 16" fill="none" xmlns="http://www.w3.org/2000/svg">
<path d="M5.75 14.9995H17.75V12.9995H5.75V14.9995ZM5.75 8.9995H17.75V6.9995H5.75V8.9995ZM5.75 0.999497V2.9995H17.75V0.999497H5.75ZM1.75 0.499497C1.55295 0.499562 1.35785 0.538439 1.17582 0.613906C0.993798 0.689374 0.828421 0.799956 0.689133 0.939336C0.549845 1.07872 0.439374 1.24417 0.364028 1.42624C0.288681 1.60832 0.249934 1.80345 0.25 2.0005C0.250066 2.19754 0.288942 2.39265 0.36441 2.57468C0.439878 2.7567 0.550459 2.92208 0.68984 3.06136C0.829221 3.20065 0.994671 3.31112 1.17675 3.38647C1.35882 3.46182 1.55395 3.50056 1.751 3.5005C2.14896 3.50036 2.53056 3.34215 2.81187 3.06066C3.09317 2.77916 3.25113 2.39745 3.251 1.9995C3.25087 1.60154 3.09265 1.21993 2.81116 0.938629C2.52967 0.657325 2.14796 0.499364 1.75 0.499497ZM1.75 6.4995C1.55295 6.49956 1.35785 6.53844 1.17582 6.61391C0.993798 6.68937 0.828421 6.79995 0.689133 6.93934C0.549845 7.07872 0.439374 7.24417 0.364027 7.42624C0.288681 7.60832 0.249934 7.80345 0.25 8.0005C0.250066 8.19755 0.288942 8.39265 0.36441 8.57467C0.439878 8.7567 0.550459 8.92208 0.68984 9.06136C0.829221 9.20065 0.994671 9.31112 1.17675 9.38647C1.35882 9.46182 1.55395 9.50056 1.751 9.5005C2.14896 9.50036 2.53056 9.34215 2.81187 9.06066C3.09317 8.77916 3.25113 8.39745 3.251 7.9995C3.25087 7.60154 3.09265 7.21993 2.81116 6.93863C2.52967 6.65732 2.14796 6.49936 1.75 6.4995ZM1.75 12.4995C1.55295 12.4996 1.35785 12.5384 1.17582 12.6139C0.993798 12.6894 0.828421 12.8 0.689133 12.9393C0.549845 13.0787 0.439374 13.2442 0.364027 13.4262C0.288681 13.6083 0.249934 13.8034 0.25 14.0005C0.250066 14.1975 0.288942 14.3927 0.36441 14.5747C0.439878 14.7567 0.550459 14.9221 0.68984 15.0614C0.829221 15.2007 0.994671 15.3111 1.17675 15.3865C1.35882 15.4618 1.55395 15.5006 1.751 15.5005C2.14896 15.5004 2.53056 15.3421 2.81187 15.0607C3.09317 14.7792 3.25113 14.3975 3.251 13.9995C3.25087 13.6015 3.09265 13.2199 2.81116 12.9386C2.52967 12.6573 2.14796 12.4994 1.75 12.4995Z" fill="#007AFF"/>
</svg>
