<svg width="114" height="111" viewBox="0 0 114 111" fill="none" xmlns="http://www.w3.org/2000/svg">
<path d="M111.059 55.4901C111.059 84.9362 86.8032 108.86 56.8159 108.86C26.8286 108.86 2.57275 84.9362 2.57275 55.4901C2.57275 26.0441 26.8286 2.12012 56.8159 2.12012C86.8032 2.12012 111.059 26.0441 111.059 55.4901Z" stroke="#0058AA" stroke-width="4"/>
<path d="M44.8051 72.9371L39.9229 68.1283L36.4785 71.5168L44.8051 79.7142L59.4518 65.2949L56.0098 61.9064L44.8051 72.9371ZM86.304 89.327H76.5396V84.5206H86.304V55.6821H76.5396V36.4564C76.5363 33.9079 75.5066 31.4647 73.6761 29.6626C71.8456 27.8605 69.3638 26.8467 66.7751 26.8435V22.0371C70.6583 22.0416 74.3811 23.5622 77.1269 26.2653C79.8727 28.9685 81.4173 32.6335 81.4218 36.4564V50.8756H86.304C87.5985 50.8769 88.8395 51.3837 89.7548 52.2848C90.6702 53.1859 91.1849 54.4077 91.1862 55.6821V84.5206C91.1849 85.795 90.6702 87.0168 89.7548 87.9179C88.8395 88.819 87.5985 89.3258 86.304 89.327Z" fill="#0058AA"/>
<path d="M66.7749 50.8756H61.8927V36.4564C61.8927 32.6321 60.3496 28.9646 57.6028 26.2604C54.856 23.5563 51.1306 22.0371 47.2461 22.0371C43.3615 22.0371 39.6361 23.5563 36.8893 26.2604C34.1425 28.9646 32.5994 32.6321 32.5994 36.4564V50.8756H27.7172C26.4223 50.8756 25.1805 51.382 24.2649 52.2834C23.3493 53.1848 22.835 54.4073 22.835 55.6821V84.5206C22.835 85.7953 23.3493 87.0179 24.2649 87.9193C25.1805 88.8206 26.4223 89.327 27.7172 89.327H66.7749C68.0698 89.327 69.3116 88.8206 70.2272 87.9193C71.1428 87.0179 71.6572 85.7953 71.6572 84.5206V55.6821C71.6572 54.4073 71.1428 53.1848 70.2272 52.2834C69.3116 51.382 68.0698 50.8756 66.7749 50.8756ZM37.4816 36.4564C37.4816 33.9069 38.5104 31.4618 40.3416 29.6591C42.1727 27.8563 44.6564 26.8435 47.2461 26.8435C49.8358 26.8435 52.3194 27.8563 54.1506 29.6591C55.9818 31.4618 57.0105 33.9069 57.0105 36.4564V50.8756H37.4816V36.4564ZM66.7749 84.5206H27.7172V55.6821H66.7749V84.5206Z" fill="#0058AA"/>
</svg>
