<svg width="76" height="76" viewBox="0 0 76 76" fill="none" xmlns="http://www.w3.org/2000/svg">
<path d="M29.8855 49.9737L26.5868 46.6735L24.2597 48.999L29.8855 54.6248L39.7813 44.7289L37.4558 42.4034L29.8855 49.9737ZM57.9236 61.222H51.3264V57.9234H57.9236V38.1317H51.3264V24.9373C51.3242 23.1883 50.6285 21.5115 49.3917 20.2747C48.155 19.038 46.4782 18.3422 44.7292 18.3401V15.0414C47.3528 15.0445 49.8681 16.0881 51.7232 17.9432C53.5784 19.7984 54.622 22.3137 54.625 24.9373V34.8331H57.9236C58.7982 34.834 59.6367 35.1818 60.2552 35.8002C60.8736 36.4186 61.2214 37.2571 61.2223 38.1317V57.9234C61.2214 58.798 60.8736 59.6365 60.2552 60.2549C59.6367 60.8733 58.7982 61.2211 57.9236 61.222Z" fill="white"/>
<path d="M44.7289 34.8331H41.4303V24.9373C41.4303 22.3127 40.3877 19.7957 38.5319 17.9399C36.6761 16.084 34.159 15.0414 31.5345 15.0414C28.91 15.0414 26.3929 16.084 24.5371 17.9399C22.6813 19.7957 21.6387 22.3127 21.6387 24.9373V34.8331H18.3401C17.4652 34.8331 16.6262 35.1806 16.0076 35.7993C15.389 36.4179 15.0414 37.2569 15.0414 38.1317V57.9234C15.0414 58.7982 15.389 59.6372 16.0076 60.2559C16.6262 60.8745 17.4652 61.222 18.3401 61.222H44.7289C45.6038 61.222 46.4428 60.8745 47.0614 60.2559C47.68 59.6372 48.0276 58.7982 48.0276 57.9234V38.1317C48.0276 37.2569 47.68 36.4179 47.0614 35.7993C46.4428 35.1806 45.6038 34.8331 44.7289 34.8331ZM24.9373 24.9373C24.9373 23.1876 25.6323 21.5096 26.8696 20.2723C28.1068 19.0351 29.7848 18.3401 31.5345 18.3401C33.2842 18.3401 34.9622 19.0351 36.1994 20.2723C37.4367 21.5096 38.1317 23.1876 38.1317 24.9373V34.8331H24.9373V24.9373ZM44.7289 57.9234H18.3401V38.1317H44.7289V57.9234Z" fill="white"/>
<path fill-rule="evenodd" clip-rule="evenodd" d="M38 73.3097C57.501 73.3097 73.3097 57.501 73.3097 38C73.3097 18.499 57.501 2.69027 38 2.69027C18.499 2.69027 2.69027 18.499 2.69027 38C2.69027 57.501 18.499 73.3097 38 73.3097ZM38 76C58.9868 76 76 58.9868 76 38C76 17.0132 58.9868 0 38 0C17.0132 0 0 17.0132 0 38C0 58.9868 17.0132 76 38 76Z" fill="white"/>
</svg>
