<svg width="40" height="40" viewBox="0 0 40 40" fill="none" xmlns="http://www.w3.org/2000/svg">
<rect x="0.163934" y="0.163934" width="39.6721" height="39.6721" rx="19.8361" fill="#F1F5F9"/>
<rect x="0.163934" y="0.163934" width="39.6721" height="39.6721" rx="19.8361" stroke="#CBD5E1" stroke-width="0.327869"/>
<rect x="15.4102" y="10.4922" width="9.18033" height="19.0164" fill="#E2E8F0"/>
<path d="M24.4884 11.8715C24.4884 11.6275 24.3941 11.3934 24.2263 11.2208C24.0584 11.0482 23.8307 10.9513 23.5933 10.9513H16.4058C16.1684 10.9513 15.9407 11.0482 15.7728 11.2208C15.605 11.3934 15.5107 11.6275 15.5107 11.8715V28.1282C15.5107 28.3723 15.605 28.6064 15.7728 28.7789C15.9407 28.9515 16.1684 29.0484 16.4058 29.0484H23.5933C23.8307 29.0484 24.0584 28.9515 24.2263 28.7789C24.3941 28.6064 24.4884 28.3723 24.4884 28.1282V11.8715ZM20.7183 26.0927C21.0179 26.0927 21.2608 26.3423 21.2608 26.6503C21.2608 26.9584 21.0179 27.208 20.7183 27.208H19.2808C18.9812 27.208 18.7383 26.9584 18.7383 26.6503C18.7383 26.3423 18.9812 26.0927 19.2808 26.0927H20.7183ZM25.5733 28.1282C25.5733 28.6681 25.3647 29.1858 24.9934 29.5676C24.622 29.9493 24.1185 30.1638 23.5933 30.1638H16.4058C15.8806 30.1638 15.3771 29.9493 15.0057 29.5676C14.6344 29.1858 14.4258 28.6681 14.4258 28.1282V11.8715C14.4258 11.3316 14.6344 10.8139 15.0057 10.4322C15.3771 10.0504 15.8806 9.83594 16.4058 9.83594H23.5933C24.1185 9.83594 24.622 10.0504 24.9934 10.4322C25.3647 10.8139 25.5733 11.3316 25.5733 11.8715V28.1282Z" fill="#94A3B8"/>
</svg>
