<svg width="176" height="150" viewBox="0 0 176 150" fill="none" xmlns="http://www.w3.org/2000/svg">
<g clip-path="url(#clip0_3_135)">
<path d="M32.9216 32.6631H27.0399C26.8248 32.6631 26.6186 32.7487 26.4665 32.901C26.3144 33.0532 26.2289 33.2597 26.2289 33.4751C26.2289 33.6904 26.3144 33.897 26.4665 34.0492C26.6186 34.2015 26.8248 34.2871 27.0399 34.2871H32.9216C33.1367 34.2871 33.3429 34.2015 33.495 34.0492C33.6471 33.897 33.7326 33.6904 33.7326 33.4751C33.7326 33.2597 33.6471 33.0532 33.495 32.901C33.3429 32.7487 33.1367 32.6631 32.9216 32.6631Z" fill="#00102C"/>
<path d="M21.9808 32.6631H18.7947C18.5797 32.6631 18.3734 32.7487 18.2213 32.901C18.0692 33.0532 17.9837 33.2597 17.9837 33.4751C17.9837 33.6904 18.0692 33.897 18.2213 34.0492C18.3734 34.2015 18.5797 34.2871 18.7947 34.2871H21.9808C22.1959 34.2871 22.4022 34.2015 22.5542 34.0492C22.7063 33.897 22.7918 33.6904 22.7918 33.4751C22.7918 33.2597 22.7063 33.0532 22.5542 32.901C22.4022 32.7487 22.1959 32.6631 21.9808 32.6631Z" fill="#00102C"/>
<path d="M14.3805 32.6631H12.9632C12.7481 32.6631 12.5419 32.7487 12.3898 32.901C12.2377 33.0532 12.1522 33.2597 12.1522 33.4751C12.1522 33.6904 12.2377 33.897 12.3898 34.0492C12.5419 34.2015 12.7481 34.2871 12.9632 34.2871H14.3805C14.5956 34.2871 14.8019 34.2015 14.954 34.0492C15.106 33.897 15.1916 33.6904 15.1916 33.4751C15.1916 33.2597 15.106 33.0532 14.954 32.901C14.8019 32.7487 14.5956 32.6631 14.3805 32.6631Z" fill="#00102C"/>
<path d="M9.20183 32.6631H8.46414C8.24905 32.6631 8.0428 32.7487 7.8907 32.901C7.73861 33.0532 7.65311 33.2597 7.65311 33.4751C7.65311 33.6904 7.73861 33.897 7.8907 34.0492C8.0428 34.2015 8.24905 34.2871 8.46414 34.2871H9.20956C9.42465 34.2871 9.63091 34.2015 9.783 34.0492C9.93509 33.897 10.0204 33.6904 10.0204 33.4751C10.0204 33.2597 9.93509 33.0532 9.783 32.901C9.63091 32.7487 9.42465 32.6631 9.20956 32.6631H9.20183Z" fill="#00102C"/>
<path d="M4.92281 32.6631H4.53662C4.32153 32.6631 4.11528 32.7487 3.96318 32.901C3.81109 33.0532 3.72559 33.2597 3.72559 33.4751C3.72559 33.6904 3.81109 33.897 3.96318 34.0492C4.11528 34.2015 4.32153 34.2871 4.53662 34.2871H4.92281C5.1379 34.2871 5.34416 34.2015 5.49625 34.0492C5.64834 33.897 5.73385 33.6904 5.73385 33.4751C5.73385 33.2597 5.64834 33.0532 5.49625 32.901C5.34416 32.7487 5.1379 32.6631 4.92281 32.6631Z" fill="#00102C"/>
<path d="M152.474 117.638C152.599 117.543 152.696 117.417 152.759 117.273C152.821 117.129 152.845 116.971 152.83 116.815C152.813 116.413 152.678 116.024 152.443 115.697C152.443 115.697 152.343 115.554 152.142 115.284C151.941 115.013 151.644 114.626 151.269 114.124C150.497 113.126 149.366 111.703 147.813 110.033L147.214 109.391L146.566 108.734C146.133 108.289 145.643 107.837 145.148 107.369C144.133 106.445 143.005 105.486 141.731 104.539C140.361 103.536 138.922 102.631 137.425 101.833C135.761 100.946 134.02 100.215 132.223 99.6481C129.404 98.7693 126.466 98.3376 123.514 98.3684C122.56 98.3684 121.622 98.4418 120.722 98.5462C119.038 98.7366 117.371 99.0637 115.74 99.5244C114.38 99.9122 113.044 100.381 111.739 100.928C110.58 101.419 109.565 101.906 108.707 102.355C107.85 102.803 107.132 103.201 106.56 103.538C105.989 103.874 105.552 104.141 105.255 104.311L104.811 104.589C104.736 104.635 104.663 104.686 104.595 104.74L104.32 104.918C103.737 105.29 103.215 105.752 102.776 106.287C102.401 106.746 102.113 107.27 101.926 107.833C101.844 108.085 101.788 108.344 101.756 108.607C101.727 108.863 101.727 109.123 101.756 109.38C101.814 109.871 101.996 110.34 102.285 110.741C102.591 111.154 102.998 111.482 103.467 111.692L103.367 111.761C102.412 112.417 101.726 113.396 101.436 114.518C101.381 114.765 101.349 115.016 101.339 115.268C101.334 115.51 101.352 115.753 101.393 115.991C101.478 116.459 101.664 116.902 101.938 117.29C102.376 117.903 103.021 118.338 103.753 118.516C104.544 118.699 105.371 118.657 106.139 118.392C106.158 119.007 106.363 119.601 106.726 120.097C107.684 121.408 109.557 121.717 111.191 121.118C111.243 121.689 111.445 122.236 111.778 122.703C112.066 123.098 112.436 123.425 112.863 123.662C113.286 123.892 113.746 124.044 114.222 124.111C114.696 124.177 115.178 124.164 115.647 124.072C116.108 123.987 116.55 123.816 116.949 123.569C116.949 123.569 117.312 123.337 117.829 123.032C118.347 122.727 119.019 122.363 119.644 122.065C120.168 121.813 120.706 121.591 121.255 121.4L121.529 121.311L121.734 121.25L121.861 121.211H121.907C121.948 121.201 121.986 121.184 122.019 121.161L122.162 121.126L122.332 121.087L122.437 121.06L122.552 121.041C122.952 120.962 123.358 120.917 123.765 120.905C123.993 120.905 124.228 120.905 124.476 120.94C124.742 120.978 125.007 121.031 125.267 121.099C125.584 121.185 125.894 121.297 126.194 121.431C126.364 121.497 126.542 121.594 126.723 121.675C126.905 121.756 127.109 121.868 127.287 121.996C127.465 122.123 127.673 122.247 127.882 122.382L128.191 122.599L128.345 122.707L128.5 122.827L128.809 123.063L129.122 123.322C129.33 123.484 129.539 123.685 129.743 123.859C130.547 124.593 131.305 125.376 132.014 126.202C132.18 126.384 132.338 126.589 132.489 126.763C132.64 126.937 132.786 127.111 132.918 127.285C133.18 127.625 133.42 127.907 133.605 128.17L134.045 128.758C134.1 128.824 134.138 128.878 134.161 128.913L134.2 128.971C134.368 129.212 134.623 129.378 134.911 129.434C135.2 129.491 135.498 129.433 135.745 129.272L152.474 117.638Z" fill="white"/>
<path d="M133.389 129.516L133.343 129.45L133.254 129.326L132.81 128.739C132.709 128.6 132.586 128.445 132.443 128.263C132.346 128.143 132.246 128.02 132.138 127.877C132.03 127.734 131.979 127.679 131.891 127.575L131.736 127.389C131.686 127.331 131.639 127.27 131.589 127.208C131.485 127.084 131.388 126.968 131.292 126.864L131.273 126.84C130.597 126.048 129.871 125.3 129.098 124.602L128.878 124.405C128.755 124.292 128.635 124.184 128.527 124.099L128.318 123.933L127.77 123.504L127.349 123.202C127.276 123.16 127.202 123.109 127.129 123.063C127.055 123.017 126.913 122.92 126.828 122.873L126.766 122.839C126.681 122.781 126.592 122.734 126.488 122.676L126.287 122.568L126.094 122.475L125.858 122.363H125.827C125.577 122.251 125.319 122.158 125.055 122.085C124.84 122.028 124.622 121.984 124.402 121.953C124.221 121.953 124.016 121.926 123.819 121.922C123.477 121.933 123.136 121.972 122.8 122.038L122.44 122.116C122.366 122.15 122.288 122.179 122.209 122.201L121.873 122.297L121.772 122.332L121.626 122.379C121.118 122.558 120.621 122.765 120.135 122.997C119.602 123.249 118.976 123.585 118.393 123.925C117.903 124.211 117.551 124.435 117.547 124.439C117.045 124.751 116.49 124.967 115.91 125.077C115.33 125.191 114.735 125.207 114.149 125.124C113.548 125.04 112.967 124.848 112.434 124.555C111.877 124.247 111.394 123.819 111.021 123.303C110.813 123.013 110.643 122.697 110.515 122.363C108.711 122.649 106.947 122.034 105.973 120.708C105.73 120.374 105.539 120.005 105.406 119.614C104.793 119.693 104.171 119.657 103.571 119.506C102.603 119.273 101.752 118.696 101.177 117.882C100.817 117.373 100.573 116.791 100.463 116.177C100.408 115.869 100.385 115.557 100.393 115.245C100.402 114.926 100.443 114.609 100.516 114.298C100.742 113.351 101.214 112.482 101.884 111.777C101.746 111.641 101.617 111.497 101.497 111.344C101.104 110.807 100.858 110.177 100.783 109.515C100.746 109.185 100.746 108.852 100.783 108.521C100.823 108.19 100.894 107.862 100.995 107.543C101.222 106.86 101.57 106.223 102.023 105.664C102.502 105.076 103.068 104.565 103.703 104.149L103.795 104.087L104.031 103.932C104.112 103.87 104.189 103.816 104.293 103.75L104.869 103.391C105.158 103.213 105.56 102.966 106.07 102.668C106.8 102.242 107.514 101.844 108.263 101.458C109.329 100.905 110.349 100.429 111.376 100C112.7 99.4352 114.057 98.9498 115.439 98.5462C117.121 98.0708 118.838 97.7333 120.575 97.5371C121.444 97.4366 122.39 97.3786 123.464 97.3554C124.469 97.3452 125.475 97.3865 126.476 97.4791C128.516 97.6663 130.53 98.0681 132.485 98.6777C134.342 99.2644 136.14 100.022 137.857 100.939C139.401 101.763 140.883 102.699 142.291 103.739C143.505 104.644 144.673 105.611 145.789 106.635L146.075 106.905C146.462 107.292 146.883 107.679 147.234 108.038L147.883 108.695L148.501 109.357C149.976 110.946 151.057 112.295 152.015 113.517L152.896 114.677C153.089 114.932 153.193 115.063 153.216 115.118C153.575 115.603 153.782 116.184 153.811 116.788C153.831 117.114 153.77 117.44 153.63 117.735C153.491 118.031 153.279 118.286 153.015 118.477L136.293 130.077H136.274C135.811 130.366 135.257 130.469 134.721 130.365C134.186 130.261 133.71 129.957 133.389 129.516ZM151.818 116.842C151.799 116.64 151.722 116.449 151.598 116.289C151.598 116.289 151.505 116.158 151.32 115.902L150.455 114.742C149.528 113.559 148.477 112.253 147.06 110.725L146.473 110.095L145.828 109.442C145.492 109.098 145.114 108.742 144.716 108.367L144.45 108.116C143.387 107.14 142.276 106.218 141.121 105.355C139.792 104.375 138.394 103.493 136.938 102.714C135.332 101.859 133.651 101.151 131.918 100.599C130.097 100.032 128.221 99.657 126.322 99.4819C125.391 99.3973 124.456 99.3598 123.522 99.3698C122.514 99.3698 121.633 99.4471 120.819 99.5399C119.19 99.7233 117.579 100.04 116.003 100.487C114.689 100.863 113.399 101.319 112.141 101.852C111.164 102.239 110.21 102.714 109.179 103.24C108.464 103.627 107.777 103.99 107.074 104.4C106.583 104.686 106.197 104.922 105.915 105.096L105.359 105.444L105.325 105.467L105.236 105.529L105.197 105.56L104.811 105.815C104.352 106.119 103.941 106.489 103.59 106.913C103.294 107.278 103.065 107.693 102.915 108.139C102.853 108.325 102.812 108.516 102.791 108.711C102.77 108.888 102.77 109.067 102.791 109.245C102.827 109.563 102.946 109.867 103.135 110.126C103.332 110.4 103.599 110.616 103.907 110.752L105.487 111.475L103.984 112.57C103.233 113.082 102.692 113.848 102.459 114.727C102.418 114.907 102.394 115.091 102.39 115.276C102.383 115.45 102.396 115.623 102.428 115.794C102.487 116.117 102.619 116.423 102.814 116.687C103.112 117.105 103.551 117.399 104.05 117.515C104.654 117.651 105.284 117.617 105.869 117.414L107.132 117L107.198 118.33C107.205 118.747 107.34 119.152 107.584 119.49C108.221 120.36 109.58 120.65 110.886 120.155L112.122 119.703L112.241 121.014C112.271 121.404 112.404 121.779 112.627 122.1C112.833 122.376 113.097 122.603 113.4 122.765C113.714 122.938 114.057 123.051 114.412 123.098C114.776 123.149 115.147 123.139 115.508 123.067C115.845 122.998 116.166 122.867 116.455 122.68C116.509 122.645 116.868 122.421 117.362 122.131C117.984 121.744 118.675 121.397 119.254 121.122C119.813 120.853 120.387 120.616 120.973 120.414H120.992L121.104 120.376L121.286 120.318L121.506 120.252L121.606 120.221H121.637L121.769 120.179L121.969 120.125L122.41 120.032C122.864 119.941 123.325 119.889 123.788 119.877H123.823C124.109 119.877 124.368 119.877 124.622 119.92H124.661C124.964 119.962 125.265 120.022 125.561 120.101C125.926 120.202 126.282 120.331 126.627 120.488C126.762 120.538 126.889 120.604 127.013 120.658L127.194 120.747L127.287 120.793L127.473 120.898C127.588 120.96 127.72 121.029 127.859 121.118C127.998 121.207 128.137 121.288 128.264 121.373L128.469 121.505L128.971 121.857L129.376 122.166L129.809 122.518C129.967 122.641 130.11 122.773 130.253 122.904L130.454 123.078C131.287 123.835 132.073 124.644 132.806 125.499C132.933 125.642 133.053 125.785 133.157 125.912L133.296 126.079L133.439 126.249C133.54 126.373 133.644 126.496 133.74 126.635C133.837 126.775 133.933 126.883 134.026 126.995C134.177 127.184 134.32 127.382 134.447 127.54L134.876 128.112C134.938 128.194 134.984 128.259 135.015 128.306L135.053 128.356C135.068 128.378 135.09 128.395 135.115 128.404C135.14 128.413 135.167 128.414 135.192 128.406L151.826 116.869L151.818 116.842Z" fill="#00102C"/>
<path d="M115.389 106.345C115.554 106.236 115.674 106.071 115.726 105.88C115.778 105.689 115.759 105.485 115.671 105.307C115.584 105.13 115.435 104.99 115.252 104.915C115.069 104.84 114.865 104.834 114.678 104.899L114.466 104.98L113.991 105.169C113.5 105.367 112.894 105.633 112.28 105.919C111.507 106.306 110.735 106.693 110.001 107.079C109.206 107.52 108.387 108.003 107.568 108.522C106.317 109.295 104.961 110.238 103.424 111.356L101.698 112.624C101.605 112.684 101.525 112.762 101.464 112.854C101.402 112.946 101.36 113.05 101.34 113.159C101.32 113.268 101.322 113.38 101.347 113.488C101.371 113.596 101.418 113.697 101.483 113.787C101.549 113.876 101.632 113.951 101.727 114.007C101.823 114.063 101.929 114.099 102.039 114.112C102.148 114.126 102.26 114.117 102.366 114.085C102.472 114.054 102.571 114.001 102.656 113.931L104.382 112.666C105.888 111.572 107.213 110.667 108.433 109.894C109.229 109.395 110.02 108.924 110.789 108.498C111.484 108.112 112.222 107.725 112.971 107.381C113.72 107.037 114.327 106.778 114.593 106.673L115.068 106.48L115.203 106.43C115.268 106.41 115.331 106.381 115.389 106.345Z" fill="#00102C"/>
<path d="M116.902 112.295C117.066 112.186 117.185 112.021 117.236 111.831C117.288 111.641 117.268 111.439 117.182 111.262C117.095 111.085 116.948 110.946 116.767 110.87C116.585 110.794 116.382 110.786 116.196 110.849L116.01 110.919L115.624 111.073C115.238 111.228 114.736 111.46 114.226 111.684C113.546 112.009 112.903 112.336 112.295 112.666C111.608 113.053 110.897 113.47 110.179 113.923C109.055 114.627 107.815 115.469 106.387 116.513L104.711 117.743L105.668 119.054L107.34 117.828C108.738 116.811 109.947 115.984 111.044 115.295C111.735 114.862 112.419 114.456 113.083 114.089C113.651 113.776 114.265 113.459 114.906 113.153C115.547 112.848 116.006 112.666 116.219 112.577L116.605 112.427L116.702 112.388C116.772 112.366 116.84 112.335 116.902 112.295Z" fill="#00102C"/>
<path d="M119.467 117.174C119.633 117.065 119.753 116.897 119.803 116.705C119.854 116.512 119.833 116.307 119.742 116.129C119.652 115.952 119.5 115.814 119.315 115.741C119.129 115.668 118.924 115.667 118.737 115.736L118.636 115.771L118.378 115.871L117.992 116.022L117.497 116.235C116.545 116.663 115.617 117.141 114.717 117.669C113.647 118.292 112.612 118.976 111.928 119.444C110.527 120.403 110.527 120.407 110.418 120.604C110.327 120.766 110.294 120.955 110.324 121.138C110.355 121.322 110.448 121.489 110.587 121.612C110.727 121.736 110.904 121.807 111.09 121.815C111.276 121.823 111.459 121.767 111.608 121.656C111.693 121.598 112.168 121.269 112.844 120.793C113.519 120.318 114.504 119.676 115.547 119.081C116.394 118.584 117.266 118.134 118.161 117.731L119.007 117.375L119.208 117.298L119.312 117.26C119.367 117.238 119.419 117.209 119.467 117.174Z" fill="#00102C"/>
<path d="M128.828 85.9689C130.585 85.4508 132.369 86.2511 132.817 87.759L137.162 102.482L130.794 104.361L126.449 89.6536C126.005 88.1263 127.071 86.487 128.828 85.9689Z" fill="white"/>
<path d="M131.273 105.007C131.355 105.005 131.437 104.992 131.516 104.968C131.773 104.891 131.99 104.716 132.119 104.48C132.247 104.244 132.278 103.966 132.203 103.708L127.855 88.9808C127.794 88.7493 127.784 88.5072 127.826 88.2715C127.868 88.0358 127.961 87.8121 128.098 87.616C128.444 87.1078 128.958 86.7392 129.55 86.5759C130.767 86.2164 131.991 86.7113 132.281 87.6817L136.625 102.405C136.719 102.639 136.898 102.829 137.125 102.939C137.352 103.049 137.611 103.069 137.853 102.997C138.094 102.925 138.3 102.766 138.431 102.549C138.561 102.333 138.605 102.076 138.556 101.829L134.212 87.1056C133.609 85.0642 131.257 83.9545 128.967 84.6311C127.91 84.9294 126.994 85.5957 126.383 86.5102C126.085 86.9518 125.888 87.4535 125.804 87.9799C125.721 88.5063 125.754 89.0446 125.901 89.5569L130.245 104.28C130.31 104.499 130.447 104.69 130.633 104.822C130.819 104.954 131.045 105.019 131.273 105.007Z" fill="#00102C"/>
<path d="M130.427 119.313C130.49 119.297 130.551 119.273 130.608 119.243C130.848 119.121 131.029 118.908 131.112 118.652C131.195 118.397 131.174 118.118 131.052 117.878C126.596 109.101 131.666 104.945 131.883 104.771C132.095 104.606 132.233 104.363 132.266 104.097C132.299 103.83 132.225 103.561 132.06 103.348C131.895 103.136 131.653 102.998 131.387 102.965C131.12 102.931 130.851 103.005 130.639 103.17C129.403 104.244 128.462 105.618 127.909 107.161C127.021 109.523 126.534 113.459 129.245 118.798C129.351 119.009 129.527 119.175 129.743 119.269C129.959 119.363 130.201 119.378 130.427 119.313Z" fill="#00102C"/>
<path d="M136.409 144.444L163.465 144.572V144.123C163.465 143.98 163.465 143.798 163.465 143.59C163.465 143.381 163.465 143.153 163.438 142.89C163.411 142.627 163.415 142.341 163.396 142.028C163.377 141.714 163.35 141.393 163.319 141.042C163.319 140.868 163.288 140.686 163.272 140.5C163.257 140.315 163.23 140.114 163.207 139.944C163.16 139.557 163.118 139.17 163.056 138.753C162.8 136.978 162.45 135.217 162.009 133.479C161.546 131.642 160.982 129.779 160.353 127.989C159.229 124.8 157.913 121.682 156.414 118.651C155.811 117.43 155.278 116.417 154.869 115.69L154.398 114.835L154.216 114.518L130.736 127.931L130.828 128.097L131.114 128.611C131.361 129.071 131.728 129.771 132.149 130.618C133.158 132.659 134.046 134.758 134.806 136.905C135.192 138.026 135.525 139.116 135.768 140.087C135.978 140.902 136.144 141.728 136.266 142.561C136.293 142.731 136.305 142.874 136.324 143.021C136.324 143.091 136.343 143.164 136.351 143.23V143.412C136.351 143.528 136.351 143.64 136.382 143.74C136.413 143.841 136.382 143.914 136.382 143.992C136.382 144.069 136.382 144.135 136.382 144.197C136.384 144.239 136.384 144.282 136.382 144.324L136.409 144.444Z" fill="#007AFF"/>
<path d="M163.465 146.014C163.083 146.014 162.717 145.862 162.447 145.591C162.177 145.321 162.025 144.954 162.025 144.572V143.62L161.959 142.113C161.94 141.865 161.921 141.602 161.897 141.339L161.836 140.643C161.836 140.539 161.812 140.423 161.797 140.303L161.739 139.82C161.704 139.545 161.673 139.259 161.631 138.981C161.38 137.253 161.04 135.539 160.612 133.846C160.167 132.079 159.623 130.274 158.993 128.48C157.89 125.347 156.601 122.283 155.131 119.305C154.54 118.106 154.031 117.14 153.687 116.506L132.686 128.491C132.898 128.878 133.157 129.4 133.458 129.991C134.496 132.084 135.406 134.238 136.185 136.441C136.571 137.543 136.919 138.687 137.185 139.746C137.408 140.61 137.585 141.485 137.714 142.368C137.714 142.48 137.741 142.584 137.753 142.685C137.764 142.785 137.753 142.785 137.772 142.832C137.77 142.842 137.77 142.852 137.772 142.863V142.921C137.772 142.99 137.78 143.056 137.795 143.118L137.838 143.624C137.836 143.65 137.836 143.676 137.838 143.702L137.857 144.123V144.444C137.867 144.64 137.837 144.836 137.77 145.02C137.702 145.204 137.597 145.372 137.462 145.514C137.327 145.657 137.165 145.77 136.985 145.847C136.805 145.925 136.611 145.965 136.415 145.965C136.219 145.965 136.025 145.925 135.845 145.847C135.665 145.77 135.502 145.657 135.367 145.514C135.232 145.372 135.128 145.204 135.06 145.02C134.992 144.836 134.962 144.64 134.972 144.444V144.231V144.088C134.97 144.077 134.97 144.065 134.972 144.053V143.841L134.949 143.551C134.947 143.543 134.947 143.535 134.949 143.528V143.361C134.949 143.361 134.949 143.327 134.949 143.311V143.218C134.949 143.145 134.93 143.075 134.922 143.006C134.914 142.936 134.922 142.87 134.895 142.793C134.897 142.785 134.897 142.777 134.895 142.77C134.781 141.989 134.625 141.214 134.428 140.45C134.184 139.476 133.864 138.42 133.505 137.392C132.762 135.303 131.898 133.259 130.917 131.271C130.485 130.394 130.145 129.725 129.905 129.315L129.519 128.65C129.331 128.318 129.283 127.925 129.384 127.558C129.486 127.19 129.729 126.878 130.06 126.69L153.556 113.262C153.721 113.167 153.902 113.106 154.09 113.082C154.279 113.059 154.47 113.072 154.653 113.122C154.836 113.173 155.007 113.259 155.157 113.376C155.307 113.492 155.432 113.638 155.525 113.803L155.703 114.12L156.174 114.974C156.529 115.632 157.086 116.683 157.719 117.994C159.244 121.078 160.581 124.252 161.724 127.498C162.38 129.369 162.948 131.26 163.415 133.112C163.867 134.896 164.227 136.703 164.493 138.525C164.539 138.83 164.574 139.135 164.608 139.433L164.667 139.913C164.686 140.056 164.701 140.191 164.713 140.334L164.778 141.049C164.801 141.347 164.825 141.629 164.844 141.896V141.927L164.914 143.501V144.556C164.914 144.746 164.877 144.933 164.805 145.108C164.734 145.284 164.628 145.443 164.494 145.577C164.361 145.711 164.202 145.818 164.028 145.891C163.853 145.964 163.666 146.002 163.477 146.002L163.465 146.014Z" fill="#007AFF"/>
<path d="M157.093 143.222C157.212 143.253 157.337 143.249 157.453 143.211C157.57 143.172 157.673 143.101 157.75 143.006C157.856 142.873 157.906 142.703 157.888 142.533C157.87 142.364 157.785 142.208 157.653 142.101C154.896 139.886 150.964 138.138 145.963 136.916C143.763 136.376 141.528 135.989 139.275 135.756C139.188 135.743 139.099 135.747 139.014 135.769C138.929 135.792 138.85 135.831 138.781 135.885C138.712 135.939 138.655 136.007 138.613 136.085C138.571 136.162 138.545 136.247 138.538 136.334C138.53 136.422 138.54 136.51 138.568 136.593C138.596 136.677 138.64 136.753 138.699 136.819C138.757 136.884 138.829 136.937 138.909 136.974C138.988 137.01 139.075 137.03 139.163 137.032C139.278 137.032 150.613 138.103 156.85 143.122C156.923 143.172 157.006 143.207 157.093 143.222Z" fill="#00102C"/>
<path d="M139.151 134.446C139.268 134.48 139.393 134.48 139.51 134.446C139.607 134.415 149.4 131.24 157.213 133.819C157.372 133.86 157.539 133.838 157.682 133.758C157.825 133.678 157.933 133.547 157.982 133.391C158.031 133.235 158.019 133.065 157.948 132.918C157.877 132.771 157.752 132.656 157.599 132.597C149.373 129.891 139.51 133.092 139.093 133.228C138.96 133.269 138.844 133.354 138.763 133.468C138.682 133.582 138.641 133.719 138.646 133.859C138.651 133.998 138.702 134.132 138.79 134.241C138.878 134.349 139 134.425 139.135 134.457L139.151 134.446Z" fill="#00102C"/>
<path d="M121.908 118.957L103.258 15.7246C102.887 13.6887 101.725 11.883 100.027 10.7026C98.3293 9.52225 96.2335 9.06331 94.1984 9.42623L46.6506 18.0367C44.6142 18.4074 42.8081 19.572 41.6286 21.2748C40.4492 22.9776 39.9926 25.0794 40.3596 27.1188L59.0049 130.351C59.3762 132.39 60.5401 134.198 62.2415 135.379C63.943 136.56 66.0429 137.017 68.0804 136.649L115.624 128.043C117.658 127.668 119.462 126.501 120.639 124.798C121.816 123.096 122.273 120.995 121.908 118.957Z" fill="white"/>
<path d="M66.6746 138.312C64.4856 138.312 62.3662 137.542 60.6868 136.136C59.0074 134.731 57.8748 132.779 57.4871 130.622L38.838 27.3894C38.399 24.9496 38.9451 22.4352 40.3564 20.3982C41.7676 18.3612 43.9287 16.9681 46.3649 16.5249L93.9125 7.91444C94.462 7.81727 95.019 7.76811 95.577 7.76752C97.7657 7.76642 99.8852 8.53567 101.565 9.94075C103.244 11.3458 104.377 13.2973 104.764 15.4539L123.414 118.686C123.853 121.126 123.306 123.64 121.895 125.677C120.484 127.714 118.323 129.107 115.887 129.551L68.3236 138.161C67.7793 138.259 67.2276 138.309 66.6746 138.312ZM95.577 10.8336C95.2015 10.8344 94.8268 10.8681 94.4571 10.9341L46.9133 19.5445C45.2766 19.8429 43.8248 20.7789 42.8764 22.1473C41.928 23.5157 41.5604 25.2049 41.8542 26.8443L60.5033 130.077C60.7636 131.527 61.5253 132.839 62.6551 133.784C63.7848 134.728 65.2105 135.244 66.6823 135.242C67.0579 135.241 67.4326 135.208 67.8023 135.142L115.35 126.531C116.987 126.233 118.438 125.297 119.386 123.928C120.334 122.559 120.7 120.87 120.405 119.231L101.756 15.9991C101.496 14.5487 100.734 13.2364 99.6043 12.292C98.4745 11.3475 97.0488 10.8312 95.577 10.8336Z" fill="#00102C"/>
<path d="M94.7544 18.3653L49.2341 26.6084C49.0733 26.6372 48.9306 26.7286 48.8372 26.8628C48.7437 26.9969 48.7072 27.1628 48.7359 27.3238C48.7646 27.4847 48.8561 27.6277 48.9901 27.7213C49.1241 27.8148 49.2896 27.8512 49.4504 27.8225L94.9707 19.5794C95.1217 19.5403 95.2524 19.4454 95.3365 19.3138C95.4205 19.1822 95.4517 19.0237 95.4238 18.87C95.3959 18.7163 95.3111 18.5789 95.1862 18.4853C95.0613 18.3917 94.9057 18.3488 94.7506 18.3653H94.7544Z" fill="#00102C"/>
<path d="M112.824 118.381L67.3002 126.624C67.1399 126.653 66.9976 126.745 66.9049 126.879C66.8122 127.013 66.7766 127.179 66.8058 127.339C66.8349 127.5 66.9267 127.642 67.0607 127.735C67.1947 127.828 67.3599 127.863 67.5202 127.834L113.041 119.591C113.121 119.578 113.198 119.549 113.267 119.505C113.336 119.462 113.395 119.406 113.442 119.339C113.489 119.273 113.522 119.198 113.54 119.118C113.558 119.039 113.559 118.956 113.545 118.876C113.531 118.796 113.501 118.719 113.456 118.651C113.412 118.583 113.355 118.524 113.288 118.477C113.221 118.431 113.146 118.399 113.066 118.383C112.986 118.366 112.904 118.365 112.824 118.381Z" fill="#00102C"/>
<path d="M88.8689 3.08924C88.8689 3.08924 90.1163 4.86007 92.0163 4.94899C93.1556 5.00312 94.2137 4.45023 95.156 3.30578C96.3146 1.87909 97.0638 1.60454 97.4732 1.62387C98.0795 1.65094 98.6317 2.39716 99.099 3.08924C99.099 3.08924 100.346 4.86007 102.246 4.94899C103.405 5.00312 104.444 4.45023 105.386 3.30578C106.089 2.44745 106.796 2.02213 107.479 2.03373C108.538 2.05693 109.345 3.09696 109.36 3.12016C109.424 3.20571 109.504 3.27789 109.595 3.33254C109.687 3.3872 109.788 3.4233 109.893 3.43874C109.999 3.45417 110.106 3.44868 110.21 3.42255C110.313 3.39642 110.41 3.35015 110.496 3.28643C110.581 3.22271 110.653 3.14277 110.708 3.05115C110.762 2.95954 110.798 2.85805 110.814 2.75249C110.829 2.64694 110.824 2.53942 110.797 2.43599C110.771 2.33256 110.725 2.23529 110.662 2.14974C110.611 2.08014 109.387 0.456266 107.53 0.409869C106.317 0.382805 105.174 1.00527 104.131 2.27344C103.544 2.99259 102.942 3.34442 102.351 3.32896C101.466 3.30576 100.659 2.47062 100.439 2.16904C99.9062 1.39577 99.014 0.0696054 97.5465 1.0611e-05C96.3879 -0.0541187 95.1946 0.688228 93.8932 2.27344C93.3062 2.99259 92.7038 3.34442 92.1129 3.32896C91.2285 3.30576 90.4174 2.47062 90.2012 2.16904C89.6682 1.39577 88.7762 0.0696054 87.3087 1.0611e-05C86.1501 -0.0541187 84.9568 0.688228 83.6554 2.27344C83.0683 2.99259 82.4658 3.34442 81.8749 3.32896C80.9905 3.30189 80.1835 2.47062 79.9634 2.16904C79.4304 1.39577 78.5382 0.0696054 77.0707 1.0611e-05C75.9121 -0.0541187 74.7188 0.688228 73.4174 2.27344C73.3461 2.35525 73.292 2.45051 73.2582 2.5536C73.2244 2.6567 73.2116 2.76555 73.2205 2.87369C73.2294 2.98184 73.2598 3.0871 73.3101 3.18326C73.3603 3.27942 73.4293 3.36453 73.513 3.43355C73.5966 3.50256 73.6933 3.55406 73.7971 3.58505C73.901 3.61604 74.01 3.62589 74.1177 3.61398C74.2254 3.60207 74.3297 3.56865 74.4243 3.51572C74.5189 3.46278 74.6021 3.3914 74.6687 3.30578C75.8273 1.87909 76.5803 1.60454 76.9858 1.62387C77.596 1.65094 78.1443 2.39716 78.6155 3.08924C78.6155 3.08924 79.859 4.86007 81.7591 4.94899C82.9177 5.00312 83.9604 4.45023 84.9027 3.30578C86.0613 1.87909 86.8105 1.60454 87.2199 1.62387C87.8494 1.65094 88.4055 2.39329 88.8689 3.08924Z" fill="#007AFF"/>
<path d="M151.76 95.1323H145.874C145.659 95.1323 145.453 95.2178 145.301 95.37C145.149 95.5223 145.063 95.7289 145.063 95.9442C145.063 96.1595 145.149 96.366 145.301 96.5183C145.453 96.6706 145.659 96.7561 145.874 96.7561H151.76C151.975 96.7561 152.181 96.6706 152.334 96.5183C152.486 96.366 152.571 96.1595 152.571 95.9442C152.571 95.7289 152.486 95.5223 152.334 95.37C152.181 95.2178 151.975 95.1323 151.76 95.1323Z" fill="#00102C"/>
<path d="M159.994 95.1323H156.804C156.588 95.1323 156.382 95.2178 156.23 95.37C156.078 95.5223 155.993 95.7289 155.993 95.9442C155.993 96.1595 156.078 96.366 156.23 96.5183C156.382 96.6706 156.588 96.7561 156.804 96.7561H159.994C160.209 96.7561 160.415 96.6706 160.567 96.5183C160.719 96.366 160.805 96.1595 160.805 95.9442C160.805 95.7289 160.719 95.5223 160.567 95.37C160.415 95.2178 160.209 95.1323 159.994 95.1323Z" fill="#00102C"/>
<path d="M165.837 95.1323H164.415C164.2 95.1323 163.994 95.2178 163.842 95.37C163.69 95.5223 163.604 95.7289 163.604 95.9442C163.604 96.1595 163.69 96.366 163.842 96.5183C163.994 96.6706 164.2 96.7561 164.415 96.7561H165.837C166.052 96.7561 166.258 96.6706 166.41 96.5183C166.562 96.366 166.648 96.1595 166.648 95.9442C166.648 95.7289 166.562 95.5223 166.41 95.37C166.258 95.2178 166.052 95.1323 165.837 95.1323Z" fill="#00102C"/>
<path d="M170.34 95.1323H169.594C169.379 95.1323 169.173 95.2178 169.021 95.37C168.869 95.5223 168.783 95.7289 168.783 95.9442C168.783 96.1595 168.869 96.366 169.021 96.5183C169.173 96.6706 169.379 96.7561 169.594 96.7561H170.34C170.555 96.7561 170.761 96.6706 170.913 96.5183C171.065 96.366 171.151 96.1595 171.151 95.9442C171.151 95.7289 171.065 95.5223 170.913 95.37C170.761 95.2178 170.555 95.1323 170.34 95.1323Z" fill="#00102C"/>
<path d="M174.248 95.1323H173.862C173.646 95.1323 173.44 95.2178 173.288 95.37C173.136 95.5223 173.051 95.7289 173.051 95.9442C173.051 96.1595 173.136 96.366 173.288 96.5183C173.44 96.6706 173.646 96.7561 173.862 96.7561H174.248C174.463 96.7561 174.669 96.6706 174.821 96.5183C174.973 96.366 175.059 96.1595 175.059 95.9442C175.059 95.7289 174.973 95.5223 174.821 95.37C174.669 95.2178 174.463 95.1323 174.248 95.1323Z" fill="#00102C"/>
<path d="M133.377 148.523L128.071 144.796C127.934 144.7 127.771 144.648 127.604 144.648C127.437 144.648 127.274 144.7 127.137 144.796L122.294 148.194L117.451 144.796C117.315 144.7 117.152 144.648 116.985 144.648C116.819 144.648 116.656 144.7 116.52 144.796L111.673 148.194L106.831 144.796C106.694 144.7 106.532 144.648 106.365 144.648C106.199 144.648 106.036 144.7 105.9 144.796L101.057 148.194L96.2144 144.796C96.0782 144.7 95.9156 144.648 95.749 144.648C95.5823 144.648 95.4198 144.7 95.2836 144.796L90.4368 148.194L85.5941 144.796C85.458 144.7 85.2954 144.648 85.1288 144.648C84.9621 144.648 84.7995 144.7 84.6634 144.796L79.3533 148.523C79.1771 148.647 79.0572 148.835 79.0199 149.047C78.9826 149.259 79.0309 149.478 79.1543 149.654C79.2777 149.83 79.4661 149.95 79.678 149.988C79.8898 150.025 80.1079 149.977 80.284 149.853L85.1267 146.451L89.9735 149.853C90.1103 149.948 90.2726 149.998 90.4389 149.998C90.6051 149.998 90.7675 149.948 90.9043 149.853L95.7469 146.451L100.59 149.853C100.727 149.948 100.89 149.998 101.057 149.998C101.224 149.998 101.387 149.948 101.524 149.853L106.367 146.451L111.21 149.853C111.347 149.948 111.509 149.998 111.675 149.998C111.842 149.998 112.004 149.948 112.141 149.853L116.984 146.451L121.83 149.853C121.967 149.948 122.129 149.998 122.296 149.998C122.462 149.998 122.624 149.948 122.761 149.853L127.604 146.451L132.447 149.853C132.623 149.977 132.841 150.025 133.053 149.988C133.265 149.95 133.453 149.83 133.576 149.654C133.7 149.478 133.748 149.259 133.711 149.047C133.674 148.835 133.554 148.647 133.377 148.523Z" fill="#007AFF"/>
<path d="M30.1562 20.7666C25.4969 23.391 21.4427 26.9695 18.2583 31.2686C15.0738 35.5677 12.8306 40.4908 11.6751 45.7166C10.5196 50.9423 10.4778 56.3533 11.5524 61.5963C12.6269 66.8394 14.7937 71.7966 17.9113 76.1446C21.0289 80.4925 25.0274 84.1334 29.6456 86.8297C34.2638 89.526 39.3978 91.217 44.7129 91.7924C50.0279 92.3678 55.4045 91.8146 60.4916 90.169C65.5787 88.5234 70.2621 85.8223 74.236 82.2421L96.0982 90.5857L82.7978 70.9909C86.4398 63.7032 87.6501 55.4378 86.2507 47.4101C84.8513 39.3825 80.9161 32.0162 75.0237 26.3944C69.1313 20.7725 61.5926 17.1919 53.5162 16.1789C45.4398 15.1658 37.2518 16.7739 30.1562 20.7666Z" fill="#007AFF"/>
<path d="M97.0751 90.8253C97.0353 91.0062 96.9457 91.1723 96.8163 91.3048C96.6658 91.4614 96.4695 91.566 96.2557 91.6035C96.0419 91.6411 95.8216 91.6096 95.6269 91.5136L74.3864 83.4715C69.9313 87.3378 64.6611 90.146 58.9693 91.6859C53.2776 93.2258 47.3117 93.4576 41.5178 92.3642C40.8149 92.2288 40.1045 92.0742 39.4055 91.9002C39.1462 91.8368 38.9221 91.6741 38.7813 91.4471C38.6405 91.2201 38.5941 90.9469 38.6523 90.6862C38.7181 90.4225 38.8854 90.1957 39.1177 90.0551C39.35 89.9146 39.6283 89.8718 39.892 89.9361C40.5562 90.1024 41.2282 90.2492 41.8963 90.373C47.4951 91.4327 53.2629 91.1845 58.7502 89.6474C64.2375 88.1104 69.2963 85.326 73.5329 81.5113C73.6847 81.3741 73.8742 81.2859 74.0768 81.2583C74.2793 81.2307 74.4855 81.265 74.6683 81.3566L93.642 88.2735L81.8747 71.5128C81.7995 71.3663 81.7602 71.2039 81.7602 71.0392C81.7602 70.8744 81.7995 70.712 81.8747 70.5655C84.585 65.1472 85.9263 59.146 85.7809 53.0879C85.6355 47.0299 84.0076 41.1001 81.0404 35.8184C80.9073 35.5815 80.8738 35.3014 80.9469 35.0396C81.0201 34.7779 81.194 34.5559 81.4306 34.4226C81.6672 34.2893 81.947 34.2556 82.2084 34.3288C82.4699 34.402 82.6915 34.5763 82.8247 34.8131C85.9104 40.3085 87.6238 46.4691 87.8188 52.7703C88.0138 59.0714 86.6846 65.3264 83.9446 71.0024L96.994 90.1294C97.1028 90.3444 97.1316 90.5911 97.0751 90.8253Z" fill="#00102C"/>
<path d="M58.7767 30.1773C55.9692 29.9607 53.1533 30.4679 50.5973 31.6505C46.9512 33.3285 44.0512 36.2937 42.4524 39.9786C39.1819 39.0101 35.6914 39.0853 32.4656 40.194C29.2398 41.3026 26.439 43.3895 24.4522 46.1648C19.4973 53.0586 20.9455 62.4036 27.9626 68.9184C35.9721 76.3341 47.0482 78.4568 59.8736 80.9042L60.8119 81.086C61.043 81.1305 61.2823 81.1007 61.4955 81.0009C61.7106 80.901 61.889 80.736 62.0054 80.5292L62.4726 79.6979C68.8602 68.296 74.3789 58.4328 73.8807 47.5413C73.4443 37.972 67.2304 30.8346 58.7767 30.1773Z" fill="white"/>
<path d="M61.0245 82.1453C60.8858 82.1461 60.7473 82.1332 60.6111 82.1067L59.6766 81.9288C46.6929 79.435 35.4857 77.2892 27.256 69.6685C19.8373 62.798 18.3349 52.8768 23.6025 45.5423C25.2205 43.2891 27.3499 41.4527 29.8153 40.1843C32.2807 38.9159 35.0116 38.2517 37.7835 38.2465C39.1642 38.2468 40.5398 38.413 41.8809 38.7414C43.4384 35.6305 45.887 33.0551 48.9138 31.3444C51.9406 29.6337 55.4081 28.8653 58.8733 29.1373C67.8715 29.8371 74.4792 37.3804 74.9388 47.491C75.4524 58.7035 69.8681 68.6633 63.4033 80.2005L62.9322 81.0357C62.7103 81.434 62.3682 81.752 61.9551 81.9443C61.6633 82.0788 61.3457 82.1475 61.0245 82.1453ZM37.7835 40.3343C35.3433 40.342 32.9397 40.9283 30.7695 42.0453C28.5992 43.1622 26.7242 44.778 25.2979 46.7602C20.6636 53.2132 22.0502 62.0015 28.6733 68.1336C36.4628 75.3483 47.4035 77.4477 60.0705 79.8758L61.0245 80.0575H61.0592C61.0727 80.0496 61.0845 80.0391 61.0939 80.0266L61.5611 79.1876C67.8753 67.9287 73.3246 58.2047 72.838 47.5915C72.4247 38.5713 66.6087 31.8399 58.6956 31.2251C56.066 31.0264 53.4292 31.5015 51.0337 32.6054C47.6238 34.1818 44.9109 36.9569 43.4102 40.4039C43.3085 40.638 43.1246 40.8268 42.8933 40.9343C42.662 41.0419 42.3994 41.0609 42.1551 40.9877C40.7375 40.5574 39.2648 40.3373 37.7835 40.3343Z" fill="#00102C"/>
<path d="M110.341 104.319H104.548V98.5192C104.534 98.313 104.442 98.1199 104.291 97.9789C104.14 97.8379 103.942 97.7595 103.735 97.7595C103.529 97.7595 103.33 97.8379 103.179 97.9789C103.028 98.1199 102.937 98.313 102.922 98.5192V104.319H97.1295C96.9144 104.319 96.7081 104.404 96.556 104.557C96.4039 104.709 96.3186 104.915 96.3186 105.131C96.3186 105.346 96.4039 105.553 96.556 105.705C96.7081 105.857 96.9144 105.943 97.1295 105.943H102.922V111.742C102.937 111.948 103.028 112.141 103.179 112.282C103.33 112.423 103.529 112.502 103.735 112.502C103.942 112.502 104.14 112.423 104.291 112.282C104.442 112.141 104.534 111.948 104.548 111.742V105.943H110.341C110.556 105.943 110.763 105.857 110.915 105.705C111.067 105.553 111.152 105.346 111.152 105.131C111.152 104.915 111.067 104.709 110.915 104.557C110.763 104.404 110.556 104.319 110.341 104.319Z" fill="#007AFF"/>
<path d="M48.6933 98.0323C36.9681 98.019 25.727 93.3496 17.4364 85.0487C9.14583 76.7478 4.48303 65.4933 4.47076 53.7545C4.44287 44.0405 7.63617 34.592 13.55 26.8909C19.3185 19.3496 27.3419 13.8499 36.451 11.1934C36.6054 11.1564 36.7682 11.1804 36.9054 11.2604C37.0427 11.3403 37.1441 11.4701 37.1883 11.6228C37.2325 11.7755 37.2163 11.9394 37.143 12.0805C37.0698 12.2216 36.945 12.3289 36.7948 12.3804C27.9402 14.9651 20.1406 20.3113 14.5309 27.641C8.79227 35.1267 5.69564 44.3066 5.72588 53.7429C5.73609 65.1515 10.2652 76.0904 18.32 84.1604C26.3749 92.2304 37.2979 96.7728 48.6933 96.7912C48.8572 96.7912 49.0143 96.8564 49.1302 96.9724C49.2461 97.0884 49.3112 97.2457 49.3112 97.4098C49.3112 97.5739 49.2461 97.7312 49.1302 97.8472C49.0143 97.9632 48.8572 98.0284 48.6933 98.0284V98.0323Z" fill="#00102C"/>
</g>
<defs>
<clipPath id="clip0_3_135">
<rect width="174.118" height="150" fill="white" transform="translate(0.941162)"/>
</clipPath>
</defs>
</svg>
