<svg width="120" height="131" viewBox="0 0 120 131" fill="none" xmlns="http://www.w3.org/2000/svg">
<g clip-path="url(#clip0_3_264)">
<path d="M30.6668 33.4932H69.2369C72.679 33.4932 75.4693 36.2845 75.4693 39.7277V123.399C75.4693 126.843 72.679 129.634 69.2369 129.634H30.6668C27.2247 129.634 24.4343 126.843 24.4343 123.399V39.7277C24.4343 36.2845 27.2247 33.4932 30.6668 33.4932Z" fill="white"/>
<path d="M30.6696 130.5H69.2283C71.1106 130.498 72.9156 129.75 74.2469 128.419C75.5782 127.088 76.3271 125.282 76.3294 123.4V39.7277C76.3271 37.8445 75.5782 36.039 74.247 34.7074C72.9158 33.3757 71.1109 32.6266 69.2283 32.6243H30.6696C28.787 32.6266 26.9821 33.3757 25.6509 34.7074C24.3197 36.039 23.5708 37.8445 23.5685 39.7277V123.4C23.5708 125.282 24.3197 127.088 25.651 128.419C26.9823 129.75 28.7873 130.498 30.6696 130.5ZM69.2283 34.3593C70.6526 34.3585 72.019 34.9236 73.0269 35.9303C74.0349 36.937 74.602 38.3029 74.6035 39.7277V123.4C74.6013 124.824 74.0338 126.189 73.0259 127.195C72.0181 128.201 70.6521 128.766 69.2283 128.765H30.6696C29.2473 128.763 27.8836 128.198 26.8776 127.192C25.8715 126.186 25.3052 124.822 25.3029 123.4V39.7277C25.3044 38.3044 25.8705 36.9398 26.8766 35.9333C27.8827 34.9269 29.2468 34.3608 30.6696 34.3593H69.2283Z" fill="#00102C"/>
<path d="M54.6477 70.9544H76.0397C79.4799 70.9544 82.2837 68.4566 82.2837 65.3824V50.4702C82.2837 50.1865 82.171 49.9145 81.9705 49.7139C81.7699 49.5133 81.498 49.4006 81.2144 49.4006C80.9308 49.4006 80.6588 49.5133 80.4582 49.7139C80.2577 49.9145 80.1451 50.1865 80.1451 50.4702V65.3824C80.1451 67.2751 78.3045 68.8237 76.0397 68.8237H54.6477C52.3829 68.8237 50.5423 67.2837 50.5423 65.3824V50.4702C50.5281 50.1957 50.4091 49.9372 50.2099 49.7479C50.0106 49.5587 49.7464 49.4531 49.4716 49.4531C49.1969 49.4531 48.9326 49.5587 48.7334 49.7479C48.5341 49.9372 48.4151 50.1957 48.4009 50.4702V65.3824C48.4009 68.4566 51.2047 70.9544 54.6477 70.9544Z" fill="#00102C"/>
<path d="M33.247 43.8257C35.2537 42.1251 48.5328 33.8948 52.4546 26.5017C57.1103 14.9104 69.9736 3.93269 70.4953 3.60577L70.6387 3.46812L70.6559 3.50253C70.9359 3.32696 71.2249 3.16615 71.5217 3.02076C80.0132 -0.994066 92.7017 7.19904 99.8629 21.3398C107.024 35.4806 106.021 50.3842 97.4521 54.2327C94.3674 55.6207 83.6167 60.8428 66.9004 54.3532C61.9952 52.274 40.8984 56.8624 39.5138 57.327C32.0171 59.8592 25.2486 50.6251 33.247 43.8257Z" fill="#FFAB00"/>
<path d="M32.2721 42.6786C32.7222 42.2943 33.5794 41.6921 34.7605 40.8547C39.0894 37.7977 48.0797 31.4457 51.1014 25.8622C53.6156 19.6478 58.3716 13.7088 61.9236 9.80291C64.2849 7.18201 66.8232 4.72625 69.5206 2.45292L69.6066 2.37263C69.7736 2.21103 69.9757 2.09029 70.1972 2.01989C70.438 1.88511 70.6702 1.76467 70.9024 1.65569C72.5761 0.872001 74.404 0.473185 76.2519 0.488524C80.5521 0.488524 85.2451 2.42998 89.7861 6.10354C94.3271 9.77711 98.2518 14.787 101.225 20.6573C106.029 30.1466 107.434 40.5106 104.891 47.7C103.561 51.4682 101.207 54.2011 98.0884 55.6034L97.8504 55.7124C93.1417 57.9312 87.996 59.0669 82.7911 59.0361C77.5104 59.0361 71.986 57.932 66.3757 55.7554L66.3327 55.7354C65.9657 55.5805 65.0168 55.3195 62.8209 55.3195C55.155 55.3195 40.9185 58.4511 40.0097 58.7608C39.0358 59.0928 38.014 59.2633 36.9851 59.2655C35.1804 59.2702 33.4172 58.7235 31.9315 57.6985C30.4458 56.6735 29.3084 55.2192 28.6713 53.5301C27.2924 49.8221 28.6456 45.7671 32.2721 42.6786ZM36.9738 57.7629C37.8409 57.7605 38.7017 57.6161 39.5223 57.3356C40.6547 56.957 54.94 53.8226 62.8094 53.8255C64.5696 53.8255 66.0117 53.9803 66.909 54.3617C73.0268 56.7362 78.3418 57.542 82.7796 57.542C87.86 57.5682 92.88 56.4395 97.4606 54.2413C106.029 50.3928 107.03 35.4892 99.8716 21.3484C93.943 9.64232 84.2274 2.00556 76.2404 2.00556C74.6114 1.98674 72.9989 2.33365 71.5217 3.02073C71.2221 3.16306 70.9303 3.321 70.6473 3.49391L70.6301 3.45949L70.4868 3.59714C69.965 3.92407 57.1016 14.9017 52.4459 26.4931C48.5241 33.8861 35.245 42.1165 33.2382 43.8171C26.1715 49.8508 30.6525 57.7629 36.9738 57.7629Z" fill="#00102C"/>
<path d="M70.8108 35.1135C77.5994 48.5517 89.3419 56.4953 97.0336 52.8562C104.725 49.217 105.462 35.363 98.6733 21.9363C91.8847 8.50957 80.148 0.551617 72.4535 4.19077C64.759 7.82992 64.0251 21.6753 70.8108 35.1135Z" fill="#FFAB00"/>
<path d="M72.4534 4.19077C73.7297 3.59663 75.1224 3.29487 76.5301 3.30751V4.81307C75.3426 4.80012 74.1672 5.05291 73.0899 5.55294C71.0344 6.52511 69.5263 8.37766 68.609 11.0561C66.5449 17.0784 67.9009 26.0257 72.1495 34.4339C74.8099 39.7048 78.293 44.2157 82.2148 47.482C85.9016 50.5448 89.7116 52.2339 92.9511 52.2339C94.1383 52.2468 95.3135 51.9951 96.3913 51.4969C98.4468 50.5247 99.9548 48.6722 100.875 45.9908C102.936 39.9686 101.58 31.0213 97.3315 22.6131C94.6711 17.3422 91.1909 12.8312 87.2662 9.56777C83.5823 6.50216 79.7695 4.81307 76.5329 4.81307V3.30751C83.869 3.30751 93.0028 10.7005 98.6762 21.9478C105.465 35.3831 104.731 49.2285 97.0363 52.8676C95.7605 53.463 94.3674 53.7648 92.9596 53.7509C85.6206 53.7509 76.4869 46.3579 70.8135 35.125C64.0249 21.6753 64.7589 7.82992 72.4534 4.19077Z" fill="#00102C"/>
<path d="M33.1982 47.5107L58.5867 28.9421L59.14 31.5546L33.1982 47.5107Z" fill="white"/>
<path d="M77.2553 43.7425C75.0747 41.0909 73.1951 38.2056 71.6507 35.1393C70.0288 31.9506 68.7884 28.5816 67.9554 25.1022C73.0927 23.9035 77.1292 22.7478 77.7685 22.5213C87.378 19.2607 95.342 30.095 84.8409 38.5118C83.8747 39.2832 80.8961 41.1845 77.2553 43.7425Z" fill="white"/>
<path d="M77.2553 44.4795C77.4091 44.4799 77.5593 44.4328 77.6854 44.3447C79.3366 43.1976 80.8732 42.1538 82.106 41.3221C83.6454 40.284 84.7606 39.5327 85.3139 39.0882C89.7116 35.5637 91.4976 31.0585 90.0929 27.0695C88.8544 23.5393 85.3025 21.1649 81.2574 21.1649C79.9889 21.172 78.7301 21.386 77.5305 21.7986C77.0059 21.9793 73.0841 23.1178 67.7834 24.3566C67.686 24.378 67.5938 24.4184 67.5121 24.4757C67.4304 24.5329 67.3609 24.6058 67.3076 24.69C67.2543 24.7743 67.2182 24.8683 67.2015 24.9667C67.1847 25.065 67.1876 25.1657 67.21 25.2628C68.0577 28.7953 69.3192 32.2153 70.9684 35.4519C72.5417 38.5736 74.4581 41.5102 76.682 44.2071C76.7523 44.2912 76.8399 44.359 76.9388 44.4061C77.0378 44.4531 77.1458 44.4782 77.2553 44.4795ZM81.2689 22.6704C84.6775 22.6704 87.659 24.6406 88.6854 27.5685C89.2587 29.1859 89.9726 33.4359 84.3851 37.9153C83.8806 38.3196 82.7338 39.0939 81.2804 40.0747C80.1852 40.8117 78.8521 41.7093 77.413 42.7101C75.4515 40.2469 73.7511 37.5867 72.3388 34.7722C70.8567 31.866 69.6973 28.806 68.8814 25.6471C73.56 24.5344 77.3356 23.4619 78.0265 23.2239C79.0699 22.8637 80.1651 22.6767 81.2689 22.6704Z" fill="#00102C"/>
<path d="M81.0309 30.3789C81.9856 32.8222 83.935 34.3507 85.3913 33.7944C86.8477 33.238 87.2548 30.8033 86.303 28.36C85.3484 25.9167 83.3961 24.3882 81.9426 24.9446C80.4863 25.5038 80.0763 27.9356 81.0309 30.3789Z" fill="#00102C"/>
<path d="M46.268 87.3005C46.1538 87.2932 46.0433 87.2574 45.9466 87.1963C45.8499 87.1351 45.7702 87.0507 45.7146 86.9506C45.5633 86.701 45.4941 86.4101 45.5169 86.119C45.5169 86.119 45.5168 85.9928 45.5426 85.7548C45.5426 85.6343 45.5627 85.4909 45.577 85.3189C45.5914 85.1468 45.6143 84.9461 45.6372 84.7253C45.7662 83.4927 45.9731 82.2696 46.2565 81.0632C46.6567 79.3512 47.2064 77.6776 47.8992 76.0618C48.2805 75.1814 48.7047 74.2896 49.1863 73.4149C49.6679 72.5403 50.1897 71.6943 50.7458 70.8569C51.8206 69.2733 53.025 67.7818 54.3466 66.3976C55.4608 65.2293 56.6451 64.1299 57.8929 63.1054C58.9736 62.2222 59.8996 61.5454 60.5619 61.098C60.8916 60.8715 61.1525 60.6937 61.3302 60.5761L61.6169 60.3954C61.6621 60.365 61.7089 60.3372 61.7573 60.3123L61.9321 60.2004C62.6466 59.7225 63.5124 59.5253 64.3632 59.6469C64.9212 59.7173 65.4351 59.9865 65.8106 60.4053C66.1861 60.8241 66.398 61.3643 66.4073 61.9268L66.479 61.8866C67.1863 61.4861 68.0235 61.3829 68.8068 61.5999C69.1531 61.6944 69.4742 61.8649 69.7465 62.099C70.0187 62.3332 70.2354 62.625 70.3807 62.9534C70.5954 63.456 70.6534 64.0118 70.547 64.5479C70.4485 65.0735 70.212 65.5634 69.8618 65.9674C70.2296 66.2193 70.5259 66.5621 70.7218 66.9625C70.9772 67.4741 71.0769 68.0495 71.0085 68.6172C70.9496 69.1457 70.7351 69.6447 70.3922 70.0511C70.7283 70.2974 71.0062 70.6146 71.2063 70.9802C71.5441 71.581 71.6741 72.2766 71.5761 72.959C71.5445 73.2513 71.4515 73.5338 71.3033 73.7878C71.1551 74.0417 70.955 74.2616 70.7161 74.433C70.7161 74.433 70.4954 74.5792 70.1714 74.8029C69.8475 75.0266 69.4261 75.3334 69.0247 75.6632C68.6234 75.993 68.2248 76.3085 67.941 76.558L67.5998 76.8619L67.4737 76.9795C67.4446 77.0056 67.4129 77.0287 67.3791 77.0483L67.2731 77.1487L66.9864 77.4355C66.737 77.685 66.3873 78.0406 66.0003 78.4822C65.5678 78.9706 65.1628 79.4828 64.7875 80.0164C64.3789 80.5992 64.0111 81.2096 63.6867 81.8432C63.3771 82.4533 63.1118 83.0849 62.8926 83.733C62.7096 84.297 62.5613 84.8716 62.4483 85.4537C62.3537 85.9641 62.3049 86.4 62.2705 86.7069C62.2533 86.8617 62.2504 86.9936 62.2418 87.0682V87.1944C62.2246 87.4811 61.8605 87.7306 61.4162 87.722L46.268 87.3005Z" fill="white"/>
<path d="M71.8915 70.5673C71.7597 70.328 71.602 70.1039 71.4213 69.8991C71.6131 69.5222 71.7374 69.1145 71.7883 68.6947C71.8769 67.9712 71.7523 67.2376 71.43 66.584C71.2923 66.3074 71.1178 66.0508 70.9111 65.8212C71.1099 65.4637 71.2493 65.0763 71.3239 64.6741C71.4606 63.9784 71.3836 63.2576 71.1031 62.6065C70.9097 62.1713 70.6225 61.7843 70.2623 61.4729C69.902 61.1616 69.4774 60.9337 69.0189 60.8055C68.3521 60.6205 67.6475 60.6205 66.9807 60.8055C66.9345 60.6824 66.8798 60.5627 66.8172 60.4471C66.5783 60.0169 66.243 59.6481 65.8376 59.3694C65.4322 59.0908 64.9678 58.91 64.4808 58.8411C63.4342 58.69 62.3687 58.93 61.4878 59.515L61.3473 59.6068C61.284 59.6383 61.2228 59.6737 61.1639 59.7129L60.8915 59.8936C60.708 60.014 60.4444 60.1804 60.1061 60.427C59.1973 61.0607 58.2827 61.7519 57.3854 62.486C56.1113 63.5306 54.9029 64.6531 53.7674 65.847C52.4137 67.2635 51.1805 68.7906 50.0808 70.4124C49.5074 71.2584 48.9714 72.1331 48.484 73.0307C48.0253 73.8652 47.5809 74.7771 47.1623 75.7464C46.4504 77.4057 45.8855 79.1244 45.4739 80.8825C45.1826 82.122 44.97 83.3787 44.8374 84.645L44.8173 84.8342C44.803 84.9891 44.7858 85.121 44.7772 85.2587L44.717 86.0616C44.6814 86.5261 44.7939 86.9899 45.0381 87.3865C45.1647 87.5971 45.3414 87.773 45.5525 87.8986C45.7636 88.0242 46.0024 88.0956 46.2478 88.1063L61.3445 88.4791C62.2217 88.4963 62.9413 87.9371 62.9872 87.2059V87.0911C62.9872 87.0539 62.9872 87.0108 62.9872 86.9621C62.989 86.8939 62.9947 86.826 63.0044 86.7585C63.0388 86.423 63.0847 86.0301 63.1707 85.5712C63.2757 85.0266 63.4155 84.4892 63.5892 83.9625C63.8002 83.3471 64.056 82.748 64.3546 82.1701C64.6616 81.5734 65.0093 80.9985 65.3953 80.4495C65.7509 79.9408 66.1337 79.4516 66.542 78.9841C66.9061 78.5683 67.2386 78.227 67.4909 77.9775L67.8235 77.6592C67.8768 77.6214 67.9275 77.5802 67.9754 77.5359L68.4198 77.1344C68.7438 76.8476 69.125 76.5379 69.469 76.2741C69.9305 75.9127 70.3664 75.603 70.5871 75.451C70.8939 75.2388 71.1031 75.1012 71.1174 75.0897C71.4504 74.8595 71.7312 74.5619 71.9416 74.216C72.152 73.8702 72.2874 73.4839 72.3387 73.0823C72.3904 72.7491 72.3962 72.4104 72.3559 72.0757C72.3041 71.5468 72.1461 71.0337 71.8915 70.5673ZM66.8688 76.3601L66.3757 76.8304C66.1062 77.1 65.748 77.4642 65.3495 77.9173C64.8979 78.4299 64.4748 78.967 64.0822 79.5261C63.6566 80.1396 63.2735 80.7816 62.9355 81.4475C62.3219 82.6489 61.8808 83.931 61.6254 85.2558C61.5194 85.8293 61.4678 86.3054 61.4391 86.5721C61.4248 86.6897 61.419 86.7929 61.4162 86.8589H61.3961L46.3941 86.486C46.3449 86.3855 46.324 86.2735 46.3339 86.162L46.3911 85.3676C46.3911 85.2529 46.4142 85.1268 46.4285 84.9862L46.4485 84.797C46.7552 81.892 47.4975 79.0497 48.6503 76.3658C49.0488 75.4453 49.4701 74.5764 49.903 73.7849C50.3703 72.9246 50.8807 72.0986 51.4282 71.2871C52.4775 69.7386 53.653 68.2797 54.9429 66.9253C56.0317 65.7793 57.1911 64.7028 58.4145 63.7019C59.2746 62.9965 60.1605 62.3283 61.032 61.7232C61.3589 61.4976 61.611 61.3255 61.7888 61.207L62.0584 61.0292L62.1156 60.9948L62.1558 60.9747L62.3708 60.8371C62.9192 60.4694 63.5827 60.3144 64.237 60.4012C64.4819 60.4308 64.7164 60.5177 64.9216 60.6547C65.1267 60.7916 65.2969 60.975 65.4182 61.1898C65.5374 61.4134 65.6023 61.662 65.6075 61.9153L65.6504 63.223L66.8688 62.552C67.391 62.2552 68.0093 62.1768 68.5889 62.334C68.822 62.3956 69.0383 62.5087 69.2219 62.6651C69.4055 62.8214 69.5517 63.017 69.6497 63.2374C69.8006 63.5919 69.8405 63.9838 69.7643 64.3615C69.692 64.7473 69.5177 65.1068 69.2597 65.4025L68.6549 66.1108L69.403 66.6213C69.6565 66.7949 69.861 67.031 69.9966 67.3067C70.1807 67.6786 70.2515 68.0964 70.2001 68.5082C70.1608 68.8779 70.012 69.2274 69.7729 69.5119L69.1995 70.1744L69.9077 70.6877C70.1454 70.8658 70.3411 71.0939 70.481 71.3559C70.6348 71.6292 70.7323 71.9305 70.7677 72.242C70.7942 72.4323 70.7942 72.6253 70.7677 72.8156C70.7494 72.9969 70.6938 73.1725 70.6045 73.3314C70.5152 73.4903 70.3942 73.6291 70.2488 73.739C70.223 73.7562 70.0023 73.8996 69.6755 74.1204C69.4404 74.2839 68.9788 74.6136 68.4886 74.9951C67.9983 75.3765 67.5713 75.7435 67.362 75.9242L67.0237 76.2282L66.9118 76.3314L66.8688 76.3601Z" fill="#00102C"/>
<path d="M68.4743 61.5482C68.4887 61.6709 68.465 61.795 68.4065 61.9037C68.3481 62.0124 68.2576 62.1006 68.1474 62.1562L67.792 62.3369C67.5856 62.443 67.2615 62.6236 66.8774 62.8244C66.0345 63.2861 65.0513 63.8797 64.1826 64.4504C63.314 65.0211 62.3909 65.6864 61.6197 66.2915C61.3015 66.5381 61.0148 66.7732 60.8056 66.9482L60.493 67.2063C60.433 67.2612 60.3626 67.3034 60.2858 67.3302C60.2091 67.3571 60.1276 67.3682 60.0464 67.3628C59.9653 67.3573 59.8861 67.3355 59.8137 67.2986C59.7412 67.2616 59.6768 67.2104 59.6247 67.148C59.5725 67.0855 59.5336 67.0132 59.5102 66.9353C59.4868 66.8574 59.4794 66.7755 59.4885 66.6947C59.4976 66.6138 59.523 66.5356 59.5631 66.4649C59.6032 66.3941 59.6571 66.3322 59.7218 66.2829L60.0344 66.0219C60.2494 65.8412 60.5503 65.6003 60.8743 65.3451C61.6741 64.7171 62.6374 64.026 63.5204 63.4438C64.4033 62.8617 65.4296 62.2451 66.2983 61.769C66.6939 61.5511 67.0265 61.379 67.2415 61.2672L67.6028 61.0808C67.6889 61.0397 67.7837 61.0196 67.8791 61.0221C67.9745 61.0246 68.0679 61.0497 68.1518 61.0953C68.2357 61.1409 68.3076 61.2057 68.3616 61.2844C68.4157 61.3632 68.4504 61.4536 68.4628 61.5482H68.4743Z" fill="#00102C"/>
<path d="M70.4237 65.5545C70.4377 65.6764 70.4142 65.7996 70.3563 65.9077C70.2984 66.0159 70.2089 66.1037 70.0998 66.1596L69.7614 66.3317C69.5636 66.4349 69.297 66.5754 68.9845 66.7504C68.2334 67.1633 67.3676 67.6852 66.6079 68.1842C65.8482 68.6832 65.0369 69.2682 64.3575 69.7987C64.0708 70.031 63.8214 70.226 63.6494 70.3723L63.377 70.6017C63.3167 70.6557 63.2462 70.697 63.1696 70.7231C63.0929 70.7492 63.0118 70.7595 62.931 70.7535C62.8503 70.7475 62.7716 70.7253 62.6997 70.6882C62.6277 70.6511 62.5639 70.5998 62.5122 70.5375C62.4605 70.4752 62.422 70.4031 62.3988 70.3255C62.3756 70.2479 62.3683 70.1664 62.3773 70.0859C62.3863 70.0055 62.4114 69.9276 62.4512 69.8571C62.491 69.7866 62.5446 69.7248 62.6088 69.6754L62.8783 69.4489C63.056 69.2998 63.3111 69.0933 63.615 68.8553C64.3174 68.3018 65.1688 67.691 65.9457 67.1805C66.7226 66.6701 67.6257 66.1194 68.4026 65.695C68.7266 65.5172 68.9989 65.371 69.2025 65.2677L69.5493 65.0871C69.6197 65.0508 69.6965 65.0288 69.7754 65.0224C69.8543 65.0159 69.9337 65.025 70.009 65.0492C70.0844 65.0735 70.1542 65.1123 70.2145 65.1636C70.2749 65.2149 70.3246 65.2775 70.3607 65.348C70.3941 65.4124 70.4154 65.4824 70.4237 65.5545Z" fill="#00102C"/>
<path d="M70.8567 69.8676C70.8698 69.9855 70.8484 70.1047 70.7949 70.2106C70.7415 70.3166 70.6582 70.4046 70.5556 70.4641C70.5556 70.4641 70.2374 70.6419 69.7816 70.92C69.2427 71.2469 68.6349 71.637 68.1275 71.9954C67.62 72.3539 67.0352 72.7869 66.5622 73.1683C66.1522 73.4981 65.8884 73.7247 65.8855 73.7275C65.8264 73.7831 65.7569 73.8262 65.6807 73.8542C65.6046 73.8821 65.5236 73.8945 65.4426 73.8903C65.3616 73.8862 65.2822 73.8658 65.2093 73.8303C65.1364 73.7947 65.0715 73.7448 65.0183 73.6835C64.9652 73.6222 64.9249 73.5509 64.9001 73.4736C64.8752 73.3964 64.8661 73.315 64.8735 73.2342C64.8808 73.1534 64.9045 73.0749 64.9429 73.0035C64.9813 72.9321 65.0338 72.8691 65.0971 72.8185C65.0971 72.8185 65.3838 72.5718 65.8081 72.2306C66.3012 71.832 66.8946 71.3875 67.4393 71.0089C67.984 70.6304 68.586 70.2289 69.1594 69.8905C69.6324 69.6037 69.9535 69.4202 69.965 69.4145C70.1038 69.3359 70.2682 69.3156 70.4219 69.3581C70.5756 69.4006 70.7062 69.5023 70.785 69.641C70.8233 69.7112 70.8476 69.7881 70.8567 69.8676Z" fill="#00102C"/>
<path d="M39.3733 116.124L39.4794 113.715C39.4794 113.557 39.4937 113.4 39.4994 113.239C39.5137 112.932 39.5281 112.617 39.5453 112.296L39.66 110.781C39.6829 110.495 39.703 110.225 39.7231 109.944C39.7833 109.153 39.8434 108.338 39.9409 107.518V107.498C40.176 105.135 40.4827 102.758 40.8497 100.432C41.5371 96.0386 42.449 91.6835 43.5818 87.3837C43.6411 87.1561 43.7012 86.9353 43.7624 86.7212C43.9344 86.0932 44.0949 85.4967 44.2583 84.9547L44.545 83.9395L44.8145 83.0792C44.889 82.8326 44.9579 82.6117 45.0267 82.4081L62.024 88.1924C61.9982 88.2698 61.9753 88.3529 61.9466 88.439L61.7344 89.1215C61.7344 89.1215 61.7344 89.1215 61.7344 89.1387L61.4937 89.956C61.3675 90.3776 61.2413 90.8421 61.1066 91.3354C61.0493 91.5447 60.9919 91.7598 60.9288 91.9864C59.9538 95.684 59.1701 99.4294 58.5809 103.208C58.2656 105.215 58.0076 107.243 57.8012 109.273C57.7152 109.981 57.6665 110.661 57.6177 111.318C57.6005 111.576 57.5804 111.828 57.5603 112.083L57.4601 113.365V113.388C57.4601 113.658 57.4342 113.919 57.4227 114.174L57.4055 114.598L57.3368 116.118H59.4811L59.5443 114.684L59.5614 114.251C59.5614 114.008 59.5815 113.761 59.5958 113.506L59.6934 112.241C59.7134 111.986 59.7335 111.725 59.7535 111.464C59.7994 110.827 59.8481 110.171 59.9284 109.508C59.9272 109.501 59.9272 109.493 59.9284 109.485C60.1262 107.478 60.3814 105.485 60.691 103.526C61.2684 99.8265 62.0339 96.1587 62.9845 92.537L63.1621 91.886C63.2911 91.4071 63.4145 90.954 63.5349 90.5611L63.7728 89.7438L63.9821 89.0699C64.048 88.8577 64.0995 88.6885 64.1483 88.5451L64.2773 88.1551C64.306 88.0633 64.3289 87.9916 64.3432 87.9515L64.369 87.8798C64.4612 87.6109 64.443 87.3164 64.3183 87.061C64.1936 86.8056 63.9726 86.6101 63.704 86.5176L44.6941 80.0251C44.4261 79.9346 44.1331 79.9537 43.8791 80.0783C43.6251 80.203 43.4307 80.423 43.3381 80.6904L43.0027 81.7027C42.9282 81.9264 42.8536 82.1673 42.7705 82.4368L42.4981 83.3172V83.3315L42.2114 84.3496C42.0423 84.9231 41.879 85.5196 41.7041 86.162C41.6439 86.3771 41.5865 86.595 41.5206 86.8245C40.3683 91.2001 39.4401 95.6317 38.7397 100.102C38.3699 102.462 38.0574 104.877 37.8195 107.271C37.7192 108.132 37.6562 108.969 37.5959 109.778C37.5759 110.065 37.5529 110.331 37.5328 110.609L37.4152 112.141V112.161C37.3952 112.494 37.3809 112.82 37.3695 113.139C37.3695 113.299 37.3551 113.454 37.3465 113.612L37.2376 116.118L39.3733 116.124Z" fill="#007AFF"/>
<path d="M58.406 116.124C58.4261 115.665 58.449 115.175 58.472 114.653C58.4892 114.269 58.5035 113.867 58.5264 113.454C58.5494 113.041 58.5895 112.611 58.6239 112.169C58.6955 111.289 58.7443 110.36 58.8618 109.396C59.0539 107.475 59.3119 105.425 59.633 103.374C60.2194 99.6339 60.9955 95.9259 61.9581 92.2645C62.1616 91.5304 62.3393 90.8307 62.517 90.2571L62.7579 89.4312C62.8353 89.1846 62.9041 88.9552 62.97 88.7515C63.0359 88.5479 63.0904 88.3587 63.1391 88.2095C63.1878 88.0604 63.2309 87.9228 63.2681 87.8224C63.3054 87.722 63.3284 87.636 63.3428 87.5901L63.3685 87.5156L44.3615 81.0259L44.3185 81.1463L44.2068 81.4876C44.1581 81.6338 44.1007 81.8145 44.029 82.0238L43.8025 82.7408C43.7223 83.0046 43.6305 83.3143 43.5158 83.6183L43.2292 84.645C43.0084 85.3762 42.7934 86.1935 42.5469 87.0883C41.4037 91.4279 40.4832 95.8232 39.789 100.257C39.4077 102.669 39.101 105.095 38.8745 107.38C38.7398 108.527 38.6738 109.631 38.5878 110.684C38.5477 111.209 38.5104 111.719 38.4732 112.215C38.4359 112.711 38.4272 113.193 38.4043 113.649C38.3642 114.55 38.3297 115.37 38.2982 116.11L58.406 116.124Z" fill="#007AFF"/>
<path d="M42.0423 110.205C41.9374 110.217 41.8316 110.194 41.7416 110.138C41.6516 110.083 41.5825 109.999 41.5456 109.9C41.5087 109.802 41.506 109.693 41.5378 109.592C41.5696 109.492 41.6341 109.405 41.7212 109.345C43.9372 107.937 46.9846 106.976 50.7746 106.477C52.4424 106.256 54.1236 106.152 55.8059 106.164C55.8713 106.161 55.9366 106.171 55.9978 106.195C56.059 106.218 56.1147 106.253 56.1616 106.299C56.2085 106.345 56.2455 106.4 56.2702 106.46C56.2949 106.521 56.3068 106.586 56.3052 106.651C56.3036 106.717 56.2886 106.781 56.261 106.841C56.2334 106.9 56.1938 106.953 56.1448 106.996C56.0958 107.04 56.0384 107.073 55.9761 107.093C55.9139 107.113 55.8481 107.12 55.783 107.114C55.6969 107.114 47.2484 106.95 42.2286 110.133C42.1724 110.171 42.1089 110.195 42.0423 110.205Z" fill="#00102C"/>
<path d="M56.0037 105.224C55.914 105.239 55.822 105.226 55.7399 105.187C55.6711 105.155 48.7105 102.003 42.7332 103.254C42.6096 103.28 42.4809 103.255 42.3752 103.186C42.2696 103.117 42.1957 103.009 42.1699 102.885C42.144 102.762 42.1683 102.633 42.2374 102.527C42.3064 102.421 42.4146 102.348 42.5382 102.322C48.8452 101.005 55.843 104.186 56.1383 104.329C56.2526 104.382 56.3413 104.478 56.3848 104.597C56.4284 104.715 56.4232 104.846 56.3705 104.96C56.3367 105.031 56.2852 105.093 56.221 105.139C56.1569 105.185 56.0821 105.215 56.0037 105.224Z" fill="#00102C"/>
<path d="M48.3292 114.53H48.2805C48.218 114.532 48.1555 114.523 48.0967 114.501C48.0379 114.48 47.984 114.447 47.938 114.405C47.8919 114.362 47.8546 114.311 47.8282 114.254C47.8019 114.198 47.7871 114.136 47.7845 114.074C47.7845 113.962 47.6841 111.301 48.2174 106.368C48.7076 101.828 49.8543 94.4383 52.5176 85.0063C52.5572 84.8914 52.6394 84.7961 52.747 84.7398C52.8547 84.6835 52.9798 84.6705 53.0967 84.7035C53.2136 84.7365 53.3134 84.813 53.3758 84.9173C53.4382 85.0215 53.4583 85.1458 53.4321 85.2644C50.7831 94.6333 49.6479 101.969 49.1606 106.471C48.6331 111.346 48.7333 114.008 48.7333 114.033C48.7403 114.152 48.7028 114.268 48.6279 114.36C48.5531 114.452 48.4465 114.513 48.3292 114.53Z" fill="#00102C"/>
<path d="M107.446 1.99698C107.383 1.94576 107.311 1.90765 107.234 1.88491C107.156 1.86218 107.075 1.85529 106.994 1.86465C106.914 1.87402 106.837 1.89945 106.766 1.93943C106.696 1.9794 106.635 2.03311 106.586 2.09735L100.216 10.2245C100.167 10.2866 100.13 10.3578 100.109 10.434C100.088 10.5101 100.081 10.5897 100.091 10.6683C100.1 10.7469 100.125 10.8228 100.163 10.8918C100.202 10.9608 100.254 11.0215 100.316 11.0705C100.344 11.0925 100.374 11.1126 100.405 11.1307C100.53 11.1966 100.674 11.2166 100.812 11.1873C100.951 11.1579 101.074 11.0811 101.162 10.9701L107.535 2.8401C107.634 2.71622 107.68 2.55814 107.664 2.40025C107.647 2.24235 107.569 2.09742 107.446 1.99698Z" fill="#00102C"/>
<path d="M119.842 32.8452C119.864 32.6871 119.823 32.5266 119.727 32.3988C119.632 32.271 119.489 32.1861 119.332 32.1627L109.108 30.7087C108.969 30.6895 108.827 30.7201 108.707 30.7951C108.587 30.87 108.498 30.9846 108.454 31.1189C108.411 31.2531 108.415 31.3984 108.468 31.5294C108.52 31.6604 108.617 31.7689 108.742 31.8357C108.803 31.8687 108.87 31.891 108.939 31.9017L119.162 33.3556C119.32 33.3777 119.48 33.3364 119.607 33.2408C119.735 33.1451 119.819 33.0029 119.842 32.8452Z" fill="#00102C"/>
<path d="M117.775 15.7592C117.746 15.6857 117.702 15.6188 117.647 15.5622C117.592 15.5056 117.526 15.4604 117.453 15.4292C117.38 15.3981 117.302 15.3816 117.223 15.3806C117.144 15.3796 117.066 15.3943 116.992 15.4236L107.411 19.2779C107.338 19.3069 107.271 19.3503 107.214 19.4055C107.157 19.4608 107.112 19.5267 107.081 19.5996C107.05 19.6725 107.034 19.7508 107.034 19.83C107.033 19.9091 107.049 19.9876 107.079 20.0608C107.132 20.1956 107.235 20.3053 107.365 20.3676C107.443 20.4091 107.528 20.4332 107.616 20.4381C107.704 20.4431 107.791 20.4288 107.873 20.3963L117.454 16.5421C117.6 16.48 117.715 16.3631 117.775 16.2165C117.835 16.07 117.835 15.9057 117.775 15.7592Z" fill="#00102C"/>
<path d="M40.5115 72.7439L36.5724 69.9794C36.4713 69.908 36.3506 69.8698 36.2269 69.8698C36.1032 69.8698 35.9827 69.908 35.8816 69.9794L32.2837 72.5001L28.6887 69.9794C28.5876 69.908 28.4669 69.8698 28.3432 69.8698C28.2195 69.8698 28.0989 69.908 27.9979 69.9794L24.4029 72.5001L20.8079 69.9794C20.7062 69.9082 20.5851 69.87 20.461 69.87C20.3369 69.87 20.2158 69.9082 20.1141 69.9794L16.5191 72.5001L12.9242 69.9794C12.8231 69.908 12.7024 69.8698 12.5787 69.8698C12.455 69.8698 12.3343 69.908 12.2332 69.9794L8.63541 72.5001L5.04042 69.9794C4.93935 69.908 4.81865 69.8698 4.69495 69.8698C4.57124 69.8698 4.45055 69.908 4.34948 69.9794L0.407612 72.7439C0.303883 72.8179 0.226334 72.9228 0.18602 73.0437C0.14571 73.1646 0.144665 73.2951 0.18322 73.4166C0.221779 73.538 0.297966 73.6441 0.400612 73.7195C0.503254 73.795 0.627102 73.836 0.754482 73.8365C0.877892 73.8382 0.998596 73.7999 1.09856 73.7275L4.69635 71.2068L8.29134 73.7275C8.39241 73.7989 8.51311 73.8372 8.63681 73.8372C8.76052 73.8372 8.88121 73.7989 8.98229 73.7275L12.5773 71.2068L16.1751 73.7275C16.2761 73.7989 16.3968 73.8372 16.5205 73.8372C16.6443 73.8372 16.7649 73.7989 16.866 73.7275L20.461 71.2068L24.056 73.7275C24.1571 73.7989 24.2776 73.8372 24.4013 73.8372C24.525 73.8372 24.6457 73.7989 24.7468 73.7275L28.3418 71.2068L31.9397 73.7275C32.0408 73.7989 32.1614 73.8372 32.2851 73.8372C32.4088 73.8372 32.5295 73.7989 32.6305 73.7275L36.2255 71.2068L39.8205 73.7275C39.8847 73.7788 39.9588 73.8165 40.0381 73.8381C40.1174 73.8597 40.2003 73.8648 40.2816 73.8532C40.363 73.8416 40.4411 73.8134 40.5112 73.7704C40.5813 73.7274 40.6417 73.6705 40.689 73.6033C40.7362 73.536 40.7692 73.4598 40.7858 73.3793C40.8025 73.2988 40.8026 73.2157 40.786 73.1352C40.7694 73.0547 40.7363 72.9784 40.6891 72.9111C40.6419 72.8438 40.5815 72.7869 40.5115 72.7439Z" fill="#FFAB00"/>
<path d="M69.7272 121.644H29.5918C29.4854 121.644 29.3832 121.687 29.3079 121.762C29.2326 121.837 29.1903 121.939 29.1903 122.046C29.1903 122.152 29.2326 122.255 29.3079 122.33C29.3832 122.405 29.4854 122.447 29.5918 122.447H69.7272C69.8336 122.447 69.9356 122.405 70.0109 122.33C70.0862 122.255 70.1285 122.152 70.1285 122.046C70.1285 121.939 70.0862 121.837 70.0109 121.762C69.9356 121.687 69.8336 121.644 69.7272 121.644Z" fill="#00102C"/>
<path d="M19.6611 120.747V116.376C19.6611 116.217 19.5976 116.064 19.4847 115.951C19.3718 115.838 19.2187 115.774 19.0591 115.774C18.8994 115.774 18.7463 115.838 18.6334 115.951C18.5205 116.064 18.457 116.217 18.457 116.376V120.747C18.457 120.907 18.5205 121.06 18.6334 121.173C18.7463 121.286 18.8994 121.349 19.0591 121.349C19.2187 121.349 19.3718 121.286 19.4847 121.173C19.5976 121.06 19.6611 120.907 19.6611 120.747Z" fill="#00102C"/>
<path d="M19.6611 112.631V110.274C19.6611 110.114 19.5976 109.961 19.4847 109.848C19.3718 109.735 19.2187 109.672 19.0591 109.672C18.8994 109.672 18.7463 109.735 18.6334 109.848C18.5205 109.961 18.457 110.114 18.457 110.274V112.643C18.457 112.802 18.5205 112.956 18.6334 113.068C18.7463 113.181 18.8994 113.245 19.0591 113.245C19.2187 113.245 19.3718 113.181 19.4847 113.068C19.5976 112.956 19.6611 112.802 19.6611 112.643V112.631Z" fill="#00102C"/>
<path d="M19.6611 106.979V105.924C19.6611 105.844 19.6455 105.766 19.6152 105.693C19.5849 105.62 19.5406 105.554 19.4847 105.498C19.4288 105.442 19.3625 105.397 19.2895 105.367C19.2164 105.337 19.1381 105.321 19.0591 105.321C18.98 105.321 18.9017 105.337 18.8287 105.367C18.7556 105.397 18.6893 105.442 18.6334 105.498C18.5775 105.554 18.5332 105.62 18.5029 105.693C18.4727 105.766 18.457 105.844 18.457 105.924V106.979C18.457 107.058 18.4727 107.136 18.5029 107.209C18.5332 107.282 18.5775 107.349 18.6334 107.405C18.6893 107.461 18.7556 107.505 18.8287 107.535C18.9017 107.565 18.98 107.581 19.0591 107.581C19.1381 107.581 19.2164 107.565 19.2895 107.535C19.3625 107.505 19.4288 107.461 19.4847 107.405C19.5406 107.349 19.5849 107.282 19.6152 107.209C19.6455 107.136 19.6611 107.058 19.6611 106.979Z" fill="#00102C"/>
<path d="M19.6611 103.133V102.58C19.6611 102.42 19.5976 102.267 19.4847 102.154C19.3718 102.041 19.2187 101.978 19.0591 101.978C18.8994 101.978 18.7463 102.041 18.6334 102.154C18.5205 102.267 18.457 102.42 18.457 102.58V103.133C18.457 103.212 18.4727 103.291 18.5029 103.364C18.5332 103.437 18.5775 103.503 18.6334 103.559C18.6893 103.615 18.7556 103.659 18.8287 103.69C18.9017 103.72 18.98 103.735 19.0591 103.735C19.1381 103.735 19.2164 103.72 19.2895 103.69C19.3625 103.659 19.4288 103.615 19.4847 103.559C19.5406 103.503 19.5849 103.437 19.6152 103.364C19.6455 103.291 19.6611 103.212 19.6611 103.133Z" fill="#00102C"/>
<path d="M19.6611 99.95V99.6633C19.6611 99.5035 19.5976 99.3504 19.4847 99.2374C19.3718 99.1245 19.2187 99.061 19.0591 99.061C18.8994 99.061 18.7463 99.1245 18.6334 99.2374C18.5205 99.3504 18.457 99.5035 18.457 99.6633V99.95C18.457 100.11 18.5205 100.263 18.6334 100.376C18.7463 100.489 18.8994 100.552 19.0591 100.552C19.2187 100.552 19.3718 100.489 19.4847 100.376C19.5976 100.263 19.6611 100.11 19.6611 99.95Z" fill="#00102C"/>
<path d="M84.2503 96.2765H69.73C69.4464 96.2765 69.1743 96.1638 68.9738 95.9632C68.7732 95.7626 68.6606 95.4905 68.6606 95.2068C68.6606 94.9231 68.7732 94.6511 68.9738 94.4505C69.1743 94.2499 69.4464 94.1371 69.73 94.1371H84.2503C84.5339 94.1371 84.806 94.2499 85.0065 94.4505C85.207 94.6511 85.3196 94.9231 85.3196 95.2068C85.3196 95.4905 85.207 95.7626 85.0065 95.9632C84.806 96.1638 84.5339 96.2765 84.2503 96.2765Z" fill="#00102C"/>
<path d="M84.2503 102.531H69.73C69.4464 102.531 69.1743 102.418 68.9738 102.218C68.7732 102.017 68.6606 101.745 68.6606 101.461C68.6606 101.178 68.7732 100.906 68.9738 100.705C69.1743 100.504 69.4464 100.392 69.73 100.392H84.2503C84.5339 100.392 84.806 100.504 85.0065 100.705C85.207 100.906 85.3196 101.178 85.3196 101.461C85.3196 101.745 85.207 102.017 85.0065 102.218C84.806 102.418 84.5339 102.531 84.2503 102.531Z" fill="#00102C"/>
<path d="M84.2503 108.757H69.73C69.4556 108.743 69.1971 108.624 69.0079 108.424C68.8187 108.225 68.7131 107.961 68.7131 107.686C68.7131 107.411 68.8187 107.146 69.0079 106.947C69.1971 106.748 69.4556 106.629 69.73 106.615H84.2503C84.5247 106.629 84.7833 106.748 84.9725 106.947C85.1617 107.146 85.2672 107.411 85.2672 107.686C85.2672 107.961 85.1617 108.225 84.9725 108.424C84.7833 108.624 84.5247 108.743 84.2503 108.757Z" fill="#00102C"/>
</g>
<defs>
<clipPath id="clip0_3_264">
<rect width="119.695" height="130" fill="white" transform="matrix(-1 0 0 1 119.848 0.5)"/>
</clipPath>
</defs>
</svg>
