<svg width="150" height="150" viewBox="0 0 150 150" fill="none" xmlns="http://www.w3.org/2000/svg">
<rect width="150" height="150" rx="75" fill="#B8C5D9"/>
<g clip-path="url(#clip0_41_3)">
<path d="M62.3541 60.4168C62.3541 59.1806 61.9875 57.9722 61.3008 56.9444C60.614 55.9166 59.6379 55.1156 58.4958 54.6425C57.3538 54.1695 56.0971 54.0457 54.8848 54.2868C53.6724 54.528 52.5587 55.1233 51.6847 55.9973C50.8106 56.8714 50.2153 57.9851 49.9742 59.1974C49.733 60.4098 49.8568 61.6665 50.3298 62.8085C50.8029 63.9506 51.6039 64.9267 52.6318 65.6134C53.6596 66.3002 54.8679 66.6668 56.1041 66.6668C57.7617 66.6668 59.3514 66.0083 60.5235 64.8362C61.6956 63.6641 62.3541 62.0744 62.3541 60.4168ZM52.7707 60.4168C52.7707 59.7575 52.9662 59.113 53.3325 58.5649C53.6988 58.0167 54.2194 57.5894 54.8285 57.3372C55.4375 57.0849 56.1078 57.0188 56.7544 57.1475C57.401 57.2761 57.9949 57.5936 58.4611 58.0597C58.9273 58.5259 59.2447 59.1198 59.3734 59.7665C59.502 60.4131 59.436 61.0833 59.1837 61.6924C58.9314 62.3014 58.5041 62.822 57.956 63.1883C57.4078 63.5546 56.7633 63.7501 56.1041 63.7501C55.22 63.7501 54.3722 63.3989 53.747 62.7738C53.1219 62.1487 52.7707 61.3008 52.7707 60.4168Z" fill="#EEF2F8"/>
<path d="M73.7083 80.7709L65.375 72.4375C64.9846 72.0495 64.4566 71.8317 63.9062 71.8317C63.3558 71.8317 62.8278 72.0495 62.4375 72.4375L49.8333 85.2084V91.1042L63.9791 76.9584L70.8333 83.7084L63.0208 91.5209H68.75L86.3541 73.9167L100 87.5V81.625L87.8958 69.5209C87.5055 69.1328 86.9775 68.915 86.4271 68.915C85.8767 68.915 85.3487 69.1328 84.9583 69.5209L73.7083 80.7709Z" fill="#EEF2F8"/>
<path d="M104.167 65.0416V99.9999H45.8333V49.9999H84.375C84.3804 48.5911 84.5766 47.1894 84.9583 45.8333H45.8333C44.7282 45.8333 43.6684 46.2722 42.887 47.0536C42.1056 47.835 41.6666 48.8949 41.6666 49.9999V99.9999C41.6666 101.105 42.1056 102.165 42.887 102.946C43.6684 103.728 44.7282 104.167 45.8333 104.167H104.167C105.272 104.167 106.332 103.728 107.113 102.946C107.894 102.165 108.333 101.105 108.333 99.9999V63.2083C107.042 64.0208 105.638 64.6386 104.167 65.0416Z" fill="#EEF2F8"/>
<path d="M100 60.4166C105.753 60.4166 110.417 55.7529 110.417 49.9999C110.417 44.247 105.753 39.5833 100 39.5833C94.2471 39.5833 89.5834 44.247 89.5834 49.9999C89.5834 55.7529 94.2471 60.4166 100 60.4166Z" fill="#EEF2F8"/>
</g>
<defs>
<clipPath id="clip0_41_3">
<rect width="75" height="75" fill="white" transform="translate(37.5 37.5)"/>
</clipPath>
</defs>
</svg>
