<svg width="48" height="48" viewBox="0 0 48 48" fill="none" xmlns="http://www.w3.org/2000/svg">
<rect width="48" height="48" rx="24" fill="#90A0C0"/>
<path d="M28.3065 13.5225C28.4994 13.5707 28.6653 13.6935 28.7677 13.864C28.8701 14.0344 28.9006 14.2386 28.8525 14.4315L28.4775 15.9315C28.4556 16.029 28.4144 16.1212 28.3563 16.2025C28.2982 16.2839 28.2245 16.3528 28.1394 16.4053C28.0543 16.4577 27.9596 16.4926 27.8608 16.508C27.7621 16.5233 27.6612 16.5187 27.5643 16.4945C27.4673 16.4704 27.3761 16.427 27.2961 16.3671C27.2161 16.3072 27.1489 16.2318 27.0984 16.1456C27.048 16.0593 27.0153 15.9638 27.0022 15.8647C26.9892 15.7656 26.9961 15.6649 27.0225 15.5685L27.3975 14.0685C27.4457 13.8756 27.5685 13.7097 27.739 13.6073C27.9094 13.5049 28.1136 13.4744 28.3065 13.5225ZM32.781 15.219C32.8509 15.2887 32.9063 15.3714 32.9441 15.4626C32.9819 15.5537 33.0014 15.6514 33.0014 15.75C33.0014 15.8487 32.9819 15.9463 32.9441 16.0375C32.9063 16.1286 32.8509 16.2113 32.781 16.281L31.281 17.781C31.2113 17.8507 31.1285 17.906 31.0374 17.9438C30.9463 17.9815 30.8486 18.001 30.75 18.001C30.6514 18.001 30.5537 17.9815 30.4626 17.9438C30.3715 17.906 30.2887 17.8507 30.219 17.781C30.1493 17.7113 30.094 17.6285 30.0562 17.5374C30.0185 17.4463 29.9991 17.3486 29.9991 17.25C29.9991 17.1514 30.0185 17.0537 30.0562 16.9626C30.094 16.8715 30.1493 16.7887 30.219 16.719L31.719 15.219C31.7887 15.1492 31.8714 15.0937 31.9626 15.0559C32.0537 15.0181 32.1514 14.9987 32.25 14.9987C32.3487 14.9987 32.4463 15.0181 32.5375 15.0559C32.6286 15.0937 32.7113 15.1492 32.781 15.219ZM21.426 31.548C21.8026 32.1741 22.3948 32.6413 23.0913 32.8619C23.7879 33.0824 24.5411 33.0412 25.2094 32.7458C25.8777 32.4505 26.4153 31.9215 26.7212 31.2579C27.0272 30.5944 27.0804 29.842 26.871 29.142L21.426 31.548ZM20.046 32.1585L18.549 32.82C18.162 32.9915 17.7322 33.042 17.3159 32.9649C16.8997 32.8878 16.5165 32.6867 16.2165 32.388L15.6165 31.788C15.3176 31.4904 15.1157 31.1094 15.0373 30.695C14.9588 30.2806 15.0075 29.8522 15.177 29.466L20.9835 16.2525C21.1212 15.9406 21.3328 15.667 21.6 15.4552C21.8672 15.2434 22.1819 15.0998 22.517 15.0369C22.8521 14.974 23.1975 14.9936 23.5233 15.0941C23.8491 15.1945 24.1455 15.3728 24.387 15.6135L32.385 23.5875C32.626 23.8278 32.8047 24.1233 32.9056 24.4483C33.0066 24.7732 33.0268 25.1179 32.9644 25.4525C32.902 25.787 32.759 26.1013 32.5478 26.3681C32.3365 26.6349 32.0634 26.8461 31.752 26.9835L28.2495 28.5315C28.6197 29.5985 28.5752 30.7658 28.1247 31.8015C27.6743 32.8372 26.8508 33.6656 25.8178 34.1223C24.7848 34.579 23.6179 34.6306 22.5487 34.2668C21.4794 33.903 20.5861 33.1504 20.046 32.1585ZM33.75 19.5H32.25C32.0511 19.5 31.8603 19.579 31.7197 19.7197C31.579 19.8603 31.5 20.0511 31.5 20.25C31.5 20.4489 31.579 20.6397 31.7197 20.7803C31.8603 20.921 32.0511 21 32.25 21H33.75C33.9489 21 34.1397 20.921 34.2803 20.7803C34.421 20.6397 34.5 20.4489 34.5 20.25C34.5 20.0511 34.421 19.8603 34.2803 19.7197C34.1397 19.579 33.9489 19.5 33.75 19.5Z" fill="white"/>
</svg>
