<svg width="300" height="169" viewBox="0 0 300 169" fill="none" xmlns="http://www.w3.org/2000/svg">
<g clip-path="url(#clip0_14_305)">
<path d="M289.286 39.4169V128.894H300V37.6447L289.286 39.4169Z" fill="#2263D3"/>
<path d="M267.857 53.706V128.894H278.571V41.1925L267.857 42.9648V53.706Z" fill="#2263D3"/>
<path d="M246.429 72.6548C240.543 67.3567 232.91 64.4307 225 64.4409C216.475 64.4409 208.299 67.8359 202.272 73.879C196.244 79.9221 192.857 88.1183 192.857 96.6645C192.857 105.211 196.244 113.407 202.272 119.45C208.299 125.493 216.475 128.888 225 128.888C232.91 128.898 240.543 125.972 246.429 120.674V128.888H257.143V64.4409L246.429 66.2322V72.6548ZM225 118.147C219.317 118.147 213.866 115.884 209.848 111.855C205.829 107.826 203.571 102.362 203.571 96.6645C203.571 90.967 205.829 85.5028 209.848 81.4741C213.866 77.4454 219.317 75.1821 225 75.1821C230.683 75.1821 236.134 77.4454 240.152 81.4741C244.171 85.5028 246.429 90.967 246.429 96.6645C246.429 99.4862 245.876 102.28 244.799 104.887C243.723 107.494 242.144 109.863 240.154 111.859C238.165 113.854 235.802 115.437 233.202 116.517C230.602 117.597 227.815 118.153 225 118.153V118.147Z" fill="#2263D3"/>
<path d="M171.429 75.1884C171.429 80.8859 169.171 86.3499 165.152 90.3786C161.134 94.4074 155.683 96.6708 150 96.6708V37.6447L139.286 39.4169V128.894H150V107.412C155.683 107.412 161.134 109.675 165.152 113.704C169.171 117.733 171.429 123.197 171.429 128.894H182.143C182.146 123.576 180.836 118.34 178.327 113.654C175.819 108.968 172.192 104.979 167.77 102.041C172.192 99.1042 175.819 95.1141 178.327 90.4282C180.836 85.7422 182.146 80.5063 182.143 75.1884V51.9179L171.429 53.706V75.1884Z" fill="#2263D3"/>
<path d="M117.857 62.6591V128.894H128.571V60.8678V41.1893L117.857 42.9616V62.6591Z" fill="#2263D3"/>
<path d="M96.4285 72.6548C90.5433 67.3567 82.9098 64.4307 75 64.4409C66.4752 64.4409 58.2995 67.8359 52.2715 73.879C46.2436 79.9221 42.8571 88.1183 42.8571 96.6645C42.8571 105.211 46.2436 113.407 52.2715 119.45C58.2995 125.493 66.4752 128.888 75 128.888C82.9098 128.898 90.5433 125.972 96.4285 120.674V128.888H107.143V64.4409L96.4285 66.2322V72.6548ZM75 118.147C69.3168 118.147 63.8664 115.884 59.8478 111.855C55.8291 107.826 53.5714 102.362 53.5714 96.6645C53.5714 90.967 55.8291 85.5028 59.8478 81.4741C63.8664 77.4454 69.3168 75.1821 75 75.1821C80.6832 75.1821 86.1337 77.4454 90.1523 81.4741C94.171 85.5028 96.4285 90.967 96.4285 96.6645C96.4294 99.4862 95.8757 102.28 94.7992 104.887C93.7227 107.494 92.1444 109.863 90.1545 111.859C88.1646 113.854 85.8021 115.437 83.2019 116.517C80.6016 117.597 77.8145 118.153 75 118.153V118.147Z" fill="#2263D3"/>
<path d="M21.4286 96.6708V69.6599L42.8571 66.1152V55.374L21.4286 58.9218V37.6479L10.7143 39.4233V60.694L0 62.4664V73.2076L10.7143 71.4352V96.6739C10.7095 101.207 11.6616 105.69 13.5083 109.828C15.3549 113.966 18.0541 117.666 21.4286 120.684C27.3137 125.982 34.9473 128.908 42.8571 128.897V118.156C40.0428 118.156 37.2561 117.6 34.656 116.521C32.056 115.441 29.6936 113.858 27.7037 111.863C25.7138 109.868 24.1355 107.499 23.0588 104.893C21.9821 102.286 21.4282 99.4922 21.4286 96.6708Z" fill="#2263D3"/>
<path d="M158.108 147.107L162.022 149.495C164.036 150.718 165.681 152.424 165.681 155.267C165.681 158.963 162.873 161.38 158.817 161.38C154.421 161.38 152.2 158.679 151.727 155.239L155.272 153.931C155.471 155.637 156.577 157.769 158.931 157.769C160.661 157.769 161.597 156.689 161.597 155.381C161.597 154.414 161.2 153.504 159.867 152.708L156.321 150.604C154.393 149.467 152.464 148.187 152.464 144.918C152.464 141.85 154.847 139.149 158.789 139.149C162.504 139.149 164.603 141.026 165.454 144.093L161.987 145.357C161.307 143.398 160.144 142.687 158.669 142.687C157.336 142.687 156.4 143.483 156.4 144.706C156.407 145.856 157.002 146.453 158.108 147.107Z" fill="#2263D3"/>
<path d="M167.921 150.263C167.921 143.783 172.431 139.149 178.755 139.149C185.08 139.149 189.589 143.783 189.589 150.263C189.589 156.742 185.08 161.38 178.755 161.38C172.308 161.38 167.921 156.746 167.921 150.263ZM185.477 150.235C185.477 145.827 182.811 142.757 178.755 142.757C174.7 142.757 172.034 145.827 172.034 150.235C172.034 154.698 174.7 157.741 178.755 157.741C182.811 157.741 185.477 154.698 185.477 150.235Z" fill="#2263D3"/>
<path d="M192.823 139.604H196.85V157.371H204.507V160.925H192.823V139.604Z" fill="#2263D3"/>
<path d="M222.573 153.334C222.573 158.054 219.422 161.38 214.49 161.38C209.499 161.38 206.379 158.054 206.379 153.334V139.604H210.406V153.675C210.406 156.092 212.08 157.782 214.503 157.782C216.926 157.782 218.559 156.104 218.559 153.675V139.604H222.586L222.573 153.334Z" fill="#2263D3"/>
<path d="M233.408 163.854L235.223 161.326C229.38 160.758 225.608 156.322 225.608 150.269C225.608 143.79 230.146 139.155 236.471 139.155C240.252 139.155 243.306 140.833 245.149 143.562L242.398 145.862C241.745 144.892 240.861 144.101 239.826 143.56C238.791 143.018 237.638 142.745 236.471 142.763C232.472 142.763 229.721 145.834 229.721 150.241C229.721 154.705 232.472 157.747 236.471 157.747C237.633 157.76 238.78 157.483 239.81 156.942C240.839 156.401 241.719 155.613 242.37 154.648L245.036 157.036C244.229 158.248 243.159 159.26 241.907 159.999C240.654 160.737 239.252 161.183 237.804 161.301L236.754 162.837C238.739 162.865 240.158 164.059 240.158 165.737C240.158 167.755 238.399 169.006 236.061 169.006C234.643 169.006 233.48 168.58 232.828 167.812L234.088 165.964C234.485 166.334 234.996 166.647 236.045 166.647C237.18 166.647 237.621 166.305 237.621 165.737C237.621 165.168 237.054 164.827 236.004 164.827C235.392 164.806 234.788 164.975 234.274 165.31L233.408 163.854Z" fill="#2263D3"/>
<path d="M246.312 150.263C246.312 143.783 250.821 139.149 257.146 139.149C263.471 139.149 267.98 143.783 267.98 150.263C267.98 156.742 263.471 161.38 257.146 161.38C250.708 161.38 246.312 156.745 246.312 150.263ZM263.868 150.234C263.868 145.827 261.202 142.757 257.146 142.757C253.09 142.757 250.424 145.827 250.424 150.234C250.424 154.698 253.09 157.741 257.146 157.741C261.202 157.741 263.868 154.698 263.868 150.234ZM259.954 138.268C258.933 138.268 258.309 137.898 257.713 137.614L256.012 136.761C255.728 136.618 255.217 136.306 254.751 136.306C253.985 136.306 253.872 136.937 253.928 137.983H251.376C251.149 135.083 252.454 133.775 254.382 133.775C255.145 133.782 255.891 134.001 256.538 134.407L258.239 135.317C258.631 135.542 259.066 135.678 259.516 135.715C260.225 135.715 260.395 135.083 260.338 134.066H262.891C263.102 136.96 261.826 138.268 259.954 138.268Z" fill="#2263D3"/>
<path d="M271.213 139.604H283.635V143.126H275.241V148.443H283.068V151.884H275.241V157.371H283.777V160.925H271.213V139.604Z" fill="#2263D3"/>
<path d="M292.428 147.107L296.341 149.495C298.355 150.718 300 152.424 300 155.267C300 158.963 297.192 161.38 293.137 161.38C288.725 161.38 286.519 158.679 286.046 155.239L289.591 153.931C289.79 155.637 290.896 157.769 293.25 157.769C294.98 157.769 295.916 156.689 295.916 155.381C295.916 154.414 295.519 153.504 294.186 152.708L290.641 150.604C288.712 149.467 286.784 148.187 286.784 144.918C286.784 141.85 289.166 139.149 293.108 139.149C296.823 139.149 298.922 141.026 299.773 144.093L296.307 145.357C295.626 143.398 294.463 142.687 292.988 142.687C291.655 142.687 290.719 143.483 290.719 144.706C290.726 145.856 291.321 146.453 292.428 147.107Z" fill="#2263D3"/>
</g>
<defs>
<clipPath id="clip0_14_305">
<rect width="300" height="169" fill="white"/>
</clipPath>
</defs>
</svg>
