<svg width="300" height="75" viewBox="0 0 300 75" fill="none" xmlns="http://www.w3.org/2000/svg">
<g clip-path="url(#clip0_140_999)">
<path d="M123.966 64.4286H127.795V73.5202H122.334C118.402 73.5202 115.359 72.6522 113.206 70.9161C111.053 69.18 109.975 66.2008 109.972 61.9786V47.3954H106.708V38.483H109.972V29.9414H120.703V38.483H127.745V47.4038H120.703V61.987C120.703 63.6147 121.79 64.4286 123.966 64.4286Z" fill="white"/>
<path d="M137.211 68.9369C134.114 65.6035 132.565 61.3161 132.565 56.0745C132.565 50.8328 134.114 46.5273 137.211 43.1579C140.305 39.7885 144.087 38.1038 148.558 38.1038C153.028 38.1038 156.448 39.7579 158.818 43.0662V38.4829H169.549V73.5202H158.797V68.4494C156.203 72.1382 152.734 73.9813 148.391 73.9785C144.048 73.9757 140.321 72.2952 137.211 68.9369ZM156.466 62.4202C158.015 60.9119 158.789 58.7758 158.789 56.012C158.789 53.2481 158.015 51.1217 156.466 49.6328C155.769 48.9241 154.937 48.3618 154.02 47.9791C153.103 47.5963 152.119 47.4007 151.125 47.4038C150.131 47.4069 149.148 47.6086 148.233 47.9971C147.319 48.3856 146.491 48.9531 145.798 49.6662C144.249 51.1745 143.475 53.3106 143.475 56.0745C143.475 58.8383 144.249 60.9633 145.798 62.4494C146.495 63.1579 147.327 63.7201 148.244 64.1029C149.161 64.4857 150.145 64.6814 151.138 64.6787C152.132 64.676 153.115 64.4748 154.03 64.087C154.944 63.6992 155.773 63.1326 156.466 62.4202Z" fill="white"/>
<path d="M177.466 73.5203V27.0498H188.197V73.5203H177.466Z" fill="white"/>
<path d="M206.865 73.5203H196.134V27.0498H206.865V53.1038L217.725 38.4664H232.16L217.175 56.3829L232.16 73.5328H217.912L206.865 59.5245V73.5203Z" fill="white"/>
<path d="M242.517 69.0453C239.378 65.6759 237.81 61.3621 237.813 56.1038C237.816 50.8455 239.374 46.5955 242.487 43.3539C245.601 40.1094 249.523 38.4858 254.255 38.4831C256.964 38.4265 259.632 39.1495 261.943 40.5664C264.074 41.877 265.803 43.7515 266.938 45.983V39.0497H272.707V73.5203H266.934V66.5037C265.804 68.7597 264.076 70.6611 261.939 71.9995C259.634 73.4326 256.963 74.1637 254.251 74.1036C252.047 74.15 249.859 73.7225 247.835 72.8499C245.811 71.9772 243.997 70.6798 242.517 69.0453ZM263.512 65.687C265.79 63.3426 266.931 60.2218 266.934 56.3246C266.936 52.4274 265.796 49.308 263.512 46.9663C262.462 45.8392 261.188 44.9438 259.773 44.3376C258.357 43.7313 256.831 43.4275 255.291 43.4455C253.761 43.4257 252.243 43.7176 250.829 44.3035C249.415 44.8894 248.135 45.7571 247.066 46.8538C244.785 49.1177 243.646 52.1968 243.649 56.0913C243.652 59.9857 244.802 63.1468 247.099 65.5745C248.139 66.7124 249.402 67.6235 250.809 68.2508C252.216 68.878 253.737 69.2081 255.278 69.2202C256.818 69.2323 258.344 68.9263 259.761 68.3212C261.178 67.7162 262.455 66.8251 263.512 65.7037V65.687Z" fill="white"/>
<path d="M280.641 73.5203V27.0498H286.335V73.5203H280.641Z" fill="white"/>
<path d="M294.289 73.5203V27.0498H300V73.5203H294.289Z" fill="white"/>
<path d="M109.972 4.21256V3.5459H114.987V4.21256H112.881V11.5833H112.078V4.21256H109.972Z" fill="white"/>
<path d="M122.118 5.22485H122.95V11.5831H122.118V10.5456C121.915 10.9204 121.608 11.2286 121.234 11.4333C120.861 11.638 120.436 11.7305 120.011 11.6998C119.686 11.7097 119.362 11.6548 119.059 11.5382C118.755 11.4216 118.478 11.2457 118.242 11.0206C117.995 10.7531 117.804 10.4377 117.682 10.0938C117.561 9.74985 117.51 9.38469 117.535 9.02066V5.22485H118.338V8.85816C118.297 9.43489 118.477 10.0056 118.842 10.454C119.218 10.8045 119.714 10.9994 120.228 10.9994C120.742 10.9994 121.237 10.8045 121.614 10.454C121.979 10.0056 122.159 9.43489 122.118 8.85816V5.22485Z" fill="white"/>
<path d="M126.309 10.754C125.716 10.0973 125.402 9.23467 125.435 8.34986C125.418 7.92353 125.485 7.49799 125.634 7.09809C125.783 6.69818 126.009 6.33193 126.301 6.02071C126.587 5.72677 126.93 5.49566 127.31 5.34213C127.69 5.1886 128.098 5.11603 128.507 5.12905C129.041 5.11692 129.566 5.26179 130.018 5.54572C130.437 5.80626 130.773 6.18242 130.984 6.62904V2.9624H131.816V11.5832H130.984V10.1873C130.772 10.6343 130.437 11.0115 130.018 11.2748C129.567 11.5604 129.041 11.7054 128.507 11.6915C128.095 11.7031 127.685 11.6253 127.306 11.4635C126.926 11.3017 126.587 11.0597 126.309 10.754ZM130.293 10.2832C130.527 10.0317 130.709 9.73602 130.828 9.41334C130.946 9.09066 130.999 8.74752 130.984 8.40403C130.999 8.05989 130.946 7.71609 130.828 7.39272C130.709 7.06935 130.527 6.7729 130.293 6.52071C130.078 6.29707 129.82 6.11864 129.535 5.99587C129.251 5.8731 128.944 5.80847 128.634 5.80575C128.324 5.80304 128.016 5.86229 127.729 5.98005C127.442 6.09781 127.182 6.2717 126.963 6.49154C126.728 6.73809 126.546 7.03012 126.428 7.34968C126.31 7.66925 126.258 8.00961 126.276 8.34986C126.248 9.05392 126.498 9.74072 126.971 10.2623C127.18 10.4974 127.436 10.6849 127.724 10.8122C128.011 10.9394 128.322 11.0034 128.636 10.9998C128.947 11.0027 129.255 10.9405 129.54 10.817C129.826 10.6936 130.082 10.5117 130.293 10.2832Z" fill="white"/>
<path d="M137.377 11.6999C136.964 11.7153 136.551 11.6422 136.168 11.4856C135.785 11.329 135.439 11.0924 135.155 10.7916C134.568 10.1404 134.262 9.28414 134.301 8.40828C134.283 7.96955 134.354 7.53171 134.51 7.1213C134.666 6.71089 134.904 6.33649 135.209 6.0208C135.819 5.43557 136.632 5.10889 137.477 5.10889C138.323 5.10889 139.135 5.43557 139.746 6.0208C140.049 6.33508 140.285 6.70755 140.44 7.11574C140.595 7.52393 140.666 7.95937 140.649 8.39578C140.666 8.8377 140.589 9.2782 140.425 9.68876C140.261 10.0993 140.013 10.4708 139.696 10.7791C139.39 11.0788 139.027 11.3145 138.629 11.4726C138.231 11.6306 137.805 11.7079 137.377 11.6999ZM137.377 11.0458C137.695 11.0495 138.011 10.9886 138.305 10.8669C138.599 10.7451 138.865 10.565 139.088 10.3374C139.336 10.0809 139.528 9.77617 139.653 9.4422C139.779 9.10823 139.834 8.75208 139.817 8.39578C139.836 8.04403 139.785 7.69193 139.667 7.36C139.549 7.02807 139.367 6.72296 139.13 6.46246C138.916 6.23674 138.657 6.05769 138.371 5.93653C138.084 5.81537 137.776 5.75469 137.465 5.7583C137.153 5.7492 136.844 5.80697 136.556 5.92771C136.269 6.04845 136.011 6.22937 135.8 6.4583C135.33 6.99331 135.09 7.69289 135.134 8.40411C135.093 9.10853 135.317 9.80266 135.762 10.3499C135.964 10.5763 136.213 10.7559 136.491 10.8761C136.769 10.9962 137.07 11.0542 137.373 11.0458H137.377Z" fill="white"/>
<path d="M148.25 10.7916C147.672 10.135 147.373 9.27817 147.417 8.4041C147.371 7.52971 147.67 6.6721 148.25 6.01662C148.532 5.71573 148.875 5.47894 149.256 5.32224C149.638 5.16553 150.048 5.09258 150.46 5.10829C151.95 5.10829 152.898 5.77496 153.303 7.10828H152.429C152.314 6.70708 152.066 6.35718 151.725 6.11662C151.356 5.87077 150.92 5.74557 150.477 5.75829C150.174 5.74657 149.872 5.80129 149.592 5.9186C149.312 6.03592 149.062 6.213 148.858 6.43745C148.413 6.98771 148.193 7.68575 148.241 8.3916C148.194 9.09997 148.413 9.80047 148.858 10.3541C149.058 10.5797 149.305 10.7582 149.582 10.8771C149.859 10.9959 150.159 11.0521 150.46 11.0416C150.903 11.0555 151.339 10.9318 151.709 10.6874C152.05 10.4453 152.298 10.094 152.412 9.69159H153.286C153.113 10.2656 152.771 10.7738 152.304 11.1499C151.692 11.5627 150.957 11.7524 150.222 11.6872C149.487 11.6219 148.796 11.3057 148.266 10.7916H148.25Z" fill="white"/>
<path d="M158.623 11.6999C158.209 11.7153 157.797 11.6422 157.414 11.4856C157.03 11.329 156.685 11.0924 156.4 10.7916C155.821 10.1372 155.522 9.28126 155.568 8.40828C155.548 7.97014 155.618 7.53265 155.773 7.12227C155.927 6.7119 156.163 6.33718 156.467 6.0208C157.077 5.43557 157.89 5.10889 158.735 5.10889C159.58 5.10889 160.393 5.43557 161.004 6.0208C161.308 6.33417 161.546 6.70639 161.702 7.11473C161.858 7.52307 161.929 7.95896 161.911 8.39578C161.928 8.8377 161.851 9.2782 161.687 9.68876C161.523 10.0993 161.275 10.4708 160.958 10.7791C160.65 11.0808 160.284 11.3177 159.883 11.4758C159.482 11.634 159.054 11.7102 158.623 11.6999ZM158.623 11.0458C158.941 11.0495 159.257 10.9886 159.551 10.8669C159.845 10.7451 160.111 10.565 160.333 10.3374C160.578 10.0795 160.767 9.77415 160.89 9.44025C161.012 9.10634 161.065 8.7509 161.045 8.39578C161.065 8.04403 161.014 7.69193 160.896 7.36C160.778 7.02807 160.595 6.72296 160.358 6.46246C160.144 6.23674 159.886 6.05769 159.599 5.93653C159.313 5.81537 159.004 5.75469 158.693 5.7583C158.382 5.7492 158.072 5.80697 157.785 5.92771C157.498 6.04845 157.24 6.22937 157.029 6.4583C156.56 6.99446 156.321 7.6932 156.363 8.40411C156.322 9.10853 156.546 9.80266 156.991 10.3499C157.195 10.5785 157.446 10.7594 157.727 10.8796C158.009 10.9999 158.313 11.0566 158.619 11.0458H158.623Z" fill="white"/>
<path d="M165.207 5.22495V6.25827C165.411 5.88465 165.718 5.5776 166.092 5.37371C166.465 5.16982 166.889 5.07769 167.314 5.10828C167.64 5.09906 167.964 5.15554 168.268 5.27435C168.572 5.39317 168.849 5.5719 169.083 5.79994C169.33 6.06688 169.521 6.38158 169.642 6.72477C169.764 7.06795 169.814 7.43239 169.79 7.79576V11.5832H168.995V7.94992C169.037 7.3731 168.857 6.80205 168.492 6.3541C168.116 6.00078 167.621 5.80406 167.106 5.80406C166.59 5.80406 166.095 6.00078 165.719 6.3541C165.351 6.80082 165.168 7.37199 165.207 7.94992V11.5832H164.375V5.22495H165.207Z" fill="white"/>
<path d="M175.301 11.6999C174.89 11.7135 174.48 11.6396 174.099 11.483C173.718 11.3264 173.374 11.0908 173.091 10.7916C172.512 10.1324 172.213 9.27258 172.258 8.39581C172.222 7.52222 172.53 6.66928 173.116 6.02083C173.407 5.72196 173.757 5.48747 174.145 5.33245C174.532 5.17744 174.947 5.10535 175.364 5.12084C175.767 5.09996 176.17 5.16325 176.548 5.30671C176.926 5.45017 177.269 5.67065 177.557 5.95416C177.829 6.23286 178.042 6.56276 178.185 6.92469C178.328 7.28662 178.397 7.67337 178.39 8.06248C178.391 8.27323 178.374 8.4837 178.34 8.69164H173.078C173.073 9.32928 173.311 9.94487 173.744 10.4125C173.946 10.6198 174.189 10.7828 174.457 10.8911C174.725 10.9995 175.012 11.0507 175.301 11.0416C175.742 11.0543 176.176 10.9369 176.55 10.7041C176.884 10.5001 177.14 10.1908 177.278 9.82496H178.148C177.944 10.363 177.588 10.8303 177.124 11.1708C176.592 11.5439 175.951 11.73 175.301 11.6999ZM177.524 8.05414C177.538 7.74779 177.489 7.44182 177.38 7.15514C177.271 6.86847 177.105 6.6072 176.891 6.38749C176.467 5.98969 175.908 5.76834 175.326 5.76834C174.745 5.76834 174.185 5.98969 173.761 6.38749C173.331 6.83635 173.087 7.43206 173.078 8.05414H177.524Z" fill="white"/>
<path d="M181.295 10.7915C180.717 10.1349 180.418 9.27809 180.463 8.40402C180.416 7.52964 180.715 6.67203 181.295 6.01654C181.579 5.71348 181.925 5.47541 182.309 5.31863C182.694 5.16186 183.107 5.09008 183.522 5.10822C185.012 5.10822 185.959 5.77488 186.361 7.1082H185.487C185.371 6.70442 185.117 6.35378 184.771 6.11654C184.402 5.87044 183.965 5.74522 183.522 5.75821C183.218 5.74588 182.916 5.8003 182.635 5.91763C182.355 6.03497 182.103 6.21237 181.899 6.43737C181.455 6.98764 181.234 7.68567 181.283 8.39153C181.235 9.09989 181.455 9.8004 181.899 10.354C182.102 10.5813 182.353 10.761 182.634 10.8805C182.914 11.0001 183.217 11.0564 183.522 11.0457C183.965 11.0602 184.401 10.9364 184.771 10.6915C185.113 10.4506 185.362 10.0989 185.474 9.69568H186.348C186.168 10.2728 185.815 10.7805 185.337 11.1498C184.725 11.5627 183.99 11.7523 183.255 11.6871C182.52 11.6219 181.829 11.3057 181.299 10.7915H181.295Z" fill="white"/>
<path d="M191.847 5.86247H190.086V10.0791C190.062 10.3184 190.129 10.5581 190.274 10.7499C190.462 10.8991 190.701 10.968 190.94 10.9416H191.847V11.5833H190.765C189.769 11.5833 189.272 11.0819 189.275 10.0791V5.86247H188.388V5.22497H189.275V3.62915H190.107V5.22497H191.847V5.86247Z" fill="white"/>
<path d="M194.569 10.754C193.979 10.0958 193.667 9.23381 193.699 8.34985C193.682 7.92352 193.75 7.49798 193.898 7.09808C194.047 6.69817 194.274 6.33192 194.565 6.0207C194.851 5.72634 195.194 5.49496 195.574 5.3414C195.954 5.18784 196.362 5.11551 196.771 5.12904C197.305 5.1174 197.83 5.26223 198.282 5.54571C198.701 5.80752 199.036 6.18333 199.248 6.62903V5.22488H200.08V11.5832H199.248V10.1873C199.035 10.6334 198.7 11.0103 198.282 11.2748C197.831 11.5597 197.305 11.7046 196.771 11.6915C196.359 11.7026 195.948 11.6246 195.568 11.4628C195.188 11.3011 194.848 11.0593 194.569 10.754ZM198.557 10.2832C198.791 10.0312 198.972 9.7354 199.09 9.41285C199.209 9.0903 199.263 8.74741 199.248 8.40402C199.263 8.05998 199.209 7.71644 199.091 7.3932C198.972 7.06995 198.791 6.77342 198.557 6.5207C198.342 6.29706 198.084 6.11863 197.8 5.99586C197.515 5.87309 197.208 5.80846 196.898 5.80574C196.588 5.80303 196.281 5.86228 195.994 5.98004C195.707 6.0978 195.446 6.27169 195.227 6.49153C194.992 6.73808 194.81 7.03011 194.692 7.34967C194.574 7.66924 194.522 8.0096 194.54 8.34985C194.511 9.05341 194.759 9.74029 195.231 10.2623C195.44 10.497 195.697 10.6842 195.984 10.8114C196.271 10.9386 196.582 11.0029 196.896 10.9998C197.208 11.0033 197.516 10.9413 197.803 10.8179C198.089 10.6944 198.346 10.5123 198.557 10.2832Z" fill="white"/>
<path d="M203.436 10.754C202.843 10.0969 202.531 9.23416 202.566 8.34986C202.548 7.92353 202.616 7.49799 202.764 7.09808C202.913 6.69818 203.14 6.33193 203.431 6.02071C203.717 5.72635 204.06 5.49497 204.44 5.34141C204.82 5.18785 205.228 5.11552 205.638 5.12905C206.171 5.1174 206.696 5.26224 207.149 5.54571C207.567 5.80752 207.902 6.18333 208.114 6.62904V2.9624H208.947V11.5832H208.114V10.1873C207.901 10.6334 207.566 11.0103 207.149 11.2748C206.697 11.5597 206.171 11.7046 205.638 11.6915C205.225 11.7026 204.815 11.6246 204.435 11.4628C204.055 11.3011 203.714 11.0593 203.436 10.754ZM207.423 10.2832C207.657 10.0312 207.838 9.73541 207.957 9.41286C208.075 9.09031 208.129 8.74742 208.114 8.40402C208.129 8.05999 208.075 7.71644 207.957 7.3932C207.838 7.06996 207.657 6.77343 207.423 6.52071C207.208 6.29706 206.951 6.11863 206.666 5.99587C206.381 5.8731 206.075 5.80847 205.764 5.80575C205.454 5.80303 205.147 5.86229 204.86 5.98005C204.573 6.09781 204.312 6.2717 204.093 6.49154C203.858 6.73809 203.676 7.03012 203.558 7.34968C203.44 7.66925 203.388 8.00961 203.406 8.34986C203.377 9.05341 203.625 9.7403 204.097 10.2623C204.306 10.497 204.563 10.6842 204.85 10.8114C205.137 10.9386 205.448 11.0029 205.762 10.9998C206.074 11.0028 206.382 10.9406 206.668 10.8172C206.954 10.6937 207.212 10.5119 207.423 10.2832Z" fill="white"/>
<path d="M214.508 11.6999C214.094 11.7153 213.682 11.6422 213.299 11.4856C212.915 11.329 212.57 11.0924 212.285 10.7916C211.698 10.1404 211.392 9.28414 211.432 8.40828C211.413 7.96945 211.483 7.53132 211.639 7.12077C211.795 6.71023 212.033 6.33592 212.339 6.0208C212.95 5.43557 213.762 5.10889 214.608 5.10889C215.453 5.10889 216.266 5.43557 216.876 6.0208C217.18 6.33473 217.417 6.70705 217.573 7.11525C217.729 7.52346 217.8 7.95907 217.784 8.39578C217.798 8.83819 217.72 9.27875 217.554 9.68919C217.389 10.0996 217.139 10.4709 216.822 10.7791C216.516 11.0783 216.154 11.3137 215.757 11.4718C215.36 11.6298 214.935 11.7074 214.508 11.6999ZM214.508 11.0458C214.826 11.0502 215.142 10.9897 215.436 10.8679C215.73 10.7461 215.996 10.5656 216.218 10.3374C216.466 10.0809 216.658 9.77616 216.783 9.4421C216.907 9.10804 216.962 8.75186 216.943 8.39578C216.962 8.04403 216.911 7.69193 216.794 7.36C216.676 7.02807 216.493 6.72296 216.256 6.46246C216.042 6.23694 215.783 6.05803 215.497 5.93688C215.21 5.81573 214.902 5.75494 214.591 5.7583C214.28 5.75001 213.97 5.80815 213.683 5.92884C213.396 6.04953 213.138 6.23002 212.926 6.4583C212.451 6.99164 212.206 7.69084 212.243 8.40411C212.201 9.10879 212.425 9.80365 212.872 10.3499C213.075 10.5785 213.327 10.7594 213.608 10.8796C213.889 10.9999 214.194 11.0566 214.499 11.0458H214.508Z" fill="white"/>
<path d="M67.494 73.5203C65.1255 72.5329 61.704 70.7079 59.2482 67.7162C58.1701 66.4037 56.0181 64.9912 53.837 64.9912H48.3675C48.0521 64.9544 47.7476 64.8533 47.4728 64.6942C47.1979 64.5352 46.9584 64.3214 46.7691 64.0663L33.3161 40.7331C33.1903 40.441 33.1255 40.1262 33.1255 39.8081C33.1255 39.49 33.1903 39.1753 33.3161 38.8831L46.7691 15.55C46.9586 15.2954 47.1982 15.0823 47.4731 14.924C47.748 14.7656 48.0524 14.6653 48.3675 14.6292H75.2736C75.593 14.6718 75.9001 14.7805 76.1752 14.9483C76.4504 15.1162 76.6877 15.3395 76.872 15.6041L90.325 38.9373C90.4507 39.2294 90.5156 39.5442 90.5156 39.8623C90.5156 40.1804 90.4507 40.4951 90.325 40.7873L76.872 64.1204C76.6818 64.3743 76.442 64.5869 76.1672 64.7452C75.8925 64.9035 75.5884 65.0042 75.2736 65.0412H72.056C70.8417 65.0412 69.6771 65.5241 68.8184 66.3837C67.9597 67.2432 67.4773 68.409 67.4773 69.6245L67.494 73.5203Z" fill="white"/>
<path d="M29.4786 42.9788C28.9602 42.013 28.6889 40.9336 28.6889 39.8372C28.6889 38.7407 28.9602 37.6614 29.4786 36.6955L42.9317 13.3624C43.511 12.4333 44.31 11.6614 45.2581 11.1149C46.2063 10.5685 47.2743 10.2642 48.3678 10.2291H52.6094L47.8808 2.03332C47.4961 1.44093 46.9769 0.947962 46.3657 0.594604C45.7544 0.241245 45.0684 0.0375059 44.3636 0H17.4409C16.7361 0.0381653 16.0504 0.242183 15.4392 0.595482C14.8281 0.948781 14.3088 1.4414 13.9236 2.03332L0.470554 25.3665C0.150315 25.9971 -0.0166016 26.6945 -0.0166016 27.4019C-0.0166016 28.1093 0.150315 28.8067 0.470554 29.4373L13.9236 52.7704C14.3125 53.3561 14.8334 53.8423 15.4443 54.1897C16.0552 54.537 16.7391 54.736 17.4409 54.7704H20.6584C21.2803 54.7715 21.8764 55.0196 22.3157 55.4602C22.7551 55.9007 23.0019 56.4978 23.0019 57.1204V64.2037C23.0019 64.2037 30.5234 62.3703 35.1812 56.7037C35.6017 56.2144 36.1047 55.8026 36.6672 55.4871L29.4786 42.9788Z" fill="white"/>
</g>
<defs>
<clipPath id="clip0_140_999">
<rect width="300" height="74.1036" fill="white"/>
</clipPath>
</defs>
</svg>
