<svg width="18" height="18" viewBox="0 0 18 18" fill="none" xmlns="http://www.w3.org/2000/svg">
<path d="M15.9452 8.6414L10.1629 2.85908C10.0618 2.75803 9.93301 2.68922 9.79282 2.66134C9.65263 2.63346 9.50733 2.64778 9.37527 2.70247C9.24322 2.75717 9.13035 2.84978 9.05092 2.96862C8.9715 3.08745 8.92909 3.22716 8.92906 3.3701V5.93238C6.95461 6.1151 5.11941 7.02803 3.78258 8.49252C2.44576 9.95701 1.70354 11.8677 1.70117 13.8505V14.9347C1.70129 15.0848 1.74809 15.231 1.83509 15.3533C1.92208 15.4755 2.04497 15.5677 2.18669 15.6169C2.32841 15.6662 2.48195 15.6701 2.626 15.6281C2.77006 15.5862 2.89749 15.5005 2.99063 15.3829C3.69885 14.5409 4.56771 13.8485 5.54648 13.346C6.52525 12.8435 7.59432 12.541 8.69127 12.4563C8.7274 12.4519 8.81775 12.4447 8.92906 12.4375V14.9347C8.92909 15.0777 8.9715 15.2174 9.05092 15.3362C9.13035 15.455 9.24322 15.5477 9.37527 15.6023C9.50733 15.657 9.65263 15.6714 9.79282 15.6435C9.93301 15.6156 10.0618 15.5468 10.1629 15.4457L15.9452 9.66342C16.0807 9.52788 16.1568 9.34407 16.1568 9.15241C16.1568 8.96075 16.0807 8.77694 15.9452 8.6414ZM10.3746 13.1899V11.6822C10.3746 11.4905 10.2985 11.3066 10.1629 11.1711C10.0274 11.0355 9.84355 10.9594 9.65185 10.9594C9.46754 10.9594 8.71512 10.9955 8.52286 11.0208C6.57479 11.2001 4.72046 11.9402 3.18434 13.1516C3.3587 11.5574 4.11495 10.0836 5.30829 9.0123C6.50163 7.941 8.04819 7.34749 9.65185 7.34544C9.84355 7.34544 10.0274 7.26929 10.1629 7.13374C10.2985 6.99819 10.3746 6.81434 10.3746 6.62265V5.11491L14.4121 9.15241L10.3746 13.1899Z" fill="#1DAA61"/>
</svg>
