<svg width="14" height="15" viewBox="0 0 14 15" fill="none" xmlns="http://www.w3.org/2000/svg">
<path d="M9.72324 9.72099C10.1333 9.50072 10.6026 9.37534 11.1024 9.37534H11.1041C11.155 9.37534 11.1787 9.31435 11.1414 9.28046C10.6216 8.81398 10.0278 8.43721 9.38437 8.16559C9.3776 8.1622 9.37082 8.1605 9.36404 8.15711C10.4162 7.39297 11.1007 6.15102 11.1007 4.7498C11.1007 2.42856 9.22341 0.547852 6.90725 0.547852C4.5911 0.547852 2.71547 2.42856 2.71547 4.7498C2.71547 6.15102 3.39998 7.39297 4.45386 8.15711C4.44708 8.1605 4.4403 8.1622 4.43352 8.16559C3.67616 8.48582 2.99673 8.94498 2.41218 9.53122C1.831 10.1113 1.36832 10.799 1.04993 11.556C0.736674 12.2972 0.567611 13.0913 0.5518 13.8958C0.551348 13.9139 0.55452 13.9319 0.561129 13.9487C0.567738 13.9656 0.577651 13.9809 0.590283 13.9939C0.602915 14.0068 0.61801 14.0171 0.634681 14.0241C0.651351 14.0312 0.669258 14.0348 0.687347 14.0348H1.70225C1.77511 14.0348 1.83611 13.9755 1.8378 13.9026C1.87169 12.5946 2.39524 11.3696 3.32204 10.4411C4.27934 9.48039 5.55348 8.95176 6.90895 8.95176C7.86964 8.95176 8.79136 9.21777 9.586 9.7159C9.60641 9.72873 9.62985 9.73595 9.65394 9.73685C9.67803 9.73774 9.70193 9.73227 9.72324 9.72099ZM6.90895 7.66406C6.13294 7.66406 5.40268 7.36078 4.85202 6.81012C4.58109 6.53989 4.36631 6.21872 4.22004 5.86512C4.07377 5.51151 3.99891 5.13246 3.99977 4.7498C3.99977 3.9721 4.30306 3.24015 4.85202 2.68949C5.40099 2.13883 6.13125 1.83555 6.90895 1.83555C7.68665 1.83555 8.41521 2.13883 8.96587 2.68949C9.2368 2.95972 9.45159 3.28089 9.59786 3.63449C9.74413 3.9881 9.81899 4.36715 9.81812 4.7498C9.81812 5.5275 9.51484 6.25946 8.96587 6.81012C8.41521 7.36078 7.68495 7.66406 6.90895 7.66406ZM13.1407 11.6966H11.7175V10.2733C11.7175 10.1988 11.6565 10.1378 11.5819 10.1378H10.6331C10.5585 10.1378 10.4976 10.1988 10.4976 10.2733V11.6966H9.07431C8.99976 11.6966 8.93876 11.7576 8.93876 11.8321V12.781C8.93876 12.8555 8.99976 12.9165 9.07431 12.9165H10.4976V14.3397C10.4976 14.4143 10.5585 14.4753 10.6331 14.4753H11.5819C11.6565 14.4753 11.7175 14.4143 11.7175 14.3397V12.9165H13.1407C13.2153 12.9165 13.2763 12.8555 13.2763 12.781V11.8321C13.2763 11.7576 13.2153 11.6966 13.1407 11.6966Z" fill="#1DAA61"/>
</svg>
