<svg width="14" height="14" viewBox="0 0 14 14" fill="none" xmlns="http://www.w3.org/2000/svg">
<path d="M12.5662 13.6577L8.0126 9.10409C7.65121 9.39321 7.2356 9.62209 6.76579 9.79074C6.29598 9.95939 5.79605 10.0437 5.266 10.0437C3.95293 10.0437 2.84177 9.58884 1.9325 8.67909C1.02323 7.76934 0.568353 6.65817 0.567871 5.34559C0.56739 4.03301 1.02226 2.92184 1.9325 2.01209C2.84273 1.10234 3.9539 0.647461 5.266 0.647461C6.5781 0.647461 7.68951 1.10234 8.60023 2.01209C9.51094 2.92184 9.96558 4.03301 9.96413 5.34559C9.96413 5.87564 9.8798 6.37556 9.71115 6.84538C9.5425 7.31519 9.31362 7.73079 9.0245 8.09219L13.5781 12.6458L12.5662 13.6577ZM5.266 8.59814C6.16949 8.59814 6.93757 8.28204 7.57025 7.64984C8.20293 7.01764 8.51903 6.24956 8.51855 5.34559C8.51807 4.44162 8.20197 3.67378 7.57025 3.04206C6.93853 2.41034 6.17045 2.094 5.266 2.09304C4.36155 2.09208 3.59371 2.40842 2.96247 3.04206C2.33124 3.67571 2.0149 4.44355 2.01345 5.34559C2.012 6.24763 2.32834 7.01571 2.96247 7.64984C3.5966 8.28397 4.36444 8.60007 5.266 8.59814Z" fill="#1DAA61"/>
</svg>
