<svg width="21" height="21" viewBox="0 0 21 21" fill="none" xmlns="http://www.w3.org/2000/svg">
<path d="M0 20.8564L1.46603 15.5006C0.561385 13.9329 0.0860327 12.1558 0.0869017 10.3335C0.0895087 4.6362 4.72571 0 10.4221 0C13.1865 0.000869017 15.7813 1.07758 17.7332 3.03113C19.6841 4.98468 20.7582 7.5813 20.7573 10.343C20.7547 16.0412 16.1185 20.6774 10.4221 20.6774C8.69277 20.6765 6.98863 20.2429 5.47915 19.419L0 20.8564ZM5.7329 17.5481C7.18937 18.4127 8.5798 18.9307 10.4186 18.9315C15.153 18.9315 19.0097 15.0783 19.0123 10.3413C19.0141 5.59473 15.1756 1.74672 10.4256 1.74499C5.68771 1.74499 1.83363 5.59821 1.83189 10.3343C1.83102 12.2679 2.39762 13.7157 3.34919 15.2304L2.48104 18.4006L5.7329 17.5481ZM15.6284 12.7997C15.5641 12.692 15.392 12.6277 15.1331 12.4982C14.875 12.3687 13.6053 11.7439 13.3681 11.6579C13.1317 11.5718 12.9596 11.5284 12.7867 11.7873C12.6146 12.0454 12.1193 12.6277 11.969 12.7997C11.8186 12.9718 11.6674 12.9935 11.4093 12.8641C11.1512 12.7346 10.3187 12.4626 9.33237 11.5823C8.56503 10.8975 8.04623 10.0519 7.89589 9.79295C7.74555 9.53485 7.88024 9.39494 8.00886 9.26632C8.12531 9.15075 8.26696 8.96478 8.39644 8.81357C8.52766 8.6641 8.57024 8.55634 8.65714 8.3834C8.74318 8.21134 8.7006 8.06013 8.63542 7.93065C8.57024 7.80203 8.05405 6.53066 7.8394 6.0136C7.6291 5.51043 7.41619 5.57822 7.25803 5.5704L6.76269 5.56171C6.59062 5.56171 6.3108 5.62601 6.07443 5.88498C5.83805 6.14395 5.17065 6.7679 5.17065 8.03927C5.17065 9.31065 6.09615 10.5386 6.22477 10.7106C6.35425 10.8827 8.04536 13.4915 10.6359 14.6099C11.252 14.8758 11.7335 15.0349 12.108 15.1539C12.7267 15.3503 13.2899 15.3225 13.7348 15.2565C14.231 15.1826 15.2625 14.6316 15.4781 14.0285C15.6936 13.4246 15.6936 12.9075 15.6284 12.7997Z" fill="#25D366"/>
</svg>
