<svg width="14" height="15" viewBox="0 0 14 15" fill="none" xmlns="http://www.w3.org/2000/svg">
<path d="M12.9258 7.06956V13.5758C12.9258 13.8275 12.8259 14.0688 12.6479 14.2467C12.47 14.4247 12.2286 14.5246 11.977 14.5246H2.21763C1.96598 14.5246 1.72464 14.4247 1.5467 14.2467C1.36876 14.0688 1.2688 13.8275 1.2688 13.5758V7.06956C1.2688 6.81792 1.36876 6.57658 1.5467 6.39864C1.72464 6.2207 1.96598 6.12074 2.21763 6.12074H3.84419C3.95204 6.12074 4.05547 6.16358 4.13173 6.23984C4.20799 6.3161 4.25083 6.41953 4.25083 6.52738C4.25083 6.63522 4.20799 6.73866 4.13173 6.81491C4.05547 6.89117 3.95204 6.93402 3.84419 6.93402H2.21763C2.18168 6.93402 2.1472 6.9483 2.12178 6.97372C2.09636 6.99914 2.08208 7.03362 2.08208 7.06956V13.5758C2.08208 13.6118 2.09636 13.6462 2.12178 13.6717C2.1472 13.6971 2.18168 13.7114 2.21763 13.7114H11.977C12.013 13.7114 12.0474 13.6971 12.0728 13.6717C12.0983 13.6462 12.1125 13.6118 12.1125 13.5758V7.06956C12.1125 7.03362 12.0983 6.99914 12.0728 6.97372C12.0474 6.9483 12.013 6.93402 11.977 6.93402H10.3504C10.2426 6.93402 10.1392 6.89117 10.0629 6.81491C9.98664 6.73866 9.9438 6.63522 9.9438 6.52738C9.9438 6.41953 9.98664 6.3161 10.0629 6.23984C10.1392 6.16358 10.2426 6.12074 10.3504 6.12074H11.977C12.2286 6.12074 12.47 6.2207 12.6479 6.39864C12.8259 6.57658 12.9258 6.81792 12.9258 7.06956ZM4.67374 4.1038L6.69067 2.08754V8.69613C6.69067 8.80397 6.73352 8.90741 6.80978 8.98367C6.88604 9.05993 6.98947 9.10277 7.09731 9.10277C7.20516 9.10277 7.30859 9.05993 7.38485 8.98367C7.46111 8.90741 7.50396 8.80397 7.50396 8.69613V2.08754L9.52089 4.1038C9.55812 4.14375 9.60301 4.1758 9.65289 4.19802C9.70278 4.22025 9.75662 4.2322 9.81122 4.23316C9.86582 4.23412 9.92006 4.22408 9.97069 4.20363C10.0213 4.18318 10.0673 4.15273 10.1059 4.11412C10.1445 4.07551 10.175 4.02951 10.1954 3.97888C10.2159 3.92824 10.2259 3.87401 10.225 3.81941C10.224 3.76481 10.2121 3.71096 10.1898 3.66108C10.1676 3.6112 10.1356 3.56631 10.0956 3.52908L7.38467 0.818142C7.30843 0.741992 7.20507 0.699219 7.09731 0.699219C6.98955 0.699219 6.8862 0.741992 6.80996 0.818142L4.09902 3.52908C4.05907 3.56631 4.02702 3.6112 4.0048 3.66108C3.98257 3.71096 3.97062 3.76481 3.96966 3.81941C3.96869 3.87401 3.97874 3.92824 3.99919 3.97888C4.01964 4.02951 4.05008 4.07551 4.0887 4.11412C4.12731 4.15273 4.17331 4.18318 4.22394 4.20363C4.27457 4.22408 4.32881 4.23412 4.38341 4.23316C4.43801 4.2322 4.49185 4.22025 4.54173 4.19802C4.59162 4.1758 4.63651 4.14375 4.67374 4.1038Z" fill="#1DAA61" stroke="#1DAA61" stroke-width="0.75"/>
</svg>
