<svg width="14" height="15" viewBox="0 0 14 15" fill="none" xmlns="http://www.w3.org/2000/svg">
<path d="M13.4371 11.9176H12.0816V10.5621C12.0816 10.4876 12.0207 10.4266 11.9461 10.4266H11.1328C11.0583 10.4266 10.9973 10.4876 10.9973 10.5621V11.9176H9.64181C9.56726 11.9176 9.50626 11.9786 9.50626 12.0531V12.8664C9.50626 12.941 9.56726 13.002 9.64181 13.002H10.9973V14.3574C10.9973 14.432 11.0583 14.493 11.1328 14.493H11.9461C12.0207 14.493 12.0816 14.432 12.0816 14.3574V13.002H13.4371C13.5117 13.002 13.5727 12.941 13.5727 12.8664V12.0531C13.5727 11.9786 13.5117 11.9176 13.4371 11.9176ZM4.65199 7.28188C4.63674 7.13447 4.62827 6.98537 4.62827 6.83458C4.62827 6.56518 4.65368 6.30256 4.70112 6.04671C4.71298 5.98571 4.68079 5.92303 4.62488 5.89761C4.39445 5.79426 4.18265 5.65193 3.99967 5.47233C3.78404 5.26326 3.61437 5.01154 3.50147 4.73323C3.38857 4.45492 3.33493 4.15614 3.34396 3.85594C3.35921 3.31205 3.57778 2.79528 3.959 2.40558C4.3775 1.97692 4.94002 1.7431 5.53812 1.74987C6.07862 1.75496 6.60047 1.96336 6.99525 2.33273C7.1291 2.45811 7.24432 2.59704 7.3409 2.74614C7.37478 2.79867 7.44086 2.8207 7.49847 2.80036C7.79667 2.69701 8.11182 2.62415 8.43544 2.59027C8.53032 2.5801 8.58454 2.47844 8.54218 2.39372C7.99152 1.30426 6.86648 0.55198 5.56523 0.531648C3.68791 0.502844 2.12234 2.043 2.12234 3.92032C2.12234 4.98436 2.61201 5.93319 3.37954 6.55501C2.84074 6.80408 2.3443 7.14803 1.91394 7.57839C0.985443 8.50519 0.460199 9.7285 0.426312 11.0348C0.42586 11.0529 0.429032 11.0709 0.435641 11.0877C0.44225 11.1046 0.452162 11.1199 0.464794 11.1329C0.477426 11.1458 0.492522 11.1561 0.509192 11.1631C0.525863 11.1702 0.54377 11.1738 0.561859 11.1738H1.51238C1.58524 11.1738 1.64623 11.1162 1.64793 11.0433C1.68012 10.0606 2.07829 9.14057 2.77805 8.4425C3.27618 7.94437 3.88615 7.59872 4.55202 7.43098C4.61641 7.41235 4.66046 7.34966 4.65199 7.28188ZM12.285 6.83458C12.285 4.98097 10.7956 3.47471 8.94882 3.44591C7.0715 3.4171 5.50763 4.95725 5.50763 6.83458C5.50763 7.89862 5.99898 8.84745 6.76482 9.46927C6.22045 9.72162 5.72488 10.0681 5.30092 10.4926C4.37242 11.4195 3.84718 12.6428 3.81329 13.9474C3.81284 13.9655 3.81601 13.9835 3.82262 14.0003C3.82923 14.0172 3.83914 14.0325 3.85177 14.0454C3.8644 14.0584 3.8795 14.0687 3.89617 14.0757C3.91284 14.0827 3.93075 14.0863 3.94884 14.0863H4.89766C4.97052 14.0863 5.03152 14.0287 5.03321 13.9559C5.0654 12.9732 5.46357 12.0531 6.16333 11.3551C6.89359 10.6248 7.86275 10.2232 8.8963 10.2232C10.7668 10.2232 12.285 8.70682 12.285 6.83458ZM10.4297 8.36795C10.0196 8.77798 9.47576 9.00333 8.8963 9.00333C8.31683 9.00333 7.77295 8.77798 7.36292 8.36795C7.15831 8.16441 6.99664 7.92186 6.8875 7.65468C6.77836 7.38751 6.72397 7.10114 6.72755 6.81255C6.73263 6.25681 6.95459 5.7197 7.34259 5.32154C7.74923 4.90473 8.29311 4.6726 8.87427 4.66583C9.44865 4.66074 10.0061 4.8844 10.4161 5.28595C10.8363 5.69768 11.0667 6.24834 11.0667 6.83458C11.065 7.41404 10.8397 7.95792 10.4297 8.36795Z" fill="#1DAA61"/>
</svg>
