<svg width="260" height="261" viewBox="0 0 260 261" fill="none" xmlns="http://www.w3.org/2000/svg">
<g clip-path="url(#clip0_3_196)">
<path d="M229.031 55.6779C228.743 55.5068 228.398 55.4566 228.073 55.5383C227.748 55.62 227.469 55.827 227.296 56.1141L216.184 74.6515C216.097 74.7925 216.04 74.9492 216.015 75.1125C215.989 75.2758 215.997 75.4426 216.036 75.603C216.076 75.7634 216.147 75.9144 216.246 76.0472C216.344 76.1799 216.468 76.2918 216.61 76.3764C216.672 76.4173 216.738 76.4506 216.808 76.4755C217.085 76.5814 217.391 76.5868 217.672 76.4908C217.952 76.3949 218.191 76.2035 218.345 75.9501L229.457 57.4127C229.544 57.271 229.601 57.1135 229.627 56.9494C229.652 56.7853 229.645 56.6179 229.605 56.4566C229.565 56.2954 229.494 56.1435 229.396 56.0099C229.297 55.8763 229.173 55.7634 229.031 55.6779Z" fill="black"/>
<path d="M262.815 116.514C262.817 116.349 262.787 116.185 262.727 116.031C262.666 115.877 262.575 115.737 262.46 115.618C262.345 115.5 262.208 115.405 262.056 115.339C261.904 115.273 261.741 115.238 261.576 115.236L239.955 114.879C239.658 114.872 239.368 114.972 239.137 115.159C238.905 115.346 238.748 115.609 238.692 115.901C238.636 116.193 238.685 116.496 238.831 116.755C238.977 117.015 239.211 117.214 239.489 117.317C239.626 117.369 239.77 117.396 239.915 117.397L261.536 117.754C261.702 117.758 261.867 117.729 262.021 117.668C262.175 117.608 262.316 117.517 262.435 117.402C262.554 117.287 262.649 117.149 262.714 116.996C262.779 116.844 262.813 116.68 262.815 116.514Z" fill="black"/>
<path d="M254.072 81.5708C253.991 81.4262 253.882 81.2989 253.753 81.1962C253.623 81.0934 253.474 81.0173 253.315 80.9722C253.155 80.9271 252.989 80.9138 252.824 80.9332C252.66 80.9526 252.501 81.0042 252.357 81.0851L233.462 91.583C233.317 91.6618 233.189 91.7686 233.085 91.8972C232.982 92.0257 232.905 92.1736 232.859 92.3322C232.813 92.4907 232.799 92.6568 232.817 92.8209C232.836 92.985 232.886 93.1438 232.967 93.2881C233.108 93.5506 233.341 93.7518 233.621 93.8531C233.792 93.9203 233.975 93.9489 234.159 93.9369C234.342 93.9249 234.521 93.8726 234.682 93.7837L253.586 83.2858C253.73 83.2052 253.858 83.0969 253.96 82.967C254.063 82.8372 254.139 82.6884 254.184 82.5291C254.229 82.3698 254.243 82.2031 254.224 82.0387C254.204 81.8743 254.152 81.7153 254.072 81.5708Z" fill="black"/>
<path d="M207.321 199.702H70.888C66.5998 199.699 62.4879 197.995 59.4548 194.964C56.4217 191.933 54.7153 187.822 54.71 183.534V104.5C54.7153 100.212 56.4217 96.1009 59.4548 93.0696C62.4879 90.0384 66.5998 88.3344 70.888 88.3318H207.321C211.61 88.3344 215.722 90.0384 218.755 93.0696C221.788 96.1009 223.495 100.212 223.5 104.5V183.534C223.495 187.822 221.788 191.933 218.755 194.964C215.722 197.995 211.61 199.699 207.321 199.702ZM70.888 92.5349C67.7145 92.5376 64.6717 93.7987 62.4268 96.0417C60.1819 98.2848 58.9184 101.327 58.9132 104.5V183.534C58.9184 186.707 60.1819 189.749 62.4268 191.992C64.6717 194.235 67.7145 195.496 70.888 195.499H207.321C210.495 195.496 213.538 194.235 215.783 191.992C218.028 189.749 219.291 186.707 219.297 183.534V104.5C219.291 101.327 218.028 98.2848 215.783 96.0417C213.538 93.7987 210.495 92.5376 207.321 92.5349H70.888Z" fill="black"/>
<path d="M187.565 204.718V212.648C187.56 216.38 186.075 219.957 183.437 222.596C180.798 225.235 177.22 226.72 173.489 226.725H14.0768C10.345 226.72 6.76756 225.235 4.12883 222.596C1.4901 219.957 0.00524488 216.38 0 212.648V204.718H187.565Z" fill="black"/>
<path d="M58.9625 217.02H90.4169C91.09 217.02 91.7353 216.753 92.2113 216.277C92.6872 215.801 92.9547 215.155 92.9547 214.482C92.9547 213.809 92.6872 213.164 92.2113 212.688C91.7353 212.212 91.09 211.945 90.4169 211.945H58.9625C58.2895 211.945 57.6441 212.212 57.1682 212.688C56.6923 213.164 56.425 213.809 56.425 214.482C56.425 215.155 56.6923 215.801 57.1682 216.277C57.6441 216.753 58.2895 217.02 58.9625 217.02Z" fill="white"/>
<path d="M223.757 150.006C223.993 149.939 224.209 149.813 224.382 149.639C224.556 149.466 224.682 149.251 224.749 149.015C224.937 148.432 224.937 147.804 224.749 147.22L224.521 146.497C224.441 146.259 224.342 145.971 224.233 145.624C224.124 145.278 223.975 144.891 223.817 144.455C222.953 142.008 221.93 139.62 220.754 137.307C219.1 134.021 217.159 130.886 214.955 127.94C213.745 126.334 212.437 124.728 210.989 123.191C209.542 121.655 208.095 120.158 206.558 118.75C203.587 116.056 200.401 113.609 197.032 111.434C194.188 109.604 191.235 107.949 188.189 106.478C185.562 105.209 183.332 104.287 181.766 103.682C180.983 103.385 180.368 103.147 179.942 102.998L179.297 102.76C179.191 102.721 179.082 102.691 178.97 102.671L178.524 102.503C176.833 101.887 174.974 101.911 173.3 102.572C172.197 102.99 171.282 103.791 170.723 104.829C170.164 105.867 169.999 107.072 170.257 108.222L170.098 108.173C168.461 107.711 166.709 107.914 165.221 108.738C164.562 109.1 163.991 109.605 163.552 110.215C163.113 110.826 162.816 111.527 162.683 112.267C162.493 113.397 162.649 114.558 163.129 115.598C163.591 116.616 164.312 117.495 165.221 118.145C164.597 118.839 164.163 119.683 163.962 120.594C163.698 121.759 163.781 122.975 164.2 124.093C164.585 125.141 165.276 126.049 166.182 126.7C165.619 127.367 165.21 128.148 164.983 128.99C164.59 130.38 164.667 131.861 165.201 133.203C165.415 133.784 165.748 134.313 166.181 134.755C166.613 135.198 167.134 135.544 167.709 135.771L168.998 136.257C169.761 136.554 170.772 136.97 171.764 137.416C172.755 137.863 173.746 138.338 174.4 138.705L175.243 139.151L175.56 139.33C175.631 139.37 175.709 139.4 175.788 139.419L176.056 139.578L176.799 140.014C177.424 140.39 178.316 140.946 179.327 141.649C180.338 142.353 181.449 143.216 182.549 144.177C183.662 145.167 184.712 146.226 185.691 147.349C186.619 148.437 187.467 149.59 188.229 150.799C188.881 151.847 189.464 152.936 189.973 154.061C190.429 155.052 190.737 155.924 190.965 156.529C191.074 156.836 191.143 157.084 191.203 157.243C191.262 157.401 192.987 162.497 192.987 162.497C193.166 163.091 196.06 161.406 196.952 161.168L223.757 150.006Z" fill="white"/>
<path d="M193.235 164.34C192.831 164.355 192.433 164.238 192.1 164.008C191.768 163.777 191.519 163.445 191.391 163.062C191.104 162.209 189.736 158.194 189.607 157.827C189.607 157.748 189.557 157.669 189.528 157.57C189.489 157.429 189.442 157.29 189.389 157.153C189.161 156.489 188.873 155.716 188.467 154.814C187.983 153.759 187.434 152.736 186.821 151.751C186.102 150.613 185.303 149.526 184.432 148.499C183.506 147.445 182.513 146.452 181.458 145.525C180.48 144.669 179.458 143.865 178.395 143.116C177.404 142.452 176.601 141.927 175.966 141.54L175.134 141.055L174.767 140.886L174.47 140.717L173.637 140.271C172.864 139.865 171.932 139.419 171.099 139.042C169.979 138.527 168.938 138.11 168.413 137.912L167.421 137.545L167.144 137.446C166.348 137.137 165.626 136.663 165.025 136.057C164.424 135.451 163.957 134.725 163.654 133.927C162.979 132.242 162.878 130.382 163.367 128.633C163.521 128.083 163.734 127.552 164.002 127.047C163.424 126.377 162.97 125.608 162.663 124.777C162.124 123.35 162.014 121.796 162.346 120.306C162.492 119.674 162.722 119.064 163.03 118.492C162.452 117.864 161.977 117.148 161.623 116.371C161.002 115.024 160.805 113.52 161.057 112.059C161.237 111.078 161.632 110.149 162.213 109.338C162.794 108.527 163.546 107.855 164.418 107.37C165.68 106.669 167.109 106.327 168.551 106.379C168.589 106.105 168.642 105.833 168.71 105.566C168.988 104.574 169.489 103.659 170.177 102.893C170.864 102.126 171.72 101.528 172.675 101.144C173.719 100.713 174.837 100.494 175.966 100.5C177.037 100.501 178.099 100.682 179.109 101.035L179.436 101.154C179.575 101.154 179.714 101.234 179.843 101.273L180.507 101.511L182.361 102.215C184.532 103.058 186.732 104.009 188.913 105.06C192.023 106.555 195.035 108.244 197.934 110.116C201.385 112.335 204.644 114.839 207.679 117.6C209.265 119.048 210.791 120.574 212.219 122.15C213.646 123.726 214.915 125.253 216.243 127.018C218.504 130.042 220.494 133.26 222.191 136.633C223.391 139.011 224.441 141.461 225.334 143.969L225.472 144.346C225.581 144.653 225.68 144.931 225.76 145.188L226.275 146.804C226.578 147.725 226.578 148.718 226.275 149.639C226.121 150.101 225.861 150.52 225.517 150.864C225.173 151.208 224.754 151.467 224.293 151.622L197.478 162.834H197.359C197.19 162.883 196.606 163.151 196.219 163.329C195.301 163.86 194.287 164.203 193.235 164.34ZM192.541 155.994C192.631 156.222 192.69 156.43 192.739 156.578C192.789 156.727 192.74 156.687 192.789 156.737C192.789 156.866 193.483 158.789 194.097 160.583L194.831 160.246C195.339 159.996 195.862 159.778 196.397 159.592L223.133 148.45C223.202 148.22 223.202 147.975 223.133 147.746L222.617 146.15L222.35 145.406L222.221 145.02C221.377 142.646 220.384 140.328 219.247 138.081C217.634 134.884 215.743 131.836 213.596 128.971C212.337 127.295 211.049 125.729 209.78 124.341C208.511 122.953 206.955 121.367 205.448 120.019C202.554 117.381 199.443 114.99 196.149 112.872C193.365 111.074 190.472 109.451 187.486 108.014C185.394 107.023 183.272 106.091 181.191 105.278L179.406 104.604L178.752 104.376H178.633H178.534L178.038 104.198C177.384 103.971 176.698 103.854 176.006 103.851C175.326 103.844 174.651 103.975 174.024 104.237C173.546 104.422 173.119 104.715 172.775 105.093C172.431 105.472 172.179 105.926 172.041 106.418C171.922 106.934 171.922 107.469 172.041 107.985L172.606 110.671L169.791 109.908C169.351 109.789 168.898 109.729 168.443 109.729C167.655 109.723 166.88 109.921 166.192 110.304C165.749 110.545 165.365 110.882 165.068 111.29C164.771 111.698 164.57 112.167 164.477 112.663C164.344 113.462 164.458 114.281 164.805 115.013C165.136 115.76 165.663 116.404 166.331 116.877L167.887 117.977L166.609 119.385C166.179 119.863 165.879 120.443 165.736 121.07C165.547 121.918 165.609 122.803 165.914 123.617C166.178 124.349 166.655 124.984 167.283 125.441L168.77 126.512L167.58 127.9C167.176 128.382 166.881 128.947 166.717 129.555C166.432 130.586 166.488 131.681 166.876 132.678C167.002 133.034 167.198 133.361 167.454 133.639C167.709 133.916 168.019 134.139 168.363 134.294C168.611 134.373 168.998 134.522 169.721 134.799C170.277 135.017 171.387 135.454 172.576 135.999C173.459 136.395 174.46 136.881 175.302 137.317L176.433 137.932H176.551L177.314 138.378L177.79 138.656C178.464 139.062 179.377 139.647 180.407 140.361C181.579 141.176 182.705 142.056 183.778 142.998C184.951 144.04 186.057 145.156 187.089 146.338C188.07 147.489 188.968 148.708 189.776 149.986C190.464 151.098 191.08 152.254 191.619 153.446C192.016 154.497 192.403 155.468 192.541 156.033V155.994Z" fill="black"/>
<path d="M228.764 147.845C228.764 147.845 228.764 147.924 228.873 148.093L229.15 148.787C229.279 149.084 229.428 149.451 229.596 149.877C229.765 150.303 229.973 150.799 230.181 151.344C230.389 151.89 230.627 152.484 230.875 153.139L231.658 155.23C232.223 156.727 232.798 158.402 233.443 160.236C236.47 169.126 239.037 178.165 241.135 187.319C242.285 192.275 243.286 197.321 244.109 202.06C244.565 204.419 244.862 206.739 245.19 208.919C245.358 210.01 245.507 211.071 245.656 212.102C245.804 213.133 245.903 214.134 246.012 215.075C246.231 216.989 246.429 218.753 246.607 220.31C246.786 221.866 246.855 223.284 246.944 224.374C247.123 226.634 247.232 227.923 247.232 227.923L205.289 230.758C205.289 230.758 205.2 229.687 205.051 227.784C204.972 226.852 204.903 225.722 204.784 224.424C204.665 223.125 204.467 221.668 204.278 220.062C204.189 219.269 204.1 218.436 203.991 217.574C203.882 216.711 203.733 215.819 203.594 214.907C203.317 213.073 203.069 211.14 202.692 209.147C202.008 205.182 201.166 200.92 200.184 196.697C198.419 188.99 196.255 181.379 193.701 173.897C193.166 172.39 192.71 170.992 192.244 169.802C192.016 169.198 191.808 168.633 191.619 168.117C191.431 167.602 191.233 167.126 191.074 166.719C190.916 166.313 190.767 165.926 190.638 165.619C190.509 165.312 190.4 165.044 190.321 164.826L190.123 164.35C190.103 164.299 190.08 164.249 190.053 164.202L228.764 147.845Z" fill="#2563EB"/>
<path d="M205.091 232.988H205.428C206.02 232.94 206.567 232.66 206.952 232.208C207.337 231.757 207.527 231.171 207.48 230.58L207.243 227.606C207.243 227.269 207.193 226.902 207.163 226.515C207.104 225.831 207.044 225.058 206.975 224.225C206.976 224.209 206.976 224.192 206.975 224.176L206.469 219.804C206.469 219.517 206.409 219.219 206.37 218.922C206.31 218.386 206.251 217.851 206.182 217.296V217.246L205.785 214.58C205.706 214.054 205.636 213.519 205.557 212.994C205.359 211.626 205.151 210.218 204.873 208.751C204.15 204.538 203.307 200.315 202.355 196.191C200.565 188.392 198.378 180.69 195.803 173.113C195.634 172.648 195.476 172.211 195.327 171.775C194.98 170.784 194.643 169.793 194.336 168.96L193.721 167.285L193.186 165.887L192.987 165.391L227.614 150.779C227.782 151.186 227.951 151.642 228.149 152.137L228.843 153.922L229.616 156.003C230.033 157.114 230.459 158.323 230.915 159.612C231.064 160.058 231.222 160.504 231.38 160.97C234.385 169.781 236.933 178.741 239.014 187.815C240.124 192.612 241.105 197.529 241.988 202.436C242.315 204.131 242.562 205.827 242.8 207.462C242.89 208.047 242.969 208.632 243.058 209.207L243.524 212.349C243.603 213.023 243.683 213.678 243.752 214.332L243.871 215.323L244.466 220.528C244.555 221.519 244.634 222.51 244.704 223.363C244.704 223.779 244.734 224.176 244.793 224.552L245.081 228.091C245.09 228.395 245.16 228.693 245.288 228.969C245.416 229.244 245.599 229.49 245.825 229.693C246.051 229.896 246.316 230.05 246.604 230.147C246.892 230.244 247.196 230.282 247.498 230.258C247.801 230.233 248.096 230.148 248.364 230.006C248.633 229.865 248.87 229.67 249.061 229.434C249.252 229.198 249.393 228.926 249.476 228.634C249.558 228.341 249.581 228.036 249.542 227.735L249.264 224.186C249.264 223.819 249.194 223.422 249.164 223.006C249.095 222.144 249.016 221.162 248.917 220.092L248.322 214.857C248.273 214.53 248.243 214.203 248.203 213.866C248.124 213.202 248.054 212.518 247.965 211.824L247.499 208.642C247.41 208.067 247.331 207.492 247.241 206.917C247.003 205.242 246.746 203.497 246.409 201.713C245.556 196.756 244.555 191.74 243.435 186.843C241.317 177.613 238.726 168.497 235.673 159.533C235.504 159.067 235.356 158.611 235.197 158.174C234.741 156.856 234.305 155.617 233.869 154.467L233.095 152.385L232.392 150.591C232.183 150.036 231.986 149.54 231.797 149.084L230.955 147.022C230.839 146.748 230.67 146.499 230.457 146.29C230.245 146.081 229.993 145.917 229.716 145.806C229.439 145.695 229.144 145.641 228.846 145.645C228.548 145.65 228.254 145.713 227.981 145.833L189.24 162.189C188.964 162.303 188.713 162.47 188.503 162.683C188.292 162.895 188.127 163.147 188.016 163.424C187.905 163.702 187.851 163.999 187.857 164.297C187.863 164.596 187.929 164.89 188.051 165.163L188.11 165.312L188.278 165.728L188.606 166.521C188.725 166.809 188.863 167.156 189.022 167.592L189.567 168.97L190.182 170.635C190.489 171.438 190.806 172.37 191.173 173.341L191.639 174.68C194.166 182.101 196.307 189.648 198.053 197.291C199.044 201.336 199.818 205.48 200.531 209.623C200.789 210.991 200.987 212.359 201.185 213.678C201.265 214.223 201.334 214.768 201.423 215.294L201.81 217.921C201.88 218.456 201.929 218.971 201.988 219.467C201.988 219.774 202.058 220.082 202.097 220.379L202.593 224.711C202.662 225.504 202.722 226.248 202.772 226.912C202.772 227.308 202.831 227.675 202.861 228.022L203.099 230.946C203.138 231.467 203.359 231.956 203.724 232.33C204.088 232.703 204.572 232.936 205.091 232.988Z" fill="#2563EB"/>
<path d="M226.107 225.93H226.206C226.469 225.93 226.721 225.826 226.907 225.64C227.093 225.454 227.197 225.202 227.197 224.939C226.88 219.556 226.201 214.201 225.165 208.91C222.326 193.947 218.251 179.245 212.982 164.955C212.892 164.707 212.708 164.504 212.469 164.391C212.23 164.279 211.957 164.266 211.708 164.355C211.46 164.445 211.257 164.629 211.144 164.868C211.032 165.107 211.019 165.381 211.108 165.629C216.324 179.81 220.352 194.399 223.153 209.247C224.158 214.441 224.82 219.697 225.135 224.979C225.145 225.231 225.251 225.47 225.432 225.647C225.613 225.824 225.854 225.925 226.107 225.93Z" fill="black"/>
<path d="M237.903 208.404C238.102 208.427 238.304 208.389 238.481 208.295C238.658 208.201 238.802 208.056 238.895 207.879C238.957 207.763 238.996 207.637 239.009 207.507C239.023 207.377 239.01 207.245 238.973 207.12C238.935 206.994 238.872 206.878 238.789 206.777C238.706 206.675 238.604 206.592 238.489 206.53C233.651 203.923 227.148 202.367 219.158 201.911C215.645 201.698 212.12 201.724 208.61 201.99C208.479 202.001 208.351 202.039 208.234 202.1C208.118 202.161 208.014 202.245 207.93 202.346C207.846 202.448 207.784 202.565 207.745 202.691C207.707 202.817 207.695 202.95 207.708 203.081C207.721 203.211 207.759 203.338 207.82 203.453C207.882 203.569 207.966 203.671 208.067 203.754C208.169 203.837 208.285 203.899 208.411 203.937C208.537 203.974 208.668 203.986 208.799 203.973C208.967 203.973 226.642 202.377 237.547 208.285C237.657 208.347 237.778 208.387 237.903 208.404Z" fill="black"/>
<path d="M208.006 200.057C208.195 200.071 208.384 200.029 208.551 199.938C208.69 199.859 222.766 192.256 235.435 193.99C235.698 194.026 235.964 193.956 236.175 193.795C236.386 193.634 236.525 193.396 236.56 193.133C236.596 192.87 236.525 192.604 236.365 192.393C236.204 192.182 235.966 192.043 235.703 192.008C222.37 190.184 208.194 197.857 207.589 198.184C207.474 198.246 207.373 198.33 207.291 198.432C207.209 198.533 207.148 198.65 207.111 198.775C207.074 198.901 207.062 199.032 207.077 199.162C207.091 199.292 207.13 199.417 207.193 199.532C207.272 199.682 207.388 199.808 207.531 199.9C207.673 199.992 207.837 200.046 208.006 200.057Z" fill="black"/>
<path d="M181.295 61.5H98.7049C96.6587 61.5 95 63.1559 95 65.1985V133.802C95 135.844 96.6587 137.5 98.7049 137.5H181.295C183.341 137.5 185 135.844 185 133.802V65.1985C185 63.1559 183.341 61.5 181.295 61.5Z" fill="#2563EB"/>
<path d="M181.314 139.5H98.6858C97.1778 139.5 95.7317 138.902 94.6654 137.837C93.599 136.773 93 135.329 93 133.824V65.1763C93 63.6709 93.599 62.2271 94.6654 61.1625C95.7317 60.098 97.1778 59.5 98.6858 59.5H181.314C182.822 59.5 184.268 60.098 185.335 61.1625C186.401 62.2271 187 63.6709 187 65.1763V133.814C187.001 134.561 186.855 135.3 186.57 135.989C186.285 136.679 185.866 137.306 185.338 137.834C184.81 138.362 184.183 138.781 183.492 139.067C182.802 139.353 182.062 139.5 181.314 139.5ZM98.6858 63.4613C98.2277 63.4613 97.7884 63.643 97.4645 63.9664C97.1406 64.2897 96.9585 64.7283 96.9585 65.1856V133.814C96.9585 134.041 97.0029 134.265 97.0898 134.474C97.1766 134.683 97.3041 134.874 97.4645 135.034C97.6249 135.194 97.8152 135.321 98.0248 135.407C98.2343 135.494 98.459 135.539 98.6858 135.539H181.314C181.541 135.539 181.766 135.494 181.975 135.407C182.185 135.321 182.375 135.194 182.536 135.034C182.696 134.874 182.823 134.683 182.91 134.474C182.997 134.265 183.042 134.041 183.042 133.814V65.1763C183.042 64.719 182.859 64.2804 182.536 63.957C182.212 63.6336 181.772 63.452 181.314 63.452L98.6858 63.4613Z" fill="black"/>
<path d="M171.769 62.5C171.181 62.5 170.618 62.2643 170.202 61.8449C169.786 61.4254 169.553 60.8565 169.553 60.2633V35.3707C169.553 27.4613 166.439 19.8758 160.895 14.283C155.352 8.69014 147.835 5.54812 139.995 5.54812C132.156 5.54812 124.639 8.69014 119.095 14.283C113.552 19.8758 110.438 27.4613 110.438 35.3707V60.2633C110.438 60.8565 110.205 61.4254 109.789 61.8449C109.373 62.2643 108.81 62.5 108.222 62.5C107.634 62.5 107.07 62.2643 106.654 61.8449C106.238 61.4254 106.005 60.8565 106.005 60.2633V35.3707C105.93 30.8187 106.755 26.2973 108.43 22.07C110.105 17.8427 112.597 13.9941 115.761 10.7485C118.925 7.50292 122.698 4.92522 126.86 3.16569C131.021 1.40617 135.488 0.5 140 0.5C144.512 0.5 148.979 1.40617 153.14 3.16569C157.302 4.92522 161.075 7.50292 164.239 10.7485C167.403 13.9941 169.895 17.8427 171.57 22.07C173.245 26.2973 174.07 30.8187 173.995 35.3707V60.2633C173.995 60.5578 173.938 60.8494 173.826 61.1214C173.714 61.3934 173.55 61.6404 173.343 61.8482C173.136 62.056 172.89 62.2206 172.62 62.3324C172.35 62.4443 172.061 62.5012 171.769 62.5Z" fill="black"/>
<path d="M149 102.252C148.999 100.633 148.536 99.0461 147.664 97.6673C146.792 96.2885 145.544 95.1719 144.059 94.4416C142.574 93.7113 140.911 93.3958 139.253 93.5302C137.595 93.6647 136.007 94.2437 134.667 95.203C133.327 96.1624 132.286 97.4645 131.66 98.9647C131.035 100.465 130.849 102.105 131.123 103.701C131.397 105.298 132.121 106.79 133.214 108.011C134.307 109.231 135.726 110.133 137.314 110.617V125.266C137.317 125.329 137.344 125.388 137.391 125.432C137.438 125.476 137.5 125.5 137.564 125.5H142.445C142.509 125.5 142.57 125.475 142.615 125.431C142.66 125.388 142.686 125.328 142.686 125.266V110.617C144.516 110.058 146.115 108.946 147.251 107.441C148.387 105.937 149 104.119 149 102.252Z" fill="white"/>
<path d="M202.167 121.684C193.057 118.909 186.851 119.028 177.711 120.247C177.024 120.355 176.367 120.607 175.784 120.985C175.2 121.364 174.703 121.861 174.325 122.445C173.946 123.028 173.694 123.685 173.586 124.372C173.478 125.059 173.515 125.761 173.696 126.433C174.341 129.684 176.541 130.923 179 130.448C185.354 129.456 189.319 129.149 195.852 131.062C192.967 139.706 194.861 149.986 202.345 153.942L202.167 121.684Z" fill="white"/>
<path d="M202.316 155.518C202.061 155.516 201.809 155.455 201.582 155.339C199.582 154.215 197.842 152.681 196.475 150.838C195.109 148.994 194.146 146.884 193.651 144.643C192.663 140.53 192.731 136.233 193.85 132.153C188.735 130.854 185.166 131.062 179.248 132.004C175.729 132.688 172.913 130.626 172.15 126.74C171.94 125.84 171.915 124.908 172.075 123.998C172.235 123.088 172.578 122.22 173.082 121.446C173.591 120.725 174.238 120.112 174.985 119.641C175.731 119.169 176.564 118.85 177.434 118.701H177.503C186.812 117.452 193.255 117.333 202.633 120.188C202.858 120.22 203.074 120.301 203.265 120.425C203.457 120.549 203.619 120.713 203.74 120.906C203.862 121.098 203.94 121.315 203.97 121.541C204 121.767 203.98 121.997 203.913 122.214C203.846 122.432 203.732 122.632 203.58 122.802C203.427 122.971 203.239 123.105 203.03 123.195C202.821 123.285 202.595 123.329 202.367 123.323C202.139 123.317 201.916 123.262 201.711 123.161C192.859 120.465 186.99 120.564 177.92 121.774C177.466 121.851 177.032 122.016 176.642 122.261C176.253 122.506 175.916 122.826 175.65 123.201C175.38 123.627 175.201 124.104 175.124 124.602C175.047 125.1 175.074 125.609 175.203 126.096C175.63 128.267 176.829 129.228 178.663 128.871C185.553 127.771 189.706 127.603 196.219 129.526C196.431 129.578 196.629 129.675 196.8 129.81C196.971 129.945 197.111 130.115 197.211 130.309C197.309 130.496 197.369 130.702 197.386 130.913C197.403 131.124 197.377 131.337 197.31 131.538C194.841 138.923 196.011 148.797 203.039 152.524C203.353 152.688 203.603 152.952 203.748 153.275C203.894 153.598 203.926 153.961 203.84 154.304C203.754 154.648 203.555 154.952 203.275 155.169C202.995 155.385 202.65 155.501 202.296 155.498L202.316 155.518Z" fill="black"/>
<path d="M0.5359 258.512L8.78388 252.722C8.9974 252.577 9.24948 252.5 9.50752 252.5C9.76556 252.5 10.0176 252.577 10.2312 252.722L17.755 258.006L25.289 252.722C25.5026 252.577 25.7546 252.5 26.0127 252.5C26.2707 252.5 26.5228 252.577 26.7363 252.722L34.2602 258.006L41.7942 252.722C42.0077 252.577 42.2598 252.5 42.5178 252.5C42.7759 252.5 43.028 252.577 43.2415 252.722L50.7653 258.006L58.2994 252.722C58.5129 252.577 58.765 252.5 59.023 252.5C59.2811 252.5 59.5331 252.577 59.7466 252.722L67.271 258.006L74.8045 252.722C75.0181 252.577 75.2701 252.5 75.5282 252.5C75.7862 252.5 76.0388 252.577 76.2523 252.722L84.4998 258.512C84.7712 258.705 84.9554 258.998 85.0129 259.326C85.0704 259.654 84.9967 259.992 84.8072 260.266C84.7122 260.402 84.5915 260.517 84.4519 260.606C84.3123 260.695 84.1564 260.755 83.9935 260.784C83.8305 260.812 83.6637 260.808 83.5022 260.772C83.3407 260.736 83.1879 260.669 83.0525 260.573L75.5282 255.3L67.9946 260.573C67.7832 260.724 67.5303 260.805 67.271 260.805C67.0116 260.805 66.7587 260.724 66.5474 260.573L59.023 255.3L51.489 260.573C51.2776 260.724 51.0247 260.805 50.7653 260.805C50.506 260.805 50.2531 260.724 50.0417 260.573L42.5178 255.3L34.9838 260.573C34.7724 260.724 34.5195 260.805 34.2602 260.805C34.0008 260.805 33.7479 260.724 33.5365 260.573L26.0127 255.3L18.4787 260.573C18.2673 260.724 18.0144 260.805 17.755 260.805C17.4957 260.805 17.2428 260.724 17.0314 260.573L9.50752 255.3L1.98317 260.573C1.84778 260.669 1.69495 260.736 1.5335 260.772C1.37205 260.808 1.20513 260.812 1.0422 260.783C0.879271 260.755 0.723912 260.694 0.584303 260.606C0.444695 260.517 0.323568 260.402 0.228537 260.266C0.133505 260.131 0.0660687 259.978 0.0300815 259.817C-0.0059057 259.655 -0.0095873 259.488 0.0189487 259.325C0.0474846 259.162 0.107875 259.007 0.19659 258.867C0.285305 258.727 0.400512 258.607 0.5359 258.512Z" fill="#2563EB"/>
<path d="M0 1.75895V10.9087C0 11.2426 0.132735 11.5628 0.368836 11.7989C0.604937 12.035 0.925082 12.1677 1.25898 12.1677C1.59288 12.1677 1.91326 12.035 2.14936 11.7989C2.38547 11.5628 2.51796 11.2426 2.51796 10.9087V1.75895C2.51796 1.42505 2.38547 1.10482 2.14936 0.868715C1.91326 0.632614 1.59288 0.5 1.25898 0.5C0.925082 0.5 0.604937 0.632614 0.368836 0.868715C0.132735 1.10482 0 1.42505 0 1.75895Z" fill="black"/>
<path d="M0 18.75V23.7065C0 24.0404 0.132735 24.3607 0.368836 24.5968C0.604937 24.8329 0.925082 24.9655 1.25898 24.9655C1.59288 24.9655 1.91326 24.8329 2.14936 24.5968C2.38547 24.3607 2.51796 24.0404 2.51796 23.7065V18.75C2.51796 18.4161 2.38547 18.0959 2.14936 17.8598C1.91326 17.6237 1.59288 17.491 1.25898 17.491C0.925082 17.491 0.604937 17.6237 0.368836 17.8598C0.132735 18.0959 0 18.4161 0 18.75Z" fill="black"/>
<path d="M0 30.5763V32.7869C0 33.1208 0.132735 33.441 0.368836 33.6771C0.604937 33.9132 0.925082 34.0459 1.25898 34.0459C1.59288 34.0459 1.91326 33.9132 2.14936 33.6771C2.38547 33.441 2.51796 33.1208 2.51796 32.7869V30.5763C2.51796 30.2424 2.38547 29.9222 2.14936 29.6861C1.91326 29.45 1.59288 29.3173 1.25898 29.3173C0.925082 29.3173 0.604937 29.45 0.368836 29.6861C0.132735 29.9222 0 30.2424 0 30.5763Z" fill="black"/>
<path d="M0 38.6257V39.7856C0 40.1195 0.132735 40.4397 0.368836 40.6758C0.604937 40.9119 0.925082 41.0445 1.25898 41.0445C1.59288 41.0445 1.91326 40.9119 2.14936 40.6758C2.38547 40.4397 2.51796 40.1195 2.51796 39.7856V38.6257C2.51796 38.2918 2.38547 37.9716 2.14936 37.7355C1.91326 37.4994 1.59288 37.3668 1.25898 37.3668C0.925082 37.3668 0.604937 37.4994 0.368836 37.7355C0.132735 37.9716 0 38.2918 0 38.6257Z" fill="black"/>
<path d="M0 45.2774V45.8623C0 46.1961 0.132735 46.5164 0.368836 46.7525C0.604937 46.9886 0.925082 47.1212 1.25898 47.1212C1.59288 47.1212 1.91326 46.9886 2.14936 46.7525C2.38547 46.5164 2.51796 46.1961 2.51796 45.8623V45.2774C2.51796 44.9435 2.38547 44.6233 2.14936 44.3872C1.91326 44.1511 1.59288 44.0184 1.25898 44.0184C0.925082 44.0184 0.604937 44.1511 0.368836 44.3872C0.132735 44.6233 0 44.9435 0 45.2774Z" fill="black"/>
</g>
<defs>
<clipPath id="clip0_3_196">
<rect width="260" height="260" fill="white" transform="translate(0 0.5)"/>
</clipPath>
</defs>
</svg>
