<svg width="130" height="132" viewBox="0 0 130 132" fill="none" xmlns="http://www.w3.org/2000/svg">
<path d="M65.7003 31.0682C68.5283 23.3915 66.8417 15.8485 66.8417 15.8485C65.5279 7.97692 50.6141 0.138789 42.403 0.984951C41.066 0.840874 39.7156 0.880205 38.3893 1.10185C36.486 1.41911 34.6639 2.10833 33.0271 3.13013C31.3904 4.15192 29.9712 5.48626 28.8504 7.05688C27.7295 8.6275 26.9291 10.4036 26.495 12.2837C26.061 14.1638 26.0017 16.1109 26.3205 18.014L27.0607 22.4674C27.0607 24.9447 27.1945 27.1325 27.239 28.6634C27.4394 35.711 20.9875 36.546 18.4935 40.6265C15.9996 44.707 19.6069 47.3068 20.0021 52.5841C20.3528 57.2492 16.4503 57.906 14.5576 63.3059C13.5388 69.6577 19.629 68.2604 22.5572 70.2366C30.5067 70.6096 41.0393 68.8505 41.0393 68.8505C41.0393 68.8505 89.3595 74.8182 75.6595 48.409C73.3548 43.9388 63.0004 38.3998 65.7003 31.0682Z" fill="#00102C"/>
<path d="M47.5302 71.4335C46.183 71.4335 45.3814 71.4335 45.3591 71.4335C45.2115 71.4335 45.0699 71.3748 44.9655 71.2705C44.8611 71.1661 44.8024 71.0245 44.8024 70.8768C44.8024 70.7292 44.8611 70.5876 44.9655 70.4832C45.0699 70.3788 45.2115 70.3201 45.3591 70.3201C45.6375 70.3201 73.6389 71.2776 79.6233 60.901C81.594 57.4774 80.9258 53.1074 77.6357 47.8801C76.8341 46.6165 75.1753 45.2415 73.4217 43.7829C69.5249 40.5486 64.6762 36.546 66.1848 31.0181C68.278 23.386 66.0679 16.1379 66.0457 16.0656C65.1828 12.7255 61.3696 9.15153 55.8361 6.55738C50.62 4.11353 44.8247 2.98902 41.0671 3.70158C40.9224 3.72936 40.7728 3.69868 40.6507 3.61625C40.5286 3.53382 40.4441 3.40636 40.4158 3.2618C40.4021 3.18978 40.4027 3.11576 40.4177 3.04399C40.4327 2.97223 40.4617 2.90413 40.5031 2.84361C40.5445 2.78309 40.5974 2.73135 40.6588 2.69134C40.7203 2.65133 40.789 2.62385 40.8611 2.61048C44.8915 1.84782 50.8146 2.97232 56.3091 5.54978C62.2267 8.33321 66.1625 12.0463 67.1144 15.765C68.5153 20.8467 68.5654 26.2062 67.2593 31.3132C65.94 36.1229 70.293 39.7358 74.1342 42.9256C75.9601 44.4398 77.6803 45.8705 78.5877 47.2901C82.117 52.8569 82.7908 57.6444 80.5975 61.4577C77.9254 66.0893 71.1336 69.1734 60.4731 70.6263C56.1806 71.1731 51.8573 71.4427 47.5302 71.4335Z" fill="#00102C"/>
<path d="M15.8324 59.1697C15.7249 59.1707 15.6194 59.1405 15.5288 59.0828C15.4381 59.0252 15.3661 58.9425 15.3214 58.8448C15.2766 58.7471 15.2612 58.6385 15.2768 58.5322C15.2924 58.4259 15.3385 58.3264 15.4094 58.2456C17.5916 55.7572 18.5492 54.1596 18.5381 49.2997C18.4874 47.6658 18.1792 46.0501 17.625 44.5122C16.9292 42.2855 16.2667 40.1645 18.0425 37.7206C19.0501 36.3345 20.5198 35.4048 21.9393 34.503C24.4667 32.8997 26.8548 31.3856 27.033 27.4387C27.033 27.0044 27.072 26.5146 27.0887 25.9801C27.1277 24.7777 27.1777 23.2802 27.289 21.677L26.8995 17.5352C26.5737 13.733 27.7691 9.95681 30.2236 7.03478C32.6781 4.11275 36.1911 2.28343 39.9925 1.94803C41.3115 1.82552 42.641 1.88169 43.945 2.11503C44.017 2.1278 44.0859 2.15463 44.1475 2.194C44.2092 2.23337 44.2625 2.2845 44.3043 2.34447C44.3462 2.40444 44.3759 2.47207 44.3916 2.54351C44.4073 2.61494 44.4088 2.68878 44.3959 2.76079C44.3832 2.83281 44.3565 2.90161 44.3171 2.96326C44.2778 3.02491 44.2265 3.07819 44.1665 3.12007C44.1066 3.16194 44.039 3.19159 43.9676 3.20732C43.8961 3.22304 43.8221 3.22453 43.7501 3.2117C42.5453 2.99593 41.3172 2.9435 40.0985 3.05583C36.5904 3.36443 33.3476 5.05127 31.0812 7.74664C28.8147 10.442 27.7092 13.926 28.0072 17.435L28.4024 21.6213C28.4052 21.6509 28.4052 21.6807 28.4024 21.7104C28.2855 23.3081 28.2353 24.8111 28.1963 26.0135C28.1963 26.5702 28.1632 27.0545 28.1409 27.4888C27.9349 32.0146 25.0624 33.835 22.5295 35.4438C21.1322 36.3234 19.8129 37.1584 18.9333 38.372C17.4859 40.3705 17.987 41.9681 18.6772 44.1838C19.2675 45.8253 19.5925 47.5504 19.6403 49.2941C19.6403 54.3043 18.6492 56.2304 16.2388 58.9805C16.1878 59.0385 16.1255 59.0852 16.0555 59.1178C15.9856 59.1504 15.9095 59.1681 15.8324 59.1697Z" fill="#00102C"/>
<path d="M53.2834 33.8144L35.1229 31.9185L32.5888 56.1917L50.7493 58.0876L53.2834 33.8144Z" fill="white"/>
<path d="M51.967 46.3994L53.2919 33.7403L41.7575 32.5379L37.6212 36.4792C39.9871 41.6453 45.0251 45.2693 51.967 46.3994Z" fill="#00102C"/>
<path d="M50.965 41.2667C47.1221 41.9076 43.1817 40.9963 40.0104 38.7332C36.8391 36.47 34.6962 33.0403 34.0527 29.1978L32.5386 20.1238C31.9012 16.2839 32.8144 12.3479 35.0774 9.18093C37.3405 6.01392 40.7681 3.87491 44.6074 3.23396C46.5103 2.91588 48.4573 2.97574 50.3371 3.41013C52.2169 3.84452 53.9929 4.64492 55.5634 5.76564C57.1338 6.88635 58.4681 8.30543 59.4901 9.94184C60.5121 11.5783 61.2018 13.3999 61.5197 15.3029L63.0338 24.3713C63.6713 28.2119 62.7585 32.1485 60.4955 35.3164C58.2326 38.4843 54.8048 40.6244 50.965 41.2667Z" fill="white"/>
<path d="M43.4218 2.47687C34.7431 3.92982 28.8367 11.8904 30.2339 20.2574L30.7572 23.3804C34.1176 24.789 37.8516 25.0376 41.369 24.0869C44.8864 23.1362 47.9868 21.0405 50.18 18.1309L56.0141 10.2593C56.7183 9.31114 57.3123 8.28579 57.7844 7.20313C55.9613 5.29837 53.6976 3.87107 51.1931 3.0469C48.6886 2.22273 46.0198 2.02698 43.4218 2.47687Z" fill="#00102C"/>
<path d="M36.953 31.7029C36.4655 32.0272 35.9192 32.2523 35.3446 32.3652C34.7701 32.4781 34.1789 32.4766 33.605 32.3608C33.0311 32.2449 32.4854 32.0171 31.9996 31.6902C31.5139 31.3634 31.0975 30.9439 30.774 30.4559L30.3788 29.8547C30.0558 29.3668 29.832 28.82 29.7204 28.2456C29.6089 27.6712 29.6115 27.0805 29.7283 26.5072C29.8451 25.9338 30.0739 25.3891 30.4013 24.9042C30.7288 24.4193 31.1486 24.0036 31.6368 23.681C32.1239 23.3564 32.6703 23.131 33.2446 23.0177C33.8189 22.9044 34.4098 22.9054 34.9837 23.0207C35.5576 23.136 36.103 23.3633 36.589 23.6896C37.075 24.0159 37.4921 24.4349 37.816 24.9224L38.2167 25.5237C38.5403 26.0121 38.7645 26.5596 38.8761 27.1348C38.9877 27.7099 38.9845 28.3015 38.8671 28.8755C38.7498 29.4495 38.5204 29.9948 38.1919 30.4799C37.8635 30.9651 37.4423 31.3807 36.953 31.7029Z" fill="white"/>
<path d="M60.8128 21.7549C60.8128 22.8682 60.2561 23.7422 59.5491 23.7478C58.8421 23.7534 58.2853 22.8571 58.2797 21.7604C58.2741 20.6638 58.8364 19.7731 59.5434 19.7731C60.2504 19.7731 60.8072 20.6582 60.8128 21.7549Z" fill="#00102C"/>
<path d="M64.0638 18.9938C63.9351 18.9957 63.8103 18.9501 63.7131 18.8657C61.2414 16.8227 57.5895 18.0474 57.545 18.0585C57.4062 18.1067 57.2539 18.098 57.1215 18.0344C56.9891 17.9708 56.8872 17.8574 56.838 17.7189C56.8134 17.6495 56.8029 17.5759 56.807 17.5024C56.8111 17.4289 56.8298 17.3569 56.8619 17.2906C56.894 17.2243 56.9389 17.1651 56.994 17.1163C57.0492 17.0675 57.1135 17.0302 57.1832 17.0064C57.3558 16.9507 61.4753 15.5701 64.4201 18.0084C64.4799 18.0562 64.529 18.1157 64.5647 18.1833C64.6004 18.251 64.6218 18.3252 64.6275 18.4015C64.6333 18.4777 64.6233 18.5544 64.5982 18.6266C64.573 18.6988 64.5332 18.765 64.4813 18.8212C64.4276 18.8775 64.3626 18.922 64.2907 18.9517C64.2188 18.9815 64.1416 18.9958 64.0638 18.9938Z" fill="#00102C"/>
<path d="M50.9762 22.4229C50.9762 23.5363 50.4195 24.4103 49.7125 24.4159C49.0056 24.4214 48.4487 23.5252 48.4432 22.4285C48.4376 21.3318 48.9999 20.4411 49.7068 20.4411C50.4138 20.4411 50.9707 21.3263 50.9762 22.4229Z" fill="#00102C"/>
<path d="M46.4277 19.5003C46.327 19.5001 46.2283 19.4725 46.142 19.4205C46.0558 19.3686 45.9852 19.2942 45.9379 19.2053C45.8684 19.076 45.853 18.9244 45.8947 18.7837C45.9364 18.6429 46.0318 18.5244 46.1605 18.4538C46.322 18.3647 50.152 16.3272 53.4643 18.2422C53.5276 18.2791 53.583 18.328 53.6274 18.3863C53.6718 18.4446 53.7042 18.5111 53.7228 18.582C53.7414 18.6528 53.7458 18.7266 53.7358 18.7992C53.7259 18.8718 53.7017 18.9417 53.6646 19.0049C53.5903 19.1313 53.4691 19.2232 53.3273 19.2607C53.1855 19.2983 53.0348 19.2783 52.9076 19.2053C50.1242 17.6076 46.7229 19.4113 46.6895 19.4335C46.6091 19.4769 46.5191 19.4999 46.4277 19.5003Z" fill="#00102C"/>
<path d="M55.73 29.426C55.5965 29.4278 55.4671 29.3815 55.3649 29.2957C55.2627 29.2098 55.1946 29.0902 55.1733 28.9584C55.1491 28.813 55.1837 28.664 55.2692 28.544C55.3548 28.424 55.4846 28.3428 55.6299 28.3182C56.1866 28.2236 57.4111 27.8562 57.6672 27.3218C57.6672 27.255 57.7786 27.0824 57.5838 26.7373C56.7376 25.2342 54.9229 20.5358 54.8449 20.3354C54.7922 20.198 54.7961 20.0454 54.8555 19.9108C54.915 19.7763 55.0251 19.6707 55.1621 19.6172C55.2305 19.5913 55.3035 19.579 55.3766 19.5812C55.4497 19.5834 55.5214 19.5999 55.5881 19.6299C55.6548 19.6599 55.7149 19.7027 55.765 19.756C55.8152 19.8092 55.8543 19.8718 55.8803 19.9401C55.8803 19.9847 57.7453 24.7555 58.5525 26.1861C58.7073 26.4233 58.799 26.6958 58.8195 26.9782C58.8399 27.2606 58.7884 27.5436 58.6694 27.8005C58.1127 29.003 56.0475 29.3815 55.8137 29.4205L55.73 29.426Z" fill="#00102C"/>
<path d="M51.2266 35.7277C50.7592 35.7408 50.2996 35.6064 49.9129 35.3436C48.2929 34.2303 48.9831 31.1963 49.0721 30.8567C49.0904 30.7817 49.1241 30.7112 49.1711 30.6499C49.218 30.5886 49.2773 30.5377 49.345 30.5005C49.4125 30.4635 49.4869 30.441 49.5636 30.4343C49.6402 30.4276 49.7174 30.4369 49.7903 30.4615C56.2089 32.6548 56.2089 32.6548 56.2702 33.1058C56.2883 33.2117 56.2754 33.3207 56.2329 33.4195C56.1904 33.5183 56.1201 33.6027 56.0307 33.6624C54.0044 35.0374 52.4179 35.7277 51.2266 35.7277ZM50.0409 31.7252C49.9184 32.6159 49.8851 33.9519 50.5476 34.4307C50.9484 34.709 51.9782 34.8816 54.5278 33.3173C53.42 32.8942 51.5328 32.2373 50.0409 31.7252Z" fill="#00102C"/>
<path d="M35.8118 29.7044C35.6725 29.7049 35.5379 29.6532 35.4348 29.5594C35.3317 29.4656 35.2677 29.3366 35.2551 29.1978C34.9712 26.2474 33.1398 25.7463 33.0618 25.7296C32.9187 25.6941 32.7955 25.6032 32.7193 25.4769C32.6432 25.3506 32.6202 25.1993 32.6555 25.0561C32.6899 24.9143 32.7787 24.7917 32.9026 24.7146C33.0264 24.6376 33.1755 24.6123 33.3179 24.6441C33.4292 24.6441 36.0012 25.3121 36.3631 29.0976C36.377 29.2445 36.332 29.3909 36.238 29.5047C36.1441 29.6185 36.0087 29.6903 35.8618 29.7044H35.8118Z" fill="#00102C"/>
<path d="M50.5307 48.9379L35.2607 52.1444C30.1452 53.575 25.4186 56.1416 21.433 59.653C17.4474 63.1644 14.3058 67.53 12.242 72.4244L2.08245 96.5289C-4.59778 112.411 12.6036 127.759 27.6174 119.297L48.3651 107.607L71.4955 103.064L72.9707 62.1703C71.5578 57.5612 68.4716 53.6474 64.319 51.1987C60.1664 48.75 55.2478 47.9435 50.5307 48.9379Z" fill="#007AFF"/>
<path d="M87.8915 51.9204L54.7715 128.714L61.9279 131.8L95.0479 55.0069L87.8915 51.9204Z" fill="#FF499A"/>
<path d="M104.696 64.2189C103.942 64.2199 103.194 64.0645 102.503 63.7624L76.6337 52.6287C75.2862 52.0415 74.2255 50.9453 73.6832 49.5791C73.1408 48.2128 73.1608 46.6876 73.7389 45.3361L81.7385 26.804C82.0244 26.1332 82.4408 25.5259 82.9636 25.0174C83.4864 24.509 84.1051 24.1096 84.7837 23.8425C85.4608 23.5724 86.1845 23.4388 86.9134 23.4493C87.6423 23.4598 88.3621 23.6142 89.0311 23.9037L114.9 35.0374C116.252 35.6224 117.317 36.7194 117.862 38.0881C118.132 38.7643 118.266 39.4875 118.254 40.2157C118.243 40.944 118.087 41.6626 117.795 42.33L109.795 60.8676C109.364 61.862 108.652 62.7088 107.746 63.3041C106.84 63.8995 105.78 64.2174 104.696 64.2189ZM81.7831 46.3381L103.527 55.7183L109.734 41.328L87.9901 31.9478L81.7831 46.3381Z" fill="#FF499A"/>
<path d="M56.6082 97.3687L53.5217 104.525L67.1853 110.418L70.2718 103.262L56.6082 97.3687Z" fill="#FF499A"/>
<path d="M60.0738 106.352L56.9873 113.508L64.3277 116.674L67.4142 109.518L60.0738 106.352Z" fill="#FF499A"/>
<path d="M51.1736 110.009L48.0872 117.165L61.7507 123.058L64.8372 115.901L51.1736 110.009Z" fill="#FF499A"/>
<path d="M83.6703 75.425C83.6703 75.425 92.6385 75.5196 94.9432 73.0757C97.5151 70.348 96.5631 67.3252 93.8298 64.7255L91.6031 63.2892L89.6878 67.5145L83.6703 75.425Z" fill="white"/>
<path d="M81.0873 81.671C81.0873 81.671 86.4257 81.671 89.2815 80.3516C93.2173 78.5368 94.5647 74.2281 93.969 74.1446L81.0873 81.671Z" fill="white"/>
<path d="M79.6455 86.1801C81.572 86.1114 83.4802 85.7818 85.3181 85.2004C88.1628 84.254 89.6211 82.2332 89.2815 80.3683L79.6455 86.1801Z" fill="white"/>
<path d="M85.3182 85.1836C85.3182 85.1836 84.611 88.0951 80.4915 89.1528C73.8391 90.8562 65.8062 88.4402 65.8062 88.4402L44.6522 104.623C43.1133 105.802 41.2845 106.543 39.359 106.769C37.4336 106.994 35.4829 106.695 33.7134 105.903C31.3715 104.853 29.4824 102.999 28.3871 100.678C27.2917 98.3565 27.0624 95.7201 27.7401 93.2444L28.4583 90.6113C29.2022 87.897 30.9785 85.5813 33.4073 84.1593L57.3448 70.1642L62.3827 65.644C65.9526 62.4337 70.6277 60.7317 75.4259 60.8954L84.1045 61.3241L80.5918 69.1678L85.3182 85.1836Z" fill="white"/>
<path d="M94.2973 65.1374C94.3419 64.9092 96.9971 67.6091 96.9359 69.5464C96.819 73.3819 94.2916 73.5545 94.2916 73.5545C94.2547 75.0521 93.7653 76.5034 92.888 77.7175C92.0106 78.9317 90.7866 79.852 89.3763 80.3572C88.931 80.5298 89.5822 83.4691 85.2623 85.6123C84.3605 86.0577 84.7392 88.6017 79.228 89.6984C74.1154 90.64 68.8384 90.0453 64.0637 87.9894L73.5274 65.3601C73.5274 65.3601 79.4004 70.0363 84.5219 69.8525C91.6865 69.5909 93.852 67.6202 94.2973 65.1374Z" fill="white"/>
<path d="M83.2137 70.4649C78.0978 70.4649 76.0325 68.2381 75.615 67.7149C75.5697 67.6575 75.536 67.5917 75.5161 67.5214C75.4962 67.451 75.4904 67.3774 75.4989 67.3048C75.5075 67.2321 75.5301 67.1619 75.5658 67.0981C75.6015 67.0342 75.6495 66.978 75.7069 66.9327C75.7643 66.8874 75.8301 66.8538 75.9004 66.8339C75.9708 66.814 76.0444 66.8081 76.1171 66.8167C76.1897 66.8252 76.2598 66.8479 76.3236 66.8836C76.3875 66.9193 76.4436 66.9672 76.4889 67.0246C76.7505 67.3586 79.2725 70.2645 86.5595 69.0565C89.5656 68.5499 89.8995 66.8019 89.9274 66.724C89.9532 66.5796 90.035 66.4513 90.1549 66.3669C90.2747 66.2825 90.4229 66.2488 90.5675 66.273C90.7116 66.2964 90.841 66.3754 90.9274 66.493C91.0138 66.6107 91.0504 66.7576 91.0296 66.9021C91.0296 67.0079 90.5788 69.513 86.7433 70.1531C85.5773 70.3532 84.3967 70.4575 83.2137 70.4649Z" fill="#00102C"/>
<path d="M83.8372 75.9872H83.6646C83.517 75.9872 83.3754 75.9285 83.271 75.8241C83.1666 75.7197 83.1079 75.5781 83.1079 75.4305C83.1079 75.2828 83.1666 75.1412 83.271 75.0368C83.3754 74.9324 83.517 74.8738 83.6646 74.8738H83.9152C86.5149 74.8738 92.8221 74.4953 94.5311 72.6972C94.9926 72.2435 95.3498 71.6948 95.5776 71.0891C95.8055 70.4834 95.8986 69.8354 95.8505 69.19C95.6947 67.4754 94.5089 65.7219 92.5104 64.2411C92.393 64.1535 92.3148 64.0231 92.293 63.8782C92.2711 63.7334 92.3073 63.5857 92.3935 63.4673C92.4803 63.3491 92.6101 63.2699 92.755 63.2469C92.8999 63.224 93.048 63.2592 93.1671 63.3448C95.4328 65.0149 96.7802 67.0579 96.9639 69.0898C97.0264 69.8916 96.9145 70.6974 96.6358 71.4518C96.3571 72.2062 95.9183 72.8913 95.3496 73.4598C93.0616 75.8814 85.1565 75.9872 83.8372 75.9872Z" fill="#00102C"/>
<path d="M81.0816 82.2277C80.9339 82.2277 80.7924 82.169 80.688 82.0646C80.5836 81.9602 80.5249 81.8186 80.5249 81.671C80.5249 81.5233 80.5836 81.3817 80.688 81.2773C80.7924 81.1729 80.9339 81.1143 81.0816 81.1143C81.1373 81.1143 86.3367 81.1143 89.0478 79.845C92.2098 78.3865 93.5013 75.2635 93.5459 74.512C93.4914 74.4494 93.4517 74.3754 93.4295 74.2955C93.4074 74.2155 93.4034 74.1316 93.4178 74.0499C93.4306 73.9779 93.4576 73.9091 93.4969 73.8475C93.5363 73.7858 93.5873 73.7325 93.6472 73.6907C93.7072 73.6488 93.7748 73.6191 93.8462 73.6034C93.9176 73.5877 93.9917 73.5862 94.0637 73.599C94.2172 73.6353 94.3546 73.7207 94.4551 73.8423C94.5556 73.9639 94.6137 74.115 94.6204 74.2726C94.7707 75.425 93.1617 79.1603 89.4876 80.8582C86.5539 82.211 81.282 82.2277 81.0593 82.2277H81.0816Z" fill="#00102C"/>
<path d="M79.6456 86.7368C79.4979 86.7368 79.3561 86.6782 79.2517 86.5738C79.1473 86.4694 79.0889 86.3278 79.0889 86.1801C79.0889 86.0325 79.1473 85.8909 79.2517 85.7865C79.3561 85.6821 79.4979 85.6234 79.6456 85.6234C81.5169 85.554 83.3704 85.2338 85.1567 84.6715C87.5727 83.8699 89.0533 82.1386 88.7471 80.4685C88.734 80.3954 88.7354 80.3204 88.7512 80.2479C88.767 80.1753 88.7969 80.1065 88.8393 80.0455C88.8817 79.9845 88.9358 79.9325 88.9983 79.8924C89.0608 79.8522 89.1307 79.8248 89.2038 79.8116C89.2769 79.7985 89.3517 79.7998 89.4242 79.8157C89.4968 79.8315 89.5658 79.8614 89.6268 79.9038C89.6877 79.9462 89.7397 80.0002 89.7798 80.0627C89.8199 80.1252 89.8474 80.195 89.8605 80.2681C90.2613 82.4949 88.48 84.7216 85.5185 85.7236C83.6203 86.3287 81.6476 86.6697 79.6564 86.7368H79.6456Z" fill="#00102C"/>
<path d="M38.1332 107.401C36.3927 107.399 34.6761 106.996 33.1165 106.223C31.557 105.45 30.1965 104.328 29.1406 102.944C28.0848 101.561 27.362 99.9523 27.0283 98.244C26.6947 96.5357 26.7591 94.7735 27.2167 93.0942L27.9349 90.461C28.7092 87.6036 30.5796 85.167 33.1399 83.6806L57.0105 69.7134L62.2545 65.0261C65.7659 61.8633 70.3688 60.1887 75.0917 60.3555L83.6646 60.7285C83.7401 60.7284 83.8148 60.7436 83.8842 60.7733C83.9536 60.803 84.0164 60.8465 84.0685 60.9012C84.1206 60.9559 84.161 61.0206 84.1873 61.0914C84.2136 61.1622 84.225 61.2376 84.2212 61.313C84.2177 61.3861 84.1998 61.4578 84.1685 61.524C84.1372 61.5902 84.0932 61.6496 84.0389 61.6987C83.9846 61.7478 83.9211 61.7857 83.8521 61.8103C83.7831 61.8349 83.71 61.8456 83.6368 61.8418L75.0582 61.4355C70.6241 61.2758 66.3023 62.8515 63.0115 65.8277L57.7118 70.5929L57.6229 70.6597L33.6855 84.6492C31.3756 85.9926 29.6891 88.1931 28.9925 90.7728L28.2966 93.417C27.7337 95.4767 27.831 97.6611 28.575 99.6625C29.3189 101.664 30.6719 103.382 32.4435 104.573C34.2151 105.765 36.316 106.371 38.4502 106.306C40.5844 106.241 42.6445 105.509 44.3402 104.211L65.4943 88.0283C65.5642 87.9738 65.6463 87.9367 65.7335 87.9203C65.8206 87.9038 65.9105 87.9084 65.9955 87.9337C66.0734 87.9615 73.9616 90.2885 80.3802 88.6407C84.0933 87.6887 84.7778 85.1781 84.8057 85.0723C84.8456 84.9341 84.9376 84.8167 85.0623 84.7447C85.1869 84.6728 85.3346 84.6519 85.4743 84.6865C85.614 84.721 85.735 84.8083 85.8117 84.9301C85.8884 85.0519 85.915 85.1986 85.8859 85.3395C85.8525 85.4731 85.0508 88.5906 80.6585 89.7206C74.535 91.2849 67.4484 89.498 65.9509 89.0804L44.9972 105.063C43.0282 106.575 40.6159 107.397 38.1332 107.401Z" fill="#00102C"/>
<path d="M52.1954 46.5386L35.2608 51.5487C32.2667 52.4344 29.4084 53.7268 26.7659 55.3899C30.8686 62.3206 39.5251 65.349 47.469 62.1647C48.5342 61.7345 49.5557 61.2033 50.5196 60.5782L52.1954 46.5386Z" fill="white"/>
<path d="M117.701 97.8148C117.606 97.815 117.513 97.7911 117.43 97.7453C117.347 97.6995 117.277 97.6334 117.227 97.5532L112.868 90.5167L105.576 92.4317C105.467 92.4588 105.352 92.4522 105.246 92.4127C105.141 92.3732 105.05 92.3027 104.985 92.2105C104.921 92.1182 104.886 92.0086 104.885 91.896C104.884 91.7834 104.917 91.6732 104.98 91.5799L108.877 85.9073L105.231 78.4978C105.182 78.3977 105.165 78.2854 105.181 78.1752C105.196 78.0651 105.245 77.9622 105.32 77.8799C105.395 77.7968 105.494 77.7386 105.603 77.7127C105.713 77.6869 105.827 77.6947 105.932 77.7352L113.358 80.6132L118.368 74.0054C118.436 73.9148 118.53 73.8471 118.638 73.8113C118.745 73.7755 118.861 73.7733 118.97 73.805C119.078 73.8363 119.175 73.8999 119.247 73.9874C119.318 74.0749 119.361 74.1822 119.371 74.2949L120.044 82.9625L129.057 84.1872C129.204 84.1739 129.351 84.2198 129.465 84.3148C129.579 84.4098 129.65 84.5461 129.664 84.6937C129.677 84.8414 129.631 84.9883 129.536 85.1021C129.441 85.2159 129.305 85.2872 129.157 85.3005L119.137 88.5571L118.257 97.3138C118.246 97.4301 118.199 97.54 118.122 97.6279C118.045 97.7158 117.942 97.7773 117.829 97.8037L117.701 97.8148ZM113.124 89.3198C113.219 89.3196 113.312 89.3435 113.395 89.3893C113.478 89.4351 113.548 89.5012 113.598 89.5814L117.316 95.5769L118.085 88.0561C118.095 87.9491 118.137 87.8475 118.204 87.7635C118.271 87.6795 118.361 87.6168 118.463 87.5829L126.507 84.961L119.432 83.9812C119.305 83.9636 119.189 83.9032 119.102 83.8099C119.015 83.7167 118.962 83.5964 118.953 83.469L118.357 75.8258L113.993 81.593C113.92 81.6886 113.819 81.7581 113.703 81.7912C113.588 81.8243 113.465 81.8192 113.353 81.7767L106.862 79.2828L110.029 85.7069C110.072 85.7949 110.092 85.8927 110.085 85.9905C110.078 86.0882 110.045 86.1825 109.99 86.2636L106.745 90.9676L112.985 89.3309C113.031 89.3218 113.078 89.318 113.124 89.3198Z" fill="#007AFF"/>
<path d="M119.203 23.6365C119.103 23.6368 119.005 23.61 118.919 23.5591C118.833 23.5081 118.762 23.4349 118.714 23.347L117.467 21.0479L115.179 19.8009C115.091 19.7529 115.017 19.682 114.967 19.5958C114.916 19.5096 114.889 19.4112 114.889 19.3111C114.889 19.2109 114.916 19.1126 114.967 19.0263C115.017 18.9401 115.091 18.8693 115.179 18.8212L117.467 17.5742L118.714 15.2862C118.761 15.1979 118.832 15.124 118.918 15.0726C119.004 15.0211 119.103 14.994 119.203 14.994C119.304 14.994 119.403 15.0211 119.489 15.0726C119.575 15.124 119.646 15.1979 119.693 15.2862L120.94 17.5742L123.228 18.8212C123.316 18.8693 123.39 18.9401 123.44 19.0263C123.491 19.1126 123.518 19.2109 123.518 19.3111C123.518 19.4112 123.491 19.5096 123.44 19.5958C123.39 19.682 123.316 19.7529 123.228 19.8009L120.94 21.0479L119.693 23.3359C119.647 23.4258 119.576 23.5013 119.49 23.5543C119.404 23.6073 119.305 23.6357 119.203 23.6365ZM116.609 19.3222L118.14 20.1628C118.234 20.214 118.312 20.2914 118.363 20.3855L119.203 21.9164L120.044 20.3855C120.095 20.2914 120.173 20.214 120.267 20.1628L121.82 19.3222L120.289 18.4816C120.196 18.4319 120.118 18.3566 120.066 18.2645L119.226 16.728L118.363 18.2645C118.311 18.3566 118.234 18.4319 118.14 18.4816L116.609 19.3222Z" fill="#007AFF"/>
<path d="M7.07566 100.654C6.97701 100.654 6.88024 100.627 6.79514 100.578C6.71004 100.528 6.63961 100.456 6.59128 100.37C6.51916 100.242 6.50106 100.09 6.54072 99.9478C6.58037 99.8059 6.67474 99.6855 6.80302 99.613L33.9526 84.3097C34.0811 84.2376 34.2328 84.2193 34.3747 84.259C34.5166 84.2986 34.6371 84.3929 34.7096 84.5212C34.7817 84.6497 34.7998 84.8016 34.7602 84.9435C34.7205 85.0854 34.6264 85.2058 34.4981 85.2783L7.34856 100.582C7.26536 100.629 7.17129 100.654 7.07566 100.654Z" fill="white"/>
<path d="M72.5477 60.3611C72.4397 60.3619 72.3337 60.3313 72.2427 60.273C72.1518 60.2147 72.0796 60.1312 72.0353 60.0326C70.4118 56.3359 67.6231 53.272 64.0949 51.3089C60.5667 49.3458 56.4931 48.5912 52.4959 49.1606L50.6141 49.4389C50.4723 49.4534 50.3304 49.4131 50.2175 49.3261C50.1046 49.2391 50.0294 49.1121 50.0074 48.9713C49.9963 48.8989 49.9996 48.825 50.0172 48.7539C50.0347 48.6828 50.0661 48.6159 50.1096 48.5569C50.153 48.498 50.2075 48.4482 50.2702 48.4104C50.3329 48.3726 50.4025 48.3475 50.4749 48.3367L52.3567 48.0583C56.5955 47.4542 60.9155 48.2534 64.6576 50.3341C68.3997 52.4147 71.3583 55.6624 73.0821 59.5817C73.1117 59.6486 73.1279 59.7207 73.1297 59.7938C73.1314 59.867 73.1188 59.9397 73.0924 60.008C73.066 60.0762 73.0263 60.1386 72.9758 60.1915C72.9253 60.2445 72.865 60.287 72.798 60.3165C72.7191 60.3505 72.6335 60.3658 72.5477 60.3611Z" fill="white"/>
</svg>
