<svg width="169" height="134" viewBox="0 0 169 134" fill="none" xmlns="http://www.w3.org/2000/svg">
<g clip-path="url(#clip0_93_94)">
<path d="M113.11 0.896221H5.86735C2.95691 0.896221 0.597534 3.25061 0.597534 6.15489V77.4987C0.597534 80.403 2.95691 82.7574 5.86735 82.7574H113.11C116.02 82.7574 118.38 80.403 118.38 77.4987V6.15489C118.38 3.25061 116.02 0.896221 113.11 0.896221Z" fill="white"/>
<path d="M113.11 83.3536H5.86725C4.31266 83.352 2.82201 82.7355 1.72219 81.6391C0.622374 80.5427 0.002918 79.056 -0.000244141 77.5047V6.15489C0.00133758 4.60256 0.619869 3.11426 1.71986 2.0166C2.81985 0.918937 4.31163 0.301578 5.86725 0.299999H113.11C114.666 0.299999 116.158 0.916853 117.259 2.01486C118.359 3.11286 118.977 4.60208 118.977 6.15489V77.5047C118.975 79.0565 118.356 80.5441 117.256 81.6409C116.156 82.7376 114.665 83.3536 113.11 83.3536ZM5.86725 1.49244C4.62855 1.49402 3.44122 1.98575 2.56533 2.85979C1.68943 3.73382 1.19631 4.91882 1.19473 6.15489V77.5047C1.19631 78.7402 1.68926 79.9246 2.56533 80.7977C3.44139 81.6708 4.6291 82.1612 5.86725 82.1612H113.11C114.348 82.1612 115.535 81.6708 116.411 80.7977C117.287 79.9246 117.78 78.7402 117.782 77.5047V6.15489C117.782 4.91833 117.29 3.73242 116.414 2.85804C115.537 1.98366 114.349 1.49244 113.11 1.49244H5.86725Z" fill="#00102C"/>
<path d="M7.33167 9.09426C6.83653 9.09426 6.35234 8.94774 5.94065 8.67324C5.52895 8.39874 5.20823 8.00858 5.01874 7.5521C4.82926 7.09562 4.77978 6.59332 4.87638 6.10872C4.97297 5.62413 5.21127 5.179 5.56138 4.82962C5.9115 4.48025 6.35767 4.24232 6.84329 4.14593C7.32892 4.04954 7.8323 4.09901 8.28974 4.28809C8.74719 4.47717 9.13786 4.79737 9.41295 5.20819C9.68803 5.61901 9.8348 6.102 9.8348 6.59609C9.8348 7.25865 9.57144 7.89407 9.10195 8.36256C8.63246 8.83106 7.99563 9.09426 7.33167 9.09426ZM7.33167 5.29037C7.07287 5.29037 6.81983 5.36695 6.60465 5.51042C6.38947 5.6539 6.22173 5.85783 6.12269 6.09642C6.02366 6.33501 5.99752 6.59754 6.04801 6.85083C6.0985 7.10411 6.22327 7.33677 6.40626 7.51938C6.58926 7.70199 6.82228 7.82635 7.0761 7.87673C7.32992 7.92711 7.5932 7.90125 7.83229 7.80243C8.07139 7.7036 8.2755 7.53624 8.41928 7.32151C8.56306 7.10679 8.63983 6.85434 8.63983 6.59609C8.63983 6.24979 8.50188 5.91768 8.25649 5.67281C8.0111 5.42794 7.6787 5.29037 7.33167 5.29037Z" fill="#00102C"/>
<path d="M13.7423 9.09426C13.2472 9.09426 12.763 8.94774 12.3513 8.67324C11.9396 8.39874 11.6189 8.00858 11.4294 7.5521C11.2399 7.09562 11.1904 6.59332 11.287 6.10872C11.3836 5.62413 11.6219 5.179 11.972 4.82962C12.3221 4.48025 12.7683 4.24232 13.2539 4.14593C13.7396 4.04954 14.2429 4.09901 14.7004 4.28809C15.1578 4.47717 15.5491 4.79737 15.8242 5.20819C16.0993 5.61901 16.246 6.102 16.246 6.59609C16.2445 7.25816 15.98 7.89267 15.5108 8.36083C15.0417 8.82898 14.4058 9.09269 13.7423 9.09426ZM13.7423 5.29037C13.4835 5.29037 13.2305 5.36695 13.0153 5.51042C12.8001 5.6539 12.6324 5.85783 12.5333 6.09642C12.4343 6.33501 12.4087 6.59754 12.4592 6.85083C12.5097 7.10411 12.6339 7.33677 12.8169 7.51938C12.9999 7.70199 13.2335 7.82635 13.4873 7.87673C13.7412 7.92711 14.0038 7.90125 14.2429 7.80243C14.482 7.7036 14.6867 7.53624 14.8305 7.32151C14.9743 7.10679 15.0511 6.85434 15.0511 6.59609C15.0511 6.24979 14.9131 5.91768 14.6677 5.67281C14.4223 5.42794 14.0893 5.29037 13.7423 5.29037Z" fill="#00102C"/>
<path d="M20.1535 9.09426C19.6581 9.09544 19.1732 8.94993 18.7608 8.67615C18.3483 8.40236 18.0263 8.01262 17.8359 7.55624C17.6455 7.09987 17.5953 6.59738 17.6912 6.11239C17.7871 5.6274 18.0252 5.18172 18.3751 4.83174C18.7249 4.48177 19.1712 4.24325 19.657 4.14638C20.1428 4.0495 20.6462 4.09862 21.104 4.28753C21.5618 4.47643 21.953 4.79662 22.2284 5.20757C22.5037 5.61852 22.6508 6.10175 22.6508 6.59609C22.6493 7.25714 22.3858 7.89074 21.918 8.35873C21.4501 8.82672 20.816 9.09112 20.1535 9.09426ZM20.1535 5.29037C19.8945 5.28919 19.6407 5.36476 19.4248 5.50752C19.2088 5.65027 19.0404 5.85379 18.9405 6.09227C18.8405 6.33076 18.8136 6.59348 18.8634 6.84716C18.9133 7.10083 19.0372 7.33405 19.22 7.51726C19.4027 7.70046 19.6358 7.82541 19.8898 7.87628C20.1438 7.92715 20.4071 7.90164 20.6466 7.80299C20.886 7.70434 21.0907 7.53699 21.2347 7.32213C21.3788 7.10728 21.4559 6.8546 21.4559 6.59609C21.4559 6.25083 21.3189 5.91961 21.0748 5.67491C20.8307 5.43021 20.4995 5.29195 20.1535 5.29037Z" fill="#00102C"/>
<path d="M65.1257 40.7655L54.186 47.9858L54.8967 49.053C55.2043 49.5174 55.6007 49.9166 56.0631 50.2279C56.5255 50.5392 57.0452 50.7565 57.5918 50.8673C58.1385 50.978 58.7014 50.9801 59.2489 50.8734C59.7964 50.7667 60.3176 50.5533 60.7823 50.2454L67.2292 45.9944L65.1257 40.7655Z" fill="white"/>
<path d="M58.4463 51.5512C58.1193 51.5519 57.7931 51.52 57.4725 51.4558C56.8479 51.3294 56.2542 51.0811 55.7262 50.725C55.1981 50.3689 54.7457 49.9121 54.3952 49.3809L53.6904 48.3137C53.6023 48.1824 53.5698 48.0215 53.6005 47.8665C53.6159 47.7891 53.6469 47.7155 53.691 47.65C53.7351 47.5845 53.7918 47.5284 53.8578 47.4849L64.7975 40.2647C64.8716 40.2159 64.9553 40.1842 65.0432 40.1718C65.131 40.1594 65.2205 40.1667 65.3052 40.1932C65.3903 40.22 65.4682 40.2656 65.5333 40.3264C65.5984 40.3873 65.6497 40.462 65.6821 40.5449L67.7791 45.7738C67.8313 45.901 67.8375 46.0424 67.7972 46.1738C67.7569 46.3053 67.6725 46.4188 67.558 46.4952L61.1111 50.7463C60.3226 51.2725 59.395 51.5527 58.4463 51.5512ZM55.0166 48.1527L55.393 48.7489C55.6572 49.1486 55.9978 49.4922 56.3954 49.7601C56.793 50.0281 57.2398 50.2151 57.71 50.3103C58.1802 50.4056 58.6646 50.4073 59.1354 50.3154C59.6063 50.2234 60.0546 50.0396 60.4541 49.7744L66.4885 45.7917L64.8454 41.6897L55.0166 48.1527Z" fill="#00102C"/>
<path d="M67.8861 71.3755L61.3914 61.5677C60.2461 59.8432 59.4532 57.9102 59.0574 55.8794C58.6617 53.8486 58.6713 51.7598 59.0855 49.7327L62.2462 34.2608L51.5329 32.0786C50.3367 31.8331 49.2871 31.1237 48.6149 30.1063C47.9426 29.0889 47.7028 27.8468 47.948 26.653L48.2228 25.2936L69.87 29.6937L81.2222 40.8907L81.5688 63.7379L91.5463 78.7925L78.5154 87.39L67.8861 71.3755Z" fill="white"/>
<path d="M78.5037 87.9803C78.4053 87.9798 78.3084 87.955 78.2219 87.9082C78.1354 87.8614 78.0619 87.794 78.0078 87.712L60.8896 61.8956C59.6973 60.1065 58.8725 58.0994 58.4623 55.9903C58.0521 53.8811 58.0646 51.7117 58.4996 49.6075L61.5407 34.702L51.4132 32.639C50.0603 32.3632 48.8726 31.5628 48.1107 30.4135C47.3489 29.2643 47.0755 27.8602 47.3505 26.5099L47.6253 25.1505C47.6578 24.9963 47.7506 24.8613 47.8826 24.7749C48.0142 24.687 48.1754 24.6548 48.3307 24.6855L69.9773 29.0856C70.0914 29.1112 70.1965 29.1668 70.2819 29.2465L81.6341 40.4436C81.7445 40.5546 81.8067 40.7045 81.8074 40.8609L82.1482 63.5173L92.0306 78.4229C92.1187 78.5542 92.1511 78.715 92.1204 78.87C92.0879 79.0242 91.9951 79.1592 91.8631 79.2456L78.8322 87.8491C78.7385 87.925 78.624 87.9707 78.5037 87.9803ZM68.3879 71.0416L78.6706 86.5434L90.7043 78.6017L81.0547 64.042C80.9937 63.9477 80.9604 63.8382 80.959 63.726L80.6188 41.1233L69.5654 30.2243L48.6534 25.9733L48.4976 26.7484C48.2861 27.7888 48.497 28.8704 49.084 29.7558C49.671 30.6411 50.5863 31.2578 51.6286 31.4704L62.3413 33.6526C62.4188 33.668 62.4927 33.6985 62.5583 33.7425C62.624 33.7866 62.6805 33.8431 62.724 33.909C62.8101 34.0412 62.8399 34.2019 62.8075 34.3562L59.6468 49.8281C59.2435 51.7782 59.2318 53.7888 59.6123 55.7435C59.9928 57.6982 60.7579 59.5582 61.8634 61.2159L68.3879 71.0416Z" fill="#00102C"/>
<path d="M63.0166 38.1481L50.1649 35.5367L49.9081 36.7887C49.7964 37.3345 49.7937 37.8968 49.9 38.4437C50.0062 38.9905 50.2192 39.5111 50.5272 39.9756C50.8352 40.4402 51.232 40.8396 51.6947 41.1511C52.1575 41.4626 52.677 41.6801 53.224 41.791L60.7941 43.3352L63.0166 38.1481Z" fill="white"/>
<path d="M60.7941 43.9494C60.7545 43.9551 60.7141 43.9551 60.6745 43.9494L53.1044 42.4111C51.8451 42.154 50.7397 41.4087 50.0306 40.3389C49.3215 39.2691 49.0666 37.9623 49.3222 36.7053L49.5796 35.4532C49.5952 35.3765 49.6255 35.3036 49.6694 35.2387C49.7133 35.1737 49.7697 35.1181 49.8351 35.0749C49.9006 35.0317 49.974 35.0018 50.051 34.987C50.1281 34.9721 50.2075 34.9725 50.2844 34.9881L63.1362 37.5996C63.2236 37.6171 63.3064 37.6539 63.3777 37.7074C63.4491 37.7608 63.5074 37.8295 63.5487 37.9084C63.59 37.9873 63.6127 38.0744 63.6158 38.1633C63.6189 38.2523 63.6024 38.3408 63.5668 38.4224L61.3437 43.6035C61.2953 43.708 61.2178 43.7962 61.1202 43.8575C61.0227 43.9189 60.9094 43.9508 60.7941 43.9494ZM50.6368 36.2581L50.4997 36.9259C50.3075 37.8729 50.4993 38.8574 51.0336 39.6633C51.5679 40.4692 52.4008 41.0307 53.3494 41.2246L60.4417 42.6675L62.1863 38.6072L50.6368 36.2581Z" fill="#00102C"/>
<path d="M63.9606 40.2587L50.9414 41.8745L51.103 43.1444C51.171 43.6971 51.3473 44.231 51.6223 44.7155C51.8974 45.1999 52.2657 45.6255 52.7059 45.9677C53.146 46.31 53.6493 46.5623 54.1873 46.7101C54.7253 46.8579 55.2872 46.8983 55.8409 46.8291L63.5067 45.8811L63.9606 40.2587Z" fill="white"/>
<path d="M55.3094 47.4611C54.1328 47.4502 53.0001 47.014 52.1212 46.2334C51.2423 45.4529 50.6769 44.3808 50.5295 43.216L50.3743 41.9461C50.3557 41.7896 50.4 41.6321 50.4974 41.5081C50.5948 41.3841 50.7375 41.3036 50.8941 41.2842L63.907 39.6685C63.9955 39.6571 64.0853 39.6656 64.1701 39.6935C64.2549 39.7214 64.3327 39.7678 64.3971 39.8295C64.4604 39.8908 64.509 39.9654 64.54 40.0479C64.571 40.1304 64.5835 40.2187 64.5762 40.3064L64.1281 45.9288C64.1166 46.0659 64.0582 46.1948 63.9624 46.2937C63.8666 46.3926 63.7393 46.4553 63.6024 46.4714L55.9366 47.4253C55.7284 47.4501 55.519 47.462 55.3094 47.4611ZM51.6107 42.3932L51.6947 43.0729C51.7538 43.5478 51.906 44.0065 52.1428 44.4227C52.3796 44.8388 52.6962 45.2044 53.0746 45.4984C53.453 45.7924 53.886 46.0091 54.3484 46.1362C54.8107 46.2632 55.2932 46.2981 55.7691 46.2388L62.939 45.3505L63.292 40.9444L51.6107 42.3932Z" fill="#00102C"/>
<path d="M96.625 40.6821L50.9535 32.4244L42.989 34.4217L49.3525 39.0007L95.0239 47.2524L95.3588 46.8708C96.0614 46.081 96.553 45.1274 96.789 44.0979C97.0249 43.0684 96.9976 41.9962 96.709 40.9802L96.625 40.6821Z" fill="#FF6852"/>
<path d="M92.8197 47.628C92.7781 47.6339 92.7359 47.6339 92.6943 47.628C92.5401 47.5951 92.4047 47.5026 92.3185 47.3709C92.2323 47.2391 92.202 47.0786 92.2339 46.9245L93.5602 40.7059C93.5935 40.5478 93.6883 40.4093 93.8239 40.321C93.9595 40.2327 94.1246 40.2017 94.2831 40.2349C94.4416 40.2681 94.5803 40.3628 94.6688 40.4981C94.7573 40.6333 94.7884 40.7982 94.7551 40.9563L93.4231 47.1689C93.3913 47.3034 93.3137 47.4226 93.2037 47.5064C93.0936 47.5901 92.958 47.6331 92.8197 47.628Z" fill="#00102C"/>
<path d="M68.46 46.7635L58.1417 31.1962L58.0641 31.2558C56.8752 32.1681 56.039 33.4629 55.6981 34.9203C55.3572 36.3777 55.5322 37.9079 56.1935 39.2511L59.6232 47.3896L68.46 46.7635Z" fill="white"/>
<path d="M59.6231 47.9858C59.5058 47.9857 59.3911 47.9511 59.2934 47.8865C59.1957 47.8218 59.1192 47.7298 59.0734 47.6221L55.6437 39.4836C54.9336 38.0186 54.7507 36.3543 55.125 34.7703C55.4993 33.1863 56.4082 31.779 57.6993 30.7848L57.7769 30.7252C57.8414 30.6749 57.9154 30.6384 57.9946 30.6179C58.0737 30.5974 58.1559 30.5933 58.2367 30.6059C58.318 30.6197 58.396 30.6502 58.4649 30.6953C58.5337 30.7405 58.5926 30.7993 58.6376 30.8683L68.9559 46.4356C69.0047 46.5004 69.04 46.5745 69.0591 46.6532C69.0783 46.732 69.0809 46.8139 69.0673 46.8938C69.0537 46.9738 69.024 47.0501 68.9798 47.1181C68.9356 47.1862 68.8781 47.2445 68.8106 47.2896C68.743 47.3347 68.667 47.3655 68.5871 47.3803C68.5072 47.395 68.4248 47.3933 68.3455 47.3753C68.2663 47.3573 68.1918 47.3234 68.1261 47.2756C68.0605 47.2278 68.0053 47.1672 67.9639 47.0974L58.0097 32.0786C57.0826 32.9416 56.458 34.079 56.2278 35.3231C55.9976 36.5673 56.1742 37.8523 56.7313 38.9888L60.1727 47.157C60.2344 47.3025 60.2356 47.4665 60.1762 47.6129C60.1168 47.7594 60.0022 47.8763 59.8565 47.9381C59.7833 47.9709 59.7033 47.9872 59.6231 47.9858Z" fill="#00102C"/>
<path d="M97.1691 126.299L78.5037 87.3841L91.5288 78.7866L144.854 123.921L97.1691 126.299Z" fill="#007AFF"/>
<path d="M114.598 57.0364C122.851 57.0364 129.541 51.5055 129.541 44.6827C129.541 37.8599 122.851 32.329 114.598 32.329C106.345 32.329 99.6545 37.8599 99.6545 44.6827C99.6545 51.5055 106.345 57.0364 114.598 57.0364Z" fill="#00102C"/>
<path d="M139.608 125.793L110.14 114.107L109.465 84.5401L136.968 83.9141L139.608 125.793Z" fill="white"/>
<path d="M139.608 126.383C139.533 126.384 139.457 126.37 139.387 126.341L109.919 114.661C109.81 114.618 109.716 114.543 109.649 114.447C109.582 114.35 109.545 114.236 109.543 114.119L108.862 84.552C108.862 84.3939 108.925 84.2422 109.037 84.1304C109.149 84.0186 109.301 83.9558 109.459 83.9558L136.944 83.3298C137.095 83.3294 137.241 83.3864 137.352 83.4894C137.463 83.5923 137.531 83.7335 137.541 83.8843L140.182 125.763C140.188 125.863 140.169 125.963 140.126 126.054C140.083 126.144 140.018 126.223 139.937 126.282C139.84 126.347 139.726 126.382 139.608 126.383ZM110.726 113.707L138.951 124.898L136.412 84.5341L110.075 85.1304L110.726 113.707Z" fill="#00102C"/>
<path d="M130.21 94.7176C136.822 92.5964 142.36 88.0138 145.673 81.9227C149.047 75.882 149.907 68.7602 148.067 62.0928C146.227 55.4254 141.835 49.7465 135.838 46.2806C115.614 34.6304 102.457 51.2173 101.011 55.2954C100.676 56.2534 100.346 57.1795 100.019 58.0738C99.2948 59.4797 98.695 60.946 98.2266 62.4561C96.8225 65.5206 95.2807 67.7207 93.1357 68.454C89.8615 69.5749 91.6365 94.9322 110.643 93.072L130.21 94.7176Z" fill="white"/>
<path d="M130.21 95.3138C130.052 95.3375 129.89 95.2975 129.761 95.2024C129.632 95.1074 129.547 94.9651 129.523 94.807C129.499 94.6489 129.539 94.4878 129.634 94.3592C129.73 94.2306 129.872 94.1451 130.031 94.1214C136.501 92.0539 141.919 87.5667 145.147 81.6007C148.465 75.7004 149.317 68.7324 147.518 62.2092C145.719 55.6859 141.415 50.1337 135.54 46.7576C128.227 42.5482 121.158 41.6479 114.532 44.0865C111.903 45.0583 103.598 49.7446 101.578 55.4624C101.238 56.4163 100.909 57.3464 100.581 58.2408V58.3064C99.8839 59.683 99.3082 61.1173 98.8598 62.5932C98.8598 62.5932 98.8598 62.6468 98.8598 62.6707C97.1928 66.3196 95.5141 68.2692 93.4229 68.9847C92.688 69.2351 91.9767 72.8959 93.0641 77.8922C93.8767 81.6305 97.5516 93.7338 110.672 92.44C110.831 92.425 110.988 92.4734 111.111 92.5746C111.234 92.6758 111.311 92.8215 111.326 92.9796C111.342 93.1377 111.293 93.2953 111.192 93.4178C111.09 93.5402 110.944 93.6174 110.786 93.6325C105.408 94.1571 100.951 92.6487 97.4916 89.1429C94.8387 86.454 92.8554 82.5845 91.8995 78.1486C90.9435 73.7127 91.0925 68.5196 93.0343 67.8578C94.785 67.2616 96.2431 65.5206 97.7547 62.2176C98.2269 60.6992 98.8265 59.2233 99.5472 57.8055C99.8698 56.9231 100.192 56.0169 100.527 55.0689C101.531 52.2368 106.567 45.7857 114.197 42.9775C121.17 40.4078 128.579 41.3319 136.215 45.7321C142.362 49.2622 146.866 55.0696 148.749 61.8934C150.631 68.7171 149.741 76.0065 146.271 82.179C142.876 88.441 137.175 93.1404 130.371 95.284C130.319 95.3013 130.265 95.3113 130.21 95.3138Z" fill="#00102C"/>
<path d="M140.445 41.8387C136.443 39.6771 131.969 38.5342 127.418 38.5114C122.868 38.4885 118.382 39.5863 114.359 41.7076C116.897 42.3068 119.344 43.2391 121.636 44.48C137.475 53.1371 142.41 74.5772 132.647 92.3685C132.11 93.3582 131.524 94.3122 130.921 95.2363C135.171 94.4316 139.188 92.6924 142.68 90.1451C146.172 87.5978 149.052 84.3063 151.11 80.5096C158.77 66.5521 153.99 49.2378 140.445 41.8387Z" fill="#00102C"/>
<path d="M112.554 39.901C112.554 39.901 114.777 47.4253 121.075 51.0742C124.403 53 118.021 52.3978 118.511 56.3508C122.18 85.9651 124.546 91.5695 124.546 91.5695C124.82 92.8067 125.482 93.9245 126.436 94.7607C127.39 95.5969 128.587 96.1081 129.851 96.2201L137.679 96.8938L140.134 89.7391L144.113 58.8549C144.113 58.8549 128.065 35.7275 112.554 39.901Z" fill="#00102C"/>
<path d="M131.046 68.8654C130.267 68.0425 129.274 67.4513 128.178 67.1577C127.082 66.864 125.926 66.8794 124.839 67.202C126.757 70.9051 127.284 75.1704 126.327 79.2278C127.552 79.2815 128.765 78.9683 129.811 78.3285C130.856 77.6887 131.686 76.7515 132.194 75.6373C132.701 74.5231 132.863 73.283 132.659 72.0762C132.454 70.8695 131.893 69.7513 131.046 68.8654Z" fill="white"/>
<path d="M97.2108 81.0761C97.0631 81.077 96.9203 81.0232 96.81 80.9252C96.6996 80.8272 96.6296 80.6919 96.6133 80.5454C96.6042 80.4675 96.6105 80.3885 96.632 80.3131C96.6535 80.2376 96.6899 80.1671 96.7388 80.1056C96.7876 80.0441 96.848 79.9929 96.9167 79.9548C96.9855 79.9167 97.0609 79.8925 97.139 79.8836C99.1406 79.663 100.204 77.767 100.216 77.7432C100.256 77.6743 100.308 77.6138 100.37 77.5651C100.433 77.5164 100.505 77.4805 100.582 77.4595C100.658 77.4385 100.738 77.4327 100.817 77.4425C100.896 77.4523 100.972 77.4775 101.041 77.5166C101.11 77.5558 101.171 77.6081 101.219 77.6706C101.268 77.7332 101.304 77.8047 101.325 77.8811C101.346 77.9575 101.352 78.0373 101.342 78.1159C101.332 78.1946 101.307 78.2705 101.268 78.3394C101.208 78.4408 99.8873 80.8078 97.2703 81.0939L97.2108 81.0761Z" fill="#00102C"/>
<path d="M108.611 60.8761H108.528C108.372 60.8539 108.231 60.7713 108.136 60.6463C108.041 60.5213 107.999 60.3639 108.019 60.2083C108.109 59.5048 107.565 58.211 106.478 57.263C105.986 56.8098 105.388 56.4871 104.738 56.3246C104.089 56.1621 103.41 56.1649 102.762 56.3329C102.615 56.3593 102.464 56.3301 102.337 56.2509C102.211 56.1717 102.119 56.0482 102.079 55.9048C102.04 55.7614 102.055 55.6083 102.123 55.4757C102.19 55.3431 102.305 55.2405 102.445 55.1881C103.284 54.9594 104.167 54.9489 105.011 55.1576C105.856 55.3663 106.632 55.7874 107.267 56.3806C108.569 57.5134 109.364 59.159 109.203 60.3812C109.179 60.5202 109.106 60.6461 108.997 60.7367C108.889 60.8274 108.752 60.8767 108.611 60.8761Z" fill="#00102C"/>
<path d="M102.959 64.4951C102.499 65.145 101.764 65.4074 101.28 65.0914C100.796 64.7754 100.808 63.9645 101.28 63.3027C101.752 62.6409 102.475 62.3964 102.959 62.7065C103.443 63.0165 103.425 63.8512 102.959 64.4951Z" fill="#00102C"/>
<path d="M119.503 53.6976C119.503 53.6976 108.802 61.4842 110.134 67.047C111.467 72.6097 121.289 73.7246 120.172 83.294C119.055 92.8633 117.465 97.5616 105.832 98.1578C90.3396 98.9508 84.6992 113.117 84.6992 121.798C84.6992 130.479 124.396 109.11 124.396 109.11C124.396 109.11 138.013 95.0932 119.503 53.6976Z" fill="#00102C"/>
<path d="M67.283 138.194C71.7402 120.749 99.7859 109.933 109.889 108.854L153.763 107.298L168.7 138.194H67.283Z" fill="#007AFF"/>
<path d="M127.312 37.6711C134.673 33.8851 160.544 41.6777 157.641 67.9413C156.201 80.9985 153.184 100.656 157.199 107.334C161.214 114.011 171.694 121.13 166.561 126.472C161.429 131.814 133.335 134.927 129.517 130.92C125.699 126.914 113.015 113.785 127.51 89.5245C142.005 65.2643 127.061 53.2504 125.502 52.362C123.942 51.4737 116.516 43.222 127.312 37.6711Z" fill="#00102C"/>
<path d="M24.9271 24.7868H18.8028C15.5558 24.7868 12.9236 27.4135 12.9236 30.6536V36.7649C12.9236 40.005 15.5558 42.6317 18.8028 42.6317H24.9271C28.1741 42.6317 30.8063 40.005 30.8063 36.7649V30.6536C30.8063 27.4135 28.1741 24.7868 24.9271 24.7868Z" fill="white"/>
<path d="M24.9269 43.2279H18.809C17.0918 43.2263 15.4453 42.5449 14.231 41.3332C13.0168 40.1215 12.334 38.4785 12.3324 36.7649V30.6536C12.3356 28.9405 13.0189 27.2984 14.2328 26.087C15.4467 24.8757 17.0923 24.1937 18.809 24.1906H24.9269C26.6447 24.1922 28.292 24.8734 29.5072 26.0849C30.7224 27.2965 31.4068 28.9394 31.4099 30.6536V36.7947C31.3989 38.5037 30.7111 40.139 29.4967 41.3441C28.2823 42.5492 26.6395 43.2264 24.9269 43.2279ZM18.809 25.383C17.4087 25.3846 16.0661 25.9404 15.0759 26.9285C14.0857 27.9166 13.5289 29.2563 13.5274 30.6536V36.7947C13.5289 38.1921 14.0857 39.5317 15.0759 40.5198C16.0661 41.5079 17.4087 42.0637 18.809 42.0653H24.9269C26.3277 42.0637 27.6712 41.5081 28.6623 40.5202C29.6534 39.5323 30.2118 38.1926 30.2149 36.7947V30.6536C30.2118 29.2557 29.6534 27.916 28.6623 26.9281C27.6712 25.9402 26.3277 25.3846 24.9269 25.383H18.809Z" fill="#00102C"/>
<path d="M21.0736 38.3747C20.6765 38.3725 20.2961 38.2139 20.0157 37.9335L16.6403 34.5648C16.3685 34.2833 16.2185 33.9066 16.2225 33.5158C16.2264 33.1249 16.3839 32.7513 16.6613 32.4753C16.9386 32.1993 17.3134 32.0431 17.7051 32.0403C18.0968 32.0374 18.4741 32.1882 18.7554 32.4602L21.0736 34.7735L35.1203 20.7623C35.2557 20.6111 35.4203 20.4891 35.6046 20.4037C35.7889 20.3184 35.989 20.2714 36.1922 20.2657C36.3953 20.26 36.5973 20.2958 36.7861 20.3708C36.9749 20.4457 37.1466 20.5583 37.2903 20.7017C37.4339 20.8451 37.5466 21.0162 37.6217 21.2046C37.6968 21.393 37.733 21.5947 37.7273 21.7974C37.7216 22.0001 37.674 22.1995 37.5884 22.3834C37.5029 22.5673 37.3811 22.7318 37.2296 22.867L22.1308 37.9335C21.8504 38.2139 21.4706 38.3725 21.0736 38.3747Z" fill="#FF6852"/>
</g>
<defs>
<clipPath id="clip0_93_94">
<rect width="168.7" height="137.9" fill="white" transform="translate(0 0.299999)"/>
</clipPath>
</defs>
</svg>
