<svg width="202" height="136" viewBox="0 0 202 136" fill="none" xmlns="http://www.w3.org/2000/svg">
<path d="M161.806 122.813V78.467L121.741 60.1833C117.724 58.3512 113.147 58.1766 109.002 59.6973C104.857 61.2179 101.479 64.3113 99.5998 68.3065L82.6126 104.35V122.284L161.806 122.813Z" fill="#00102C"/>
<path d="M105.585 55.717L62.9162 14.969C62.5104 14.519 62.0717 14.0998 61.6038 13.7148L61.1803 13.3126H61.1382C59.0712 11.7405 56.5457 10.8893 53.9488 10.8893C51.352 10.8893 48.8267 11.7405 46.7598 13.3126H46.7176L46.2941 13.7148C45.8262 14.0998 45.3875 14.519 44.9817 14.969L2.3129 55.717C1.86415 56.1659 1.50834 56.6989 1.26589 57.2855C1.02343 57.8721 0.899138 58.5008 0.899998 59.1356V107.35C0.9014 109.269 1.66404 111.108 3.02039 112.464C4.37674 113.82 6.21587 114.583 8.13404 114.584H99.7639C101.682 114.583 103.521 113.82 104.878 112.464C106.234 111.108 106.997 109.269 106.998 107.35V59.1356C106.999 58.5008 106.875 57.8721 106.632 57.2855C106.39 56.6989 106.034 56.1659 105.585 55.717Z" fill="#00102C"/>
<path d="M8.66324 99.5871V25.3677C8.66604 23.5908 9.37345 21.8875 10.6304 20.6316C11.8874 19.3756 13.5912 18.6695 15.3681 18.6681H73.0184L99.2347 44.8791V99.5871H8.66324Z" fill="white"/>
<path d="M72.8014 19.1973L98.7055 45.096V99.0738H9.19242V25.3677C9.19522 23.7311 9.84684 22.1625 11.0045 21.0058C12.1623 19.8491 13.7315 19.1987 15.3681 19.1973H72.8014ZM73.2406 18.1389H15.3681C13.4504 18.1389 11.6112 18.9003 10.2547 20.2558C8.89818 21.6114 8.13544 23.45 8.13403 25.3677V100.116H99.7639V44.6568L73.2406 18.1389Z" fill="#00102C"/>
<path d="M8.13404 114.055C6.35666 114.053 4.65291 113.345 3.39611 112.088C2.1393 110.832 1.432 109.128 1.4292 107.35V60.0299L97.7425 114.055H8.13404Z" fill="white"/>
<path d="M1.95838 60.9349L95.7102 113.526H8.13403C6.49657 113.525 4.92656 112.874 3.7687 111.716C2.61084 110.558 1.95978 108.988 1.95838 107.35V60.9349ZM0.899994 59.1303V107.35C0.901396 109.269 1.66404 111.108 3.02039 112.464C4.37674 113.821 6.21587 114.583 8.13403 114.585H99.7639L0.899994 59.1303Z" fill="#00102C"/>
<path d="M10.1609 114.055L106.474 60.0299V107.35C106.471 109.128 105.764 110.832 104.507 112.088C103.25 113.345 101.547 114.053 99.7693 114.055H10.1609Z" fill="white"/>
<path d="M105.94 60.9349V107.35C105.938 108.988 105.287 110.558 104.129 111.716C102.971 112.874 101.401 113.525 99.7639 113.526H12.1877L105.94 60.9349ZM106.998 59.1303L8.13403 114.585H99.7639C101.682 114.583 103.521 113.821 104.878 112.464C106.234 111.108 106.997 109.269 106.998 107.35V59.1303Z" fill="#00102C"/>
<path d="M73.2406 18.1389V37.428C73.2406 39.3457 74.0022 41.1849 75.3577 42.5414C76.7132 43.8979 78.5518 44.6607 80.4695 44.6621H99.7639L73.2406 18.1389Z" fill="#00BFA5"/>
<path d="M45.6009 71.434C41.6355 71.4306 37.7691 70.1951 34.5366 67.8983C31.3042 65.6015 28.8653 62.357 27.5574 58.6136C26.2495 54.8701 26.1371 50.8127 27.2359 47.0026C28.3348 43.1925 30.5905 39.8181 33.6909 37.346C36.7914 34.8739 40.5834 33.4263 44.5425 33.2035C48.5016 32.9808 52.4322 33.9938 55.7904 36.1025C59.1487 38.2112 61.7685 41.3113 63.2878 44.9741C64.8071 48.6369 65.1507 52.6813 64.271 56.5478L60.6617 55.7276C60.9161 54.5969 61.044 53.4414 61.0428 52.2825C61.0428 49.2271 60.1368 46.2404 58.4393 43.7C56.7417 41.1596 54.3286 39.1797 51.5057 38.0107C48.6828 36.8417 45.5768 36.5361 42.5802 37.1325C39.5836 37.729 36.8311 39.2007 34.671 41.3616C32.5109 43.5224 31.0401 46.2753 30.4447 49.2722C29.8493 52.269 30.1559 55.375 31.3258 58.1975C32.4958 61.0201 34.4765 63.4322 37.0175 65.1289C39.5585 66.8256 42.5455 67.7307 45.6009 67.7297C47.7497 67.7295 49.8748 67.2809 51.8404 66.4125C53.8059 65.5441 55.5687 64.275 57.0158 62.6865L59.7516 65.1842C57.9566 67.152 55.7711 68.724 53.3347 69.8001C50.8982 70.8762 48.2643 71.4326 45.6009 71.434Z" fill="#00BFA5"/>
<path d="M45.6007 61.5487C43.7678 61.5497 41.9759 61.0072 40.4514 59.9896C38.9269 58.9721 37.7384 57.5253 37.0362 55.8322C36.3341 54.1391 36.1498 52.2758 36.5068 50.478C36.8637 48.6802 37.7457 47.0286 39.0414 45.7322C40.337 44.4358 41.9881 43.5527 43.7858 43.1948C45.5834 42.8368 47.4467 43.02 49.1402 43.7212C50.8337 44.4223 52.2812 45.61 53.2996 47.1339C54.318 48.6579 54.8616 50.4496 54.8616 52.2825C54.8602 54.7387 53.8842 57.094 52.1479 58.8313C50.4116 60.5686 48.0569 61.5459 45.6007 61.5487ZM45.6007 46.7313C44.5002 46.7302 43.4242 47.0557 42.5088 47.6664C41.5933 48.2771 40.8798 49.1457 40.4581 50.1622C40.0365 51.1787 39.9259 52.2975 40.1403 53.3768C40.3547 54.4562 40.8846 55.4477 41.6628 56.2259C42.4409 57.004 43.4325 57.5339 44.5118 57.7483C45.5912 57.9627 46.7098 57.8521 47.7263 57.4305C48.7428 57.0089 49.6114 56.2952 50.2221 55.3798C50.8329 54.4643 51.1583 53.3883 51.1573 52.2878C51.1573 50.8136 50.572 49.3998 49.5301 48.3569C48.4882 47.314 47.0749 46.7274 45.6007 46.726V46.7313Z" fill="#00BFA5"/>
<path d="M57.656 61.5593C55.8415 61.5593 54.1004 60.8425 52.8119 59.5649C51.5234 58.2873 50.7919 56.5524 50.7765 54.738H54.4809C54.4809 55.5801 54.8154 56.3877 55.4108 56.9831C56.0063 57.5786 56.8139 57.9131 57.656 57.9131C58.4981 57.9131 59.3058 57.5786 59.9012 56.9831C60.4967 56.3877 60.8312 55.5801 60.8312 54.738H64.5356C64.5202 56.5524 63.7884 58.2873 62.4999 59.5649C61.2114 60.8425 59.4706 61.5593 57.656 61.5593Z" fill="#00BFA5"/>
<path d="M128.293 49.0809L136.76 51.4199C141.448 52.7031 146.455 52.0787 150.685 49.6832C154.914 47.2876 158.024 43.3156 159.335 38.6346L160.266 35.2795C161.873 29.4077 161.091 23.1387 158.091 17.8419C155.09 12.545 150.115 8.65085 144.253 7.00995L142.396 10.1057C138.713 9.09973 134.782 9.59271 131.462 11.4769C128.142 13.361 125.703 16.4831 124.678 20.1604L120.487 35.3006C119.706 38.1628 120.089 41.2176 121.551 43.799C123.013 46.3803 125.437 48.279 128.293 49.0809Z" fill="#00102C"/>
<path d="M128.658 25.7642C133.085 23.2562 134.641 17.634 132.133 13.2067C129.625 8.77929 124.003 7.22334 119.576 9.73128C115.148 12.2392 113.592 17.8614 116.1 22.2888C118.608 26.7161 124.231 28.2721 128.658 25.7642Z" fill="#00102C"/>
<path d="M145.153 72.5983L141.671 39.8147L122.673 41.8468L124.864 62.4431L122.509 61.2577C121.563 62.0288 120.841 63.0393 120.418 64.1841C118.487 69.5925 124.191 76.5778 133.161 79.7847C141.808 82.8752 150.329 81.3353 152.668 76.3767L145.153 72.5983Z" fill="white"/>
<path d="M141.893 81.8803C138.854 81.863 135.84 81.326 132.981 80.2927C128.557 78.7052 124.758 76.1756 122.292 73.1539C119.826 70.1322 118.921 66.8036 119.921 64.02C120.368 62.7767 121.145 61.6789 122.17 60.8449C122.249 60.7784 122.346 60.7365 122.448 60.7242C122.551 60.712 122.655 60.73 122.747 60.7761L124.234 61.5222L122.149 41.8944C122.141 41.8253 122.148 41.7554 122.168 41.6887C122.187 41.622 122.22 41.5598 122.264 41.5058C122.307 41.4517 122.361 41.4068 122.423 41.3736C122.484 41.3404 122.551 41.3196 122.62 41.3123L141.618 39.2908C141.687 39.2835 141.757 39.2898 141.824 39.3095C141.89 39.3293 141.953 39.3619 142.007 39.4057C142.061 39.4494 142.106 39.5034 142.139 39.5645C142.172 39.6256 142.193 39.6926 142.2 39.7618L145.656 72.2596L152.906 75.8951C153.029 75.9576 153.122 76.0656 153.167 76.196C153.211 76.3265 153.203 76.4692 153.143 76.5937C151.535 80.007 147.185 81.8803 141.893 81.8803ZM122.588 61.8768C121.838 62.5528 121.265 63.4009 120.916 64.3481C120.048 66.7824 120.826 69.6401 123.112 72.4554C125.456 75.3289 129.092 77.7473 133.341 79.2714C141.401 82.1555 149.408 80.9595 151.948 76.5937L144.925 73.0692C144.846 73.0297 144.777 72.9706 144.726 72.8975C144.675 72.8245 144.643 72.7397 144.634 72.6512L141.205 40.3704L123.255 42.2755L125.372 62.3425C125.382 62.4368 125.366 62.532 125.326 62.6182C125.287 62.7045 125.225 62.7785 125.147 62.8326C125.069 62.8867 124.978 62.9188 124.884 62.9257C124.789 62.9326 124.695 62.9139 124.61 62.8717L122.588 61.8768Z" fill="#00102C"/>
<path d="M141.808 53.5155L124.975 63.4697L122.831 43.3444L127.002 41.3705L135.543 40.4656L141.808 53.5155Z" fill="#00102C"/>
<path d="M152.774 49.4883C153.279 48.3129 153.459 47.0233 153.295 45.7544C153.131 44.4855 152.629 43.2839 151.842 42.2754C152.022 41.7833 152.191 41.2858 152.329 40.7778L155.504 29.4002C156 27.5884 155.759 25.6539 154.834 24.019C153.909 22.384 152.375 21.1815 150.567 20.6737L133.299 15.911C129.549 14.8863 125.545 15.3869 122.162 17.3033C118.779 19.2198 116.292 22.3966 115.243 26.1403L113.497 32.4483C112.347 36.6333 112.903 41.1032 115.043 44.8791C117.182 48.6551 120.731 51.4294 124.911 52.5947L129.351 53.8224C133.659 55.0145 138.253 54.6143 142.29 52.6953C143.166 53.2673 144.156 53.6407 145.192 53.7893C146.227 53.938 147.283 53.8582 148.285 53.5557C149.286 53.2531 150.209 52.7351 150.989 52.0379C151.769 51.3408 152.387 50.4814 152.8 49.5201L152.774 49.4883Z" fill="white"/>
<path d="M134.262 55.0079C132.545 55.0081 130.837 54.7767 129.182 54.3199L124.742 53.0869C120.427 51.8834 116.764 49.0191 114.557 45.1212C112.349 41.2233 111.775 36.6093 112.962 32.2896L114.703 25.9869C115.793 22.1094 118.372 18.8203 121.877 16.8374C125.383 14.8545 129.531 14.3389 133.415 15.403L150.678 20.1658C152.621 20.7115 154.268 22.0045 155.26 23.7619C156.252 25.5193 156.507 27.5979 155.97 29.5431L152.821 40.9154C152.71 41.3229 152.572 41.741 152.413 42.1855C153.191 43.2577 153.677 44.514 153.822 45.8307C153.966 47.1475 153.766 48.4792 153.239 49.6948C152.567 51.2399 151.41 52.5246 149.944 53.355C148.478 54.1855 146.781 54.5167 145.111 54.2987C144.083 54.1602 143.094 53.8126 142.205 53.2774C139.711 54.4138 137.003 55.0038 134.262 55.0079ZM129.367 15.9163C126.275 15.9273 123.27 16.9457 120.808 18.8173C118.347 20.6889 116.562 23.3117 115.725 26.2885L113.983 32.5912C112.877 36.6408 113.419 40.9637 115.492 44.6143C117.565 48.2649 120.999 50.9459 125.044 52.0708L129.484 53.2986C133.671 54.4493 138.132 54.0606 142.057 52.2031C142.141 52.1614 142.233 52.1424 142.326 52.148C142.419 52.1536 142.509 52.1835 142.587 52.2349C143.398 52.7649 144.316 53.1106 145.276 53.2477C146.236 53.3848 147.213 53.3099 148.141 53.0285C149.069 52.747 149.923 52.2657 150.645 51.6184C151.367 50.9712 151.938 50.1737 152.318 49.282C152.788 48.1932 152.956 46.9979 152.805 45.8217C152.653 44.6456 152.187 43.5321 151.456 42.5983C151.397 42.5251 151.358 42.4375 151.344 42.3445C151.33 42.2514 151.341 42.1564 151.376 42.0691C151.572 41.5399 151.726 41.0689 151.853 40.6138L155.001 29.2361C155.463 27.5597 155.24 25.7687 154.383 24.2558C153.526 22.743 152.104 21.6318 150.429 21.1659L133.167 16.4032C131.928 16.069 130.65 15.9052 129.367 15.9163Z" fill="#00102C"/>
<path d="M147.761 40.164C149.011 40.5098 150.143 41.1873 151.038 42.1245C151.934 43.0618 152.559 44.224 152.847 45.4877C155.334 42.866 157.093 39.6404 157.951 36.1302C158.809 32.6199 158.735 28.9466 157.737 25.4736C154.602 24.246 151.11 24.3012 148.016 25.627C141.829 28.273 138.834 35.3695 140.813 41.9791C141.709 41.092 142.824 40.4569 144.044 40.1382C145.264 39.8195 146.546 39.8284 147.761 40.164Z" fill="#00102C"/>
<path d="M143.534 46.2655C143.443 46.2653 143.353 46.2415 143.273 46.1964C143.194 46.1513 143.128 46.0865 143.081 46.0082C143.034 45.9299 143.009 45.8408 143.006 45.7496C143.004 45.6584 143.025 45.5682 143.068 45.4876C143.126 45.3765 144.566 42.6829 147.376 42.4553C147.516 42.4441 147.655 42.4891 147.762 42.5804C147.869 42.6717 147.936 42.8019 147.947 42.9422C147.959 43.0826 147.914 43.2216 147.822 43.3288C147.731 43.436 147.601 43.5025 147.46 43.5137C145.243 43.6937 144.015 45.9639 144.005 45.9851C143.959 46.0704 143.891 46.1416 143.808 46.1911C143.725 46.2405 143.631 46.2663 143.534 46.2655Z" fill="#00102C"/>
<path d="M130.283 32.8823C129.833 33.729 129.034 34.1894 128.494 33.9036C127.954 33.6178 127.875 32.697 128.325 31.8503C128.774 31.0036 129.573 30.5432 130.113 30.8237C130.653 31.1042 130.732 32.0303 130.283 32.8823Z" fill="#00102C"/>
<path d="M120.355 29.4531C119.905 30.2998 119.106 30.7602 118.561 30.4745C118.016 30.1887 117.947 29.2679 118.397 28.4212C118.847 27.5745 119.646 27.1141 120.185 27.3998C120.725 27.6856 120.81 28.617 120.355 29.4531Z" fill="#00102C"/>
<path d="M133.934 30.4956C133.836 30.4953 133.74 30.468 133.657 30.4166C133.574 30.3652 133.507 30.2918 133.463 30.2046C132.436 28.146 129.785 27.8496 129.759 27.8496C129.689 27.8424 129.622 27.8216 129.561 27.7884C129.5 27.7552 129.446 27.7103 129.402 27.6562C129.359 27.6021 129.326 27.54 129.306 27.4733C129.286 27.4066 129.28 27.3367 129.288 27.2675C129.302 27.1289 129.371 27.0016 129.479 26.9134C129.587 26.8252 129.725 26.7832 129.864 26.7965C129.997 26.7965 133.114 27.1458 134.41 29.7283C134.473 29.8539 134.483 29.9992 134.438 30.1321C134.393 30.2651 134.298 30.3749 134.172 30.4374C134.098 30.4752 134.017 30.4951 133.934 30.4956Z" fill="#00102C"/>
<path d="M122.355 42.5348C122.165 42.5358 121.975 42.5181 121.789 42.4819C119.386 42.0109 117.767 38.6505 117.698 38.5076C117.668 38.4445 117.65 38.3759 117.647 38.3059C117.643 38.2359 117.653 38.1659 117.677 38.1C117.701 38.034 117.737 37.9734 117.784 37.9216C117.832 37.8699 117.889 37.828 117.952 37.7985C118.079 37.7389 118.225 37.7321 118.357 37.7798C118.489 37.8274 118.596 37.9255 118.656 38.0525C119.053 38.8939 120.434 41.1377 121.99 41.4394C122.353 41.4941 122.724 41.458 123.069 41.3343C123.414 41.2105 123.724 41.003 123.969 40.7302C124.02 40.683 124.08 40.6462 124.145 40.6221C124.211 40.598 124.28 40.587 124.35 40.5897C124.419 40.5924 124.487 40.6088 124.551 40.6379C124.614 40.667 124.671 40.7083 124.718 40.7593C124.765 40.8104 124.802 40.8703 124.826 40.9356C124.85 41.0009 124.861 41.0702 124.858 41.1398C124.856 41.2093 124.839 41.2776 124.81 41.3408C124.781 41.404 124.74 41.4609 124.689 41.5081C124.071 42.1357 123.236 42.5031 122.355 42.5348Z" fill="#00102C"/>
<path d="M119.884 33.4485C119.744 33.4583 119.605 33.412 119.499 33.3197C119.393 33.2274 119.328 33.0967 119.318 32.9564C119.308 32.816 119.354 32.6775 119.447 32.5713C119.539 32.4651 119.669 32.3999 119.81 32.3901C121.736 32.1096 123.043 30.0828 122.726 27.8708C122.408 25.6588 120.572 24.0923 118.651 24.3622C118.581 24.3723 118.511 24.3686 118.443 24.3513C118.375 24.334 118.311 24.3035 118.254 24.2615C118.198 24.2195 118.151 24.1668 118.115 24.1065C118.079 24.0461 118.055 23.9793 118.045 23.9098C118.035 23.8403 118.039 23.7695 118.056 23.7014C118.073 23.6334 118.104 23.5694 118.146 23.5131C118.188 23.4568 118.24 23.4094 118.301 23.3735C118.361 23.3376 118.428 23.3139 118.497 23.3038C121.001 22.9387 123.366 24.9179 123.789 27.7067C124.213 30.4956 122.488 33.0622 119.979 33.4273L119.884 33.4485Z" fill="#00102C"/>
<path d="M138.348 19.5868C141.736 15.6005 141.251 9.62225 137.265 6.23436C133.278 2.84647 127.3 3.3318 123.912 7.31819C120.524 11.3046 121.009 17.2826 124.996 20.6705C128.982 24.0584 134.96 23.5732 138.348 19.5868Z" fill="#00102C"/>
<path d="M154.89 20.3509C154.795 20.3509 154.702 20.3253 154.62 20.2768C154.5 20.2044 154.415 20.0874 154.381 19.9515C154.347 19.8156 154.368 19.6719 154.44 19.5518C156.139 16.7207 159.796 16.9535 159.944 16.9641C160.084 16.9739 160.215 17.0391 160.307 17.1453C160.4 17.2515 160.446 17.39 160.436 17.5303C160.426 17.6707 160.361 17.8014 160.255 17.8937C160.149 17.986 160.01 18.0323 159.87 18.0225C159.838 18.0225 156.695 17.832 155.345 20.0969C155.298 20.1749 155.231 20.2393 155.151 20.2838C155.072 20.3283 154.982 20.3515 154.89 20.3509Z" fill="#00102C"/>
<path d="M154.594 20.0388C154.453 20.0598 154.311 20.0243 154.196 19.9399C154.082 19.8555 154.007 19.7293 153.986 19.5889C153.964 19.4486 154 19.3056 154.084 19.1915C154.169 19.0774 154.295 19.0014 154.435 18.9804C156.965 18.2025 157.531 15.1173 157.536 15.0855C157.56 14.9452 157.639 14.82 157.755 14.7377C157.871 14.6553 158.015 14.6224 158.156 14.6463C158.296 14.6701 158.421 14.7488 158.503 14.8649C158.586 14.981 158.619 15.1251 158.595 15.2654C158.568 15.4189 157.917 19.0174 154.763 19.9911C154.71 20.0164 154.653 20.0324 154.594 20.0388Z" fill="#00102C"/>
<path d="M147.021 10.7408C151.55 12.6433 155.257 16.0923 157.48 20.4729C159.703 24.8536 160.299 29.8814 159.161 34.6603C156.481 35.5334 153.603 35.5923 150.889 34.8296C143.481 32.787 139.099 25.4365 141.041 18.4246C141.945 15.1759 144.094 12.4149 147.021 10.7408Z" fill="#00102C"/>
<path d="M132.452 13.302C131.966 15.0582 132.011 16.9193 132.582 18.6499C133.153 20.3805 134.224 21.9028 135.66 23.0244C137.097 24.1459 138.834 24.8163 140.651 24.9508C142.469 25.0852 144.285 24.6777 145.871 23.7796C147.456 22.8816 148.741 21.5335 149.56 19.9058C150.38 18.2781 150.698 16.4439 150.475 14.6352C150.252 12.8265 149.498 11.1246 148.307 9.74469C147.117 8.36478 145.544 7.36886 143.788 6.88293C141.433 6.23155 138.916 6.54184 136.791 7.74558C134.665 8.94932 133.105 10.948 132.452 13.302Z" fill="#00102C"/>
<path d="M116.449 80.8907L107.739 66.8883C107.566 66.6138 107.34 66.3777 107.072 66.1947C106.805 66.0118 106.503 65.8858 106.184 65.8248C105.866 65.7637 105.539 65.7688 105.223 65.8398C104.907 65.9108 104.608 66.0461 104.347 66.2373C103.504 66.8532 102.873 67.7152 102.54 68.7046C102.207 69.694 102.19 70.7622 102.489 71.7621L104.167 77.3716L116.449 80.8907Z" fill="white"/>
<path d="M116.449 81.4199C116.402 81.425 116.354 81.425 116.307 81.4199L104.019 77.9008C103.933 77.8758 103.855 77.8298 103.792 77.7669C103.73 77.704 103.684 77.6263 103.659 77.5409L101.981 71.9314C101.653 70.8268 101.675 69.6478 102.042 68.5556C102.41 67.4635 103.105 66.5115 104.034 65.8298C104.354 65.5944 104.719 65.4278 105.107 65.3405C105.494 65.2532 105.895 65.2472 106.285 65.3228C106.675 65.3983 107.045 65.5539 107.372 65.7796C107.698 66.0053 107.975 66.2963 108.183 66.6342L116.899 80.6314C116.959 80.7194 116.992 80.8237 116.992 80.9304C116.992 81.0371 116.959 81.1413 116.899 81.2294C116.845 81.2949 116.776 81.3465 116.698 81.3796C116.619 81.4128 116.534 81.4266 116.449 81.4199ZM104.59 76.9429L115.275 80.0017L107.289 67.1687C107.158 66.9517 106.982 66.7645 106.775 66.6188C106.567 66.4731 106.331 66.3722 106.082 66.3225C105.834 66.2727 105.577 66.2752 105.329 66.3298C105.082 66.3843 104.848 66.4898 104.643 66.6395C103.89 67.1922 103.325 67.9643 103.028 68.8501C102.73 69.7359 102.714 70.6921 102.981 71.5875L104.59 76.9429Z" fill="#00102C"/>
<path d="M148.609 96.5496L121.926 89.8765L121.503 88.2307C120.718 85.1876 119.097 82.425 116.824 80.2553C114.55 78.0856 111.715 76.5955 108.638 75.9534L89.143 71.8997C88.8897 71.8473 88.6282 71.8506 88.3763 71.9094C88.1245 71.9682 87.8882 72.081 87.6843 72.2401C87.4805 72.3992 87.3137 72.6007 87.1955 72.8307C87.0772 73.0607 87.0103 73.3136 86.9996 73.572L86.9521 74.6304C86.9106 75.6281 87.1655 76.6158 87.6843 77.469C88.2032 78.3221 88.9628 79.0027 89.8678 79.4249L94.8742 81.7586L95.1491 82.3566L88.4921 81.8274C87.7977 81.7806 87.1126 82.0094 86.5856 82.464C86.0587 82.9187 85.7321 83.5627 85.6766 84.2564C85.6099 85.3137 85.9167 86.3608 86.5435 87.2149C87.1703 88.069 88.0771 88.6758 89.1058 88.9292C88.484 88.9622 87.8956 89.2205 87.4505 89.6559C87.0054 90.0912 86.7342 90.6738 86.6875 91.2947C86.6071 92.3613 86.9068 93.422 87.5334 94.2888C88.1601 95.1557 89.0734 95.7728 90.1115 96.031C89.4905 96.0662 88.9032 96.3252 88.4585 96.7601C88.0138 97.1951 87.7418 97.7764 87.6929 98.3965C87.6024 99.5949 87.9914 100.78 88.7743 101.692C89.5571 102.604 90.67 103.168 91.8683 103.26L105.363 104.286L106.321 106.35C106.885 107.561 107.706 108.633 108.728 109.492C109.75 110.351 110.948 110.977 112.237 111.325L148.609 121.157V96.5496Z" fill="white"/>
<path d="M148.609 121.723H148.465L112.094 111.891C110.729 111.52 109.461 110.853 108.382 109.939C107.302 109.024 106.436 107.884 105.844 106.599L105.013 104.816L91.8313 103.815C90.4926 103.711 89.2496 103.081 88.3747 102.062C87.4999 101.043 87.0644 99.7196 87.1637 98.3805C87.2023 97.8998 87.3525 97.4347 87.6024 97.0223C87.8523 96.6098 88.195 96.2613 88.6032 96.0044C87.7974 95.5224 87.1418 94.8254 86.7099 93.9917C86.2781 93.1579 86.087 92.2203 86.1582 91.284C86.1961 90.8024 86.346 90.3363 86.596 89.9228C86.8459 89.5094 87.1889 89.16 87.5978 88.9027C86.8015 88.4272 86.1514 87.7415 85.7192 86.921C85.287 86.1004 85.0891 85.1766 85.1474 84.251C85.1762 83.8362 85.2868 83.4312 85.473 83.0593C85.6591 82.6875 85.9172 82.3562 86.2321 82.0846C86.547 81.8131 86.9127 81.6065 87.3078 81.477C87.703 81.3474 88.1196 81.2974 88.5342 81.3299L93.4982 81.7056L89.6455 79.9117C88.6449 79.4476 87.8045 78.697 87.2308 77.7549C86.6571 76.8129 86.376 75.7217 86.4228 74.6197L86.4704 73.5613C86.4848 73.2262 86.5721 72.8982 86.7259 72.6001C86.8798 72.302 87.0965 72.0409 87.3613 71.835C87.6261 71.6291 87.9327 71.4832 88.2595 71.4076C88.5863 71.3319 88.9257 71.3283 89.2541 71.3969L108.744 75.4559C111.923 76.1042 114.853 77.6359 117.2 79.875C119.547 82.1142 121.214 84.9699 122.011 88.1142L122.36 89.453L148.735 96.0521C148.853 96.081 148.957 96.1494 149.03 96.2457C149.103 96.3419 149.141 96.4604 149.138 96.5813V121.226C149.137 121.307 149.117 121.387 149.08 121.46C149.044 121.532 148.991 121.595 148.926 121.644C148.831 121.703 148.72 121.731 148.609 121.723ZM88.2802 82.3883C87.7706 82.39 87.2793 82.5782 86.8991 82.9175C86.6914 83.0951 86.5217 83.3126 86.3998 83.5572C86.278 83.8017 86.2067 84.0683 86.19 84.341C86.1342 85.2742 86.4069 86.1974 86.9608 86.9505C87.5147 87.7035 88.3148 88.2388 89.2223 88.4634C89.3626 88.4761 89.4922 88.5439 89.5825 88.6521C89.6728 88.7603 89.7166 88.8999 89.7039 89.0402C89.6913 89.1806 89.6232 89.3102 89.515 89.4005C89.4069 89.4908 89.2673 89.5344 89.1269 89.5218C88.6335 89.5507 88.1671 89.7565 87.8133 90.1016C87.4594 90.4467 87.2421 90.9079 87.2009 91.4005C87.1295 92.3427 87.3945 93.2798 87.9487 94.0452C88.5028 94.8105 89.3103 95.3547 90.2277 95.5811C90.3681 95.5937 90.4976 95.6616 90.5879 95.7698C90.6782 95.8779 90.722 96.0176 90.7094 96.1579C90.6967 96.2983 90.6289 96.4279 90.5207 96.5182C90.4125 96.6085 90.2727 96.6521 90.1324 96.6395C89.6396 96.6661 89.1733 96.8707 88.82 97.2153C88.4667 97.5598 88.2505 98.0209 88.2114 98.5128C88.1717 99.0386 88.2361 99.5671 88.4008 100.068C88.5656 100.569 88.8276 101.032 89.1716 101.432C89.5157 101.832 89.9351 102.16 90.406 102.397C90.8769 102.634 91.3899 102.776 91.9158 102.815L105.41 103.837C105.504 103.844 105.595 103.876 105.672 103.93C105.749 103.984 105.81 104.058 105.85 104.143L106.807 106.202C107.336 107.345 108.109 108.357 109.072 109.168C110.035 109.979 111.164 110.569 112.38 110.896L148.084 120.543V96.9623L121.799 90.3897C121.708 90.3661 121.624 90.3183 121.557 90.2513C121.49 90.1843 121.442 90.1005 121.418 90.0087L120.995 88.3629C120.247 85.4091 118.681 82.7263 116.476 80.6229C114.271 78.5194 111.518 77.0806 108.532 76.4719L89.0582 72.413C88.8797 72.3769 88.6954 72.38 88.5182 72.422C88.3409 72.464 88.1749 72.544 88.0316 72.6564C87.8877 72.7678 87.7699 72.9094 87.6866 73.0712C87.6034 73.2331 87.5568 73.4112 87.55 73.5931L87.5024 74.6515C87.4641 75.546 87.6921 76.4318 88.1574 77.1967C88.6228 77.9616 89.3046 78.5713 90.1166 78.9485L95.1176 81.277C95.2302 81.3308 95.3201 81.4226 95.3716 81.5363L95.6519 82.1343C95.6921 82.2184 95.7095 82.3116 95.7021 82.4046C95.6946 82.4975 95.6626 82.5868 95.6096 82.6635C95.557 82.7398 95.4854 82.8009 95.4018 82.8409C95.3182 82.8808 95.2257 82.8981 95.1333 82.891L88.476 82.3618L88.2802 82.3883Z" fill="#00102C"/>
<path d="M106.093 90.866H106.051L89.8151 89.633C89.7456 89.6277 89.6776 89.6086 89.6154 89.577C89.5532 89.5453 89.4979 89.5017 89.4526 89.4485C89.4074 89.3954 89.3732 89.3339 89.3518 89.2674C89.3305 89.201 89.3223 89.131 89.3281 89.0615C89.3334 88.9919 89.3525 88.9241 89.3841 88.8619C89.4158 88.7997 89.4594 88.7444 89.5126 88.6991C89.5657 88.6539 89.6273 88.6196 89.6937 88.5982C89.7601 88.5768 89.8301 88.5688 89.8996 88.5746L106.13 89.8076C106.2 89.8123 106.268 89.8309 106.331 89.8622C106.394 89.8936 106.45 89.9372 106.496 89.9903C106.542 90.0435 106.576 90.1053 106.598 90.1721C106.62 90.2388 106.628 90.3092 106.622 90.3792C106.612 90.512 106.551 90.636 106.453 90.7263C106.355 90.8165 106.226 90.8665 106.093 90.866Z" fill="#00102C"/>
<path d="M105.696 83.7007H105.659L88.4019 82.3883C88.3324 82.3831 88.2647 82.3642 88.2024 82.3328C88.1402 82.3014 88.0849 82.258 88.0394 82.2052C87.9939 82.1524 87.9594 82.0911 87.9376 82.0249C87.9158 81.9587 87.9073 81.8889 87.9125 81.8194C87.9177 81.7499 87.9367 81.6821 87.9681 81.6199C87.9995 81.5577 88.0429 81.5023 88.0957 81.4568C88.1486 81.4114 88.2096 81.3768 88.2758 81.355C88.342 81.3332 88.412 81.3247 88.4815 81.3299L105.738 82.6423C105.879 82.6479 106.011 82.709 106.106 82.8123C106.202 82.9155 106.252 83.0523 106.246 83.1927C106.241 83.333 106.18 83.4654 106.076 83.5607C105.973 83.6559 105.836 83.7063 105.696 83.7007Z" fill="#00102C"/>
<path d="M105.881 97.8301H105.839L88.5872 96.5177C88.4469 96.5072 88.3165 96.4414 88.2247 96.3347C88.1329 96.228 88.0873 96.0892 88.0978 95.9488C88.1083 95.8085 88.1741 95.6781 88.2807 95.5863C88.3874 95.4945 88.5262 95.4488 88.6665 95.4593L105.918 96.7665C105.988 96.7718 106.056 96.7908 106.118 96.8225C106.18 96.8542 106.236 96.8978 106.281 96.9509C106.326 97.0041 106.36 97.0656 106.382 97.132C106.403 97.1984 106.411 97.2684 106.405 97.338C106.396 97.4709 106.337 97.5954 106.24 97.6867C106.143 97.7779 106.015 97.8291 105.881 97.8301Z" fill="#00102C"/>
<path d="M196.842 108.512C199.297 93.3869 189.026 79.1351 173.9 76.6799C158.775 74.2247 144.523 84.4958 142.067 99.6213C139.612 114.747 149.883 128.999 165.009 131.454C180.135 133.91 194.387 123.638 196.842 108.512Z" fill="#007AFF"/>
<path d="M163.262 115.511L156.049 108.298L157.15 107.202L163.257 113.309L182.027 94.2793L183.133 95.3695L163.262 115.511Z" fill="white"/>
</svg>
