<svg width="260" height="260" viewBox="0 0 260 260" fill="none" xmlns="http://www.w3.org/2000/svg">
<rect width="260" height="260" fill="white"/>
<path d="M241.461 199.389C241.697 199.29 241.906 199.134 242.067 198.936C242.229 198.737 242.34 198.502 242.389 198.25C242.531 197.607 242.469 196.936 242.21 196.331L241.896 195.582C241.785 195.339 241.657 195.038 241.512 194.68C241.359 194.328 241.173 193.925 240.962 193.471C239.812 190.959 238.504 188.522 237.046 186.176C234.976 182.843 232.621 179.696 230.008 176.77C228.574 175.184 227.032 173.571 225.394 172.093C223.756 170.615 222.035 169.15 220.275 167.8C216.873 165.212 213.26 162.914 209.475 160.927C206.286 159.249 202.997 157.769 199.627 156.493C196.716 155.399 194.265 154.631 192.544 154.132C191.687 153.883 191.008 153.697 190.548 153.576L189.837 153.384C189.719 153.356 189.6 153.335 189.479 153.32L189.031 153.204C187.178 152.704 185.205 152.904 183.49 153.768C182.751 154.133 182.108 154.665 181.612 155.323C181.115 155.98 180.779 156.745 180.63 157.555C180.489 158.387 180.545 159.239 180.796 160.044H180.617C179.736 159.875 178.831 159.881 177.952 160.063C177.074 160.244 176.24 160.596 175.498 161.1C174.834 161.547 174.278 162.136 173.87 162.824C173.461 163.513 173.211 164.283 173.137 165.08C173.041 166.297 173.315 167.515 173.924 168.574C174.508 169.614 175.358 170.48 176.388 171.082C175.791 171.879 175.408 172.815 175.274 173.801C175.107 175.065 175.312 176.35 175.863 177.5C176.367 178.564 177.176 179.454 178.186 180.059C177.649 180.824 177.288 181.698 177.13 182.619C176.844 184.141 177.069 185.716 177.77 187.098C178.051 187.693 178.454 188.222 178.954 188.651C179.453 189.08 180.037 189.399 180.668 189.587C180.668 189.587 181.238 189.734 182.082 189.977C182.927 190.22 184.04 190.572 185.128 190.956C186.216 191.34 187.278 191.749 188.052 192.069L188.993 192.472L189.338 192.626C189.418 192.662 189.502 192.69 189.588 192.709L189.888 192.844L190.72 193.234C191.424 193.586 192.423 194.085 193.555 194.744C194.819 195.468 196.04 196.263 197.215 197.124C198.494 198.067 199.709 199.095 200.849 200.202C202.887 202.184 204.632 204.446 206.032 206.92C206.602 207.938 207.011 208.84 207.312 209.48C207.459 209.793 207.555 210.049 207.632 210.222C207.709 210.395 210.019 215.629 210.019 215.629C210.268 216.269 213.186 214.183 214.12 213.85L241.461 199.389Z" fill="white"/>
<path d="M210.402 217.471C209.974 217.521 209.541 217.433 209.167 217.219C208.793 217.004 208.497 216.676 208.323 216.281C207.933 215.398 206.109 211.271 205.943 210.887C205.904 210.81 205.872 210.721 205.828 210.618C205.783 210.516 205.719 210.343 205.649 210.196C205.335 209.518 204.957 208.718 204.445 207.803C203.834 206.726 203.154 205.69 202.411 204.7C201.54 203.566 200.588 202.497 199.563 201.5C198.484 200.452 197.334 199.479 196.121 198.589C195.001 197.768 193.837 197.01 192.634 196.318C191.565 195.678 190.618 195.223 189.914 194.871L188.98 194.436C188.845 194.397 188.712 194.348 188.584 194.289L188.244 194.136L187.329 193.745C186.465 193.387 185.41 192.99 184.508 192.67C183.279 192.235 182.134 191.896 181.558 191.723C181.097 191.589 180.726 191.487 180.483 191.429L180.182 191.346C179.309 191.093 178.499 190.659 177.804 190.073C177.11 189.486 176.547 188.76 176.151 187.942C175.279 186.215 174.998 184.251 175.351 182.349C175.462 181.75 175.636 181.165 175.87 180.603C175.195 179.944 174.642 179.17 174.238 178.318C173.531 176.851 173.271 175.21 173.489 173.596C173.579 172.913 173.762 172.246 174.033 171.613C173.364 171 172.796 170.285 172.35 169.495C171.564 168.119 171.211 166.538 171.339 164.958C171.441 163.9 171.774 162.877 172.314 161.961C172.855 161.045 173.59 160.26 174.468 159.66C175.741 158.789 177.228 158.282 178.768 158.195C178.781 157.901 178.813 157.608 178.864 157.318C179.062 156.239 179.507 155.22 180.164 154.341C180.821 153.462 181.673 152.746 182.652 152.251C183.721 151.696 184.888 151.359 186.088 151.259C187.222 151.159 188.364 151.252 189.467 151.534L189.831 151.63C189.985 151.63 190.132 151.681 190.279 151.719L191.002 151.911C191.463 152.033 192.148 152.225 193.037 152.481C195.417 153.172 197.849 153.985 200.261 154.887C203.702 156.186 207.059 157.697 210.313 159.411C214.186 161.445 217.882 163.8 221.363 166.449C223.181 167.831 224.947 169.309 226.617 170.845C228.178 172.278 229.771 173.897 231.345 175.644C235.932 180.767 239.728 186.547 242.607 192.792L242.779 193.182C242.926 193.496 243.054 193.777 243.17 194.04L243.873 195.71C244.282 196.66 244.376 197.716 244.142 198.723C244.031 199.239 243.799 199.72 243.465 200.128C243.131 200.537 242.705 200.86 242.223 201.072L214.798 215.488L214.683 215.532C214.281 215.723 213.89 215.937 213.512 216.172C212.118 216.908 211.215 217.394 210.402 217.471ZM208.886 208.667C209.001 208.903 209.084 209.115 209.148 209.268L209.212 209.428C209.264 209.563 210.14 211.546 210.959 213.389L211.708 212.973C212.223 212.658 212.757 212.376 213.307 212.128L240.636 197.757C240.673 197.506 240.64 197.249 240.54 197.015L239.842 195.37C239.746 195.14 239.625 194.878 239.497 194.596L239.311 194.206C238.196 191.761 236.924 189.391 235.504 187.11C233.493 183.865 231.2 180.803 228.651 177.96C227.148 176.296 225.637 174.761 224.172 173.404C222.579 171.939 220.903 170.531 219.169 169.213C215.843 166.686 212.314 164.439 208.617 162.495C205.496 160.851 202.276 159.402 198.975 158.156C196.652 157.28 194.31 156.506 192.026 155.84C191.169 155.591 190.509 155.411 190.068 155.296L189.358 155.104H189.223H189.121L188.571 154.964C187.857 154.781 187.117 154.72 186.382 154.784C185.661 154.841 184.958 155.041 184.316 155.373C183.554 155.731 182.951 156.357 182.62 157.13C182.29 157.904 182.256 158.773 182.524 159.57L183.369 162.373L180.31 161.816C179.833 161.731 179.347 161.71 178.864 161.752C178.027 161.821 177.223 162.105 176.529 162.578C176.079 162.875 175.702 163.269 175.424 163.731C175.146 164.192 174.975 164.71 174.923 165.246C174.859 166.105 175.055 166.964 175.486 167.709C175.912 168.472 176.535 169.106 177.29 169.546L179.043 170.57L177.815 172.182C177.405 172.732 177.143 173.377 177.053 174.057C176.926 174.975 177.076 175.911 177.482 176.744C177.83 177.493 178.391 178.123 179.094 178.555L180.777 179.547L179.645 181.14C179.261 181.687 179.003 182.312 178.89 182.97C178.676 184.091 178.838 185.252 179.35 186.272C179.517 186.638 179.757 186.967 180.055 187.238C180.353 187.508 180.703 187.715 181.084 187.846C181.347 187.91 181.775 188.031 182.569 188.255C183.209 188.434 184.399 188.806 185.711 189.266C186.689 189.605 187.797 190.028 188.731 190.418L190.01 190.962H190.138L190.996 191.359L191.527 191.608C192.282 191.979 193.299 192.498 194.47 193.176C195.793 193.934 197.075 194.763 198.309 195.658C199.661 196.652 200.943 197.736 202.148 198.902C203.3 200.032 204.369 201.242 205.348 202.524C206.185 203.639 206.95 204.806 207.638 206.018C208.182 207.131 208.637 208.123 208.886 208.667Z" fill="black"/>
<path d="M18.2725 123.648C18.2415 123.903 18.2266 124.16 18.2279 124.416V224.835C18.227 225.717 18.4001 226.59 18.7371 227.405C19.0741 228.22 19.5683 228.96 20.1918 229.584C20.8152 230.207 21.5556 230.701 22.3704 231.038C23.1851 231.375 24.0584 231.548 24.9401 231.548H192.71C193.592 231.548 194.466 231.375 195.281 231.038C196.096 230.701 196.837 230.207 197.461 229.584C198.085 228.961 198.58 228.22 198.917 227.405C199.255 226.591 199.429 225.717 199.429 224.835V124.416C199.428 124.16 199.411 123.903 199.378 123.648H18.2725Z" fill="#1D4ED8"/>
<path d="M191.258 226.313C191.035 226.312 190.815 226.258 190.618 226.153L109.913 183.405L27.0388 226.16C26.7146 226.329 26.3363 226.363 25.9871 226.254C25.6379 226.145 25.3464 225.902 25.1767 225.578C25.007 225.253 24.9731 224.875 25.0823 224.526C25.1915 224.177 25.4349 223.885 25.7591 223.716L109.279 180.628C109.477 180.524 109.696 180.47 109.919 180.47C110.142 180.47 110.362 180.524 110.559 180.628L191.904 223.709C192.16 223.86 192.36 224.089 192.475 224.363C192.589 224.636 192.612 224.94 192.54 225.228C192.468 225.516 192.305 225.773 192.075 225.96C191.845 226.148 191.561 226.256 191.265 226.269L191.258 226.313Z" fill="black"/>
<path d="M108.512 181.305L19.8274 123.597L108.825 56.6611L197.829 123.597L108.512 181.305Z" fill="black"/>
<path d="M108.511 182.681C108.246 182.679 107.986 182.602 107.763 182.457L19.0721 124.748C18.8838 124.629 18.7274 124.466 18.616 124.273C18.5045 124.081 18.4414 123.863 18.4323 123.641C18.4233 123.42 18.4684 123.201 18.5632 123.001C18.6579 122.802 18.7995 122.628 18.9762 122.496L107.98 55.5666C108.219 55.3865 108.51 55.2891 108.809 55.2891C109.108 55.2891 109.399 55.3865 109.637 55.5666L198.635 122.496C198.813 122.628 198.956 122.802 199.052 123.002C199.147 123.202 199.193 123.422 199.185 123.644C199.176 123.865 199.115 124.081 199.004 124.274C198.894 124.466 198.739 124.629 198.552 124.748L109.241 182.457C109.024 182.598 108.771 182.676 108.511 182.681ZM22.2205 123.513L108.511 179.66L195.423 123.507L108.825 58.382L22.2205 123.513Z" fill="black"/>
<path d="M103.393 252.874L112.191 246.706C112.417 246.546 112.686 246.461 112.962 246.461C113.238 246.461 113.508 246.546 113.733 246.706L121.738 252.349L129.761 246.718C129.988 246.56 130.259 246.474 130.536 246.474C130.813 246.474 131.083 246.56 131.31 246.718L139.334 252.349L147.357 246.718C147.583 246.559 147.852 246.474 148.129 246.474C148.405 246.474 148.674 246.559 148.9 246.718L156.93 252.349L164.96 246.718C165.185 246.559 165.455 246.474 165.731 246.474C166.007 246.474 166.276 246.559 166.502 246.718L174.526 252.349L182.55 246.718C182.775 246.559 183.045 246.474 183.321 246.474C183.597 246.474 183.866 246.559 184.092 246.718L192.89 252.887C193.035 252.988 193.158 253.117 193.253 253.266C193.347 253.416 193.412 253.582 193.442 253.756C193.472 253.93 193.468 254.109 193.429 254.281C193.39 254.454 193.318 254.617 193.216 254.761C193.011 255.052 192.699 255.249 192.349 255.311C191.999 255.372 191.639 255.292 191.348 255.088L183.324 249.463L175.294 255.088C175.068 255.247 174.799 255.332 174.523 255.332C174.247 255.332 173.977 255.247 173.752 255.088L165.728 249.463L157.704 255.088C157.478 255.247 157.209 255.332 156.933 255.332C156.657 255.332 156.387 255.247 156.162 255.088L148.138 249.463L140.108 255.088C139.882 255.247 139.613 255.332 139.337 255.332C139.061 255.332 138.791 255.247 138.566 255.088L130.542 249.463L122.518 255.088C122.293 255.247 122.023 255.332 121.747 255.332C121.471 255.332 121.202 255.247 120.976 255.088L112.952 249.463L104.922 255.088C104.778 255.189 104.615 255.261 104.442 255.299C104.27 255.337 104.092 255.341 103.918 255.311C103.744 255.28 103.578 255.215 103.429 255.121C103.281 255.026 103.152 254.903 103.05 254.758C102.949 254.614 102.878 254.451 102.839 254.278C102.801 254.106 102.797 253.928 102.828 253.754C102.858 253.58 102.923 253.414 103.018 253.265C103.112 253.117 103.236 252.988 103.38 252.887L103.393 252.874Z" fill="#1D4ED8"/>
<path d="M215.739 69.989L192.704 68.7092C192.47 68.6995 192.237 68.7478 192.026 68.85C191.758 68.9823 191.541 69.1999 191.409 69.4688C191.278 69.7376 191.24 70.0424 191.301 70.3353C191.362 70.6282 191.518 70.8926 191.745 71.087C191.973 71.2814 192.258 71.3948 192.557 71.4094L215.592 72.6891C215.948 72.7086 216.298 72.5858 216.564 72.3476C216.829 72.1095 216.99 71.7754 217.009 71.419C217.029 71.0627 216.906 70.7132 216.668 70.4474C216.429 70.1816 216.095 70.0213 215.739 70.0018V69.989Z" fill="#1D4ED8"/>
<path d="M186.171 45.4249C186.332 45.7431 186.612 45.9845 186.95 46.0961C187.289 46.2077 187.657 46.1803 187.976 46.02L208.541 35.616C208.859 35.4547 209.1 35.1737 209.211 34.8347C209.322 34.4957 209.294 34.1265 209.132 33.8083C208.971 33.4901 208.69 33.2491 208.351 33.1381C208.012 33.0271 207.643 33.0553 207.325 33.2165L186.766 43.6206C186.608 43.6993 186.467 43.8087 186.352 43.9422C186.236 44.0758 186.148 44.2309 186.093 44.3987C186.037 44.5664 186.016 44.7435 186.029 44.9197C186.043 45.0958 186.091 45.2675 186.171 45.4249Z" fill="#1D4ED8"/>
<path d="M171.301 26.3511L183.912 7.05938C184.068 6.8115 184.139 6.5194 184.114 6.22762C184.088 5.93583 183.969 5.66036 183.772 5.44302C183.576 5.22569 183.314 5.0784 183.026 5.02367C182.738 4.96893 182.441 5.00974 182.178 5.13981C181.968 5.24463 181.789 5.40362 181.66 5.60049L169.087 24.8794C168.981 25.0267 168.907 25.1937 168.867 25.3705C168.828 25.5473 168.825 25.7303 168.859 25.9083C168.892 26.0863 168.961 26.2558 169.061 26.4065C169.162 26.5573 169.291 26.6861 169.443 26.7854C169.594 26.8846 169.765 26.9522 169.943 26.9841C170.121 27.0161 170.304 27.0116 170.48 26.971C170.657 26.9305 170.823 26.8546 170.97 26.7481C171.116 26.6416 171.24 26.5065 171.332 26.3511H171.301Z" fill="#1D4ED8"/>
<path d="M5.11061 198.352C5.1426 198.352 8.04744 196.285 8.19461 193.137C8.28419 191.217 7.36934 189.496 5.46897 187.935C3.11429 186.015 2.65353 184.768 2.68553 184.096C2.73671 183.085 3.96527 182.176 5.11061 181.402C5.1426 181.402 8.04104 179.335 8.19461 176.187C8.28419 174.268 7.36934 172.546 5.46897 170.985C4.05488 169.821 3.34447 168.65 3.37006 167.517C3.40205 165.764 5.1297 164.427 5.1681 164.401C5.45404 164.188 5.64388 163.87 5.69548 163.517C5.74708 163.165 5.65632 162.806 5.44335 162.52C5.23037 162.234 4.91258 162.044 4.55979 161.993C4.20701 161.941 3.84815 162.032 3.56221 162.245C3.44703 162.328 0.759632 164.356 0.682849 167.434C0.63166 169.443 1.66812 171.337 3.76685 173.058C4.95058 174.037 5.53924 175.029 5.51364 176.014C5.46885 177.48 4.08676 178.817 3.59407 179.214C2.31436 180.097 0.119737 181.568 0.00456321 184C-0.0850168 185.919 1.14343 187.903 3.76685 190.053C4.95058 191.032 5.53924 192.024 5.51364 193.009C5.46885 194.474 4.08676 195.812 3.59407 196.208C2.31436 197.091 0.119737 198.569 0.00456321 201.001C-0.0850168 202.92 1.14343 204.891 3.76685 207.054C4.95058 208.026 5.53924 209.025 5.51364 210.004C5.46885 211.469 4.08676 212.806 3.59407 213.203C2.31436 214.086 0.119737 215.564 0.00456321 217.995C-0.0850168 219.915 1.14343 221.892 3.76685 224.048C4.04307 224.27 4.39555 224.373 4.74757 224.336C5.09958 224.299 5.42287 224.125 5.64705 223.851C5.87124 223.577 5.97813 223.226 5.9448 222.873C5.91146 222.521 5.74053 222.196 5.46897 221.969C3.11429 220.049 2.65353 218.808 2.68553 218.13C2.73671 217.125 3.96527 216.21 5.11061 215.436C5.1426 215.436 8.04104 213.376 8.19461 210.228C8.28419 208.308 7.36934 206.58 5.46897 205.019C3.11429 203.1 2.65353 201.852 2.68553 201.18C2.72392 200.041 3.96527 199.126 5.11061 198.352Z" fill="#1D4ED8"/>
<path d="M6.56324 77.2648H16.1611V67.6669C16.1611 67.4905 16.1957 67.3158 16.2633 67.1527C16.3308 66.9897 16.43 66.8416 16.5548 66.7168C16.6795 66.5921 16.8276 66.493 16.9906 66.4255C17.1536 66.358 17.3284 66.3232 17.5049 66.3232C17.6813 66.3232 17.8561 66.358 18.0191 66.4255C18.1821 66.493 18.3302 66.5921 18.455 66.7168C18.5797 66.8416 18.6786 66.9897 18.7461 67.1527C18.8137 67.3158 18.8486 67.4905 18.8486 67.6669V77.2648H28.4465C28.8028 77.2648 29.1446 77.4064 29.3966 77.6584C29.6486 77.9104 29.7899 78.2521 29.7899 78.6085C29.7899 78.9648 29.6486 79.3067 29.3966 79.5586C29.1446 79.8106 28.8028 79.9521 28.4465 79.9521H18.8486V89.55C18.8486 89.9064 18.707 90.2482 18.455 90.5002C18.203 90.7522 17.8612 90.8938 17.5049 90.8938C17.1485 90.8938 16.8068 90.7522 16.5548 90.5002C16.3028 90.2482 16.1611 89.9064 16.1611 89.55V79.9521H6.56324C6.20687 79.9521 5.86514 79.8106 5.61314 79.5586C5.36115 79.3067 5.21948 78.9648 5.21948 78.6085C5.21948 78.2521 5.36115 77.9104 5.61314 77.6584C5.86514 77.4064 6.20687 77.2648 6.56324 77.2648Z" fill="#1D4ED8"/>
<path d="M215.892 171.331C205.955 169.245 199.371 169.942 189.78 172.099C187.15 172.815 185.026 175.368 186.094 179.047C187.086 182.439 189.543 183.526 192.109 182.81C198.757 181.14 202.948 180.468 210.025 181.888C207.766 191.333 210.761 202.069 219.053 205.563L215.892 171.331Z" fill="white"/>
<path d="M219.2 207.246C218.928 207.272 218.653 207.231 218.4 207.125C214.088 205.301 210.722 201.533 209.001 196.516C207.562 192.241 207.23 187.671 208.035 183.233C202.494 182.33 198.719 182.881 192.544 184.429C188.82 185.478 185.659 183.553 184.482 179.515C184.176 178.579 184.062 177.59 184.149 176.609C184.236 175.628 184.521 174.675 184.987 173.808C185.458 172.994 186.084 172.281 186.831 171.71C187.578 171.139 188.43 170.721 189.338 170.48H189.415C199.186 168.279 206.019 167.556 216.238 169.706C216.453 169.751 216.658 169.839 216.84 169.963C217.021 170.088 217.177 170.247 217.297 170.431C217.418 170.616 217.5 170.822 217.541 171.038C217.581 171.255 217.579 171.477 217.533 171.693C217.488 171.908 217.401 172.113 217.276 172.295C217.152 172.476 216.993 172.632 216.809 172.752C216.624 172.872 216.418 172.955 216.201 172.996C215.985 173.036 215.762 173.034 215.547 172.988C205.891 170.967 199.672 171.619 190.189 173.75C189.235 174.002 188.419 174.621 187.918 175.471C187.673 175.95 187.529 176.474 187.492 177.011C187.456 177.547 187.529 178.086 187.707 178.594C188.347 180.852 189.729 181.793 191.642 181.211H191.699C198.866 179.413 203.262 178.85 210.358 180.27C210.577 180.318 210.785 180.408 210.968 180.537C211.152 180.666 211.308 180.831 211.428 181.021C211.547 181.211 211.627 181.423 211.663 181.645C211.699 181.866 211.69 182.093 211.637 182.311C210.568 186.649 210.745 191.2 212.149 195.441C213.166 198.346 215.297 202.204 219.687 204.06C220.024 204.21 220.302 204.467 220.479 204.791C220.655 205.116 220.719 205.489 220.662 205.854C220.604 206.218 220.428 206.554 220.16 206.808C219.892 207.062 219.548 207.221 219.181 207.259L219.2 207.246Z" fill="black"/>
<path d="M212.827 239.553L257.656 239.758V239.022C257.656 238.779 257.656 238.484 257.656 238.139C257.656 237.793 257.656 237.416 257.611 236.981C257.566 236.545 257.573 236.072 257.547 235.547C257.522 235.023 257.464 234.504 257.413 233.922C257.413 233.634 257.362 233.333 257.336 233.026C257.31 232.719 257.265 232.386 257.233 232.105C257.157 231.465 257.08 230.825 256.984 230.134C256.555 227.197 255.974 224.284 255.244 221.406C254.482 218.367 253.542 215.277 252.505 212.32C250.643 207.041 248.464 201.878 245.978 196.862C244.98 194.833 244.097 193.163 243.419 191.96L242.639 190.546L242.344 190.021L203.409 212.244L203.562 212.512L204.036 213.37C204.452 214.131 205.053 215.289 205.751 216.691C207.423 220.066 208.893 223.538 210.153 227.088C210.793 228.95 211.343 230.755 211.746 232.361C212.093 233.711 212.37 235.078 212.578 236.456C212.617 236.731 212.635 236.974 212.667 237.217C212.667 237.333 212.7 237.454 212.712 237.556V237.864C212.712 238.056 212.751 238.235 212.763 238.407C212.776 238.58 212.763 238.695 212.763 238.823C212.763 238.951 212.763 239.06 212.763 239.156V239.553H212.827Z" fill="#1D4ED8"/>
<path d="M257.656 242.156C257.023 242.156 256.416 241.906 255.968 241.46C255.519 241.014 255.266 240.409 255.263 239.776V238.202L255.154 235.7C255.154 235.284 255.09 234.837 255.052 234.369L254.949 233.25C254.949 233.077 254.911 232.885 254.892 232.693L254.789 231.88C254.738 231.426 254.68 230.953 254.61 230.498C254.201 227.637 253.637 224.801 252.921 222.001C252.185 219.077 251.283 216.089 250.24 213.12C248.419 207.932 246.282 202.862 243.841 197.936C242.862 195.952 242.018 194.346 241.455 193.303L206.653 213.139C207.005 213.779 207.433 214.643 207.932 215.622C209.646 219.087 211.152 222.651 212.443 226.294C213.083 228.118 213.666 230.012 214.101 231.765C214.469 233.193 214.762 234.639 214.977 236.097C214.977 236.283 215.022 236.455 215.041 236.622C215.06 236.788 215.041 236.788 215.073 236.871C215.07 236.888 215.07 236.906 215.073 236.922V237.018C215.073 237.134 215.073 237.242 215.112 237.338V237.37L215.182 238.177C215.182 238.221 215.182 238.266 215.182 238.311L215.214 239.002C215.214 239.066 215.214 239.13 215.214 239.194V239.539C215.182 240.152 214.917 240.729 214.472 241.151C214.027 241.573 213.437 241.809 212.824 241.809C212.211 241.809 211.621 241.573 211.176 241.151C210.732 240.729 210.466 240.152 210.434 239.539V239.36C210.434 239.36 210.434 239.36 210.434 239.309V239.188V238.944C210.434 238.944 210.434 238.944 210.434 238.893V238.541L210.396 238.061C210.396 238.061 210.396 238.061 210.396 238.023V237.742C210.398 237.716 210.398 237.69 210.396 237.665V237.505C210.396 237.39 210.364 237.274 210.351 237.153C210.338 237.031 210.351 236.929 210.313 236.807C210.31 236.795 210.31 236.782 210.313 236.769C210.125 235.476 209.866 234.194 209.539 232.93C209.129 231.317 208.598 229.571 208.003 227.869C206.746 224.429 205.289 221.066 203.639 217.797C202.884 216.268 202.263 215.11 201.962 214.553L201.355 213.459C201.043 212.909 200.963 212.258 201.13 211.648C201.298 211.039 201.701 210.521 202.251 210.208L241.186 187.993C241.458 187.834 241.759 187.732 242.071 187.692C242.383 187.653 242.7 187.677 243.003 187.762C243.615 187.932 244.134 188.337 244.449 188.888L244.744 189.413L245.524 190.827C246.113 191.921 247.034 193.655 248.083 195.831C250.612 200.934 252.828 206.186 254.719 211.559C255.807 214.655 256.747 217.784 257.521 220.843C258.272 223.796 258.868 226.786 259.306 229.801C259.383 230.306 259.441 230.812 259.498 231.298L259.601 232.111L259.678 232.795L259.774 233.954C259.818 234.459 259.857 234.933 259.889 235.387C259.886 235.404 259.886 235.421 259.889 235.438L259.998 238.042C260.001 238.068 260.001 238.094 259.998 238.119V239.757C259.998 240.39 259.746 240.997 259.298 241.445C258.851 241.892 258.244 242.144 257.611 242.144L257.656 242.156Z" fill="#1D4ED8"/>
<path d="M247.092 237.543C247.327 237.602 247.574 237.579 247.794 237.478C248.014 237.377 248.193 237.204 248.301 236.988C248.41 236.771 248.441 236.525 248.39 236.288C248.338 236.052 248.208 235.84 248.02 235.687C243.457 232.015 236.937 229.129 228.651 227.1C225.005 226.208 221.303 225.566 217.569 225.181C217.299 225.175 217.038 225.272 216.837 225.452C216.637 225.632 216.512 225.881 216.488 226.15C216.465 226.418 216.544 226.686 216.71 226.898C216.876 227.11 217.117 227.251 217.383 227.292C217.575 227.292 236.355 229.058 246.695 237.37C246.815 237.453 246.95 237.512 247.092 237.543Z" fill="black"/>
<path d="M217.364 223.018C217.558 223.076 217.765 223.076 217.959 223.018C218.125 222.967 234.346 217.714 247.29 221.975C247.426 222.033 247.573 222.062 247.721 222.06C247.869 222.058 248.015 222.025 248.15 221.964C248.284 221.902 248.404 221.813 248.502 221.702C248.6 221.591 248.674 221.461 248.719 221.32C248.764 221.179 248.778 221.03 248.762 220.883C248.746 220.735 248.7 220.593 248.625 220.465C248.551 220.337 248.451 220.226 248.331 220.139C248.211 220.052 248.075 219.991 247.93 219.96C234.301 215.481 217.959 220.772 217.268 221.003C217.051 221.076 216.864 221.217 216.733 221.405C216.603 221.593 216.537 221.818 216.545 222.046C216.553 222.275 216.634 222.495 216.777 222.674C216.92 222.852 217.117 222.98 217.339 223.038L217.364 223.018Z" fill="black"/>
<path d="M108.512 181.305L175.805 137.82V49.7441L145.527 19.127H42.4849V138.339L108.512 181.305Z" fill="white"/>
<path d="M108.512 182.681C108.246 182.679 107.986 182.602 107.763 182.457L41.7553 139.49C41.5608 139.367 41.4004 139.197 41.2886 138.996C41.1768 138.795 41.1173 138.569 41.1155 138.338V19.1267C41.1155 18.7618 41.2605 18.4119 41.5185 18.1539C41.7765 17.8959 42.1263 17.751 42.4911 17.751H145.508C145.795 17.7513 146.074 17.8407 146.308 18.0069L176.586 48.6241C176.764 48.7514 176.909 48.9194 177.009 49.1142C177.11 49.309 177.162 49.5248 177.162 49.7438V137.814C177.16 138.045 177.101 138.272 176.989 138.474C176.877 138.676 176.717 138.847 176.522 138.972L109.228 182.482C109.012 182.613 108.764 182.681 108.512 182.681ZM43.8861 137.59L108.512 179.66L174.417 137.071V50.4541L145.079 20.5024H43.8605L43.8861 137.59Z" fill="black"/>
<path d="M145.521 19.1396L145.54 49.7504L175.818 49.7312L145.521 19.1396Z" fill="#1D4ED8"/>
<path d="M145.54 51.1263C145.36 51.1271 145.181 51.0923 145.014 51.0239C144.847 50.9554 144.695 50.8547 144.568 50.7275C144.44 50.6002 144.339 50.449 144.269 50.2825C144.2 50.1159 144.164 49.9373 144.164 49.757V19.1398C144.163 18.8867 144.233 18.6383 144.365 18.4224C144.497 18.2066 144.687 18.0318 144.913 17.9177C145.137 17.802 145.388 17.7499 145.64 17.7668C145.891 17.7837 146.134 17.8691 146.34 18.0137L176.644 48.6116C176.88 48.7823 177.056 49.0232 177.147 49.2999C177.238 49.5766 177.239 49.8749 177.15 50.1523C177.061 50.4297 176.887 50.672 176.653 50.8446C176.418 51.0172 176.135 51.1113 175.844 51.1135H145.566L145.54 51.1263ZM146.897 21.8016V48.3749H171.486L146.897 21.8016Z" fill="black"/>
<path d="M143.697 82.2178H75.0663C73.363 82.2178 71.9822 83.5986 71.9822 85.3019V142.403C71.9822 144.106 73.363 145.487 75.0663 145.487H143.697C145.401 145.487 146.781 144.106 146.781 142.403V85.3019C146.781 83.5986 145.401 82.2178 143.697 82.2178Z" fill="#1D4ED8"/>
<path d="M143.697 147.727H75.0663C73.6549 147.725 72.3017 147.163 71.3037 146.165C70.3057 145.167 69.7445 143.814 69.7428 142.403V85.3022C69.7445 83.8908 70.3057 82.5377 71.3037 81.5397C72.3017 80.5416 73.6549 79.9802 75.0663 79.9785H143.697C145.109 79.9802 146.462 80.5416 147.46 81.5397C148.458 82.5377 149.019 83.8908 149.021 85.3022V142.403C149.019 143.814 148.458 145.167 147.46 146.165C146.462 147.163 145.109 147.725 143.697 147.727ZM75.0663 84.4575C74.8423 84.4575 74.6273 84.5465 74.4689 84.7049C74.3105 84.8633 74.2218 85.0782 74.2218 85.3022V142.403C74.2218 142.627 74.3105 142.842 74.4689 143C74.6273 143.159 74.8423 143.248 75.0663 143.248H143.697C143.921 143.248 144.136 143.159 144.295 143C144.453 142.842 144.542 142.627 144.542 142.403V85.3022C144.542 85.0782 144.453 84.8633 144.295 84.7049C144.136 84.5465 143.921 84.4575 143.697 84.4575H75.0663Z" fill="black"/>
<path d="M136.064 83.6436C135.385 83.6436 134.734 83.374 134.254 82.894C133.774 82.414 133.505 81.763 133.505 81.0842V60.3912C133.505 53.9884 130.961 47.8478 126.434 43.3204C121.906 38.7929 115.766 36.2495 109.363 36.2495C102.96 36.2495 96.8193 38.7929 92.2918 43.3204C87.7644 47.8478 85.2209 53.9884 85.2209 60.3912V81.1034C85.1446 81.7233 84.844 82.2939 84.3761 82.7077C83.9082 83.1215 83.3052 83.3499 82.6806 83.3499C82.0559 83.3499 81.4529 83.1215 80.985 82.7077C80.5171 82.2939 80.2169 81.7233 80.1405 81.1034V60.3912C80.1405 52.641 83.219 45.2082 88.6992 39.728C94.1795 34.2477 101.612 31.1689 109.363 31.1689C117.113 31.1689 124.546 34.2477 130.026 39.728C135.506 45.2082 138.585 52.641 138.585 60.3912V81.1034C138.58 81.7723 138.313 82.4126 137.842 82.8874C137.371 83.3621 136.733 83.6336 136.064 83.6436Z" fill="black"/>
<path d="M116.619 116.283C116.619 114.943 116.248 113.628 115.546 112.486C114.844 111.344 113.84 110.419 112.644 109.813C111.448 109.208 110.107 108.945 108.771 109.056C107.435 109.166 106.156 109.645 105.076 110.439C103.996 111.233 103.157 112.311 102.652 113.553C102.148 114.795 101.998 116.152 102.218 117.475C102.439 118.797 103.022 120.032 103.903 121.043C104.783 122.054 105.927 122.8 107.206 123.2V135.358C107.205 135.383 107.21 135.409 107.219 135.433C107.228 135.457 107.242 135.479 107.26 135.498C107.278 135.516 107.299 135.531 107.323 135.541C107.347 135.551 107.372 135.556 107.398 135.556H111.333C111.386 135.556 111.436 135.535 111.473 135.498C111.511 135.461 111.532 135.41 111.532 135.358V123.2C113.006 122.74 114.295 121.821 115.21 120.577C116.126 119.332 116.619 117.828 116.619 116.283Z" fill="black"/>
</svg>
