<svg width="173" height="126" viewBox="0 0 173 126" fill="none" xmlns="http://www.w3.org/2000/svg">
<path d="M168.436 60.9952C166.881 59.0797 164.947 57.5051 162.754 56.37C160.561 55.2349 158.158 54.5636 155.693 54.3982H149.367L128.208 54.4549L122.097 53.1287C117.505 52.1376 112.713 52.6842 108.464 54.684C104.214 56.6837 100.743 60.0252 98.5869 64.1916L89.569 81.6759C89.5327 81.752 89.5138 81.8353 89.5138 81.9196C89.5138 82.0039 89.5327 82.0872 89.569 82.1633C89.6031 82.2402 89.6538 82.3086 89.7176 82.3635C89.7815 82.4184 89.8568 82.4584 89.9381 82.4807L94.6231 83.7615L92.1586 90.4718C92.1419 90.556 92.1419 90.6427 92.1586 90.7269C90.5216 90.7152 88.8881 90.8786 87.2861 91.2143L82.2772 92.2628C82.1697 92.2853 82.0711 92.3384 81.9933 92.4158L68.0464 106.335C67.9937 106.388 67.9521 106.451 67.9238 106.52C67.8955 106.589 67.8812 106.663 67.8817 106.738C67.8823 106.886 67.9415 107.029 68.0464 107.134L68.9265 108.013C69.3611 108.447 69.8771 108.791 70.4452 109.026C71.0133 109.262 71.6223 109.383 72.2373 109.383C72.8522 109.383 73.461 109.262 74.0291 109.026C74.5972 108.791 75.1135 108.447 75.5481 108.013L82.0501 101.523L91.6417 111.096C93.0009 112.458 94.6171 113.538 96.3969 114.274C98.1767 115.009 100.085 115.385 102.011 115.38H112.449L142.2 124.448C144.06 125.018 145.996 125.306 147.941 125.304C151.668 125.303 155.317 124.246 158.464 122.255C160.842 120.732 162.863 118.715 164.388 116.341C165.913 113.967 166.906 111.292 167.3 108.5L172.196 74.8125C172.553 72.3752 172.403 69.8906 171.757 67.5134C171.11 65.1362 169.98 62.9174 168.436 60.9952V60.9952Z" fill="white"/>
<path d="M51.5096 95.9523V107.639H52.6453C53.1435 107.639 53.6367 107.541 54.0969 107.351C54.5572 107.16 54.9753 106.881 55.3275 106.53C55.6798 106.178 55.9593 105.761 56.15 105.302C56.3406 104.842 56.4386 104.35 56.4386 103.853V96.9668L51.5096 95.9523Z" fill="white"/>
<path d="M52.6509 108.205H51.5151C51.3645 108.205 51.2201 108.146 51.1136 108.039C51.0071 107.933 50.9473 107.789 50.9473 107.639V95.9523C50.947 95.8677 50.9658 95.784 51.0022 95.7075C51.0385 95.631 51.0916 95.5636 51.1575 95.5103C51.2234 95.457 51.3006 95.4192 51.3832 95.3996C51.4657 95.3799 51.5514 95.379 51.6344 95.3969L56.5751 96.4114C56.7042 96.439 56.8195 96.5108 56.9014 96.6142C56.9833 96.7176 57.0266 96.8463 57.0237 96.9781V103.864C57.0192 105.018 56.5563 106.123 55.7365 106.937C54.9168 107.751 53.8071 108.207 52.6509 108.205V108.205ZM52.083 107.072H52.6509C53.5064 107.072 54.327 106.733 54.9319 106.129C55.5368 105.525 55.8766 104.707 55.8766 103.853V97.4372L52.0717 96.6494L52.083 107.072Z" fill="#00102C"/>
<path d="M75.7069 108.976H65.1898C61.4502 108.975 57.8637 107.493 55.2177 104.856L45.2061 94.8812L38.3006 101.773C37.5285 102.543 36.4817 102.975 35.3902 102.975C34.2987 102.975 33.2518 102.543 32.4798 101.773L31.5997 100.9L45.5524 86.975L59.4996 84.0562L76.7179 95.0568H92.9081V108.976H75.7069Z" fill="white"/>
<path d="M92.9081 109.543H65.2069C63.28 109.549 61.3711 109.172 59.5911 108.436C57.811 107.699 56.1951 106.617 54.8373 105.253L45.2061 95.686L38.7037 102.175C38.2699 102.61 37.7539 102.955 37.1856 103.19C36.6173 103.424 36.0082 103.543 35.3932 103.541C34.7773 103.544 34.1668 103.425 33.5975 103.19C33.0282 102.956 32.5112 102.611 32.0766 102.175L31.202 101.297C31.0963 101.191 31.037 101.047 31.037 100.897C31.037 100.747 31.0963 100.604 31.202 100.498L45.1492 86.5783C45.2253 86.4987 45.3247 86.4451 45.4332 86.4253L59.3803 83.5008C59.5272 83.4701 59.6804 83.4986 59.8063 83.5802L76.8823 94.4901H92.9081C93.0587 94.4901 93.2031 94.5498 93.3096 94.6561C93.4161 94.7624 93.4759 94.9066 93.4759 95.0569V108.976C93.4759 109.051 93.4612 109.124 93.4327 109.193C93.4041 109.262 93.3623 109.324 93.3096 109.377C93.2568 109.43 93.1943 109.471 93.1254 109.5C93.0565 109.528 92.9826 109.543 92.9081 109.543ZM45.2061 94.3144C45.2808 94.314 45.3548 94.3283 45.424 94.3565C45.4932 94.3847 45.5562 94.4263 45.6092 94.4788L55.5982 104.454C56.8508 105.714 58.3417 106.713 59.9843 107.394C61.6268 108.075 63.3884 108.424 65.167 108.421H92.3402V95.6236H76.7576C76.6487 95.6233 76.5423 95.5919 76.4509 95.5329L59.4145 84.657L45.8591 87.4908L32.4343 100.894L32.9115 101.365C33.2404 101.695 33.6317 101.956 34.0625 102.134C34.4934 102.312 34.9552 102.403 35.4215 102.402C35.8869 102.403 36.3478 102.312 36.7777 102.134C37.2076 101.956 37.5979 101.694 37.9259 101.365L44.8312 94.4731C44.9322 94.3758 45.0658 94.3193 45.2061 94.3144Z" fill="#00102C"/>
<path d="M48.5169 96.23L40.2371 104.493L41.0435 105.304C41.3957 105.655 41.8142 105.935 42.2746 106.125C42.735 106.315 43.2284 106.413 43.7267 106.413C44.2251 106.413 44.7185 106.315 45.1789 106.125C45.6393 105.935 46.0578 105.655 46.41 105.304L51.288 100.435L48.5169 96.23Z" fill="white"/>
<path d="M43.7295 106.976C42.572 106.977 41.4611 106.521 40.6403 105.706L39.8339 104.896C39.7282 104.789 39.6687 104.646 39.6687 104.496C39.6687 104.346 39.7282 104.203 39.8339 104.097L48.1137 95.8276C48.1738 95.7688 48.2462 95.7241 48.3258 95.6966C48.4054 95.6692 48.49 95.6597 48.5737 95.669C48.6569 95.6775 48.7372 95.7042 48.8088 95.7473C48.8805 95.7905 48.9418 95.8488 48.9882 95.9183L51.765 100.124C51.8372 100.233 51.8694 100.364 51.8559 100.494C51.8425 100.624 51.7842 100.745 51.6912 100.838L46.8132 105.706C45.9938 106.519 44.8851 106.976 43.7295 106.976V106.976ZM41.0379 104.493L41.4466 104.901C42.0515 105.498 42.8677 105.833 43.7181 105.833C44.5686 105.833 45.3848 105.498 45.9897 104.901L50.5327 100.367L48.3976 97.1312L41.0379 104.493Z" fill="#00102C"/>
<path d="M50.5554 96.5701L45.348 107.038L46.3759 107.548C47.276 107.994 48.3167 108.066 49.2697 107.747C50.2226 107.428 51.0096 106.745 51.4583 105.848L54.5251 99.6872L50.5554 96.5701Z" fill="white"/>
<path d="M48.0455 108.511C47.3729 108.511 46.7097 108.354 46.1089 108.052L45.0868 107.548C45.0191 107.515 44.9585 107.469 44.9088 107.413C44.8591 107.356 44.8211 107.291 44.7971 107.219C44.751 107.077 44.7633 106.922 44.8312 106.789L50.0331 96.3207C50.0709 96.2451 50.1251 96.1788 50.1919 96.1268C50.2588 96.0749 50.3366 96.0385 50.4193 96.0203C50.5014 96.0009 50.5866 96 50.6692 96.0176C50.7517 96.0352 50.8293 96.071 50.8963 96.1223L54.8714 99.2281C54.9741 99.3084 55.046 99.4215 55.0749 99.5485C55.1039 99.6754 55.0881 99.8085 55.0303 99.9252L51.9638 106.091C51.6012 106.819 51.0423 107.431 50.35 107.858C49.6577 108.286 48.8596 108.512 48.0455 108.511ZM46.0975 106.811L46.6144 107.066C46.9939 107.255 47.4071 107.367 47.83 107.396C48.253 107.425 48.6776 107.371 49.0795 107.236C49.4814 107.101 49.8527 106.889 50.1723 106.611C50.4918 106.333 50.7533 105.994 50.9417 105.615L53.7811 99.8629L50.7202 97.4712L46.0975 106.811Z" fill="#00102C"/>
<path d="M66.9558 72.5002L38.3006 102.385L35.8701 109.282L42.4177 106.811L71.0729 76.9322L70.9595 76.5014C70.7124 75.589 70.2406 74.7527 69.587 74.0687C68.9333 73.3847 68.1185 72.8747 67.217 72.5852L66.9558 72.5002Z" fill="#FFAB00"/>
<path d="M69.8238 79.0235C69.7486 79.0231 69.6742 79.008 69.605 78.9788C69.5358 78.9496 69.4732 78.907 69.4206 78.8534L65.4454 74.8068C65.3396 74.7007 65.2802 74.557 65.2802 74.4073C65.2802 74.2576 65.3396 74.1139 65.4454 74.0077C65.5518 73.9022 65.6958 73.8429 65.8458 73.8429C65.9958 73.8429 66.1395 73.9022 66.2459 74.0077L70.2211 78.0543C70.3269 78.1605 70.3864 78.3042 70.3864 78.4539C70.3864 78.6036 70.3269 78.7472 70.2211 78.8534C70.1704 78.9079 70.1091 78.9511 70.0406 78.9804C69.9721 79.0097 69.8982 79.0244 69.8238 79.0235V79.0235Z" fill="#00102C"/>
<path d="M57.6257 96.4284H40.9242V96.5134C41.0195 97.8474 41.5743 99.1073 42.4945 100.079C43.4147 101.052 44.6437 101.676 45.9728 101.847L53.7357 103.303L57.6257 96.4284Z" fill="white"/>
<path d="M53.7244 103.87C53.6905 103.875 53.6559 103.875 53.622 103.87L45.8536 102.413C44.4025 102.217 43.063 101.529 42.0601 100.464C41.0571 99.3987 40.4516 98.022 40.345 96.5644V96.4794C40.34 96.4019 40.3511 96.3241 40.3775 96.251C40.4039 96.1779 40.445 96.1109 40.4984 96.0544C40.5513 95.9974 40.6153 95.9519 40.6867 95.9207C40.758 95.8895 40.8351 95.8733 40.9129 95.873H57.6144C57.765 95.873 57.9094 95.9327 58.0159 96.039C58.1224 96.1453 58.1823 96.2894 58.1823 96.4398C58.1823 96.5901 58.1224 96.7342 58.0159 96.8405C57.9094 96.9468 57.765 97.0065 57.6144 97.0065H41.549C41.7435 98.1053 42.2838 99.1137 43.0916 99.8852C43.8993 100.657 44.9326 101.151 46.041 101.297L53.8322 102.759C53.9057 102.773 53.9758 102.801 54.0385 102.841C54.1012 102.882 54.1552 102.935 54.1974 102.996C54.2396 103.058 54.2692 103.127 54.2845 103.2C54.2998 103.273 54.3007 103.349 54.2867 103.422C54.2592 103.55 54.1881 103.665 54.0857 103.746C53.9832 103.828 53.8554 103.871 53.7244 103.87V103.87Z" fill="#00102C"/>
<path d="M25.9491 103.955C25.9484 103.327 26.0719 102.705 26.3121 102.125C26.5524 101.544 26.9048 101.017 27.3494 100.573C27.7941 100.129 28.3219 99.7761 28.9031 99.5357C29.4843 99.2952 30.1073 99.1714 30.7365 99.1714H6.25522C5.62607 99.1714 5.00299 99.2952 4.42181 99.5357C3.84062 99.7761 3.31251 100.129 2.8679 100.573C2.42329 101.017 2.07082 101.544 1.83057 102.125C1.59033 102.705 1.46714 103.327 1.46788 103.955C1.46714 104.582 1.59053 105.204 1.83085 105.784C2.07117 106.364 2.42377 106.891 2.86845 107.335C3.31314 107.779 3.84121 108.131 4.42236 108.37C5.00351 108.61 5.62634 108.733 6.25522 108.733H30.7365C30.1076 108.733 29.4848 108.61 28.9036 108.37C28.3225 108.131 27.7944 107.779 27.3497 107.335C26.905 106.891 26.5524 106.364 26.3121 105.784C26.0718 105.204 25.9484 104.582 25.9491 103.955V103.955Z" fill="white"/>
<path d="M30.7365 109.299H6.25521C4.83541 109.298 3.47422 108.734 2.47026 107.732C1.46631 106.73 0.901497 105.372 0.899994 103.955C0.899993 102.537 1.46393 101.177 2.46804 100.174C3.47216 99.1706 4.83442 98.6062 6.25521 98.6047H30.7365C30.8871 98.6047 31.0315 98.6644 31.138 98.7707C31.2445 98.877 31.3044 99.0212 31.3044 99.1715C31.3044 99.3218 31.2445 99.4659 31.138 99.5722C31.0315 99.6785 30.8871 99.7382 30.7365 99.7382C29.6169 99.7397 28.5437 100.185 27.7526 100.975C26.9615 101.766 26.517 102.838 26.517 103.955C26.517 105.072 26.9616 106.143 27.7529 106.932C28.5442 107.722 29.6174 108.166 30.7365 108.166C30.8871 108.166 31.0315 108.226 31.138 108.332C31.2445 108.438 31.3044 108.582 31.3044 108.733C31.3044 108.883 31.2445 109.027 31.138 109.133C31.0315 109.24 30.8871 109.299 30.7365 109.299ZM6.25521 99.7382C5.13565 99.7397 4.06246 100.185 3.27134 100.975C2.48022 101.766 2.03575 102.838 2.03576 103.955C2.03576 105.072 2.48033 106.143 3.27162 106.932C4.0629 107.722 5.13617 108.166 6.25521 108.166H27.4429C26.801 107.667 26.2814 107.028 25.9242 106.298C25.567 105.568 25.3813 104.767 25.3813 103.955C25.3809 103.142 25.5664 102.339 25.9236 101.609C26.2808 100.878 26.8005 100.238 27.4429 99.7382H6.25521Z" fill="#00102C"/>
<path d="M72.7824 109.656H5.72143C5.57082 109.656 5.42614 109.597 5.31964 109.49C5.21314 109.384 5.15355 109.24 5.15355 109.09C5.15355 108.939 5.21314 108.795 5.31964 108.689C5.42614 108.583 5.57082 108.523 5.72143 108.523H72.7824C72.933 108.523 73.0774 108.583 73.1839 108.689C73.2904 108.795 73.3503 108.939 73.3503 109.09C73.3503 109.24 73.2904 109.384 73.1839 109.49C73.0774 109.597 72.933 109.656 72.7824 109.656Z" fill="#00102C"/>
<path d="M83.2541 107.639L90.1197 100.787H82.5442L76.5587 106.766L77.4333 107.639C78.2053 108.409 79.2522 108.841 80.3437 108.841C81.4352 108.841 82.482 108.409 83.2541 107.639V107.639Z" fill="#00102C"/>
<path d="M80.3295 109.39C79.7142 109.392 79.1047 109.271 78.5363 109.036C77.968 108.8 77.4521 108.454 77.0188 108.018L76.1387 107.14C76.0329 107.034 75.9734 106.89 75.9734 106.74C75.9734 106.591 76.0329 106.447 76.1387 106.341L82.1183 100.367C82.1709 100.314 82.2335 100.271 82.3027 100.242C82.3719 100.213 82.4464 100.198 82.5215 100.197H90.0969C90.21 100.197 90.3209 100.23 90.415 100.292C90.5091 100.355 90.5822 100.444 90.6252 100.549C90.6679 100.652 90.679 100.766 90.6568 100.876C90.6345 100.986 90.5799 101.087 90.5001 101.166L83.6345 108.018C83.2017 108.454 82.6867 108.799 82.1194 109.034C81.5521 109.27 80.9439 109.391 80.3295 109.39V109.39ZM77.3423 106.743L77.8196 107.219C78.1485 107.549 78.5394 107.811 78.9703 107.989C79.4011 108.167 79.8632 108.258 80.3295 108.256C80.7959 108.258 81.2577 108.167 81.6885 107.989C82.1194 107.811 82.5106 107.549 82.8395 107.219L88.7341 101.331H82.7658L77.3423 106.743Z" fill="#00102C"/>
<path d="M91.2044 107.639L98.07 100.787H90.4946L84.5091 106.766L85.3836 107.639C86.1557 108.409 87.2025 108.841 88.294 108.841C89.3855 108.841 90.4324 108.409 91.2044 107.639V107.639Z" fill="#00102C"/>
<path d="M88.314 109.39C87.6978 109.392 87.0873 109.271 86.518 109.036C85.9487 108.801 85.4317 108.455 84.9974 108.018L84.1228 107.14C84.017 107.034 83.9578 106.89 83.9578 106.74C83.9578 106.591 84.017 106.447 84.1228 106.341L90.1083 100.367C90.1609 100.314 90.2238 100.271 90.293 100.242C90.3622 100.213 90.4363 100.198 90.5115 100.197H98.0872C98.1993 100.198 98.3087 100.231 98.4016 100.294C98.4946 100.357 98.567 100.445 98.6096 100.549C98.6531 100.652 98.6649 100.766 98.6437 100.876C98.6225 100.985 98.5692 101.087 98.4904 101.166L91.6248 108.018C91.1913 108.454 90.6752 108.8 90.1069 109.035C89.5386 109.271 88.9293 109.391 88.314 109.39V109.39ZM85.3268 106.743L85.804 107.219C86.1329 107.549 86.5239 107.811 86.9547 107.989C87.3856 108.167 87.8477 108.258 88.314 108.256C88.7794 108.258 89.2403 108.167 89.6702 107.989C90.1001 107.81 90.4903 107.549 90.8181 107.219V107.219L96.7185 101.331H90.7444L85.3268 106.743Z" fill="#00102C"/>
<path d="M168.805 94.2351C168.124 98.9618 167.441 103.685 166.755 108.404C166.362 111.12 165.385 113.72 163.891 116.025C162.398 118.329 160.423 120.284 158.102 121.757C155.781 123.229 153.168 124.183 150.443 124.553C147.718 124.924 144.945 124.703 142.314 123.904L112.477 114.836H101.96C98.2222 114.835 94.6377 113.353 91.9938 110.716L81.9991 100.741L75.0767 107.639C74.3046 108.409 73.2578 108.841 72.1663 108.841C71.0748 108.841 70.0279 108.409 69.2559 107.639L68.3813 106.766L82.3285 92.8465L87.3371 91.798C93.0662 90.5978 99.0385 91.6885 103.97 94.8358L113.494 100.923L139.168 102.09C139.629 98.2779 140.086 94.4618 140.536 90.6419C145.155 89.4256 149.962 89.091 154.705 89.6557C159.661 90.2394 164.454 91.7957 168.805 94.2351V94.2351Z" fill="white"/>
<path d="M109.944 99.2678C109.794 99.2678 109.649 99.2081 109.543 99.1018C109.436 98.9955 109.377 98.8514 109.377 98.7011V73.6791C109.377 73.5288 109.436 73.3846 109.543 73.2783C109.649 73.172 109.794 73.1123 109.944 73.1123C110.095 73.1123 110.239 73.172 110.346 73.2783C110.452 73.3846 110.512 73.5288 110.512 73.6791V98.7011C110.512 98.8514 110.452 98.9955 110.346 99.1018C110.239 99.2081 110.095 99.2678 109.944 99.2678Z" fill="#00102C"/>
<path d="M95.2533 83.5915L92.6524 90.6758L95.2533 83.5915Z" fill="white"/>
<path d="M92.6525 91.2427C92.5848 91.2425 92.5178 91.231 92.4539 91.2087C92.3837 91.1828 92.3192 91.1433 92.2643 91.0925C92.2094 91.0417 92.1651 90.9806 92.1339 90.9127C92.1028 90.8447 92.0855 90.7713 92.0829 90.6966C92.0803 90.6219 92.0924 90.5475 92.1187 90.4776L94.7196 83.3988C94.745 83.3282 94.7841 83.2634 94.8347 83.208C94.8854 83.1526 94.9465 83.1077 95.0147 83.0761C95.0828 83.0445 95.1567 83.0267 95.2318 83.0237C95.3069 83.0207 95.3818 83.0326 95.4522 83.0588C95.5225 83.0847 95.587 83.1241 95.6419 83.1749C95.6968 83.2257 95.7411 83.2868 95.7722 83.3548C95.8034 83.4227 95.8206 83.4962 95.8232 83.5708C95.8258 83.6455 95.8135 83.72 95.7872 83.7899L93.1865 90.8686C93.1468 90.9781 93.0741 91.0728 92.9786 91.1397C92.883 91.2067 92.7692 91.2426 92.6525 91.2427V91.2427Z" fill="#00102C"/>
<path d="M145.977 102.634H139.162C139.011 102.634 138.867 102.575 138.76 102.468C138.654 102.362 138.594 102.218 138.594 102.068C138.594 101.917 138.654 101.773 138.76 101.667C138.867 101.56 139.011 101.501 139.162 101.501H145.977C146.127 101.501 146.272 101.56 146.378 101.667C146.485 101.773 146.545 101.917 146.545 102.068C146.545 102.218 146.485 102.362 146.378 102.468C146.272 102.575 146.127 102.634 145.977 102.634Z" fill="#00102C"/>
<path d="M168.311 94.5241C168.214 94.5239 168.119 94.5006 168.033 94.4561C161.915 91.0646 154.891 89.6582 147.936 90.4322L140.423 91.2539C140.274 91.2699 140.125 91.2264 140.007 91.133C139.89 91.0396 139.815 90.9038 139.798 90.7552C139.789 90.6811 139.795 90.6061 139.816 90.5343C139.836 90.4626 139.871 90.3956 139.917 90.3371C139.964 90.2787 140.021 90.23 140.086 90.1938C140.152 90.1575 140.224 90.1346 140.298 90.1261L147.811 89.3043C155 88.5063 162.26 89.9601 168.584 93.4643C168.649 93.5004 168.707 93.5489 168.753 93.6072C168.8 93.6654 168.834 93.7323 168.855 93.8039C168.875 93.8754 168.881 93.9504 168.873 94.0244C168.864 94.0983 168.841 94.1699 168.805 94.2351C168.756 94.3226 168.684 94.3955 168.598 94.4463C168.511 94.4971 168.412 94.5239 168.311 94.5241V94.5241Z" fill="#00102C"/>
<path d="M37.182 16.715V48.453C37.1835 50.3044 37.921 52.0795 39.2328 53.3886C40.5445 54.6978 42.3231 55.4339 44.1782 55.4354H85.2134C87.0679 55.4339 88.846 54.6976 90.1568 53.3883C91.4677 52.079 92.2037 50.3039 92.2037 48.453V44.9619H104.447L92.2037 32.7484V16.715C92.2045 15.7984 92.0243 14.8905 91.6733 14.0434C91.3223 13.1963 90.8077 12.4265 90.1585 11.7781C89.5093 11.1296 88.7383 10.6152 87.8897 10.2643C87.0412 9.91331 86.1319 9.73267 85.2134 9.73267H44.1782C43.2594 9.73267 42.3495 9.91327 41.5007 10.2642C40.6519 10.6151 39.8808 11.1294 39.2311 11.7778C38.5815 12.4261 38.066 13.1959 37.7144 14.043C37.3628 14.8901 37.182 15.7981 37.182 16.715V16.715Z" fill="#FFAB00"/>
<path d="M64.3152 37.203C64.2299 37.2026 64.146 37.183 64.0693 37.1457C63.9926 37.1084 63.9253 37.0544 63.8724 36.9876C61.7247 34.3046 59.1363 32.005 56.2174 30.1866L54.2467 28.9624C51.5901 27.316 49.5699 24.8211 48.5141 21.8834C47.4583 18.9457 47.4293 15.7379 48.4317 12.7817C49.6087 9.29538 52.1226 6.41704 55.4227 4.77775C58.7227 3.13846 62.5395 2.87199 66.0361 4.03676C69.003 5.02126 71.549 6.97826 73.2605 9.58969C74.9719 12.2011 75.7479 15.3135 75.4627 18.4209L75.2583 20.7275C74.9512 24.1782 75.2414 27.6559 76.1159 31.0084C76.1347 31.0806 76.1388 31.1558 76.1284 31.2296C76.118 31.3035 76.0932 31.3746 76.0552 31.4388C76.0172 31.5031 75.9669 31.5592 75.9071 31.604C75.8474 31.6488 75.7793 31.6813 75.7069 31.6998C75.6346 31.7186 75.5594 31.7229 75.4854 31.7125C75.4114 31.7021 75.3401 31.6773 75.2758 31.6393C75.2114 31.6014 75.1551 31.5512 75.1102 31.4916C75.0653 31.4319 75.0328 31.364 75.0143 31.2918C74.1078 27.8154 73.8081 24.2091 74.1284 20.6312L74.3327 18.3189C74.5926 15.4664 73.8792 12.61 72.3083 10.2131C70.7373 7.81606 68.4008 6.01908 65.6781 5.11358C62.4669 4.04403 58.9619 4.28877 55.9312 5.79417C52.9006 7.29958 50.5918 9.9428 49.5107 13.1444C48.5929 15.8591 48.6213 18.8036 49.5914 21.5001C50.5614 24.1966 52.4162 26.4868 54.8545 27.999L56.8249 29.2288C59.8593 31.1174 62.5481 33.5095 64.7752 36.3018C64.8681 36.4193 64.9107 36.5686 64.8936 36.7173C64.8766 36.8659 64.8013 37.0018 64.6843 37.0953C64.5775 37.1729 64.4471 37.211 64.3152 37.203V37.203Z" fill="#00102C"/>
<path d="M74.361 43.0859C73.5754 43.4769 72.7206 43.7095 71.8449 43.7704C70.9692 43.8314 70.0901 43.7194 69.2578 43.4409C68.4255 43.1625 67.6563 42.723 66.9943 42.1476C66.3324 41.5722 65.7906 40.8723 65.3999 40.0878L63.8155 36.914L75.7865 30.9688L77.3651 34.1426C77.7569 34.9265 77.99 35.7799 78.0511 36.6538C78.1121 37.5278 77.9998 38.4051 77.7208 39.2358C77.4418 40.0664 77.0016 40.834 76.4251 41.4946C75.8486 42.1553 75.1471 42.696 74.361 43.0859V43.0859Z" fill="#00102C"/>
<path d="M67.9213 35.0097C67.8159 35.0088 67.7128 34.9787 67.6235 34.9226C67.5343 34.8666 67.4623 34.7868 67.4159 34.6923L62.9127 25.6753C62.5254 25.8272 62.1266 25.9485 61.7201 26.038C59.1022 26.6048 57.0976 25.5506 56.7398 24.2188C56.5297 23.4366 56.8704 22.4222 58.4435 21.9518C60.9194 21.181 63.3045 24.0544 63.401 24.1734L63.4351 24.2131C64.1139 23.8524 64.75 23.417 65.3318 22.9152C65.1841 22.6432 65.0591 22.4222 64.9569 22.2521C63.7473 20.2458 63.2535 18.999 63.7873 17.3044C64.3211 15.6098 65.4512 14.5727 66.78 14.6577C67.3717 14.7073 67.93 14.952 68.3669 15.3532C68.8039 15.7544 69.0948 16.2894 69.1935 16.8737C69.5797 19.084 68.4721 21.3793 66.7401 23.1419C68.4154 26.3441 71.3798 32.5726 71.5274 32.89C71.5918 33.0254 71.5999 33.1806 71.5499 33.3219C71.4999 33.4631 71.3957 33.5789 71.2604 33.6438C71.1241 33.7077 70.9681 33.7149 70.8265 33.6639C70.6848 33.6128 70.5691 33.5078 70.5051 33.3718C70.4653 33.2981 67.5693 27.2169 65.8714 23.9354C65.2738 24.4309 64.6268 24.8639 63.9406 25.2276L68.4268 34.2106C68.4938 34.3451 68.5044 34.5007 68.4565 34.6431C68.4086 34.7855 68.3059 34.9031 68.1712 34.97C68.0917 35.0007 68.0065 35.0143 67.9213 35.0097V35.0097ZM59.3066 22.9322C59.1314 22.9332 58.9572 22.9599 58.7898 23.0116C58.5286 23.0909 57.6995 23.397 57.8415 23.9297C57.9834 24.4625 59.3578 25.4033 61.4703 24.9329C61.7714 24.8669 62.0675 24.7798 62.3562 24.6722C61.7543 24.0261 60.4877 22.9322 59.3008 22.9322H59.3066ZM66.6322 15.7629C65.8826 15.7629 65.2467 16.4316 64.8776 17.6161C64.5085 18.8006 64.7412 19.6621 65.9338 21.6457C66.0076 21.7647 66.0871 21.9064 66.1836 22.0708C67.5408 20.5859 68.3755 18.7553 68.0802 17.0437C68.0219 16.7111 67.8571 16.4063 67.6102 16.1753C67.3634 15.9443 67.0482 15.7996 66.7118 15.7629H66.6322Z" fill="#00102C"/>
<path d="M77.8025 11.8579C77.6878 11.8592 77.5755 11.8258 77.4803 11.762C77.385 11.6983 77.3111 11.6072 77.2687 11.5009C77.2412 11.4313 77.2276 11.357 77.229 11.2822C77.2304 11.2075 77.2466 11.1337 77.2767 11.0652C77.3068 10.9967 77.3504 10.9349 77.4046 10.8832C77.4587 10.8315 77.5224 10.7911 77.5923 10.7641L83.2711 8.54245C83.3408 8.515 83.4152 8.50159 83.4902 8.50298C83.5651 8.50438 83.6392 8.52055 83.7078 8.55058C83.7764 8.58061 83.8382 8.6239 83.89 8.67795C83.9418 8.73199 83.9825 8.79574 84.0095 8.8655C84.0633 9.00532 84.0593 9.16071 83.9987 9.29771C83.938 9.4347 83.8254 9.54216 83.6856 9.59661L78.0068 11.8183C77.942 11.845 77.8726 11.8585 77.8025 11.8579V11.8579Z" fill="#00102C"/>
<path d="M73.7932 5.72568C73.714 5.72549 73.6357 5.70875 73.5633 5.67654C73.491 5.64433 73.4262 5.59737 73.3731 5.53866C73.3224 5.48339 73.2832 5.41863 73.2578 5.34814C73.2323 5.27765 73.2211 5.20283 73.2248 5.12798C73.2285 5.05314 73.2468 4.97976 73.2791 4.91211C73.3114 4.84447 73.3569 4.78388 73.4128 4.73386L77.7287 0.845966C77.8403 0.745506 77.9871 0.693262 78.1372 0.700698C78.2873 0.708135 78.4285 0.774648 78.5295 0.885643C78.5802 0.940906 78.6194 1.00565 78.6449 1.07614C78.6704 1.14663 78.6816 1.22145 78.6779 1.2963C78.6742 1.37114 78.6555 1.44452 78.6233 1.51217C78.591 1.57982 78.5455 1.6404 78.4896 1.69042L74.1737 5.57833C74.0695 5.67281 73.934 5.72531 73.7932 5.72568Z" fill="#00102C"/>
<path d="M84.3898 20.0361C84.33 20.0349 84.2707 20.0254 84.2137 20.0078L78.5745 18.1772C78.4315 18.1305 78.313 18.029 78.2448 17.8952C78.1767 17.7613 78.1647 17.6059 78.2113 17.4631C78.2581 17.3203 78.3597 17.202 78.4938 17.1339C78.628 17.0659 78.7836 17.0539 78.9267 17.1003L84.5658 18.9253C84.7089 18.972 84.8274 19.0734 84.8955 19.2073C84.9637 19.3412 84.9759 19.4966 84.9294 19.6394C84.8932 19.7541 84.8214 19.8543 84.7245 19.9256C84.6275 19.9969 84.5102 20.0356 84.3898 20.0361V20.0361Z" fill="#00102C"/>
<path d="M168.203 61.834C166.854 59.8001 165.053 58.1049 162.939 56.8806C160.633 55.6065 158.033 54.9578 155.398 54.999L148.248 54.4719C148.163 56.1721 147.652 62.1514 142.893 66.6854C142.104 67.4448 135.919 73.169 129.792 71.0437C127.976 70.3862 126.414 69.1746 125.328 67.5808C122.983 64.0386 123.625 59.1703 125.936 56.2855C126.313 55.8112 126.742 55.3798 127.214 54.999L121.756 53.7125C117.238 52.7476 112.527 53.3057 108.36 55.2993C104.488 57.187 101.298 60.2264 99.2285 63.999L90.3981 81.3358C90.4605 81.5625 90.5287 81.7949 90.5969 82.0273L109.848 87.4737L109.746 91.7357C109.802 94.0556 109.861 96.3736 109.922 98.6897L114.311 100.843L139.168 102.056C139.629 98.2439 140.086 94.4278 140.536 90.6079C143.966 89.9766 147.447 89.658 150.934 89.6557C153.864 89.6557 156.511 89.6557 159.861 90.4492C163.032 91.2034 166.054 92.479 168.805 94.2237C169.316 90.7515 169.81 87.2471 170.287 83.7105C170.863 79.4712 171.402 75.2716 171.906 71.1117C171.435 67.7675 170.165 64.5854 168.203 61.834V61.834Z" fill="#007AFF"/>
<path d="M147.873 125.299C145.928 125.3 143.993 125.013 142.132 124.449L112.381 115.381H101.943C100.017 115.385 98.1084 115.009 96.3286 114.274C94.5488 113.538 92.9327 112.458 91.5735 111.096L81.9819 101.524L75.4798 108.013C75.0463 108.449 74.5305 108.794 73.9622 109.03C73.3939 109.265 72.7843 109.386 72.169 109.384C71.5537 109.386 70.9442 109.266 70.3758 109.03C69.8075 108.795 69.2915 108.449 68.8582 108.013L67.9781 107.134C67.8724 107.028 67.8129 106.884 67.8129 106.735C67.8129 106.585 67.8724 106.441 67.9781 106.335L81.9253 92.4158C82.0031 92.3385 82.1018 92.2853 82.2093 92.2628L87.2292 91.203C93.0978 89.9632 99.2194 91.0833 104.266 94.3201L113.664 100.322L138.651 101.455L141.428 78.2187C141.436 78.1446 141.459 78.0729 141.496 78.0077C141.532 77.9425 141.581 77.8851 141.639 77.8388C141.698 77.7924 141.765 77.7581 141.837 77.7377C141.909 77.7173 141.984 77.7113 142.058 77.72C142.207 77.7384 142.343 77.8149 142.435 77.9328C142.528 78.0507 142.57 78.2004 142.552 78.3491L139.713 102.153C139.696 102.291 139.629 102.418 139.524 102.51C139.419 102.602 139.284 102.652 139.145 102.651L113.471 101.484C113.37 101.477 113.273 101.446 113.187 101.393L103.664 95.3119C98.8635 92.2263 93.0361 91.1589 87.4508 92.3421L82.6124 93.3566L69.1821 106.76L69.659 107.236C69.9879 107.566 70.3792 107.828 70.81 108.006C71.2409 108.184 71.7027 108.275 72.169 108.273C72.6353 108.275 73.0972 108.184 73.528 108.006C73.9588 107.828 74.3501 107.566 74.679 107.236L81.5845 100.345C81.6909 100.239 81.8349 100.18 81.9849 100.18C82.135 100.18 82.2789 100.239 82.3853 100.345L92.3743 110.314C93.6271 111.574 95.1179 112.573 96.7604 113.254C98.4029 113.935 100.165 114.284 101.943 114.281H112.46C112.517 114.272 112.574 114.272 112.631 114.281L142.461 123.349C145.015 124.129 147.708 124.348 150.355 123.991C153.001 123.634 155.539 122.709 157.794 121.28C160.049 119.855 161.968 117.958 163.419 115.722C164.87 113.485 165.818 110.962 166.199 108.325L171.1 74.6369C171.435 72.3562 171.291 70.0307 170.676 67.8088C170.061 65.5869 168.989 63.5173 167.528 61.732C166.081 59.9294 164.273 58.4482 162.219 57.3834C160.166 56.3187 157.912 55.6938 155.602 55.5487L148.787 55.0953C148.638 55.0851 148.498 55.0162 148.399 54.9037C148.3 54.7911 148.25 54.644 148.259 54.4946C148.27 54.3452 148.339 54.2059 148.451 54.1071C148.564 54.0084 148.711 53.9582 148.861 53.9675L155.676 54.4209C158.142 54.5812 160.548 55.2479 162.744 56.3791C164.939 57.5104 166.877 59.0819 168.436 60.9952C169.987 62.9143 171.124 65.1317 171.778 67.509C172.431 69.8863 172.587 72.3725 172.235 74.8126L167.3 108.5C166.896 111.299 165.888 113.977 164.348 116.35C162.808 118.723 160.772 120.736 158.379 122.25C155.236 124.237 151.594 125.294 147.873 125.299V125.299Z" fill="#00102C"/>
<path d="M109.944 99.2394C109.794 99.2394 109.649 99.1797 109.543 99.0734C109.436 98.9671 109.377 98.823 109.377 98.6727V87.8024L89.9211 82.4863C89.8399 82.464 89.7645 82.424 89.7007 82.3691C89.6368 82.3142 89.5859 82.2458 89.5518 82.1689C89.5155 82.0928 89.4966 82.0095 89.4966 81.9252C89.4966 81.8409 89.5155 81.7576 89.5518 81.6815L98.5869 64.1973C100.743 60.0309 104.214 56.6894 108.463 54.6896C112.713 52.6898 117.505 52.1432 122.097 53.1343L128.276 54.4718C128.349 54.4873 128.418 54.5171 128.48 54.5594C128.542 54.6017 128.594 54.6557 128.635 54.7184C128.675 54.7811 128.703 54.8511 128.717 54.9245C128.73 54.998 128.729 55.0733 128.713 55.1463C128.697 55.2193 128.668 55.2885 128.625 55.35C128.583 55.4115 128.529 55.4641 128.466 55.5046C128.403 55.5451 128.333 55.5729 128.259 55.5863C128.186 55.5997 128.11 55.5985 128.037 55.5827L121.853 54.2395C117.506 53.3033 112.971 53.8218 108.948 55.7148C104.926 57.6078 101.639 60.7701 99.5976 64.713L90.875 81.5682L110.07 86.8106C110.193 86.8438 110.302 86.9179 110.379 87.0208C110.455 87.1237 110.494 87.2494 110.49 87.3774V98.6784C110.488 98.8238 110.431 98.9632 110.329 99.0677C110.228 99.1721 110.09 99.2336 109.944 99.2394Z" fill="#00102C"/>
<path d="M127.98 42.2641L133.847 41.3913C137.094 40.8986 140.015 39.1433 141.971 36.5088C143.926 33.8743 144.758 30.5746 144.284 27.3302L143.938 25.0122C143.317 20.955 141.113 17.3076 137.808 14.8656C134.502 12.4236 130.363 11.3852 126.294 11.977L125.999 14.3913C123.449 14.779 121.157 16.1576 119.623 18.2261C118.089 20.2947 117.437 22.8851 117.81 25.4316L119.371 35.9051C119.674 37.8848 120.75 39.6645 122.363 40.8559C123.975 42.0472 125.995 42.5534 127.98 42.2641V42.2641Z" fill="#00102C"/>
<path d="M134.56 40.7267C141.553 37.5416 144.792 29.6457 141.795 23.0906C138.798 16.5355 130.699 13.8035 123.705 16.9886C116.712 20.1737 113.473 28.0698 116.47 34.6249C119.467 41.18 127.567 43.9118 134.56 40.7267Z" fill="#00102C"/>
<path d="M126.833 54.0921C128.547 52.7868 129.897 51.0658 130.756 49.0927C131.614 47.1196 131.953 44.9601 131.74 42.8195L131.32 38.6652L120.28 39.7533L126.833 54.0921Z" fill="#00102C"/>
<path d="M132.983 28.8888C131.961 24.5531 128.367 21.0846 124.09 20.6879C122.846 20.5616 121.59 20.7246 120.419 21.1641C119.249 21.6037 118.196 22.3078 117.344 23.2213C118.48 22.8302 121.813 21.9007 123.358 23.6633C125.238 25.8227 127.509 30.5607 132.983 28.8888Z" fill="#00102C"/>
<path d="M120.36 29.4432C123.233 27.5607 124.034 23.7098 122.148 20.8418C120.261 17.9739 116.403 17.175 113.529 19.0574C110.655 20.9399 109.855 24.7908 111.741 27.6588C113.627 30.5267 117.486 31.3256 120.36 29.4432Z" fill="#00102C"/>
<path d="M129.031 13.5129C132.35 13.445 135.585 14.556 138.159 16.6477C140.733 18.7394 142.479 21.6757 143.086 24.9329C141.671 26.2034 139.91 27.026 138.026 27.2962C132.915 28.0613 128.168 24.7345 127.441 19.8718C127.113 17.626 127.684 15.3415 129.031 13.5129V13.5129Z" fill="#00102C"/>
<path d="M130.376 23.4739C133.25 21.5914 134.05 17.7405 132.164 14.8725C130.278 12.0046 126.419 11.2056 123.546 13.0881C120.672 14.9706 119.872 18.8215 121.758 21.6895C123.644 24.5574 127.503 25.3563 130.376 23.4739Z" fill="#00102C"/>
<path d="M113.59 20.4612C113.841 22.1363 114.749 23.6434 116.113 24.6509C117.477 25.6585 119.186 26.084 120.865 25.834C121.697 25.7113 122.496 25.4261 123.218 24.9947C123.939 24.5632 124.568 23.994 125.069 23.3196C125.569 22.6453 125.932 21.879 126.135 21.0646C126.338 20.2503 126.379 19.4039 126.254 18.5739C126.003 16.8988 125.096 15.3917 123.731 14.3841C122.367 13.3766 120.658 12.951 118.98 13.2011C118.148 13.3237 117.348 13.6089 116.627 14.0404C115.906 14.4718 115.277 15.041 114.776 15.7154C114.275 16.3898 113.913 17.1561 113.71 17.9704C113.506 18.7848 113.465 19.6312 113.59 20.4612V20.4612Z" fill="#00102C"/>
<path d="M136.385 17.5255H136.311C136.237 17.5164 136.165 17.4927 136.1 17.4558C136.035 17.419 135.978 17.3696 135.932 17.3106C135.886 17.2516 135.852 17.1842 135.832 17.1121C135.813 17.04 135.808 16.9648 135.817 16.8907C136.112 14.5557 138.543 13.6546 138.657 13.6206C138.798 13.5695 138.954 13.5767 139.09 13.6404C139.227 13.7042 139.332 13.8194 139.383 13.9606C139.434 14.1019 139.427 14.2577 139.364 14.3937C139.3 14.5298 139.184 14.6349 139.043 14.6861C139.009 14.6861 137.163 15.4002 136.958 17.0324C136.94 17.1706 136.872 17.2973 136.766 17.3882C136.66 17.4792 136.525 17.5281 136.385 17.5255V17.5255Z" fill="#00102C"/>
<path d="M136.113 17.4064C136.031 17.4072 135.95 17.3903 135.876 17.357C135.801 17.3238 135.735 17.2749 135.681 17.2137C135.582 17.1002 135.533 16.9523 135.544 16.8025C135.554 16.6526 135.624 16.5131 135.738 16.4146C136.981 15.3321 136.521 13.3938 136.516 13.3768C136.48 13.231 136.503 13.0769 136.581 12.9484C136.659 12.8198 136.784 12.7273 136.93 12.6911C137.076 12.6549 137.229 12.6775 137.358 12.754C137.487 12.8304 137.58 12.9544 137.617 13.0991C137.646 13.2068 138.259 15.7232 136.482 17.2704C136.379 17.3582 136.248 17.4065 136.113 17.4064V17.4064Z" fill="#00102C"/>
<path d="M125.936 56.2855L127.571 55.7187L124.732 49.4845C123.896 49.6741 123.039 49.7522 122.182 49.7168C120.91 49.6638 119.662 49.3602 118.508 48.8238C117.355 48.2873 116.319 47.5284 115.46 46.5908C114.601 45.6532 113.937 44.5554 113.505 43.3606C113.073 42.1658 112.882 40.8975 112.943 39.6287L113.113 35.9165C112.602 35.839 112.138 35.5767 111.808 35.1796C111.478 34.7825 111.306 34.2783 111.324 33.7628V33.7628C111.346 33.2429 111.56 32.7493 111.925 32.3777C112.29 32.006 112.78 31.7827 113.301 31.7509L113.346 30.6854C113.403 29.4197 113.709 28.1776 114.248 27.0303C114.786 25.8829 115.546 24.8528 116.484 23.999C117.422 23.1451 118.519 22.4842 119.713 22.0541C120.908 21.6241 122.175 21.4333 123.443 21.4927V21.4927C125.586 21.5858 127.637 22.3884 129.272 23.7738C130.907 25.1593 132.033 27.0487 132.472 29.1438C133.368 29.0181 134.28 29.2071 135.052 29.6786C135.824 30.1501 136.408 30.8746 136.703 31.7282C136.958 32.4693 136.983 33.2702 136.774 34.0256C136.566 34.7811 136.133 35.456 135.533 35.9618L143.484 53.3781L147.947 54.5909C148.305 58.2351 146.811 62.5254 143.586 66.0563C138.475 71.6444 130.979 73.1236 126.85 69.3604C123.636 66.3963 123.432 61.1199 125.936 56.2855Z" fill="white"/>
<path d="M132.597 71.9901C130.35 72.0475 128.165 71.2491 126.487 69.7571C123.165 66.7363 122.744 61.2162 125.43 56.0247C125.497 55.898 125.608 55.8009 125.743 55.7527L126.799 55.373L124.391 50.1079C123.651 50.2416 122.9 50.2948 122.148 50.2666C120.804 50.209 119.485 49.8864 118.267 49.3173C117.048 48.7483 115.955 47.9441 115.05 46.9511C114.138 45.9606 113.431 44.7994 112.972 43.5347C112.513 42.27 112.31 40.9269 112.375 39.5833L112.523 36.3245C111.989 36.1346 111.531 35.7799 111.213 35.3122C110.895 34.8444 110.736 34.2878 110.757 33.7231C110.776 33.1509 110.981 32.6005 111.34 32.1541C111.7 31.7076 112.194 31.3892 112.75 31.2464L112.778 30.64C112.905 27.9374 114.102 25.3957 116.106 23.574C118.11 21.7523 120.758 20.7997 123.466 20.9259C125.649 21.0198 127.745 21.8096 129.446 23.1795C131.146 24.5493 132.362 26.4272 132.915 28.5374C133.861 28.5195 134.788 28.8003 135.564 29.3398C136.34 29.8793 136.926 30.6498 137.237 31.5412C137.504 32.3168 137.55 33.1512 137.37 33.9515C137.191 34.7519 136.793 35.487 136.22 36.0752L143.904 52.8793L148.117 54.0128C148.228 54.0433 148.328 54.1068 148.402 54.1949C148.476 54.283 148.521 54.3914 148.532 54.5059C148.918 58.4731 147.231 62.9051 144.017 66.4076C141.642 69.0911 138.478 70.9575 134.977 71.7407C134.193 71.8996 133.397 71.9831 132.597 71.9901V71.9901ZM126.351 56.7445C124.011 61.4146 124.369 66.2886 127.259 68.924C129.122 70.6242 131.802 71.225 134.766 70.6242C138.033 69.8918 140.983 68.1459 143.194 65.6368C146.084 62.48 147.652 58.5298 147.441 54.9933L143.358 53.8598C143.279 53.838 143.206 53.7994 143.143 53.7465C143.08 53.6937 143.03 53.6279 142.995 53.5537L135.045 36.1318C134.993 36.0195 134.979 35.8934 135.006 35.7727C135.033 35.6519 135.098 35.5432 135.192 35.4631C135.707 35.0325 136.077 34.4562 136.256 33.8104C136.434 33.1646 136.412 32.48 136.192 31.8472C135.939 31.1191 135.44 30.5013 134.782 30.0992C134.123 29.6971 133.345 29.5357 132.58 29.6425C132.437 29.6628 132.291 29.6277 132.173 29.5445C132.055 29.4613 131.973 29.3362 131.944 29.1948C131.529 27.2203 130.466 25.4404 128.923 24.1368C127.38 22.8331 125.446 22.0802 123.426 21.9971C121.015 21.8955 118.663 22.7507 116.882 24.3757C115.102 26.0007 114.039 28.2632 113.925 30.6684L113.88 31.7338C113.873 31.8735 113.815 32.0057 113.716 32.1051C113.618 32.2045 113.486 32.264 113.346 32.2723C112.966 32.2932 112.606 32.4554 112.34 32.727C112.073 32.9986 111.917 33.36 111.904 33.7401C111.891 34.116 112.017 34.4835 112.258 34.7728C112.498 35.0622 112.837 35.2534 113.21 35.31C113.345 35.3305 113.468 35.3992 113.557 35.5033C113.646 35.6075 113.694 35.7401 113.692 35.8768L113.522 39.589C113.465 40.7816 113.645 41.9737 114.053 43.0963C114.46 44.2189 115.087 45.2498 115.896 46.1293C116.701 47.0129 117.673 47.7284 118.757 48.2343C119.841 48.7402 121.015 49.0264 122.211 49.0764C123.016 49.1086 123.821 49.0342 124.607 48.8554C124.734 48.8267 124.867 48.8426 124.984 48.9004C125.101 48.9582 125.195 49.0543 125.249 49.1727L128.088 55.407C128.12 55.4793 128.137 55.5575 128.137 55.6365C128.137 55.7156 128.12 55.7938 128.088 55.8661C128.058 55.9378 128.013 56.0026 127.956 56.0562C127.899 56.1098 127.832 56.1512 127.759 56.1778L126.351 56.7445Z" fill="#00102C"/>
<path d="M132.796 34.7377C132.664 34.7406 132.535 34.6975 132.431 34.6158C132.328 34.5341 132.256 34.4188 132.228 34.2899C132.108 33.7157 132.159 33.1186 132.376 32.5734C132.593 32.0281 132.966 31.5587 133.449 31.2238C133.574 31.1418 133.727 31.1125 133.874 31.1422C134.021 31.1719 134.15 31.2583 134.233 31.3825C134.315 31.5075 134.344 31.6598 134.315 31.8062C134.285 31.9527 134.198 32.0815 134.074 32.1646C133.783 32.3757 133.559 32.6657 133.428 33.0003C133.297 33.3348 133.265 33.6998 133.336 34.0519C133.351 34.1249 133.353 34.2002 133.339 34.2736C133.326 34.3471 133.298 34.4171 133.257 34.4798C133.217 34.5425 133.164 34.5965 133.102 34.6388C133.041 34.6811 132.971 34.7109 132.898 34.7263L132.796 34.7377Z" fill="#00102C"/>
<path d="M116.129 37.7131C115.843 37.7168 115.559 37.6649 115.294 37.5601C115.155 37.5035 115.044 37.3941 114.985 37.256C114.927 37.118 114.925 36.9623 114.982 36.8233C115.038 36.6844 115.148 36.5737 115.286 36.5152C115.424 36.4568 115.58 36.4555 115.72 36.5116C115.85 36.5626 116.986 36.931 117.798 35.2477C117.83 35.1801 117.876 35.1196 117.931 35.0696C117.987 35.0196 118.052 34.9811 118.123 34.9563C118.194 34.9316 118.269 34.921 118.344 34.9253C118.418 34.9296 118.492 34.9486 118.559 34.9813C118.626 35.014 118.686 35.0596 118.736 35.1154C118.786 35.1713 118.823 35.2364 118.848 35.3069C118.872 35.3775 118.882 35.4521 118.877 35.5266C118.873 35.601 118.853 35.6738 118.82 35.7408C118.071 37.288 116.975 37.7131 116.129 37.7131Z" fill="#00102C"/>
<path d="M115.76 31.6432C115.767 31.8812 115.867 32.1069 116.039 32.2721C116.211 32.4373 116.441 32.5289 116.68 32.5273C116.912 32.4756 117.115 32.3351 117.244 32.1358C117.374 31.9366 117.42 31.6946 117.372 31.4618C117.367 31.2243 117.267 30.9986 117.096 30.8332C116.925 30.6679 116.696 30.5761 116.458 30.5777C116.226 30.6294 116.022 30.7697 115.892 30.9687C115.761 31.1678 115.714 31.4098 115.76 31.6432V31.6432Z" fill="#00102C"/>
<path d="M116.373 28.22C116.254 28.5374 116.873 29.0588 117.753 29.3875C118.633 29.7162 119.456 29.7219 119.564 29.3875C119.672 29.0531 119.065 28.5487 118.184 28.22C117.304 27.8913 116.492 27.9026 116.373 28.22Z" fill="#00102C"/>
<path d="M126.708 21.6797C128.755 21.4456 130.819 21.9436 132.533 23.0851C134.246 24.2266 135.499 25.9376 136.067 27.9139C135.263 28.7822 134.22 29.3936 133.069 29.6709C131.617 30.0669 130.067 29.8715 128.759 29.1276C127.452 28.3837 126.493 27.1522 126.095 25.7036C125.761 24.334 125.981 22.8882 126.708 21.6797V21.6797Z" fill="#00102C"/>
<path d="M124.709 49.9379C124.58 49.9416 124.452 49.901 124.349 49.8226C124.246 49.7442 124.172 49.6329 124.141 49.5071C124.105 49.3613 124.129 49.2072 124.207 49.0787C124.284 48.9501 124.41 48.8576 124.556 48.8214C126.457 48.3405 128.153 47.2631 129.394 45.7479C130.635 44.2328 131.356 42.3599 131.45 40.4051C131.454 40.3307 131.472 40.2577 131.504 40.1903C131.536 40.1229 131.581 40.0625 131.636 40.0125C131.692 39.9625 131.756 39.9238 131.827 39.8988C131.897 39.8738 131.972 39.8629 132.046 39.8667C132.192 39.874 132.329 39.9369 132.43 40.0424C132.53 40.1479 132.586 40.288 132.586 40.4335C132.478 42.632 131.667 44.7381 130.27 46.4419C128.874 48.1457 126.966 49.3572 124.828 49.8982L124.709 49.9379Z" fill="#00102C"/>
</svg>
