<svg width="210" height="140" viewBox="0 0 210 140" fill="none" xmlns="http://www.w3.org/2000/svg">
<g clip-path="url(#clip0_85_532)">
<rect width="210" height="140" fill="white"/>
<path d="M98.3057 148.018L92.1722 100.664L59.3581 116.796L47.089 121.653C33.0744 127.204 18.9985 113.749 23.8727 99.4563C24.7086 97.0093 26.0377 94.7606 27.777 92.85C29.5163 90.9393 31.6287 89.4074 33.9834 88.3494L89.9469 63.257L122.215 55.4314L148.984 66.4767C152.403 67.8885 155.433 70.1022 157.822 72.9318C160.21 75.7613 161.886 79.1239 162.708 82.7373L178.15 150.15C178.791 152.969 182.35 158.55 183.75 165.2C183.75 169.05 194.484 173.972 182.306 155.718C179.478 159.558 179.942 150.426 175.306 151.518C170.67 152.609 172.544 153.694 168.306 151.518L162.708 155.718L97.2557 149.068L98.3057 148.018Z" fill="#007AFF"/>
<path d="M150.171 138.562C146.884 138.558 143.646 137.769 140.724 136.259L135.32 133.464C135.255 133.431 135.197 133.384 135.15 133.328C135.102 133.272 135.067 133.207 135.045 133.137C135.022 133.067 135.014 132.993 135.02 132.92C135.026 132.846 135.047 132.775 135.081 132.71C135.114 132.644 135.16 132.586 135.216 132.539C135.272 132.491 135.338 132.456 135.407 132.433C135.477 132.411 135.551 132.403 135.624 132.409C135.697 132.415 135.768 132.436 135.833 132.469L141.232 135.264C144.535 136.955 148.251 137.668 151.944 137.319C155.636 136.969 159.153 135.573 162.083 133.292C165.012 131.012 167.233 127.942 168.485 124.442C169.736 120.942 169.967 117.158 169.15 113.531L162.178 82.8994C161.374 79.3759 159.739 76.0969 157.41 73.3369C155.081 70.5768 152.127 68.4161 148.794 67.0357L122.198 56.0574L90.1532 63.8104L34.2399 88.8805C31.9567 89.908 29.9081 91.3941 28.2208 93.2468C26.5335 95.0995 25.2435 97.2795 24.4303 99.6519C23.3724 102.752 23.2226 106.09 23.9984 109.273C24.7742 112.455 26.443 115.348 28.8079 117.61C31.1727 119.872 34.1345 121.407 37.3425 122.034C40.5506 122.662 43.8708 122.355 46.9103 121.15L59.1794 116.293L91.9603 100.138C92.0395 100.097 92.1275 100.076 92.2168 100.076C92.3061 100.076 92.394 100.097 92.4733 100.138C92.5521 100.181 92.6194 100.241 92.6699 100.315C92.7204 100.389 92.7527 100.474 92.7636 100.563L98.1412 142.524C98.1589 142.672 98.1172 142.821 98.0251 142.939C97.9331 143.056 97.7978 143.132 97.6499 143.15C97.502 143.168 97.3531 143.126 97.236 143.034C97.1189 142.941 97.0435 142.806 97.0258 142.658L91.7484 101.48L59.6314 117.299L47.3286 122.179C44.0892 123.463 40.5507 123.79 37.1318 123.121C33.7128 122.451 30.557 120.814 28.0378 118.402C25.5186 115.991 23.7415 112.906 22.9173 109.514C22.0932 106.121 22.2562 102.563 23.3873 99.2606C24.249 96.7413 25.6177 94.4263 27.4088 92.459C29.1998 90.4917 31.3749 88.9141 33.7993 87.824L89.7573 62.7316L89.8521 62.698L122.12 54.8724C122.232 54.8332 122.354 54.8332 122.466 54.8724L149.235 65.9233C152.735 67.3715 155.838 69.639 158.284 72.5362C160.73 75.4334 162.448 78.8758 163.294 82.5752L170.265 113.201C170.954 116.227 170.954 119.369 170.267 122.395C169.579 125.421 168.22 128.253 166.292 130.682C164.364 133.11 161.915 135.072 159.128 136.423C156.34 137.773 153.285 138.478 150.188 138.484L150.171 138.562Z" fill="#00102C"/>
<path d="M108.527 67.0395C111.631 68.7311 115.218 69.7355 118.938 69.9545C122.659 70.1735 126.385 69.5996 129.753 68.289L133 67.0228V39.2H108.5L108.527 67.0395Z" fill="white"/>
<path d="M120.844 70.7C116.326 70.7064 111.907 69.6386 108.144 67.6314C108.043 67.5782 107.959 67.5066 107.899 67.4225C107.84 67.3383 107.806 67.2439 107.8 67.1472V39.063C107.8 38.9137 107.874 38.7705 108.006 38.665C108.137 38.5594 108.316 38.5 108.502 38.5H133.698C133.884 38.5 134.063 38.5594 134.194 38.665C134.326 38.7705 134.4 38.9137 134.4 39.063V67.1472C134.4 67.2533 134.362 67.3572 134.291 67.4469C134.22 67.5365 134.119 67.6083 134 67.6539L130.66 68.932C127.592 70.0986 124.239 70.7025 120.844 70.7ZM109.203 66.8431C112.281 68.4252 115.81 69.3534 119.458 69.5405C123.105 69.7276 126.753 69.1676 130.056 67.9129L132.997 66.7868V39.6204H109.203V66.8431Z" fill="#00102C"/>
<path d="M156.161 108.445C156.066 108.444 155.973 108.421 155.888 108.378L132.649 95.3646C132.585 95.3279 132.529 95.2789 132.484 95.2204C132.438 95.162 132.405 95.0951 132.385 95.0237C132.366 94.9524 132.361 94.8779 132.37 94.8045C132.38 94.7311 132.403 94.6603 132.44 94.596C132.477 94.5318 132.525 94.4754 132.584 94.4301C132.642 94.3848 132.709 94.3515 132.78 94.332C132.852 94.3126 132.925 94.3073 132.999 94.3167C133.072 94.326 133.143 94.3497 133.207 94.3864L156.451 107.399C156.558 107.46 156.642 107.555 156.69 107.668C156.738 107.782 156.747 107.908 156.716 108.027C156.684 108.147 156.615 108.252 156.517 108.328C156.42 108.403 156.301 108.444 156.178 108.445H156.161Z" fill="#00102C"/>
<path d="M135.577 133.565C135.441 133.565 135.31 133.515 135.209 133.425L110.67 111.553C110.615 111.504 110.57 111.444 110.538 111.378C110.506 111.311 110.487 111.239 110.483 111.165C110.479 111.091 110.489 111.017 110.514 110.948C110.538 110.878 110.576 110.814 110.626 110.759C110.724 110.649 110.862 110.582 111.01 110.574C111.157 110.565 111.302 110.616 111.412 110.714L135.95 132.587C136.036 132.662 136.096 132.762 136.123 132.872C136.15 132.983 136.143 133.099 136.102 133.206C136.062 133.312 135.99 133.404 135.896 133.468C135.802 133.532 135.69 133.566 135.577 133.565Z" fill="#00102C"/>
<path d="M139.776 39.0423L135.51 52.3179C135.328 52.8824 134.958 53.3666 134.461 53.6885C133.964 54.0105 133.371 54.1503 132.783 54.0843C132.783 54.0843 131.416 47.2536 131.071 47.4213C127.875 48.9641 139.776 39.0423 139.776 39.0423Z" fill="#00102C"/>
<path d="M105.328 16.9236L126.905 12.094L137.401 33.7208L137.606 33.7823C139.202 34.454 140.482 35.7098 141.186 37.294C141.89 38.8781 141.966 40.6717 141.398 42.3098C140.829 43.9478 139.659 45.3073 138.126 46.1115C136.593 46.9157 134.812 47.1042 133.145 46.6387C132.928 46.5604 132.733 46.4654 132.532 46.3704L130.892 49.523C129.521 52.15 127.443 54.3385 124.892 55.8396C122.341 57.3407 119.422 58.094 116.465 58.0138L107.877 57.7791C105.279 57.7078 102.812 56.6235 101 54.757C99.1875 52.8905 98.1731 50.3891 98.1726 47.7846V25.8728C98.1773 23.7892 98.8877 21.769 100.188 20.1431C101.488 18.5172 103.3 17.3821 105.328 16.9236Z" fill="white"/>
<path d="M116.889 58.6064H116.448L107.866 58.3716C105.119 58.3087 102.505 57.1678 100.589 55.1944C98.6719 53.2209 97.6041 50.5724 97.6151 47.8182V25.9064C97.6075 23.6893 98.3586 21.5366 99.7429 19.8074C101.127 18.0781 103.061 16.8769 105.222 16.4038L126.799 11.5686C126.922 11.5409 127.05 11.5557 127.164 11.6105C127.277 11.6653 127.369 11.7569 127.423 11.8705L137.813 33.2792C139.619 33.9503 141.092 35.3045 141.913 37.0511C142.735 38.7977 142.84 40.7975 142.208 42.6214C141.575 44.4452 140.254 45.9477 138.529 46.8065C136.803 47.6652 134.81 47.8117 132.978 47.2145L132.8 47.1474L131.4 49.8305C130.004 52.4757 127.915 54.6902 125.359 56.2362C122.802 57.7823 119.875 58.6016 116.889 58.6064ZM105.451 17.4715C103.535 17.8902 101.819 18.956 100.593 20.4904C99.3667 22.0248 98.7036 23.9348 98.7141 25.9008V47.8126C98.7018 50.2755 99.6552 52.6447 101.369 54.4096C103.083 56.1745 105.42 57.1939 107.877 57.2481L116.465 57.4829C119.315 57.5525 122.128 56.8228 124.587 55.3759C127.045 53.929 129.051 51.8225 130.379 49.2939L132.019 46.1412C132.086 46.0139 132.199 45.9173 132.335 45.8714C132.471 45.8256 132.619 45.8342 132.749 45.8953L132.844 45.94C132.995 46.0071 133.145 46.0798 133.307 46.1357C134.082 46.4054 134.902 46.5196 135.721 46.4716C136.54 46.4237 137.341 46.2145 138.079 45.8561C138.818 45.4977 139.478 44.9971 140.024 44.3828C140.569 43.7685 140.988 43.0526 141.257 42.276C141.526 41.4993 141.64 40.6771 141.592 39.8564C141.544 39.0356 141.335 38.2324 140.978 37.4925C140.62 36.7526 140.121 36.0905 139.508 35.5441C138.895 34.9976 138.181 34.5776 137.406 34.3078L137.217 34.2518C137.144 34.2288 137.077 34.1912 137.019 34.1412C136.961 34.0912 136.915 34.03 136.882 33.9612L126.581 12.7202L105.434 17.4603L105.451 17.4715Z" fill="#00102C"/>
<path d="M109.081 23.7045C113.304 19.6976 113.989 13.5505 110.612 9.97467C107.235 6.3988 101.073 6.74821 96.8504 10.7551C92.6275 14.762 91.9419 20.909 95.3192 24.4849C98.6964 28.0608 104.858 27.7114 109.081 23.7045Z" fill="#00102C"/>
<path d="M114.117 10.7413C117.4 9.96685 120.56 8.74233 123.509 7.10241C123.795 7.64962 124.014 8.22957 124.161 8.82963C125.321 13.6145 121.679 18.6117 116.03 20.0091C110.381 21.4066 104.876 18.6285 103.694 13.8604C103.536 13.2 103.468 12.5212 103.493 11.8425C107.069 12.0039 110.65 11.6328 114.117 10.7413Z" fill="#00102C"/>
<path d="M118.824 36.4821C118.88 37.7119 118.188 38.7181 117.279 38.774C116.37 38.8299 115.606 37.8516 115.545 36.6219C115.483 35.3921 116.18 34.386 117.089 34.3301C117.998 34.2742 118.751 35.2524 118.824 36.4821Z" fill="#00102C"/>
<path d="M119.772 28.1981C119.691 28.1974 119.611 28.1791 119.538 28.1443C119.465 28.1096 119.4 28.0593 119.348 27.9969C117.804 26.1858 115.065 26.5492 115.037 26.5492C114.889 26.5707 114.739 26.5323 114.619 26.4427C114.5 26.3531 114.42 26.2194 114.399 26.0712C114.377 25.9229 114.416 25.7722 114.505 25.6522C114.595 25.5322 114.728 25.4527 114.875 25.4312C115.015 25.4312 118.222 24.9728 120.196 27.2646C120.265 27.3458 120.31 27.4452 120.324 27.551C120.339 27.6569 120.323 27.7647 120.279 27.8618C120.234 27.9588 120.162 28.0411 120.073 28.0987C119.983 28.1563 119.879 28.1869 119.772 28.1869V28.1981Z" fill="#00102C"/>
<path d="M103.136 35.3307C103.192 36.5548 102.501 37.5665 101.592 37.6224C100.683 37.6783 99.9186 36.7001 99.8573 35.4704C99.7959 34.2406 100.493 33.2345 101.402 33.173C102.311 33.1115 103.092 34.1009 103.136 35.3307Z" fill="#00102C"/>
<path d="M100.777 27.6168C100.675 27.6163 100.575 27.5878 100.488 27.5341C100.401 27.4805 100.33 27.404 100.284 27.3129C100.237 27.2217 100.216 27.1195 100.224 27.0173C100.231 26.9152 100.266 26.8171 100.325 26.7336C100.822 26.0461 102.339 25.1182 104.497 26.538C104.62 26.6191 104.707 26.7457 104.737 26.8902C104.767 27.0348 104.739 27.1855 104.659 27.3094C104.619 27.3713 104.567 27.4246 104.506 27.4663C104.445 27.5079 104.377 27.5372 104.305 27.5522C104.233 27.5673 104.158 27.5679 104.086 27.5541C104.014 27.5402 103.945 27.5121 103.883 27.4714C102.065 26.2752 101.262 27.3429 101.229 27.3876C101.177 27.4589 101.109 27.5167 101.031 27.5565C100.952 27.5964 100.865 27.617 100.777 27.6168Z" fill="#00102C"/>
<path d="M106.025 44.6879C105.886 44.686 105.753 44.6321 105.651 44.5369L105.06 43.9779C104.255 43.2314 103.766 42.2029 103.695 41.1053C103.625 40.0077 103.977 38.9249 104.681 38.0808L107.196 35.0679C107.243 35.0114 107.301 34.9647 107.366 34.9304C107.431 34.8962 107.501 34.8751 107.574 34.8683C107.647 34.8616 107.721 34.8694 107.791 34.8911C107.861 34.9129 107.927 34.9483 107.983 34.9952C108.039 35.0422 108.085 35.0998 108.12 35.1649C108.154 35.2299 108.175 35.3011 108.182 35.3743C108.188 35.4475 108.181 35.5212 108.159 35.5914C108.137 35.6616 108.102 35.7268 108.055 35.7834L105.54 38.7962C105.019 39.4201 104.758 40.2206 104.81 41.0321C104.862 41.8437 105.223 42.6041 105.819 43.1563L106.405 43.7152C106.488 43.7914 106.547 43.8911 106.572 44.0013C106.598 44.1115 106.59 44.2269 106.549 44.3324C106.508 44.4378 106.435 44.5282 106.342 44.5917C106.248 44.6552 106.138 44.6887 106.025 44.6879Z" fill="#00102C"/>
<path d="M111.346 49.9423C110.527 49.9524 109.721 49.7379 109.015 49.3218C108.941 49.2913 108.875 49.2454 108.82 49.187C108.766 49.1287 108.724 49.0594 108.699 48.9836C108.673 48.9079 108.664 48.8276 108.673 48.7481C108.681 48.6686 108.705 48.5918 108.746 48.5228C108.786 48.4538 108.841 48.3943 108.906 48.3482C108.971 48.3022 109.045 48.2706 109.124 48.2558C109.202 48.2409 109.282 48.2431 109.36 48.2621C109.437 48.2811 109.51 48.3165 109.572 48.3659C111.418 49.4839 113.76 48.2206 113.783 48.2094C113.847 48.1727 113.918 48.1491 113.992 48.1399C114.065 48.1307 114.14 48.1362 114.211 48.1559C114.283 48.1756 114.35 48.2093 114.408 48.2549C114.467 48.3005 114.516 48.3573 114.552 48.4219C114.589 48.4865 114.613 48.5576 114.622 48.6313C114.631 48.7051 114.625 48.7799 114.606 48.8515C114.586 48.9232 114.553 48.9902 114.507 49.0488C114.462 49.1074 114.405 49.1565 114.34 49.1932C113.411 49.6661 112.387 49.9221 111.346 49.9423Z" fill="#00102C"/>
<path d="M119.504 44.0507C118.712 44.0507 117.887 44.0116 117.028 43.9333C115.313 43.7748 113.703 43.0322 112.467 41.829C111.231 40.6259 110.444 39.0348 110.236 37.3206L109.544 31.4067L94.9438 31.0042C94.6657 30.9967 94.3893 31.0451 94.1302 31.1465C93.871 31.2478 93.6348 31.4002 93.4352 31.5944C93.2357 31.7887 93.0766 32.021 92.968 32.2777C92.8593 32.5344 92.803 32.8103 92.8024 33.0892V35.8002C92.8024 38.5951 94.9273 42.1222 97.4202 42.2787L101.028 42.3793C101.553 42.3903 102.076 42.2972 102.565 42.1053C103.054 41.9135 103.5 41.6266 103.878 41.2614C103.987 41.1716 104.125 41.1263 104.265 41.1345C104.406 41.1428 104.538 41.204 104.636 41.3058C104.733 41.4077 104.789 41.5426 104.791 41.6837C104.793 41.8247 104.742 41.9615 104.648 42.0663C104.162 42.5306 103.59 42.8944 102.964 43.1371C102.339 43.3797 101.671 43.4964 101 43.4805L97.3701 43.3799C94.7266 43.2122 91.6814 39.8583 91.687 35.7834V33.0668C91.6873 32.6391 91.7736 32.2159 91.9403 31.8222C92.107 31.4285 92.3508 31.0724 92.6575 30.775C92.9643 30.4781 93.3271 30.2452 93.7244 30.0898C94.1217 29.9344 94.5458 29.8594 94.9721 29.8695L124.886 30.7135C125.499 30.7239 126.102 30.879 126.644 31.1662C127.186 31.4534 127.653 31.8647 128.007 32.3666C128.361 32.8686 128.593 33.4471 128.682 34.0553C128.772 34.6635 128.717 35.2843 128.522 35.8673C127.407 39.2882 125.399 43.4525 122.176 43.8885C121.29 44.0013 120.397 44.0555 119.504 44.0507ZM110.671 31.4346L111.34 37.192C111.519 38.6514 112.192 40.0054 113.244 41.0293C114.297 42.0531 115.668 42.6853 117.129 42.8209C118.759 42.9871 120.403 42.9721 122.031 42.7762C124.1 42.4967 126.035 39.9198 127.468 35.5095C127.603 35.0953 127.64 34.6551 127.575 34.2242C127.51 33.7933 127.346 33.3835 127.095 33.0277C126.844 32.6651 126.511 32.3672 126.123 32.1583C125.735 31.9494 125.304 31.8355 124.864 31.8259L110.671 31.4346Z" fill="#00102C"/>
<path d="M105.663 38.1199H105.613C105.465 38.1071 105.329 38.0364 105.234 37.9232C105.139 37.81 105.093 37.6637 105.105 37.5163L105.701 30.7135C105.714 30.5652 105.785 30.4281 105.898 30.3321C106.012 30.2362 106.159 30.1894 106.306 30.202C106.454 30.2146 106.591 30.2856 106.687 30.3993C106.783 30.5131 106.829 30.6603 106.817 30.8085L106.226 37.6112C106.213 37.7516 106.148 37.882 106.044 37.9763C105.939 38.0706 105.803 38.1219 105.663 38.1199Z" fill="#00102C"/>
<path d="M144.446 25.9834C144.613 19.8793 141.583 14.8445 137.679 14.7372C133.775 14.63 130.475 19.491 130.308 25.595C130.141 31.6991 133.171 36.7345 137.075 36.8417C140.979 36.949 144.279 32.0875 144.446 25.9834Z" fill="#00102C"/>
<path d="M135.783 23.511C138.619 20.8199 138.181 15.7393 134.803 12.1635C131.426 8.58761 126.389 7.87058 123.552 10.5617C120.716 13.2527 121.155 18.333 124.532 21.9089C127.91 25.4848 132.946 26.2021 135.783 23.511Z" fill="#00102C"/>
<path d="M137.618 18.4161C137.618 18.4161 138.9 6.30869 128.589 5.20751C118.277 4.10633 103.867 6.52107 101.675 4.20133C101.413 3.91625 103.136 15.5598 108.835 15.9902C114.535 16.4206 131.913 13.0499 137.618 18.4161Z" fill="#00102C"/>
<path d="M132.894 31.8985L130.574 40.7695C130.502 41.0558 130.528 41.3585 130.65 41.6277C130.772 41.8968 130.981 42.1166 131.244 42.2508C131.41 42.3359 131.593 42.3838 131.78 42.3912C131.967 42.3986 132.153 42.3653 132.326 42.2936C132.499 42.2218 132.654 42.1134 132.781 41.9757C132.908 41.8381 133.004 41.6745 133.061 41.4962L136.307 31.4346L132.894 31.8985Z" fill="#00102C"/>
<path d="M134.846 42.2061H134.712C134.569 42.1704 134.446 42.0791 134.369 41.9523C134.293 41.8255 134.27 41.6735 134.305 41.5297C134.338 41.3955 135.136 38.2261 137.986 37.2703C138.057 37.2409 138.132 37.2263 138.209 37.2275C138.285 37.2287 138.36 37.2456 138.43 37.2772C138.5 37.3088 138.562 37.3544 138.613 37.4111C138.665 37.4679 138.704 37.5346 138.728 37.6071C138.753 37.6796 138.762 37.7565 138.756 37.8328C138.75 37.9091 138.727 37.9833 138.691 38.0508C138.655 38.1183 138.606 38.1776 138.546 38.2251C138.486 38.2726 138.417 38.3072 138.343 38.3268C136.112 39.087 135.393 41.77 135.387 41.7924C135.355 41.9115 135.285 42.0167 135.187 42.0915C135.089 42.1663 134.969 42.2066 134.846 42.2061Z" fill="#00102C"/>
<path d="M152.82 57.5108L148.766 51.9602C147.69 50.4894 146.075 49.5071 144.276 49.2293C142.477 48.9516 140.642 49.401 139.174 50.4789L50.8142 115.393L62.9885 132.033L151.343 67.1252C152.81 66.0463 153.79 64.4275 154.067 62.6247C154.344 60.8218 153.896 58.9824 152.82 57.5108Z" fill="#FFAB00"/>
<path d="M133.041 54.9434L132.141 55.6043L144.198 72.0916L145.097 71.4307L133.041 54.9434Z" fill="#00102C"/>
<path d="M134.395 53.9893L146.569 70.63L151.343 67.1252C152.81 66.0463 153.79 64.4275 154.067 62.6247C154.344 60.8218 153.896 58.9824 152.82 57.5108L148.766 51.9602C147.69 50.4894 146.075 49.5071 144.276 49.2293C142.477 48.9516 140.642 49.401 139.174 50.4789L134.395 53.9893Z" fill="#00102C"/>
<path d="M50.9203 116.399L62.113 131.709L38.7014 137.142L50.9203 116.399Z" fill="white"/>
<path d="M50.9703 117.416L61.165 131.351L39.8444 136.304L50.9703 117.416ZM50.8701 115.387L37.5581 137.981L63.0608 132.061L50.8701 115.387Z" fill="#00102C"/>
<path d="M50.0447 135.085L44.0774 126.919L37.5581 137.981L50.0447 135.085Z" fill="#00102C"/>
<path d="M109.9 97.65L105.718 100.1L106.75 106.05L110.6 110.669H111.212C111.212 110.669 120.19 113.649 126.012 106.365C131.834 99.0817 138.454 86.3204 132.928 80.6132C127.401 74.9061 120.854 63.4303 118.768 68.8747C116.55 73.85 125.622 85.085 125.622 85.085L108.641 77.0078C108.641 77.0078 106.785 78.2095 106.4 81.2C105.42 81.9024 104.3 85.4 105.718 88.6345C105.802 92.2343 106.33 93.8 109.9 97.65Z" fill="white"/>
<path d="M113.994 111.625C112.963 111.625 111.954 111.569 111.005 111.485C110.932 111.479 110.861 111.458 110.796 111.424C110.731 111.389 110.673 111.343 110.626 111.286C110.579 111.23 110.543 111.164 110.521 111.094C110.499 111.024 110.491 110.95 110.498 110.876C110.505 110.803 110.525 110.731 110.559 110.666C110.594 110.601 110.64 110.543 110.697 110.496C110.753 110.448 110.818 110.413 110.888 110.391C110.959 110.369 111.032 110.361 111.106 110.367C115.913 110.803 122.321 110.401 125.566 106.03C129.515 100.708 138.098 87.6172 132.504 80.971L121.39 68.2263C121.29 68.1103 121.165 68.0176 121.025 67.9548C120.886 67.8921 120.734 67.8607 120.581 67.863C120.427 67.8636 120.275 67.8974 120.136 67.962C119.996 68.0266 119.872 68.1206 119.772 68.2375C119.163 68.9631 118.793 69.86 118.713 70.8049C118.633 71.7498 118.847 72.6963 119.326 73.5142L126.347 85.4931C126.414 85.6208 126.429 85.7695 126.389 85.908C126.349 86.0464 126.257 86.164 126.132 86.2362C126.008 86.3083 125.86 86.3294 125.72 86.2951C125.581 86.2608 125.459 86.1737 125.382 86.0521L118.361 74.0732C117.765 73.0559 117.499 71.8785 117.599 70.7032C117.699 69.5278 118.16 68.4125 118.919 67.5108C119.124 67.2671 119.381 67.0717 119.67 66.9384C119.959 66.8051 120.274 66.7371 120.592 66.7394C120.904 66.7388 121.212 66.8054 121.496 66.9347C121.78 67.0639 122.032 67.2528 122.237 67.4885L133.358 80.2387C135.889 83.246 138.376 90.6748 126.47 106.689C123.57 110.597 118.517 111.625 113.994 111.625Z" fill="#00102C"/>
<path d="M130.134 88.5954C130.045 88.5958 129.957 88.5747 129.878 88.5339L108.686 77.5109C107.972 78.1258 106.171 79.9424 107.431 81.8318C107.512 81.955 107.54 82.1052 107.511 82.2497C107.482 82.3942 107.397 82.5212 107.275 82.6032C107.152 82.6846 107.003 82.7145 106.859 82.6862C106.715 82.658 106.588 82.5739 106.505 82.4523C104.832 79.9257 106.935 77.3879 108.29 76.3986C108.371 76.3425 108.465 76.3089 108.563 76.3011C108.661 76.2932 108.759 76.3114 108.847 76.3539L130.385 87.5334C130.516 87.6023 130.614 87.7205 130.658 87.8621C130.702 88.0036 130.688 88.1568 130.62 88.288C130.574 88.3785 130.505 88.4549 130.419 88.5091C130.334 88.5632 130.235 88.5931 130.134 88.5954Z" fill="#00102C"/>
<path d="M122.817 100.412C122.706 100.412 122.598 100.379 122.505 100.317C121.897 99.9035 107.526 90.1997 105.457 88.2824C103.125 86.1192 105.156 81.7592 105.245 81.5747C105.278 81.5059 105.324 81.4446 105.382 81.3946C105.44 81.3446 105.507 81.307 105.579 81.284C105.653 81.261 105.731 81.2535 105.807 81.2622C105.884 81.2708 105.958 81.2955 106.025 81.3344L127.429 93.8107C127.55 93.888 127.638 94.0094 127.672 94.1494C127.706 94.2894 127.685 94.4373 127.613 94.5621C127.541 94.687 127.423 94.7791 127.285 94.8192C127.147 94.8594 126.999 94.8445 126.871 94.7777L106.025 82.62C105.607 83.7379 104.91 86.231 106.221 87.4607C108.228 89.3165 122.985 99.2886 123.135 99.3892C123.196 99.4303 123.248 99.483 123.289 99.5443C123.329 99.6056 123.357 99.6743 123.371 99.7464C123.385 99.8186 123.385 99.8928 123.37 99.9649C123.355 100.037 123.327 100.105 123.286 100.166C123.234 100.243 123.164 100.305 123.083 100.348C123.001 100.391 122.91 100.413 122.817 100.412Z" fill="#00102C"/>
<path d="M118.355 104.588C118.255 104.588 118.157 104.561 118.071 104.509C117.435 104.135 102.562 95.2193 105.462 87.9079C105.52 87.7762 105.627 87.6721 105.76 87.6174C105.893 87.5627 106.041 87.5615 106.175 87.6141C106.309 87.6667 106.418 87.7691 106.478 87.8999C106.538 88.0306 106.546 88.1797 106.499 88.316C105.194 91.6083 108.501 95.5435 111.518 98.2657C113.737 100.232 116.124 102 118.651 103.548C118.778 103.624 118.87 103.747 118.907 103.89C118.943 104.034 118.922 104.186 118.846 104.314C118.796 104.399 118.724 104.469 118.638 104.517C118.551 104.565 118.454 104.59 118.355 104.588Z" fill="#00102C"/>
<path d="M57.3999 110.95L50.0499 116.9C50.0499 116.9 49.3499 113.05 49.526 111.3C49.8782 107.8 49.0847 105.707 53.2849 101.865C60.1667 95.5714 72.4577 88.1538 78.4918 93.3131C84.526 98.4725 88.4637 110.764 88.4637 110.764C88.4637 110.764 84.8552 115.331 82.4348 111.698C68.8385 91.2729 78.018 108.378 78.018 108.378L83.7621 117.321C83.7621 117.321 82.7612 119.13 79.7999 119.7C79.2731 119.801 78.7499 121.1 75.9499 121.45C74.5499 122.15 73.4362 120.66 72.4499 120.75C69.3179 121.035 66.1853 120.894 61.0916 115.5C59.9059 114.244 58.6742 112.742 57.3999 110.95Z" fill="white"/>
<path d="M49.6932 117.679C49.5587 117.68 49.4281 117.633 49.3256 117.546C49.2231 117.459 49.1557 117.337 49.1355 117.204C48.3548 112.173 48.3772 105.298 52.9168 101.441C68.1081 88.5339 75.659 90.5238 78.8099 92.8659C85.5022 97.8129 88.8483 110.099 88.9877 110.619C89.0104 110.703 89.0133 110.792 88.9959 110.877C88.9784 110.962 88.9413 111.042 88.8875 111.111C88.815 111.212 86.9691 113.526 84.7495 113.61C84.2324 113.622 83.7189 113.515 83.2491 113.298C82.7793 113.081 82.3655 112.76 82.039 112.357C80.8105 110.837 79.7347 109.199 78.8268 107.466C77.3434 104.89 75.6705 101.966 74.2205 101.687C74.1472 101.672 74.0774 101.644 74.0152 101.602C73.953 101.561 73.8995 101.508 73.8578 101.446C73.8161 101.384 73.7871 101.314 73.7723 101.241C73.7574 101.168 73.7569 101.092 73.7712 101.019C73.7855 100.945 73.8144 100.875 73.8556 100.813C73.8968 100.751 73.9495 100.697 74.0114 100.655C74.0732 100.613 74.143 100.584 74.2161 100.57C74.2893 100.555 74.3645 100.554 74.4378 100.569C76.3841 100.954 78.0402 103.839 79.7913 106.891C80.6624 108.55 81.6895 110.122 82.8586 111.586C83.0796 111.864 83.3608 112.088 83.6804 112.242C84.0001 112.396 84.3502 112.476 84.7049 112.475C86.0768 112.425 87.3702 111.133 87.8331 110.613C87.2754 108.741 83.9633 98.0588 78.1466 93.7436C71.1755 88.5786 58.6833 97.9918 53.6362 102.279C49.4926 105.801 49.4979 112.24 50.234 117.019C50.2565 117.165 50.2206 117.314 50.1338 117.434C50.0471 117.553 49.9166 117.633 49.7711 117.657L49.6932 117.679Z" fill="#00102C"/>
<path d="M80.1266 120.395C79.4954 120.388 78.8775 120.213 78.3365 119.887C78.2151 119.809 78.1278 119.688 78.0936 119.548C78.0593 119.408 78.081 119.26 78.1529 119.135C78.2249 119.011 78.3421 118.918 78.4802 118.878C78.6184 118.838 78.7667 118.853 78.8942 118.92C80.8628 120.038 82.5523 118.143 83.11 117.394L70.7908 96.8738C70.7524 96.8108 70.727 96.7407 70.7157 96.6677C70.7044 96.5947 70.7073 96.5202 70.7249 96.4485C70.7426 96.3768 70.7742 96.3092 70.8181 96.2498C70.8619 96.1904 70.9171 96.1403 70.9804 96.1024C71.1076 96.0268 71.2597 96.005 71.403 96.0417C71.5463 96.0784 71.669 96.1706 71.7445 96.298L84.2532 117.125C84.3074 117.214 84.3365 117.315 84.3365 117.419C84.3365 117.523 84.3074 117.624 84.2532 117.712C83.5672 118.802 82.0004 120.395 80.1266 120.395Z" fill="#00102C"/>
<path d="M75.202 122.223C74.2439 122.263 73.3087 121.924 72.5976 121.279C70.5621 119.333 59.9828 105.577 59.5367 104.996C59.4865 104.938 59.4484 104.871 59.425 104.799C59.4017 104.726 59.3937 104.649 59.4011 104.573C59.4085 104.497 59.4312 104.424 59.4681 104.357C59.5049 104.29 59.5549 104.232 59.6151 104.185C59.6754 104.138 59.7445 104.105 59.8183 104.086C59.892 104.067 59.9691 104.063 60.0443 104.076C60.1195 104.088 60.1914 104.115 60.2556 104.156C60.3198 104.197 60.3752 104.251 60.4179 104.314C60.5294 104.454 71.393 118.584 73.3672 120.468C74.6777 121.72 77.1093 120.848 78.1968 120.362L64.7732 100.278C64.7321 100.217 64.7034 100.149 64.6887 100.077C64.6741 100.005 64.6737 99.9304 64.6877 99.8582C64.7016 99.786 64.7299 99.7173 64.7704 99.656C64.811 99.5947 64.8632 99.5421 64.924 99.5011C64.9851 99.4601 65.0534 99.4317 65.1255 99.4174C65.1976 99.4031 65.2719 99.4032 65.3439 99.4177C65.416 99.4323 65.4845 99.461 65.5454 99.5021C65.6064 99.5433 65.6585 99.5961 65.699 99.6575L79.4794 120.267C79.5238 120.331 79.5543 120.405 79.5687 120.482C79.5831 120.559 79.5814 120.638 79.5633 120.714C79.5443 120.788 79.5101 120.858 79.463 120.919C79.416 120.979 79.3571 121.03 79.2899 121.066C78.0301 121.752 76.6335 122.147 75.202 122.223Z" fill="#00102C"/>
<path d="M70.6619 121.765C63.9195 121.765 56.0062 110.245 55.6382 109.697C55.5567 109.574 55.5264 109.425 55.5543 109.28C55.5822 109.136 55.6658 109.008 55.7868 108.925C55.9079 108.842 56.0569 108.81 56.2013 108.836C56.3457 108.863 56.4742 108.945 56.5586 109.065C58.2634 111.5 60.1798 113.778 62.2857 115.873C65.1801 118.702 69.3012 121.754 72.4967 120.245C72.5635 120.205 72.6379 120.179 72.7151 120.17C72.7923 120.16 72.871 120.167 72.9455 120.19C73.0199 120.213 73.0887 120.251 73.1475 120.302C73.2064 120.353 73.2537 120.415 73.2869 120.486C73.3202 120.556 73.3384 120.633 73.3403 120.711C73.3422 120.789 73.3276 120.866 73.2978 120.938C73.2681 121.01 73.224 121.075 73.1677 121.129C73.1113 121.183 73.0443 121.224 72.9711 121.251C72.2495 121.593 71.4602 121.769 70.6619 121.765Z" fill="#00102C"/>
<path d="M111.094 111.793C110.981 111.793 110.87 111.757 110.777 111.692C110.509 111.502 104.196 106.947 105.356 99.9873C105.381 99.8414 105.462 99.7111 105.582 99.6252C105.702 99.5393 105.852 99.5047 105.997 99.5289C106.143 99.5536 106.273 99.6351 106.358 99.7556C106.444 99.8761 106.479 100.026 106.455 100.172C105.412 106.432 111.356 110.736 111.418 110.792C111.515 110.861 111.589 110.958 111.627 111.071C111.665 111.184 111.666 111.307 111.63 111.42C111.594 111.534 111.522 111.633 111.426 111.703C111.33 111.773 111.213 111.811 111.094 111.81V111.793Z" fill="#00102C"/>
<path d="M41.2663 43.57L46.7375 52.4297L60.0272 38.2094C60.2631 37.9564 60.435 37.6504 60.5288 37.317C60.6225 36.9836 60.6351 36.6325 60.5658 36.2932C60.4964 35.9539 60.3471 35.6361 60.1301 35.3666C59.9131 35.097 59.6349 34.8834 59.3186 34.7437C58.9156 34.5677 58.4691 34.5188 58.0377 34.6037C57.6063 34.6886 57.2105 34.9032 56.9038 35.2189L48.0424 44.3358L45.6722 40.859C45.3863 40.4419 44.9637 40.1381 44.4779 40.0003C43.9921 39.8625 43.4739 39.8993 43.0123 40.1044L42.2259 40.4509C41.9437 40.5762 41.6913 40.7607 41.4863 40.9919C41.2813 41.2232 41.1285 41.4959 41.0376 41.7915C40.9466 42.0871 40.9202 42.3988 40.9597 42.7057C40.9992 43.0125 41.1035 43.3072 41.2663 43.57Z" fill="#007AFF"/>
<path d="M50.9088 61.5969C39.1027 61.5969 29.4995 52.6533 29.4995 41.703C29.4995 30.7527 39.1027 21.8146 50.9088 21.8146C62.715 21.8146 72.3187 30.7583 72.3187 41.703C72.321 44.1008 71.8568 46.476 70.9523 48.6958L75.8767 56.2922C75.941 56.3921 75.9719 56.5098 75.9649 56.6284C75.9579 56.747 75.9131 56.8603 75.8375 56.9518C75.7611 57.0429 75.6576 57.1073 75.5423 57.1354C75.4269 57.1635 75.3061 57.154 75.1965 57.1083L67.7233 54.0172C65.6393 56.4304 63.055 58.3588 60.1509 59.6679C57.2469 60.977 54.0929 61.6353 50.9088 61.5969ZM50.9088 22.9326C39.7217 22.9326 30.6149 31.3508 30.6149 41.703C30.6149 52.0552 39.7217 60.4789 50.9088 60.4789C53.9977 60.5183 57.0567 59.8663 59.8623 58.5705C62.6679 57.2747 65.1494 55.3678 67.1264 52.9887C67.202 52.8966 67.3051 52.8312 67.4205 52.802C67.5359 52.7729 67.6578 52.7815 67.7679 52.8266L73.964 55.3923L69.8592 49.0591C69.8083 48.9824 69.777 48.8944 69.7683 48.8027C69.7595 48.711 69.7737 48.6186 69.8091 48.5336C70.7293 46.3745 71.2036 44.0509 71.2034 41.703C71.2034 31.3508 62.1016 22.9326 50.9088 22.9326Z" fill="#007AFF"/>
</g>
<defs>
<clipPath id="clip0_85_532">
<rect width="210" height="140" fill="white"/>
</clipPath>
</defs>
</svg>
