<svg width="864" height="864" viewBox="0 0 864 864" fill="none" xmlns="http://www.w3.org/2000/svg">
<g clip-path="url(#clip0_318_1904)">
<path d="M592.8 560.085C592.8 560.085 600.57 551.61 594.57 529.53C588.57 507.45 583.38 501.975 582.285 502.245C581.19 502.515 547.905 527.07 547.905 529.53C547.905 531.99 562.365 550.53 563.175 551.085C564 551.64 592.77 560.085 592.77 560.085H592.8Z" fill="black"/>
<path d="M634.47 383.925C634.47 383.925 676.275 413.58 666.465 447.03C657.18 478.68 621.3 503.055 596.355 523.29C571.41 543.54 565.065 545.925 565.065 545.925L527.415 485.58L539.595 453.765L590.46 423.435L634.455 383.91L634.47 383.925Z" fill="#FFBDA8"/>
<path d="M220.41 559.665C220.41 559.665 216.63 543.93 228.135 523.35C239.64 502.77 248.235 502.365 250.695 504.825C253.14 507.285 272.385 547.785 272.385 547.785C272.385 547.785 269.94 553.11 267.48 554.34C265.02 555.57 220.425 559.665 220.425 559.665H220.41Z" fill="black"/>
<path d="M183.99 383.715C183.99 383.715 153.075 405.93 160.02 438.195C166.98 470.445 200.775 497.505 224.085 519.6C247.395 541.695 253.545 544.56 253.545 544.56L295.695 487.26L270.735 445.56L237.585 420.48L183.99 383.715Z" fill="#FFBDA8"/>
<path d="M520.065 864H307.29C307.29 864 310.56 818.175 314.94 786.525C316.515 774.93 320.16 763.71 325.71 753.42C326.07 752.73 326.43 752.055 326.805 751.395C331.65 742.92 336.165 738.285 336.705 737.73L336.75 737.685L376.86 711.96L382.05 708.645L387.42 709.59L492.135 728.28C496.26 733.14 499.8 738.465 502.68 744.135C505.545 749.58 507.63 755.4 508.92 761.415C510.57 769.575 512.34 783.36 513.96 798.27C514.065 799.08 514.14 799.86 514.245 800.655C517.47 830.685 520.095 864 520.095 864H520.065Z" fill="#475569"/>
<path d="M328.995 808.875L328.785 807.255C328.92 807.24 342.855 805.23 358.785 786.93C374.79 768.525 376.575 749.28 376.59 749.085L378.21 749.22C378.21 749.415 376.365 769.2 360 787.995C343.635 806.805 329.58 808.785 328.995 808.86V808.875Z" fill="black"/>
<path d="M423.33 836.685L422.895 835.11L423.105 835.89L422.88 835.11C423.045 835.065 438.78 830.085 436.425 787.665C434.01 744.225 435.525 739.005 435.6 738.81L437.16 739.32C437.1 739.53 435.72 745.14 438.06 787.575C440.49 831.525 424.02 836.505 423.315 836.7L423.33 836.685Z" fill="black"/>
<path d="M424.485 864H422.85L420.51 746.16L422.145 746.13L423.9 834.63L423.93 836.46L424.485 863.985V864Z" fill="black"/>
<path d="M502.665 744.135L442.17 747.315L406.665 749.16L325.725 753.405C326.085 752.715 326.445 752.04 326.82 751.38C331.665 742.905 336.18 738.27 336.72 737.715L336.765 737.67L376.875 711.945C380.985 711.015 384.6 710.205 387.435 709.575L492.15 728.265C496.275 733.125 499.8 738.465 502.68 744.15L502.665 744.135Z" fill="black"/>
<path d="M442.17 747.3L406.65 749.145L404.97 729.69L439.965 726.225L442.17 747.315V747.3Z" fill="#CBD5E1"/>
<path d="M366.765 728.67H365.13V763.59H366.765V728.67Z" fill="#475569"/>
<path d="M465.675 718.365L464.055 718.545L467.925 753.315L469.545 753.135L465.675 718.365Z" fill="#475569"/>
<path d="M414.765 412.8C412.845 407.955 407.1 404.52 402.63 402.45C395.175 399.015 379.275 396.585 375.12 405.51C369.165 404.97 362.73 405.285 358.17 409.62C354.87 412.755 353.73 417.525 355.695 421.515C351.87 423.195 348.36 425.445 345.825 428.895C342.66 433.185 341.655 438.945 344.61 443.64C345.915 445.74 347.835 446.265 349.515 447.735C351.435 449.415 348.9 452.73 349.455 455.28C350.385 459.54 353.955 461.37 357.855 462.135C359.115 468.885 385.035 475.59 385.035 475.59C385.035 475.59 384.9 476.91 388.71 472.665C392.1 468.87 394.455 464.265 396.315 459.57C401.025 447.72 402.9 435 411 424.755C413.7 421.29 416.595 417.42 414.765 412.8Z" fill="black"/>
<path d="M431.415 442.125C431.415 446.7 430.515 451.245 428.76 455.475C427.005 459.705 424.44 463.545 421.2 466.785C417.96 470.025 414.12 472.59 409.89 474.345C405.66 476.1 401.115 477 396.54 477C393.69 477 390.84 476.655 388.065 475.965C386.79 475.65 385.53 475.26 384.3 474.78C376.65 471.915 370.245 466.455 366.21 459.345C362.175 452.235 360.765 443.94 362.22 435.9C363.675 427.86 367.92 420.585 374.19 415.35C380.46 410.115 388.38 407.235 396.555 407.235C401.82 407.235 407.01 408.435 411.735 410.715C416.475 413.01 420.63 416.34 423.885 420.45C424.74 421.515 425.535 422.64 426.24 423.795C426.255 423.81 426.27 423.84 426.27 423.855C426.3 423.93 426.345 424.005 426.39 424.065C426.69 424.53 426.96 424.98 427.215 425.46C427.8 426.54 428.34 427.665 428.805 428.805C430.53 433.02 431.43 437.535 431.415 442.095V442.125Z" fill="#FFBDA8"/>
<path d="M428.73 483.42C416.16 488.94 395.97 481.275 388.065 475.98C380.175 470.685 390 444.51 390 444.51L418.14 428.46L426.24 423.825C426.24 423.825 426.27 423.87 426.27 423.885C426.375 424.065 426.675 424.65 427.14 425.535C427.605 426.42 428.145 427.5 428.805 428.85C432.435 436.17 438.975 449.835 441.21 458.775C443.64 468.48 441.285 477.885 428.715 483.42H428.73Z" fill="#FFBDA8"/>
<path d="M423.675 480.285C423.675 480.285 423.495 482.115 423.24 484.98C422.91 488.37 422.43 493.17 421.98 498.045C421.08 507.54 420.15 517.32 420.15 517.53C420.15 517.935 404.46 526.815 404.46 526.815L372.945 514.26L385.005 472.365L423.69 480.315L423.675 480.285Z" fill="#FFBDA8"/>
<path d="M407.76 441.57C407.535 441.21 407.28 440.88 406.98 440.565C406.59 440.145 406.08 439.845 405.51 439.725C403.98 439.44 403.425 440.85 403.785 442.095C404.1 443.16 404.715 444.105 405.54 444.825C405.87 445.125 406.26 445.365 406.695 445.485C406.905 445.545 407.145 445.56 407.355 445.515C407.58 445.47 407.79 445.38 407.955 445.245C408.435 444.84 408.51 444.15 408.435 443.52C408.345 442.83 408.105 442.155 407.745 441.555L407.76 441.57Z" fill="black"/>
<path d="M426.18 435.135C425.955 434.775 425.7 434.445 425.4 434.145C425.01 433.725 424.5 433.425 423.93 433.305C422.4 433.02 421.845 434.43 422.205 435.675C422.52 436.74 423.135 437.685 423.975 438.405C424.305 438.705 424.695 438.93 425.13 439.065C425.34 439.125 425.58 439.14 425.79 439.095C426.015 439.05 426.225 438.96 426.39 438.825C426.87 438.42 426.945 437.73 426.855 437.1C426.765 436.41 426.54 435.735 426.18 435.135Z" fill="black"/>
<path d="M421.35 448.77C421.2 448.77 421.065 448.74 420.945 448.665C420.825 448.59 420.72 448.5 420.645 448.365C420.57 448.245 420.54 448.095 420.54 447.96C420.54 447.81 420.57 447.675 420.645 447.555C421.785 445.5 422.595 443.175 422.355 442.68C421.635 442.02 418.11 440.04 415.905 438.87C415.815 438.825 415.725 438.75 415.65 438.675C415.575 438.585 415.53 438.495 415.5 438.39C415.47 438.285 415.455 438.18 415.47 438.075C415.47 437.97 415.515 437.865 415.56 437.775C415.605 437.685 415.68 437.595 415.755 437.52C415.83 437.445 415.935 437.4 416.04 437.37C416.145 437.34 416.25 437.325 416.355 437.34C416.46 437.34 416.565 437.385 416.655 437.43C417.24 437.73 422.34 440.445 423.48 441.525C424.83 442.8 423.165 446.37 422.055 448.35C421.98 448.47 421.89 448.575 421.755 448.65C421.635 448.725 421.485 448.755 421.35 448.755V448.77Z" fill="black"/>
<path d="M426.42 457.38C429.18 459.315 429.945 461.55 429.975 461.685C430.05 461.895 430.02 462.12 429.93 462.315C429.84 462.51 429.66 462.66 429.45 462.72C429.24 462.795 429.015 462.765 428.82 462.675C428.625 462.585 428.475 462.405 428.415 462.195C428.355 462.045 427.08 458.4 421.305 456.87C417.27 455.79 415.125 458.37 415.035 458.475C414.9 458.64 414.705 458.745 414.48 458.76C414.27 458.79 414.045 458.73 413.88 458.595C413.79 458.535 413.73 458.445 413.67 458.355C413.61 458.265 413.58 458.16 413.565 458.055C413.565 457.95 413.565 457.845 413.595 457.74C413.625 457.635 413.67 457.545 413.745 457.455C413.85 457.305 416.61 453.93 421.71 455.28C423.375 455.7 424.965 456.42 426.39 457.38H426.42Z" fill="black"/>
<path d="M423.225 484.995C422.895 488.385 422.415 493.185 421.965 498.06C421.2 497.985 420.45 497.79 419.745 497.49C412.935 494.49 400.755 480.99 400.755 480.99C404.295 482.16 407.895 483.12 411.54 483.855C415.395 484.545 419.31 484.92 423.225 484.995Z" fill="black"/>
<path d="M400.065 414.525C392.265 417.795 378.24 426.675 378.24 426.675C380.505 430.29 382.35 434.145 383.745 438.18C385.695 444.21 386.7 448.38 384.285 453.795C381.87 459.21 384.285 474.795 384.285 474.795C370.89 470.55 358.605 457.08 358.605 442.11C358.605 422.85 377.265 406.065 396.54 406.065C402.735 406.065 408.525 408.825 413.55 411.66C409.965 411.9 404.67 412.59 400.08 414.525H400.065Z" fill="black"/>
<path d="M393.45 451.02C396.72 458.13 395.22 465.81 390.12 468.15C385.02 470.49 378.24 466.605 374.97 459.48C371.7 452.355 373.2 444.69 378.3 442.35C383.4 440.01 390.18 443.895 393.435 451.005L393.45 451.02Z" fill="#FFBDA8"/>
<path d="M379.425 491.685L404.1 506.37L421.815 499.575L436.215 511.695L409.005 536.04L361.23 513.225L379.41 491.685H379.425Z" fill="white"/>
<path d="M507.675 701.67C506.46 718.86 492.135 728.265 492.135 728.265L424.455 732.375L422.805 732.465L336.78 737.67C336.78 737.67 327.78 734.67 323.685 727.845C317.88 718.2 298.56 631.545 298.56 622.275C298.56 613.005 333.75 496.785 333.75 496.785C333.75 496.785 369.48 506.61 371.4 506.61L404.22 513.36L405.9 513.705L406.71 513.87L494.58 502.38C494.58 502.38 508.92 684.48 507.69 701.67H507.675Z" fill="white"/>
<path d="M424.44 732.375L422.79 732.465C423.69 726.21 423.99 719.88 423.69 713.565C422.475 689.28 407.475 544.245 404.25 513.36C403.875 509.805 403.65 507.765 403.635 507.585C403.635 507.48 403.635 507.375 403.665 507.27C403.695 507.165 403.755 507.075 403.815 506.985C403.875 506.895 403.965 506.835 404.07 506.775C404.16 506.73 404.265 506.7 404.385 506.685C404.595 506.67 404.805 506.73 404.985 506.865C405.165 507 405.255 507.195 405.285 507.405C405.285 507.6 405.54 509.82 405.93 513.705C409.26 545.685 424.155 689.295 425.325 713.505C425.64 719.805 425.34 726.135 424.44 732.375Z" fill="black"/>
<path d="M367.53 505.785L270.75 445.545C270.75 445.545 272.385 485.34 250.755 529.995C238.365 555.585 220.41 559.68 220.41 559.68L310.035 632.115L361.665 571.14L367.545 505.785H367.53Z" fill="white"/>
<path d="M429.15 510.345L539.595 453.78C539.595 453.78 553.2 499.185 562.92 522.705C576.555 555.72 592.785 560.085 592.785 560.085L476.175 627.6C476.175 627.6 457.77 544.2 458.58 542.325C459.405 540.435 429.15 510.345 429.15 510.345Z" fill="white"/>
<path d="M337.575 749.295C337.515 749.565 332.595 777 329.82 807.045C329.775 807.615 329.715 808.185 329.67 808.77C329.58 809.745 329.49 810.72 329.415 811.68C327.975 828.66 326.79 848.805 325.995 864H324.36C325.17 848.79 326.34 828.57 327.78 811.545C330.48 779.7 335.925 749.325 335.985 749.01L337.59 749.31L337.575 749.295Z" fill="black"/>
<path d="M514.23 800.67C508.695 796.02 501.345 788.625 496.47 778.98C487.77 761.88 484.95 739.365 484.935 739.14L486.555 738.945C486.585 739.17 489.375 761.4 497.94 778.245C502.335 786.9 508.77 793.71 513.975 798.27C514.065 799.095 514.14 799.875 514.23 800.67Z" fill="black"/>
<path d="M183.99 383.715L298.59 301.86L337.605 352.185C337.605 352.185 250.155 426.03 242.37 431.295C234.6 436.575 220.005 439.2 218.91 439.2C217.815 439.2 192.18 416.55 190.83 414.915C189.48 413.28 184.005 383.7 184.005 383.7L183.99 383.715Z" fill="#FFBDA8"/>
<path d="M226.845 446.355C226.68 446.355 226.515 446.31 226.365 446.22C226.23 446.13 226.125 445.995 226.065 445.83C226.005 445.665 226.005 445.5 226.05 445.335C226.095 445.17 226.185 445.02 226.32 444.93L245.025 428.88C245.1 428.805 245.205 428.76 245.295 428.715C245.4 428.685 245.505 428.67 245.61 428.67C245.715 428.67 245.82 428.7 245.925 428.76C246.015 428.805 246.105 428.88 246.18 428.955C246.255 429.045 246.3 429.135 246.345 429.24C246.375 429.345 246.39 429.45 246.39 429.555C246.39 429.66 246.36 429.765 246.3 429.87C246.255 429.96 246.18 430.05 246.105 430.125L227.415 446.175C227.265 446.31 227.07 446.37 226.86 446.37L226.845 446.355Z" fill="black"/>
<path d="M337.575 352.185C359.37 344.235 381.06 333.03 389.1 309.75C391.23 303.57 391.905 297.015 393.12 290.625C394.11 285.42 395.13 280.215 396.375 275.07C398.22 267.495 393.915 259.335 386.97 265.455C380.01 271.575 379.2 288.78 374.895 293.895C370.59 299.01 365.685 299.01 362.82 294.51C359.955 290.01 351.975 275.475 351.165 275.28C350.34 275.07 312.285 285.105 311.265 285.915C310.245 286.74 298.56 301.86 298.56 301.86C298.56 301.86 307.965 331.335 308.175 332.565C308.385 333.795 337.575 352.185 337.575 352.185Z" fill="#FFBDA8"/>
<path d="M342.555 265.755C342.555 265.755 347.67 243.765 359.535 237.63C371.4 231.495 379.995 237.9 385.035 243.225C388.71 247.095 398.49 259.83 388.815 262.59C383.91 264 379.845 260.52 376.41 257.52C374.46 255.825 371.82 254.145 369.21 253.68C365.715 253.065 364.77 255.57 363.81 258.42C361.44 265.515 360.33 273.555 360.33 281.01V282.315C360.63 290.925 362.31 294.495 363.72 295.71C365.13 296.925 367.695 302.745 364.62 301.83C361.56 300.93 350.805 300.615 349.38 298.47C347.955 296.325 344.16 295.815 344.055 286.5C343.95 277.185 342.54 265.74 342.54 265.74L342.555 265.755Z" fill="#FFBDA8"/>
<path d="M333.21 326.82C333.21 326.82 333.075 326.82 333 326.79C332.895 326.76 332.79 326.715 332.715 326.655C332.625 326.595 332.55 326.505 332.505 326.415C332.445 326.325 332.415 326.22 332.4 326.115C332.4 326.01 332.4 325.905 332.415 325.8C332.505 325.44 334.77 316.995 344.415 308.85C352.185 302.265 364.995 298.53 365.52 298.38C365.625 298.35 365.73 298.335 365.835 298.35C365.94 298.365 366.045 298.395 366.135 298.44C366.225 298.485 366.315 298.56 366.375 298.65C366.435 298.74 366.495 298.83 366.525 298.935C366.555 299.04 366.57 299.145 366.555 299.25C366.555 299.355 366.51 299.46 366.45 299.55C366.405 299.64 366.33 299.73 366.24 299.79C366.15 299.85 366.06 299.91 365.955 299.94C365.82 299.97 352.95 303.735 345.45 310.08C336.24 317.88 334.005 326.115 333.99 326.22C333.945 326.385 333.84 326.535 333.69 326.655C333.54 326.76 333.375 326.82 333.195 326.805L333.21 326.82Z" fill="black"/>
<path d="M634.47 383.925C634.47 383.925 629.31 411.93 627.975 413.58C626.64 415.23 601.23 438.15 600.135 438.165C599.04 438.18 586.545 439.785 578.745 434.58C573.375 431.01 538.35 393.645 516.885 370.545C512.49 365.775 508.65 361.635 505.77 358.515L500.16 352.425L538.635 301.68L551.73 312.9L564.18 323.61L634.47 383.91V383.925Z" fill="#FFBDA8"/>
<path d="M500.175 352.425C478.32 344.715 456.495 333.735 448.2 310.545C445.995 304.395 445.26 297.84 443.985 291.465C442.95 286.275 441.855 281.085 440.55 275.955C438.63 268.41 442.17 258.765 449.175 264.825C456.18 270.885 457.89 289.47 462.24 294.54C466.59 299.61 471.525 299.55 474.315 295.02C477.105 290.49 484.95 275.88 485.775 275.655C486.6 275.43 524.745 285.06 525.78 285.87C526.815 286.68 538.65 301.68 538.65 301.68C538.65 301.68 529.56 331.26 529.365 332.49C529.17 333.72 500.175 352.425 500.175 352.425Z" fill="#FFBDA8"/>
<path d="M494.25 266.07C494.25 266.07 488.895 244.14 476.955 238.125C465.015 232.11 456.495 238.62 451.515 243.99C447.885 247.905 438.24 260.745 447.945 263.4C452.865 264.75 456.885 261.225 460.29 258.195C462.225 256.47 464.85 254.775 467.445 254.28C470.94 253.62 471.915 256.125 472.89 258.96C475.335 266.025 476.52 274.065 476.625 281.52V282.825C476.415 291.435 474.78 295.035 473.4 296.265C472.02 297.495 469.5 303.345 472.56 302.4C475.62 301.47 486.36 301.035 487.77 298.875C489.18 296.715 492.96 296.16 492.96 286.845C492.96 277.53 494.235 266.07 494.235 266.07H494.25Z" fill="#FFBDA8"/>
<path d="M504.24 327.03C504.06 327.03 503.88 326.985 503.73 326.865C503.58 326.76 503.475 326.595 503.43 326.415C503.4 326.34 501.09 318.12 491.79 310.425C484.215 304.155 471.315 300.54 471.18 300.495C470.97 300.435 470.79 300.3 470.685 300.105C470.58 299.91 470.55 299.685 470.61 299.49C470.67 299.28 470.805 299.1 471 298.995C471.195 298.89 471.405 298.86 471.63 298.92C472.17 299.07 484.995 302.67 492.84 309.165C502.56 317.235 504.945 325.635 505.02 325.995C505.05 326.1 505.065 326.205 505.05 326.31C505.05 326.415 505.005 326.52 504.945 326.61C504.885 326.7 504.825 326.79 504.735 326.85C504.645 326.91 504.555 326.955 504.45 326.985C504.39 327 504.315 327.015 504.255 327.015L504.24 327.03Z" fill="black"/>
<path d="M593.385 451.335C593.28 451.335 593.16 451.32 593.055 451.275C592.95 451.23 592.86 451.17 592.785 451.08L576.69 433.815C576.54 433.65 576.465 433.44 576.465 433.23C576.465 433.005 576.57 432.81 576.735 432.66C576.9 432.51 577.11 432.435 577.32 432.45C577.545 432.45 577.74 432.555 577.89 432.72L593.985 449.985C594.105 450.105 594.18 450.24 594.21 450.405C594.24 450.57 594.21 450.72 594.15 450.87C594.09 451.02 593.97 451.14 593.835 451.23C593.7 451.32 593.535 451.365 593.37 451.35L593.385 451.335Z" fill="black"/>
<path d="M389.415 528.705C389.31 528.705 389.205 528.69 389.1 528.645C388.995 528.6 388.92 528.54 388.845 528.465L368.175 508.065C368.025 507.915 367.935 507.705 367.935 507.495C367.935 507.27 368.025 507.075 368.175 506.91C368.325 506.76 368.535 506.67 368.76 506.67C368.97 506.67 369.18 506.76 369.345 506.91L389.34 526.635L403.8 507C403.875 506.91 403.965 506.82 404.07 506.775C404.175 506.73 404.28 506.685 404.4 506.67C404.52 506.67 404.64 506.67 404.745 506.715C404.85 506.76 404.955 506.82 405.045 506.91L422.16 524.235L430.74 510.195C430.86 510.015 431.04 509.88 431.25 509.835C431.46 509.79 431.685 509.82 431.865 509.94C432.045 510.06 432.18 510.24 432.225 510.45C432.27 510.66 432.24 510.885 432.12 511.065L423 525.99C422.94 526.095 422.85 526.185 422.745 526.26C422.64 526.335 422.52 526.365 422.4 526.38C422.28 526.395 422.145 526.38 422.04 526.335C421.92 526.29 421.815 526.23 421.725 526.14L404.55 508.755L390.09 528.375C390.015 528.465 389.925 528.54 389.82 528.6C389.715 528.66 389.61 528.69 389.49 528.705H389.43H389.415Z" fill="black"/>
<path d="M410.88 524.94C410.67 524.94 410.475 524.865 410.325 524.73C410.175 524.595 410.085 524.4 410.07 524.205L409.665 519.675C409.665 519.57 409.665 519.465 409.695 519.36C409.725 519.255 409.785 519.165 409.845 519.09C409.92 519.015 409.995 518.94 410.085 518.895C410.175 518.85 410.28 518.82 410.385 518.805C410.49 518.805 410.595 518.805 410.7 518.835C410.805 518.865 410.895 518.925 410.97 518.985C411.045 519.045 411.12 519.135 411.165 519.225C411.21 519.315 411.24 519.42 411.255 519.525L411.66 524.055C411.66 524.16 411.66 524.265 411.63 524.37C411.6 524.475 411.54 524.565 411.48 524.655C411.405 524.745 411.33 524.805 411.225 524.85C411.135 524.895 411.03 524.925 410.91 524.94H410.85H410.88Z" fill="black"/>
<path d="M417.93 586.17C417.72 586.17 417.525 586.095 417.375 585.96C417.225 585.825 417.135 585.63 417.12 585.42L416.715 580.89C416.7 580.68 416.76 580.47 416.91 580.305C417.045 580.14 417.24 580.035 417.465 580.02C417.675 580.005 417.885 580.065 418.05 580.2C418.215 580.335 418.32 580.53 418.335 580.755L418.74 585.285C418.74 585.39 418.74 585.495 418.71 585.6C418.68 585.705 418.62 585.795 418.56 585.885C418.5 585.975 418.41 586.035 418.305 586.08C418.215 586.125 418.11 586.155 417.99 586.17H417.93Z" fill="black"/>
<path d="M423.765 647.565C423.555 647.565 423.36 647.49 423.21 647.355C423.06 647.22 422.97 647.025 422.955 646.815L422.55 642.285C422.55 642.18 422.55 642.075 422.58 641.97C422.61 641.865 422.67 641.775 422.73 641.685C422.805 641.595 422.88 641.535 422.985 641.49C423.075 641.445 423.18 641.415 423.3 641.4C423.405 641.4 423.51 641.4 423.615 641.43C423.72 641.46 423.81 641.52 423.9 641.58C423.975 641.655 424.05 641.73 424.095 641.835C424.14 641.925 424.17 642.03 424.185 642.15L424.59 646.68C424.59 646.785 424.59 646.89 424.56 646.995C424.53 647.1 424.47 647.19 424.41 647.28C424.335 647.355 424.26 647.43 424.155 647.475C424.05 647.52 423.96 647.55 423.84 647.565H423.765Z" fill="black"/>
<path d="M429.33 712.665C429.12 712.665 428.925 712.59 428.775 712.455C428.625 712.32 428.535 712.125 428.52 711.915L428.115 707.385C428.115 707.28 428.115 707.175 428.145 707.07C428.175 706.965 428.235 706.875 428.295 706.8C428.37 706.71 428.445 706.65 428.535 706.605C428.625 706.56 428.73 706.53 428.835 706.515C428.94 706.515 429.045 706.515 429.15 706.545C429.255 706.575 429.345 706.635 429.42 706.695C429.495 706.77 429.57 706.845 429.615 706.935C429.66 707.025 429.69 707.13 429.705 707.235L430.11 711.765C430.11 711.87 430.11 711.975 430.08 712.08C430.05 712.185 429.99 712.275 429.93 712.365C429.855 712.455 429.78 712.515 429.675 712.56C429.585 712.605 429.48 712.635 429.375 712.65H429.315L429.33 712.665Z" fill="black"/>
<path d="M300.75 620.4H300.6C300.495 620.385 300.39 620.34 300.3 620.28C300.21 620.22 300.135 620.145 300.075 620.055C300.015 619.965 299.97 619.86 299.94 619.755C299.925 619.65 299.925 619.545 299.94 619.44L323.52 489.36C323.565 489.15 323.685 488.955 323.865 488.835C324.045 488.715 324.27 488.67 324.48 488.7C324.69 488.745 324.885 488.865 325.005 489.045C325.125 489.225 325.17 489.45 325.14 489.66L301.56 619.725C301.53 619.905 301.425 620.085 301.275 620.205C301.125 620.325 300.945 620.385 300.75 620.385V620.4Z" fill="black"/>
<path d="M502.665 611.55C502.485 611.55 502.32 611.49 502.17 611.385C502.02 611.28 501.93 611.13 501.87 610.95L469.62 496.995C469.56 496.785 469.59 496.56 469.695 496.365C469.8 496.17 469.98 496.035 470.19 495.975C470.4 495.915 470.625 495.945 470.805 496.05C471 496.155 471.135 496.335 471.195 496.545L503.43 610.5C503.46 610.605 503.475 610.71 503.46 610.815C503.46 610.92 503.415 611.025 503.355 611.115C503.295 611.205 503.235 611.295 503.145 611.355C503.055 611.415 502.965 611.475 502.86 611.505C502.785 611.52 502.725 611.535 502.65 611.535L502.665 611.55Z" fill="black"/>
<path d="M611.31 673.02C609.585 673.02 608.235 672.585 607.32 671.73C601.38 666.27 614.715 643.14 626.955 624.705C644.76 597.885 662.97 581.655 681.045 569.115C680.715 555.66 678.675 540.99 674.91 525.135C667.08 492.18 653.64 462.015 643.755 442.515C637.44 432.315 580.05 340.83 524.175 297.24C511.53 287.37 490.365 270.87 458.82 266.25C448.995 264.81 438.93 264.645 428.88 265.755L428.625 263.52C438.855 262.395 449.115 262.56 459.135 264.015C491.28 268.71 512.73 285.45 525.555 295.455C581.745 339.285 639.33 431.085 645.705 441.405C655.695 461.1 669.21 491.43 677.1 524.595C680.775 540.03 682.815 554.37 683.25 567.585C691.515 561.975 699.765 557.085 707.91 552.225C729.345 539.49 751.515 526.32 772.68 500.715C820.305 443.13 827.115 378 809.205 343.41C803.94 333.225 797.7 325.815 791.52 320.445C790.095 323.46 788.34 326.25 786.3 328.74C770.7 347.79 738.36 348.945 720.435 345.075C710.505 342.93 704.19 339.36 703.095 335.265C702.33 332.415 703.86 328.695 707.535 324.525C716.61 314.205 739.74 301.065 762.795 304.14C772.77 305.475 782.115 309.705 790.665 316.77C793.635 309.195 794.7 300.225 793.71 290.565C791.445 268.395 778.77 246.465 758.955 230.415L760.365 228.66C780.645 245.085 793.62 267.555 795.945 290.325C796.995 300.66 795.78 310.245 792.465 318.315C794.01 319.68 795.54 321.15 797.04 322.71C804.825 330.81 809.535 339.18 811.2 342.39C822.255 363.72 823.785 391.425 815.655 422.49C808.29 450.615 793.65 478.905 774.405 502.155C752.985 528.045 730.65 541.32 709.05 554.16C700.545 559.215 691.935 564.33 683.295 570.255C683.745 596.955 677.445 618.93 664.44 635.88C650.04 654.66 623.745 671.94 612.315 672.93C611.97 672.96 611.625 672.975 611.295 672.975L611.31 673.02ZM681.075 571.86C663.585 584.16 646.005 600.09 628.83 625.965C613.185 649.545 605.34 666.87 608.835 670.095C609.45 670.65 610.59 670.875 612.12 670.74C622.875 669.81 648.825 652.59 662.655 634.56C675.09 618.345 681.24 597.345 681.06 571.86H681.075ZM755.79 305.97C735.915 305.97 717.09 317.115 709.23 326.055C706.17 329.535 704.73 332.7 705.27 334.725C706.095 337.83 712.245 341.055 720.915 342.915C738.3 346.665 769.605 345.63 784.56 327.36C786.615 324.855 788.34 322.05 789.735 318.99C777.42 309.015 765.675 306.825 762.495 306.405C760.26 306.105 758.01 305.97 755.79 305.97Z" fill="black"/>
<path d="M538.635 301.68C538.635 301.68 541.545 287.235 538.395 279.48C535.245 271.725 527.37 272.13 527.37 272.13C527.37 272.13 526.8 266.745 523.29 263.955C519.78 261.15 514.785 262.14 514.785 262.14C514.785 262.14 515.235 256.41 507.435 254.655C499.275 252.825 491.07 264.945 490.17 266.295C487.185 270.765 485.595 275.76 484.485 279.285C483.48 282.465 482.865 285.18 482.505 287.085C484.26 297.555 486.855 300.405 489.075 300.84C491.985 301.41 495.015 297.99 496.77 299.31C498.09 300.3 496.695 302.475 498.24 305.175C499.275 306.975 501.27 308.445 503.565 308.76C507.645 309.33 510.465 305.985 510.63 305.79C510.6 306 510.135 310.11 513.225 312.48C513.39 312.6 516.15 314.655 519.045 313.59C520.905 312.9 521.805 311.295 522.63 309.75C524.415 306.435 523.74 304.755 524.985 300.705C525.315 299.625 527.07 293.805 528.945 293.895C530.145 293.955 530.235 296.355 532.41 298.605C534.315 300.57 536.745 301.335 538.635 301.665V301.68Z" fill="#FFBDA8"/>
<path d="M491.16 301.725C490.11 301.725 489.075 301.545 488.1 301.17C485.685 300.21 483.945 298.11 482.85 294.915C478.755 282.66 490.995 263.295 491.52 262.47C491.64 262.29 491.82 262.155 492.03 262.11C492.24 262.065 492.465 262.11 492.645 262.215C492.825 262.335 492.96 262.515 493.005 262.725C493.05 262.935 493.005 263.16 492.9 263.34C492.78 263.535 480.555 282.87 484.395 294.39C485.295 297.12 486.75 298.875 488.67 299.64C491.94 300.93 495.585 298.995 495.63 298.98C495.825 298.875 496.05 298.86 496.26 298.92C496.365 298.95 496.455 298.995 496.545 299.07C496.635 299.145 496.695 299.22 496.755 299.31C496.8 299.4 496.83 299.505 496.845 299.61C496.845 299.715 496.845 299.82 496.815 299.925C496.785 300.03 496.74 300.12 496.665 300.21C496.59 300.3 496.515 300.36 496.425 300.42C494.79 301.245 492.99 301.695 491.16 301.74V301.725Z" fill="black"/>
<path d="M503.625 309.765C502.59 309.765 501.57 309.51 500.64 309.06C498.75 308.175 492.975 303.765 497.955 283.92C501.93 268.065 512.82 262.2 513.285 261.96C513.48 261.855 513.705 261.84 513.9 261.9C514.11 261.96 514.275 262.11 514.38 262.305C514.485 262.5 514.5 262.725 514.44 262.92C514.38 263.115 514.23 263.295 514.035 263.4C513.93 263.46 503.325 269.205 499.545 284.325C495.825 299.145 498.195 306.12 501.33 307.575C506.4 309.93 509.475 303.87 509.595 303.615C509.685 303.42 509.865 303.27 510.06 303.21C510.27 303.135 510.495 303.15 510.69 303.255C510.885 303.345 511.035 303.525 511.11 303.72C511.185 303.93 511.17 304.155 511.065 304.35C509.985 306.495 507.315 309.765 503.625 309.765Z" fill="black"/>
<path d="M516.6 314.685C515.22 314.685 513.885 314.19 512.865 313.275C510.975 311.61 510.3 308.925 509.835 306.285C509.085 301.935 509.505 296.97 511.11 291.12C515.085 276.735 525.525 272.07 525.975 271.875C526.08 271.83 526.185 271.815 526.29 271.815C526.395 271.815 526.5 271.83 526.605 271.875C526.71 271.92 526.8 271.98 526.875 272.055C526.95 272.13 527.01 272.22 527.055 272.31C527.1 272.415 527.115 272.52 527.115 272.625C527.115 272.73 527.1 272.835 527.055 272.94C527.01 273.045 526.95 273.135 526.875 273.21C526.8 273.285 526.71 273.345 526.62 273.39C526.515 273.435 516.435 277.965 512.685 291.555C511.14 297.165 510.735 301.89 511.44 306C511.845 308.355 512.43 310.71 513.945 312.06C516 313.875 519.06 313.005 520.83 311.085C522.6 309.18 523.125 306.465 523.65 303.825C523.845 302.835 524.055 301.875 524.295 300.96C524.955 298.545 527.67 292.335 527.79 292.08C527.88 291.885 528.045 291.72 528.24 291.645C528.345 291.6 528.45 291.585 528.555 291.585C528.66 291.585 528.765 291.615 528.87 291.66C528.975 291.705 529.05 291.765 529.125 291.84C529.2 291.915 529.26 292.005 529.305 292.11C529.335 292.215 529.365 292.32 529.365 292.425C529.365 292.53 529.335 292.635 529.29 292.74C529.26 292.8 526.515 299.085 525.885 301.395C525.645 302.28 525.45 303.21 525.255 304.155C524.67 307.035 524.07 310.02 522.03 312.225C521.34 312.975 520.5 313.59 519.555 314.01C518.625 314.43 517.605 314.67 516.585 314.7L516.6 314.685Z" fill="black"/>
<path d="M429.915 244.515V279.81C438.795 279.465 445.89 271.71 445.89 262.17C445.89 252.63 438.795 244.86 429.915 244.515Z" fill="white"/>
<path d="M430.11 244.485H429.63C426.36 244.485 423.705 247.14 423.705 250.41V273.93C423.705 277.2 426.36 279.855 429.63 279.855H430.11C433.38 279.855 436.035 277.2 436.035 273.93V250.41C436.035 247.14 433.38 244.485 430.11 244.485Z" fill="#CBD5E1"/>
<path d="M432.285 251.685C432.285 251.205 432.15 250.74 431.88 250.35C431.61 249.96 431.235 249.645 430.8 249.465C430.365 249.285 429.885 249.24 429.405 249.33C428.94 249.42 428.505 249.645 428.175 249.99C427.845 250.32 427.605 250.755 427.515 251.22C427.425 251.685 427.47 252.165 427.65 252.615C427.83 253.05 428.145 253.425 428.535 253.695C428.925 253.965 429.39 254.1 429.87 254.1C430.185 254.1 430.5 254.04 430.785 253.92C431.07 253.8 431.34 253.62 431.565 253.395C431.79 253.17 431.97 252.915 432.09 252.615C432.21 252.315 432.27 252.015 432.27 251.7L432.285 251.685Z" fill="black"/>
<path d="M432.285 271.14C432.285 270.66 432.15 270.195 431.88 269.805C431.61 269.415 431.235 269.1 430.8 268.92C430.365 268.74 429.87 268.695 429.405 268.785C428.94 268.875 428.505 269.1 428.175 269.445C427.83 269.775 427.605 270.21 427.515 270.675C427.425 271.14 427.47 271.62 427.65 272.07C427.83 272.505 428.145 272.88 428.535 273.15C428.925 273.405 429.39 273.555 429.87 273.555C430.5 273.555 431.115 273.3 431.565 272.85C432.015 272.4 432.27 271.785 432.27 271.155L432.285 271.14Z" fill="black"/>
<path d="M761.835 230.325C762.81 229.545 764.265 228.36 764.52 226.455C764.58 225.99 764.655 224.88 763.905 223.485C774.135 215.94 768.72 205.11 763.425 196.365C761.4 193.185 759.675 189.72 757.2 186.855C747.06 170.685 753.39 164.535 756.6 148.155C758.895 135.15 755.85 121.155 747.435 110.85C743.01 104.88 737.7 99.45 730.905 96.225C723.525 92.235 715.185 89.55 706.74 90.75C686.85 92.265 669.795 100.92 660.585 119.22C654.75 130.905 652.65 145.32 657.93 157.575C661.935 166.2 667.455 174.405 674.79 180.51C680.25 185.175 687 187.83 693.6 190.425C700.35 192.975 710.025 198.015 715.665 203.4C718.05 205.41 720.06 207.795 721.755 210.405C724.65 216.57 728.115 222.51 732.39 227.835C737.385 234.015 744.375 234.615 751.2 231.03C751.935 232.11 752.73 232.56 753.21 232.77C755.325 233.685 757.65 232.59 759.555 231.675C760.23 231.36 760.98 231 761.835 230.295V230.325ZM717.27 201.27C710.91 195.525 703.245 191.475 695.34 188.295C685.395 184.635 676.32 180.15 670.035 172.02C661.365 161.88 655.035 147.705 658.335 133.995C661.125 120.615 668.07 109.305 679.605 101.715C689.76 95.37 708.54 90.93 719.82 94.47C728.895 97.44 736.47 101.43 742.785 109.32C748.2 115.635 752.1 122.205 753.69 130.365C759.21 154.485 740.4 165.255 754.23 186.945C750.405 189.06 746.58 191.205 742.875 193.53C742.665 192.435 741.78 191.55 741.285 190.545C737.055 183.585 733.785 176.07 729.09 169.41C727.38 166.875 725.385 164.535 723.765 161.925C721.485 158.025 720.585 154.905 719.445 150.795C726.075 147.855 734.04 136.08 727.71 129.735C724.56 127.245 720.825 130.5 719.205 133.275C716.325 137.985 715.515 143.91 716.43 149.22C714.18 150.12 711.39 150.54 709.185 149.895C709.53 142.98 708.18 133.26 702.915 128.325C700.89 126.63 698.295 127.035 697.14 129.495C696.015 132.075 696.33 135.075 696.78 137.79C697.725 141.345 699.36 144.72 701.22 147.87C702.3 149.865 704.205 151.245 706.35 151.92C706.125 153.885 705.36 156.435 704.37 158.415C700.275 155.46 694.605 152.1 689.685 155.145C685.5 158.1 685.05 163.485 689.31 166.59C694.605 169.53 701.94 167.34 705.18 162.345C710.28 166.5 713.64 172.02 717.885 178.02C722.91 185.28 727.905 192.555 732.99 199.77C729.39 202.005 725.745 204.165 722.115 206.37C720.72 204.465 718.995 202.845 717.24 201.285L717.27 201.27ZM718.965 148.05C718.185 143.745 719.37 137.28 722.07 133.77C723.465 132.225 724.26 131.28 725.7 131.58C730.605 135.495 723.735 145.86 718.95 148.05H718.965ZM725.565 168.99C731.685 176.955 735.15 186.69 740.955 194.76C739.065 195.975 737.16 197.19 735.24 198.375C729.615 190.245 722.64 180.165 716.79 171.765C713.775 167.535 710.7 163.23 706.56 160.02C707.715 157.665 708.645 155.145 708.96 152.535C711.645 153.18 714.42 152.76 716.985 151.815C717.975 155.595 719.295 159.465 721.26 162.885C722.52 165.03 724.11 166.95 725.565 168.975V168.99ZM702.93 145.44C700.32 140.535 697.935 135.66 699.585 130.575C700.485 128.715 702.42 131.46 703.215 132.87C704.115 134.61 704.115 134.7 704.73 136.365C706.335 140.595 706.635 144.165 706.56 149.145C704.715 148.305 704.28 147.87 702.915 145.455L702.93 145.44ZM703.08 160.725C701.31 163.485 699.15 164.415 696.33 165.075C695.235 165.315 695.835 165.24 694.875 165.285C693.42 165.255 691.845 165.03 690.465 164.13C689.76 163.38 690.225 163.95 689.625 163.035C689.19 162.18 688.995 161.91 688.98 160.785C689.325 159.18 690.36 157.62 691.92 156.99C695.94 155.535 699.93 158.595 703.095 160.725H703.08ZM732.03 222.93C730.68 220.95 729.375 218.94 728.13 216.9C730.35 215.49 732.54 214.05 734.76 212.64C735.675 212.055 736.605 211.47 737.535 210.9C738.075 210.645 738.54 210.075 738.42 209.43C738.375 208.77 737.76 208.275 737.115 208.26C736.155 208.365 735.405 209.175 734.55 209.61C731.985 211.26 729.375 212.895 726.84 214.59C725.775 212.58 724.8 210.525 723.795 208.485C734.55 202.23 744.78 195.075 755.745 189.18C758.76 193.56 761.625 198.39 764.1 203.055C753.45 209.73 742.935 216.645 732.045 222.93H732.03ZM750.675 228.36C743.505 232.215 738 231.075 733.575 225.12C744.345 218.925 754.71 212.07 765.255 205.485C767.43 210.36 768.21 215.55 764.235 219.675C760.365 223.41 755.37 225.885 750.69 228.375L750.675 228.36ZM755.01 230.49C754.485 230.505 753.99 230.22 753.645 229.83C756.405 228.375 759.12 226.815 761.7 225.075C761.88 225.555 761.97 226.095 761.775 226.59C761.4 228 756.015 230.685 754.995 230.49H755.01Z" fill="black"/>
<path d="M741.045 208.545C741.9 208.155 742.11 207.03 741.435 206.37C740.58 205.47 738.825 206.325 739.065 207.555C739.125 208.47 740.28 209.025 741.045 208.545Z" fill="black"/>
<path d="M744.81 206.205C748.98 203.655 753.375 201.51 757.53 198.945C758.325 198.345 759.585 198.075 759.93 197.07C760.17 196.26 759.495 195.39 758.64 195.39C757.845 195.435 757.23 196.095 756.54 196.425C752.37 199.035 747.945 201.18 743.76 203.73C741.945 204.45 743.025 207.09 744.81 206.205Z" fill="black"/>
<path d="M398.67 436.17C397.35 436.17 396.015 436.065 394.68 435.84C393.45 435.63 392.625 434.475 392.835 433.245C393.045 432.015 394.2 431.19 395.43 431.4C397.965 431.82 400.5 431.745 402.975 431.175C404.76 430.755 406.47 430.095 408.075 429.18C409.155 428.565 410.535 428.94 411.135 430.02C411.75 431.1 411.375 432.48 410.295 433.08C408.315 434.205 406.2 435.03 403.995 435.54C402.24 435.945 400.47 436.155 398.67 436.155V436.17Z" fill="black"/>
<path d="M416.355 429.915C415.185 429.915 414.195 429 414.105 427.815C414.03 426.75 414.09 424.02 416.085 421.545C418.335 418.77 421.455 418.32 422.355 418.245C423.6 418.155 424.68 419.07 424.785 420.3C424.89 421.53 423.96 422.625 422.73 422.73C422.4 422.76 420.735 422.955 419.595 424.38C418.56 425.655 418.575 427.11 418.605 427.515C418.695 428.76 417.75 429.825 416.505 429.915C416.46 429.915 416.4 429.915 416.355 429.915Z" fill="black"/>
<path d="M367.965 267.57C335.235 277.95 318.48 300.06 300.735 323.475C294 332.355 287.04 341.55 278.955 350.46C255.06 376.815 222.24 399.465 188.94 412.62C166.32 421.56 144.465 425.79 125.01 425.19C119.34 410.07 111.255 400.275 103.47 393.93C86.28 379.95 62.385 375.33 52.455 377.49C49.92 378.045 48.285 379.035 47.595 380.43C46.98 381.675 47.07 383.325 47.865 385.335C51.45 394.44 71.13 413.115 93.78 421.62C102.765 424.995 112.74 426.915 123.42 427.38C129.81 445.245 132.81 470.535 128.07 506.295C121.695 554.46 101.655 581.625 85.56 603.45C70.155 624.345 57.99 640.845 61.35 667.11C65.1 696.345 87.285 724.545 123.84 746.55C131.265 751.02 139.035 755.055 146.865 758.61C122.43 766.95 98.13 779.04 80.37 793.77C63.465 807.795 55.05 822.675 56.055 836.82C56.715 846.105 61.47 855.21 70.17 864.03H73.35C64.005 855.12 58.965 845.955 58.305 836.67C57.36 823.29 65.49 809.055 81.81 795.51C97.8 782.25 123.645 769.185 150.285 760.14C181.905 773.85 214.29 779.49 231.3 773.07C243.6 768.435 249.45 763.965 249.195 759.405C248.865 753.48 238.005 749.955 229.86 747.81C212.505 743.25 181.425 747.27 150.09 757.545C141.495 753.795 133.02 749.46 124.995 744.645C89.04 723.015 67.23 695.385 63.57 666.855C60.315 641.49 72.255 625.305 87.36 604.815C103.605 582.78 123.825 555.375 130.29 506.625C135 471.045 132.12 445.635 125.82 427.5C145.365 427.95 167.205 423.675 189.765 414.75C223.38 401.475 256.5 378.6 280.62 352.005C288.765 343.02 295.755 333.795 302.52 324.87C320.04 301.755 336.585 279.915 368.64 269.76C380.43 266.025 392.985 264.27 405.93 264.525L405.975 262.275C392.76 262.02 379.995 263.805 367.965 267.615V267.57ZM94.575 419.52C72.495 411.225 53.4 393.24 49.95 384.525C49.41 383.175 49.29 382.08 49.605 381.45C49.965 380.715 51.15 380.1 52.935 379.71C54.345 379.41 56.055 379.245 57.99 379.245C69.315 379.245 88.38 384.555 102.06 395.685C109.44 401.685 117.09 410.925 122.58 425.1C112.5 424.575 103.08 422.715 94.59 419.52H94.575ZM229.305 749.94C240.84 752.97 246.78 756.18 246.96 759.48C247.065 761.4 245.07 765.42 230.52 770.91C214.71 776.865 183.825 771.585 153.6 758.985C182.055 749.685 210.975 745.125 229.305 749.94Z" fill="black"/>
<path d="M298.545 301.845C298.545 301.845 295.47 287.43 298.545 279.66C301.62 271.89 309.495 272.19 309.495 272.19C309.495 272.19 310.005 266.805 313.485 263.97C316.965 261.135 321.96 262.05 321.96 262.05C321.96 262.05 321.45 256.32 329.22 254.475C336.765 252.69 344.34 262.845 346.605 265.935C348.42 268.395 352.08 274.05 353.055 282.12C353.61 286.68 354.72 295.845 349.47 299.205C346.305 301.23 342.24 300.255 340.335 299.64C340.71 304.62 337.29 308.52 333.615 308.73C331.095 308.88 328.545 307.275 327.045 304.77C327.12 305.625 327.165 307.725 325.935 309.855C325.545 310.53 323.835 313.47 320.73 313.695C318.045 313.89 316.11 311.925 315.525 311.34C313.815 309.6 313.635 307.875 313.05 306.63C311.97 304.38 308.67 301.995 298.545 301.815V301.845Z" fill="#FFBDA8"/>
<path d="M345.93 301.395C344.13 301.365 342.36 300.93 340.74 300.15C340.65 300.105 340.56 300.03 340.485 299.955C340.41 299.88 340.365 299.775 340.335 299.67C340.305 299.565 340.29 299.46 340.305 299.355C340.305 299.25 340.35 299.145 340.395 299.055C340.44 298.965 340.515 298.875 340.59 298.8C340.68 298.725 340.77 298.68 340.875 298.65C340.98 298.62 341.085 298.605 341.19 298.62C341.295 298.62 341.4 298.665 341.49 298.71C341.52 298.725 345.225 300.615 348.465 299.295C350.385 298.485 351.795 296.73 352.68 294C356.4 282.435 343.965 263.25 343.845 263.055C343.785 262.965 343.74 262.86 343.725 262.755C343.71 262.65 343.71 262.545 343.725 262.44C343.74 262.335 343.785 262.23 343.845 262.14C343.905 262.05 343.98 261.975 344.07 261.915C344.16 261.855 344.265 261.81 344.37 261.795C344.475 261.78 344.58 261.78 344.685 261.795C344.79 261.81 344.895 261.855 344.985 261.915C345.075 261.975 345.15 262.05 345.21 262.14C345.75 262.95 358.2 282.18 354.24 294.48C353.205 297.705 351.465 299.82 349.08 300.795C348.075 301.2 347.01 301.395 345.915 301.395H345.93Z" fill="black"/>
<path d="M333.585 309.555C329.925 309.555 327.24 306.33 326.16 304.215C326.07 304.02 326.04 303.795 326.115 303.585C326.175 303.375 326.325 303.21 326.52 303.105C326.715 303 326.94 302.985 327.15 303.06C327.36 303.12 327.525 303.27 327.63 303.465C327.765 303.72 330.9 309.735 335.94 307.335C339.075 305.835 341.355 298.845 337.485 284.055C333.525 268.95 322.875 263.355 322.77 263.295C322.575 263.19 322.425 263.025 322.365 262.815C322.305 262.605 322.32 262.38 322.41 262.185C322.515 261.99 322.68 261.84 322.89 261.78C323.1 261.72 323.325 261.735 323.52 261.825C323.985 262.065 334.935 267.81 339.075 283.62C344.265 303.405 338.535 307.89 336.66 308.79C335.715 309.27 334.68 309.525 333.615 309.525L333.585 309.555Z" fill="black"/>
<path d="M320.655 314.625C319.635 314.595 318.63 314.37 317.715 313.95C316.785 313.53 315.945 312.945 315.255 312.195C313.17 310.005 312.54 307.035 311.925 304.155C311.73 303.21 311.52 302.28 311.28 301.41C310.62 299.1 307.8 292.86 307.77 292.8C307.68 292.605 307.68 292.38 307.755 292.17C307.83 291.96 307.98 291.795 308.19 291.705C308.385 291.615 308.61 291.615 308.82 291.69C309.03 291.765 309.18 291.915 309.27 292.125C309.39 292.395 312.165 298.545 312.855 300.975C313.11 301.89 313.32 302.85 313.53 303.825C314.1 306.48 314.685 309.225 316.44 311.085C318.21 312.945 321.3 313.83 323.34 311.985C324.84 310.635 325.395 308.265 325.755 305.91C326.415 301.785 325.965 297.075 324.36 291.48C320.445 277.89 310.335 273.51 310.23 273.465C310.035 273.375 309.87 273.225 309.795 273.015C309.705 272.82 309.72 272.595 309.795 272.385C309.885 272.19 310.035 272.025 310.245 271.95C310.44 271.86 310.665 271.875 310.875 271.95C311.325 272.13 321.825 276.69 325.935 291.03C327.615 296.865 328.08 301.815 327.375 306.18C326.97 308.82 326.295 311.505 324.42 313.2C323.385 314.13 322.035 314.64 320.655 314.625Z" fill="black"/>
<path d="M415.62 253.275H404.775C404.355 253.275 403.95 253.11 403.65 252.81C403.35 252.51 403.185 252.105 403.185 251.685C403.185 251.265 403.35 250.86 403.65 250.56C403.95 250.26 404.355 250.095 404.775 250.095H415.62C416.04 250.095 416.445 250.26 416.745 250.56C417.045 250.86 417.21 251.265 417.21 251.685C417.21 252.105 417.045 252.51 416.745 252.81C416.445 253.11 416.04 253.275 415.62 253.275Z" fill="black"/>
<path d="M415.62 272.745H404.775C404.355 272.745 403.95 272.58 403.65 272.28C403.35 271.98 403.185 271.575 403.185 271.155C403.185 270.735 403.35 270.33 403.65 270.03C403.95 269.73 404.355 269.565 404.775 269.565H415.62C416.04 269.565 416.445 269.73 416.745 270.03C417.045 270.33 417.21 270.735 417.21 271.155C417.21 271.575 417.045 271.98 416.745 272.28C416.445 272.58 416.04 272.745 415.62 272.745Z" fill="black"/>
<path d="M406.995 244.5H406.605C397.44 244.5 390.015 252.42 390.015 262.185C390.015 271.95 397.44 279.87 406.605 279.87H406.995V244.5Z" fill="white"/>
</g>
<defs>
<clipPath id="clip0_318_1904">
<rect width="864" height="864" fill="white"/>
</clipPath>
</defs>
</svg>
