<?xml version="1.0"?>
<svg xmlns="http://www.w3.org/2000/svg" xmlns:xlink="http://www.w3.org/1999/xlink" xmlns:svgjs="http://svgjs.com/svgjs" version="1.1" width="512" height="512" x="0" y="0" viewBox="0 0 24 24" style="enable-background:new 0 0 512 512" xml:space="preserve" class=""><circle r="12" cx="12" cy="12" fill="#ffffff" shape="circle" transform="matrix(0.58,0,0,0.58,5.040000000000001,5.040000000000001)"/><g transform="matrix(0.7,0,0,0.7,3.6000000000000085,3.6000000000000085)"><path xmlns="http://www.w3.org/2000/svg" d="m19.25 0h-14.5c-1.517 0-2.75 1.233-2.75 2.75v18.5c0 1.517 1.233 2.75 2.75 2.75h14.5c1.517 0 2.75-1.233 2.75-2.75v-18.5c0-1.517-1.233-2.75-2.75-2.75zm-11 15.5h-.5v3.75c0 .414-.336.75-.75.75s-.75-.336-.75-.75v-3.75h-.5c-.414 0-.75-.336-.75-.75s.336-.75.75-.75h2.5c.414 0 .75.336.75.75s-.336.75-.75.75zm5.656 3.386c.201.362.071.819-.292 1.02-.115.064-.24.094-.364.094-.263 0-.519-.139-.656-.386l-.594-1.069-.594 1.07c-.137.246-.393.385-.656.385-.124 0-.249-.03-.364-.094-.362-.201-.493-.658-.292-1.02l1.048-1.886-1.048-1.886c-.201-.362-.071-.819.292-1.02.361-.202.818-.071 1.02.292l.594 1.069.594-1.07c.201-.362.659-.493 1.02-.292.362.201.493.658.292 1.02l-1.048 1.887zm4.344-3.386h-.5v3.75c0 .414-.336.75-.75.75s-.75-.336-.75-.75v-3.75h-.5c-.414 0-.75-.336-.75-.75s.336-.75.75-.75h2.5c.414 0 .75.336.75.75s-.336.75-.75.75z" fill="#6a6a6a" data-original="#000000" style="" class=""/></g></svg>
